%TF.GenerationSoftware,KiCad,Pcbnew,7.0.11+1*%
%TF.CreationDate,2024-04-28T17:00:00+02:00*%
%TF.ProjectId,QL_Minerva_MK2,514c5f4d-696e-4657-9276-615f4d4b322e,0.0*%
%TF.SameCoordinates,Original*%
%TF.FileFunction,Copper,L2,Bot*%
%TF.FilePolarity,Positive*%
%FSLAX46Y46*%
G04 Gerber Fmt 4.6, Leading zero omitted, Abs format (unit mm)*
G04 Created by KiCad (PCBNEW 7.0.11+1) date 2024-04-28 17:00:00*
%MOMM*%
%LPD*%
G01*
G04 APERTURE LIST*
G04 Aperture macros list*
%AMFreePoly0*
4,1,19,0.550000,-0.750000,0.000000,-0.750000,0.000000,-0.744911,-0.071157,-0.744911,-0.207708,-0.704816,-0.327430,-0.627875,-0.420627,-0.520320,-0.479746,-0.390866,-0.500000,-0.250000,-0.500000,0.250000,-0.479746,0.390866,-0.420627,0.520320,-0.327430,0.627875,-0.207708,0.704816,-0.071157,0.744911,0.000000,0.744911,0.000000,0.750000,0.550000,0.750000,0.550000,-0.750000,0.550000,-0.750000,
$1*%
%AMFreePoly1*
4,1,19,0.000000,0.744911,0.071157,0.744911,0.207708,0.704816,0.327430,0.627875,0.420627,0.520320,0.479746,0.390866,0.500000,0.250000,0.500000,-0.250000,0.479746,-0.390866,0.420627,-0.520320,0.327430,-0.627875,0.207708,-0.704816,0.071157,-0.744911,0.000000,-0.744911,0.000000,-0.750000,-0.550000,-0.750000,-0.550000,0.750000,0.000000,0.750000,0.000000,0.744911,0.000000,0.744911,
$1*%
G04 Aperture macros list end*
%TA.AperFunction,NonConductor*%
%ADD10C,0.200000*%
%TD*%
%ADD11C,0.254000*%
%TA.AperFunction,NonConductor*%
%ADD12C,0.254000*%
%TD*%
%TA.AperFunction,ComponentPad*%
%ADD13C,1.600000*%
%TD*%
%TA.AperFunction,ComponentPad*%
%ADD14C,1.000000*%
%TD*%
%TA.AperFunction,ComponentPad*%
%ADD15R,1.600000X1.600000*%
%TD*%
%TA.AperFunction,ComponentPad*%
%ADD16O,1.600000X1.600000*%
%TD*%
%TA.AperFunction,ComponentPad*%
%ADD17R,1.700000X1.700000*%
%TD*%
%TA.AperFunction,ComponentPad*%
%ADD18O,1.700000X1.700000*%
%TD*%
%TA.AperFunction,ComponentPad*%
%ADD19C,1.400000*%
%TD*%
%TA.AperFunction,ComponentPad*%
%ADD20O,1.400000X1.400000*%
%TD*%
%TA.AperFunction,ComponentPad*%
%ADD21R,1.200000X1.200000*%
%TD*%
%TA.AperFunction,ComponentPad*%
%ADD22C,1.200000*%
%TD*%
%TA.AperFunction,ComponentPad*%
%ADD23R,1.500000X1.500000*%
%TD*%
%TA.AperFunction,ComponentPad*%
%ADD24O,1.500000X1.500000*%
%TD*%
%TA.AperFunction,SMDPad,CuDef*%
%ADD25FreePoly0,90.000000*%
%TD*%
%TA.AperFunction,SMDPad,CuDef*%
%ADD26R,1.500000X1.000000*%
%TD*%
%TA.AperFunction,SMDPad,CuDef*%
%ADD27FreePoly1,90.000000*%
%TD*%
%TA.AperFunction,ViaPad*%
%ADD28C,0.800000*%
%TD*%
%TA.AperFunction,Conductor*%
%ADD29C,0.254000*%
%TD*%
%TA.AperFunction,Conductor*%
%ADD30C,0.250000*%
%TD*%
%TA.AperFunction,Conductor*%
%ADD31C,1.270000*%
%TD*%
G04 APERTURE END LIST*
D10*
X67945000Y-89535000D02*
X67945000Y-88265000D01*
X69215000Y-91440000D02*
G75*
G03*
X67945000Y-91440000I-635000J0D01*
G01*
X67945000Y-91440000D02*
G75*
G03*
X69215000Y-91440000I635000J0D01*
G01*
X72390000Y-88265000D02*
X73025000Y-88900000D01*
X72390000Y-89535000D02*
X71755000Y-88900000D01*
X73025000Y-88900000D02*
X72390000Y-89535000D01*
X69215000Y-88900000D02*
X67945000Y-89535000D01*
X71755000Y-88900000D02*
X72390000Y-88265000D01*
X67945000Y-88265000D02*
X69215000Y-88900000D01*
D11*
D12*
X64844799Y-58111668D02*
X65268133Y-57506906D01*
X65570514Y-58111668D02*
X65570514Y-56841668D01*
X65570514Y-56841668D02*
X65086704Y-56841668D01*
X65086704Y-56841668D02*
X64965752Y-56902144D01*
X64965752Y-56902144D02*
X64905275Y-56962620D01*
X64905275Y-56962620D02*
X64844799Y-57083572D01*
X64844799Y-57083572D02*
X64844799Y-57265001D01*
X64844799Y-57265001D02*
X64905275Y-57385953D01*
X64905275Y-57385953D02*
X64965752Y-57446430D01*
X64965752Y-57446430D02*
X65086704Y-57506906D01*
X65086704Y-57506906D02*
X65570514Y-57506906D01*
X63816704Y-58051192D02*
X63937656Y-58111668D01*
X63937656Y-58111668D02*
X64179561Y-58111668D01*
X64179561Y-58111668D02*
X64300514Y-58051192D01*
X64300514Y-58051192D02*
X64360990Y-57930239D01*
X64360990Y-57930239D02*
X64360990Y-57446430D01*
X64360990Y-57446430D02*
X64300514Y-57325477D01*
X64300514Y-57325477D02*
X64179561Y-57265001D01*
X64179561Y-57265001D02*
X63937656Y-57265001D01*
X63937656Y-57265001D02*
X63816704Y-57325477D01*
X63816704Y-57325477D02*
X63756228Y-57446430D01*
X63756228Y-57446430D02*
X63756228Y-57567382D01*
X63756228Y-57567382D02*
X64360990Y-57688334D01*
X63211943Y-57265001D02*
X63211943Y-58535001D01*
X63211943Y-57325477D02*
X63090990Y-57265001D01*
X63090990Y-57265001D02*
X62849085Y-57265001D01*
X62849085Y-57265001D02*
X62728133Y-57325477D01*
X62728133Y-57325477D02*
X62667657Y-57385953D01*
X62667657Y-57385953D02*
X62607181Y-57506906D01*
X62607181Y-57506906D02*
X62607181Y-57869763D01*
X62607181Y-57869763D02*
X62667657Y-57990715D01*
X62667657Y-57990715D02*
X62728133Y-58051192D01*
X62728133Y-58051192D02*
X62849085Y-58111668D01*
X62849085Y-58111668D02*
X63090990Y-58111668D01*
X63090990Y-58111668D02*
X63211943Y-58051192D01*
X62062895Y-58111668D02*
X62062895Y-57265001D01*
X62062895Y-57506906D02*
X62002418Y-57385953D01*
X62002418Y-57385953D02*
X61941942Y-57325477D01*
X61941942Y-57325477D02*
X61820990Y-57265001D01*
X61820990Y-57265001D02*
X61700037Y-57265001D01*
X61095276Y-58111668D02*
X61216228Y-58051192D01*
X61216228Y-58051192D02*
X61276705Y-57990715D01*
X61276705Y-57990715D02*
X61337181Y-57869763D01*
X61337181Y-57869763D02*
X61337181Y-57506906D01*
X61337181Y-57506906D02*
X61276705Y-57385953D01*
X61276705Y-57385953D02*
X61216228Y-57325477D01*
X61216228Y-57325477D02*
X61095276Y-57265001D01*
X61095276Y-57265001D02*
X60913847Y-57265001D01*
X60913847Y-57265001D02*
X60792895Y-57325477D01*
X60792895Y-57325477D02*
X60732419Y-57385953D01*
X60732419Y-57385953D02*
X60671943Y-57506906D01*
X60671943Y-57506906D02*
X60671943Y-57869763D01*
X60671943Y-57869763D02*
X60732419Y-57990715D01*
X60732419Y-57990715D02*
X60792895Y-58051192D01*
X60792895Y-58051192D02*
X60913847Y-58111668D01*
X60913847Y-58111668D02*
X61095276Y-58111668D01*
X59160038Y-58111668D02*
X59160038Y-56841668D01*
X59160038Y-57325477D02*
X59039085Y-57265001D01*
X59039085Y-57265001D02*
X58797180Y-57265001D01*
X58797180Y-57265001D02*
X58676228Y-57325477D01*
X58676228Y-57325477D02*
X58615752Y-57385953D01*
X58615752Y-57385953D02*
X58555276Y-57506906D01*
X58555276Y-57506906D02*
X58555276Y-57869763D01*
X58555276Y-57869763D02*
X58615752Y-57990715D01*
X58615752Y-57990715D02*
X58676228Y-58051192D01*
X58676228Y-58051192D02*
X58797180Y-58111668D01*
X58797180Y-58111668D02*
X59039085Y-58111668D01*
X59039085Y-58111668D02*
X59160038Y-58051192D01*
X58131942Y-57265001D02*
X57829561Y-58111668D01*
X57527180Y-57265001D02*
X57829561Y-58111668D01*
X57829561Y-58111668D02*
X57950513Y-58414049D01*
X57950513Y-58414049D02*
X58010990Y-58474525D01*
X58010990Y-58474525D02*
X58131942Y-58535001D01*
X65630990Y-59793511D02*
X65026228Y-59793511D01*
X65751942Y-60156368D02*
X65328609Y-58886368D01*
X65328609Y-58886368D02*
X64905275Y-60156368D01*
X64481943Y-60035415D02*
X64421466Y-60095892D01*
X64421466Y-60095892D02*
X64481943Y-60156368D01*
X64481943Y-60156368D02*
X64542419Y-60095892D01*
X64542419Y-60095892D02*
X64481943Y-60035415D01*
X64481943Y-60035415D02*
X64481943Y-60156368D01*
X63937657Y-59793511D02*
X63332895Y-59793511D01*
X64058609Y-60156368D02*
X63635276Y-58886368D01*
X63635276Y-58886368D02*
X63211942Y-60156368D01*
X62607181Y-60156368D02*
X62728133Y-60095892D01*
X62728133Y-60095892D02*
X62788610Y-59974939D01*
X62788610Y-59974939D02*
X62788610Y-58886368D01*
X61639562Y-60095892D02*
X61760514Y-60156368D01*
X61760514Y-60156368D02*
X62002419Y-60156368D01*
X62002419Y-60156368D02*
X62123372Y-60095892D01*
X62123372Y-60095892D02*
X62183848Y-59974939D01*
X62183848Y-59974939D02*
X62183848Y-59491130D01*
X62183848Y-59491130D02*
X62123372Y-59370177D01*
X62123372Y-59370177D02*
X62002419Y-59309701D01*
X62002419Y-59309701D02*
X61760514Y-59309701D01*
X61760514Y-59309701D02*
X61639562Y-59370177D01*
X61639562Y-59370177D02*
X61579086Y-59491130D01*
X61579086Y-59491130D02*
X61579086Y-59612082D01*
X61579086Y-59612082D02*
X62183848Y-59733034D01*
X60490515Y-60156368D02*
X60490515Y-59491130D01*
X60490515Y-59491130D02*
X60550991Y-59370177D01*
X60550991Y-59370177D02*
X60671943Y-59309701D01*
X60671943Y-59309701D02*
X60913848Y-59309701D01*
X60913848Y-59309701D02*
X61034801Y-59370177D01*
X60490515Y-60095892D02*
X60611467Y-60156368D01*
X60611467Y-60156368D02*
X60913848Y-60156368D01*
X60913848Y-60156368D02*
X61034801Y-60095892D01*
X61034801Y-60095892D02*
X61095277Y-59974939D01*
X61095277Y-59974939D02*
X61095277Y-59853987D01*
X61095277Y-59853987D02*
X61034801Y-59733034D01*
X61034801Y-59733034D02*
X60913848Y-59672558D01*
X60913848Y-59672558D02*
X60611467Y-59672558D01*
X60611467Y-59672558D02*
X60490515Y-59612082D01*
D11*
G36*
X89327820Y-84644950D02*
G01*
X89341292Y-84645256D01*
X89354543Y-84645766D01*
X89367572Y-84646480D01*
X89380380Y-84647397D01*
X89392968Y-84648519D01*
X89405334Y-84649844D01*
X89429402Y-84653107D01*
X89452586Y-84657186D01*
X89474886Y-84662080D01*
X89496301Y-84667790D01*
X89516832Y-84674315D01*
X89536478Y-84681657D01*
X89555239Y-84689813D01*
X89573116Y-84698786D01*
X89590109Y-84708575D01*
X89606217Y-84719179D01*
X89621440Y-84730598D01*
X89635779Y-84742834D01*
X89642617Y-84749258D01*
X89655689Y-84762561D01*
X89667917Y-84776368D01*
X89679302Y-84790678D01*
X89689843Y-84805493D01*
X89699542Y-84820811D01*
X89708396Y-84836633D01*
X89716408Y-84852959D01*
X89723576Y-84869789D01*
X89729901Y-84887123D01*
X89735383Y-84904960D01*
X89740021Y-84923301D01*
X89743816Y-84942146D01*
X89746768Y-84961495D01*
X89748876Y-84981348D01*
X89750141Y-85001704D01*
X89750563Y-85022565D01*
X89750142Y-85043427D01*
X89748881Y-85063792D01*
X89746779Y-85083658D01*
X89743836Y-85103025D01*
X89740051Y-85121895D01*
X89735426Y-85140265D01*
X89729961Y-85158137D01*
X89723654Y-85175511D01*
X89716506Y-85192386D01*
X89708518Y-85208762D01*
X89699688Y-85224641D01*
X89690018Y-85240020D01*
X89679507Y-85254901D01*
X89668154Y-85269284D01*
X89655961Y-85283168D01*
X89642927Y-85296554D01*
X89629040Y-85309239D01*
X89614288Y-85321105D01*
X89598671Y-85332153D01*
X89582189Y-85342382D01*
X89564841Y-85351794D01*
X89546628Y-85360386D01*
X89527551Y-85368161D01*
X89507608Y-85375117D01*
X89486800Y-85381255D01*
X89465126Y-85386574D01*
X89442588Y-85391075D01*
X89419185Y-85394758D01*
X89394916Y-85397622D01*
X89382457Y-85398747D01*
X89369782Y-85399668D01*
X89356891Y-85400384D01*
X89343783Y-85400895D01*
X89330459Y-85401202D01*
X89316919Y-85401305D01*
X89303149Y-85401202D01*
X89289600Y-85400894D01*
X89276272Y-85400381D01*
X89263165Y-85399663D01*
X89250279Y-85398739D01*
X89237614Y-85397610D01*
X89225170Y-85396276D01*
X89200947Y-85392992D01*
X89177607Y-85388887D01*
X89155153Y-85383960D01*
X89133583Y-85378213D01*
X89112897Y-85371645D01*
X89093096Y-85364256D01*
X89074179Y-85356045D01*
X89056147Y-85347014D01*
X89038999Y-85337162D01*
X89022736Y-85326488D01*
X89007358Y-85314994D01*
X88992864Y-85302678D01*
X88985948Y-85296213D01*
X88972764Y-85282862D01*
X88960430Y-85269081D01*
X88948947Y-85254872D01*
X88938315Y-85240233D01*
X88928533Y-85225166D01*
X88919602Y-85209669D01*
X88911521Y-85193743D01*
X88904291Y-85177387D01*
X88897912Y-85160603D01*
X88892383Y-85143389D01*
X88887705Y-85125746D01*
X88883877Y-85107674D01*
X88880900Y-85089173D01*
X88878773Y-85070243D01*
X88877497Y-85050883D01*
X88877072Y-85031095D01*
X88877218Y-85016727D01*
X88877808Y-85000101D01*
X88878853Y-84984958D01*
X88880353Y-84971298D01*
X88882752Y-84956864D01*
X88886378Y-84942722D01*
X88893527Y-84959009D01*
X88898806Y-84972002D01*
X88904014Y-84985660D01*
X88909151Y-84999983D01*
X88914217Y-85014973D01*
X88919213Y-85030628D01*
X88924137Y-85046949D01*
X88928991Y-85063936D01*
X88933774Y-85081588D01*
X88938486Y-85099906D01*
X88940040Y-85106160D01*
X89117468Y-85016764D01*
X89111670Y-84998030D01*
X89105599Y-84979530D01*
X89099253Y-84961265D01*
X89092634Y-84943234D01*
X89085740Y-84925438D01*
X89078573Y-84907876D01*
X89071133Y-84890549D01*
X89063418Y-84873457D01*
X89055429Y-84856599D01*
X89047167Y-84839976D01*
X89038631Y-84823587D01*
X89029821Y-84807433D01*
X89020737Y-84791514D01*
X89011379Y-84775829D01*
X89001747Y-84760379D01*
X88991842Y-84745163D01*
X89001656Y-84736575D01*
X89012020Y-84728341D01*
X89022935Y-84720461D01*
X89034401Y-84712935D01*
X89046417Y-84705763D01*
X89058984Y-84698944D01*
X89072102Y-84692480D01*
X89085771Y-84686369D01*
X89099990Y-84680612D01*
X89114760Y-84675209D01*
X89124913Y-84671803D01*
X89140543Y-84666986D01*
X89156610Y-84662643D01*
X89173113Y-84658773D01*
X89190052Y-84655378D01*
X89207428Y-84652456D01*
X89225239Y-84650008D01*
X89243487Y-84648033D01*
X89255895Y-84646980D01*
X89268496Y-84646138D01*
X89281291Y-84645506D01*
X89294280Y-84645085D01*
X89307463Y-84644874D01*
X89314128Y-84644848D01*
X89327820Y-84644950D01*
G37*
G36*
X87194220Y-81711932D02*
G01*
X87207692Y-81712238D01*
X87220943Y-81712748D01*
X87233972Y-81713462D01*
X87246780Y-81714380D01*
X87259368Y-81715501D01*
X87271734Y-81716827D01*
X87295802Y-81720089D01*
X87318986Y-81724168D01*
X87341286Y-81729062D01*
X87362701Y-81734772D01*
X87383232Y-81741298D01*
X87402878Y-81748639D01*
X87421639Y-81756796D01*
X87439516Y-81765769D01*
X87456509Y-81775557D01*
X87472617Y-81786161D01*
X87487840Y-81797581D01*
X87502179Y-81809816D01*
X87509017Y-81816240D01*
X87522089Y-81829543D01*
X87534317Y-81843350D01*
X87545702Y-81857661D01*
X87556243Y-81872475D01*
X87565942Y-81887794D01*
X87574796Y-81903616D01*
X87582808Y-81919942D01*
X87589976Y-81936771D01*
X87596301Y-81954105D01*
X87601783Y-81971942D01*
X87606421Y-81990284D01*
X87610216Y-82009129D01*
X87613168Y-82028478D01*
X87615276Y-82048330D01*
X87616541Y-82068687D01*
X87616963Y-82089547D01*
X87616542Y-82110410D01*
X87615281Y-82130774D01*
X87613179Y-82150640D01*
X87610236Y-82170008D01*
X87606451Y-82188877D01*
X87601826Y-82207247D01*
X87596361Y-82225120D01*
X87590054Y-82242493D01*
X87582906Y-82259368D01*
X87574918Y-82275745D01*
X87566088Y-82291623D01*
X87556418Y-82307003D01*
X87545907Y-82321884D01*
X87534554Y-82336266D01*
X87522361Y-82350151D01*
X87509327Y-82363536D01*
X87495440Y-82376221D01*
X87480688Y-82388087D01*
X87465071Y-82399135D01*
X87448589Y-82409365D01*
X87431241Y-82418776D01*
X87413028Y-82427369D01*
X87393951Y-82435143D01*
X87374008Y-82442099D01*
X87353200Y-82448237D01*
X87331526Y-82453556D01*
X87308988Y-82458057D01*
X87285585Y-82461740D01*
X87261316Y-82464604D01*
X87248857Y-82465730D01*
X87236182Y-82466650D01*
X87223291Y-82467366D01*
X87210183Y-82467878D01*
X87196859Y-82468185D01*
X87183319Y-82468287D01*
X87169549Y-82468184D01*
X87156000Y-82467876D01*
X87142672Y-82467363D01*
X87129565Y-82466645D01*
X87116679Y-82465721D01*
X87104014Y-82464592D01*
X87091570Y-82463258D01*
X87067347Y-82459974D01*
X87044007Y-82455869D01*
X87021553Y-82450943D01*
X86999983Y-82445196D01*
X86979297Y-82438627D01*
X86959496Y-82431238D01*
X86940579Y-82423028D01*
X86922547Y-82413996D01*
X86905399Y-82404144D01*
X86889136Y-82393471D01*
X86873758Y-82381976D01*
X86859264Y-82369661D01*
X86852348Y-82363195D01*
X86839164Y-82349844D01*
X86826830Y-82336064D01*
X86815347Y-82321854D01*
X86804715Y-82307216D01*
X86794933Y-82292148D01*
X86786002Y-82276651D01*
X86777921Y-82260725D01*
X86770691Y-82244370D01*
X86764312Y-82227585D01*
X86758783Y-82210372D01*
X86754105Y-82192729D01*
X86750277Y-82174657D01*
X86747300Y-82156156D01*
X86745173Y-82137225D01*
X86743897Y-82117866D01*
X86743472Y-82098077D01*
X86743618Y-82083709D01*
X86744208Y-82067084D01*
X86745253Y-82051941D01*
X86746753Y-82038281D01*
X86749152Y-82023846D01*
X86752778Y-82009704D01*
X86759927Y-82025992D01*
X86765206Y-82038984D01*
X86770414Y-82052642D01*
X86775551Y-82066966D01*
X86780617Y-82081955D01*
X86785613Y-82097610D01*
X86790537Y-82113931D01*
X86795391Y-82130918D01*
X86800174Y-82148570D01*
X86804886Y-82166889D01*
X86806440Y-82173143D01*
X86983868Y-82083746D01*
X86978070Y-82065012D01*
X86971999Y-82046512D01*
X86965653Y-82028247D01*
X86959034Y-82010216D01*
X86952140Y-81992420D01*
X86944973Y-81974859D01*
X86937533Y-81957532D01*
X86929818Y-81940439D01*
X86921829Y-81923582D01*
X86913567Y-81906958D01*
X86905031Y-81890570D01*
X86896221Y-81874416D01*
X86887137Y-81858496D01*
X86877779Y-81842811D01*
X86868147Y-81827361D01*
X86858242Y-81812145D01*
X86868056Y-81803558D01*
X86878420Y-81795324D01*
X86889335Y-81787444D01*
X86900801Y-81779917D01*
X86912817Y-81772745D01*
X86925384Y-81765927D01*
X86938502Y-81759462D01*
X86952171Y-81753351D01*
X86966390Y-81747594D01*
X86981160Y-81742191D01*
X86991313Y-81738786D01*
X87006943Y-81733969D01*
X87023010Y-81729625D01*
X87039513Y-81725756D01*
X87056452Y-81722360D01*
X87073828Y-81719438D01*
X87091639Y-81716990D01*
X87109887Y-81715016D01*
X87122295Y-81713963D01*
X87134896Y-81713120D01*
X87147691Y-81712489D01*
X87160680Y-81712067D01*
X87173863Y-81711857D01*
X87180528Y-81711831D01*
X87194220Y-81711932D01*
G37*
G36*
X89331756Y-81422587D02*
G01*
X89345132Y-81422889D01*
X89358287Y-81423392D01*
X89371222Y-81424097D01*
X89383936Y-81425003D01*
X89396429Y-81426109D01*
X89420755Y-81428927D01*
X89444198Y-81432550D01*
X89466760Y-81436977D01*
X89488439Y-81442210D01*
X89509236Y-81448248D01*
X89529151Y-81455091D01*
X89548184Y-81462739D01*
X89566335Y-81471191D01*
X89583604Y-81480449D01*
X89599990Y-81490512D01*
X89615495Y-81501380D01*
X89630118Y-81513053D01*
X89643858Y-81525531D01*
X89656779Y-81538676D01*
X89668867Y-81552348D01*
X89680121Y-81566548D01*
X89690541Y-81581276D01*
X89700128Y-81596532D01*
X89708881Y-81612315D01*
X89716801Y-81628627D01*
X89723887Y-81645466D01*
X89730139Y-81662833D01*
X89735557Y-81680727D01*
X89740142Y-81699150D01*
X89743894Y-81718100D01*
X89746811Y-81737578D01*
X89748895Y-81757584D01*
X89750146Y-81778118D01*
X89750563Y-81799180D01*
X89750141Y-81820288D01*
X89748876Y-81840876D01*
X89746768Y-81860945D01*
X89743816Y-81880494D01*
X89740021Y-81899523D01*
X89735383Y-81918032D01*
X89729901Y-81936021D01*
X89723576Y-81953491D01*
X89716408Y-81970440D01*
X89708396Y-81986870D01*
X89699542Y-82002780D01*
X89689843Y-82018171D01*
X89679302Y-82033041D01*
X89667917Y-82047392D01*
X89655689Y-82061223D01*
X89642617Y-82074534D01*
X89628687Y-82087177D01*
X89613881Y-82099005D01*
X89598201Y-82110017D01*
X89581646Y-82120213D01*
X89564216Y-82129593D01*
X89545911Y-82138158D01*
X89526731Y-82145907D01*
X89506677Y-82152841D01*
X89485748Y-82158959D01*
X89463944Y-82164261D01*
X89441265Y-82168747D01*
X89417711Y-82172418D01*
X89393283Y-82175273D01*
X89380740Y-82176394D01*
X89367979Y-82177312D01*
X89354999Y-82178026D01*
X89341801Y-82178535D01*
X89328384Y-82178841D01*
X89314748Y-82178943D01*
X89301319Y-82178839D01*
X89288097Y-82178525D01*
X89275082Y-82178002D01*
X89262273Y-82177269D01*
X89249671Y-82176328D01*
X89237275Y-82175177D01*
X89213103Y-82172247D01*
X89189758Y-82168480D01*
X89167239Y-82163877D01*
X89145546Y-82158436D01*
X89124680Y-82152158D01*
X89104640Y-82145044D01*
X89085427Y-82137092D01*
X89067040Y-82128303D01*
X89049479Y-82118678D01*
X89032744Y-82108215D01*
X89016836Y-82096915D01*
X89001755Y-82084778D01*
X88987499Y-82071804D01*
X88974127Y-82058144D01*
X88961618Y-82044033D01*
X88949971Y-82029472D01*
X88939187Y-82014460D01*
X88929266Y-81998998D01*
X88920208Y-81983085D01*
X88912012Y-81966722D01*
X88904679Y-81949908D01*
X88898209Y-81932644D01*
X88892601Y-81914929D01*
X88887856Y-81896764D01*
X88883974Y-81878148D01*
X88880954Y-81859081D01*
X88878798Y-81839565D01*
X88877504Y-81819597D01*
X88877072Y-81799180D01*
X88877500Y-81778768D01*
X88878783Y-81758821D01*
X88880922Y-81739338D01*
X88883916Y-81720318D01*
X88887765Y-81701762D01*
X88892470Y-81683670D01*
X88898030Y-81666042D01*
X88904446Y-81648878D01*
X88911718Y-81632177D01*
X88919844Y-81615941D01*
X88928826Y-81600168D01*
X88938664Y-81584859D01*
X88949357Y-81570014D01*
X88960905Y-81555632D01*
X88973309Y-81541715D01*
X88986569Y-81528261D01*
X89000732Y-81515452D01*
X89015770Y-81503470D01*
X89031683Y-81492314D01*
X89048471Y-81481985D01*
X89066133Y-81472482D01*
X89084671Y-81463805D01*
X89104083Y-81455954D01*
X89124370Y-81448930D01*
X89145532Y-81442733D01*
X89167568Y-81437361D01*
X89190480Y-81432816D01*
X89214266Y-81429098D01*
X89238928Y-81426205D01*
X89251586Y-81425069D01*
X89264464Y-81424139D01*
X89277560Y-81423416D01*
X89290874Y-81422900D01*
X89304408Y-81422590D01*
X89318160Y-81422487D01*
X89331756Y-81422587D01*
G37*
G36*
X87117903Y-78791321D02*
G01*
X87134288Y-78793145D01*
X87149964Y-78795887D01*
X87164931Y-78799547D01*
X87179189Y-78804124D01*
X87192739Y-78809619D01*
X87205580Y-78816032D01*
X87217711Y-78823362D01*
X87229135Y-78831610D01*
X87239849Y-78840775D01*
X87246598Y-78847396D01*
X87256022Y-78857836D01*
X87264518Y-78868684D01*
X87272088Y-78879940D01*
X87278731Y-78891603D01*
X87286147Y-78907789D01*
X87291914Y-78924700D01*
X87296034Y-78942337D01*
X87298042Y-78956039D01*
X87299124Y-78970150D01*
X87299330Y-78979784D01*
X87298845Y-78995139D01*
X87297389Y-79009985D01*
X87294962Y-79024321D01*
X87291565Y-79038146D01*
X87287198Y-79051463D01*
X87281860Y-79064269D01*
X87275551Y-79076565D01*
X87268272Y-79088352D01*
X87260022Y-79099629D01*
X87250802Y-79110396D01*
X87244116Y-79117291D01*
X87233317Y-79127099D01*
X87221972Y-79135924D01*
X87210082Y-79143765D01*
X87197646Y-79150622D01*
X87184665Y-79156496D01*
X87171140Y-79161386D01*
X87157068Y-79165293D01*
X87142452Y-79168216D01*
X87127290Y-79170155D01*
X87111583Y-79171111D01*
X87100809Y-79171201D01*
X87100809Y-78790414D01*
X87117903Y-78791321D01*
G37*
G36*
X89154736Y-76404620D02*
G01*
X89171930Y-76405423D01*
X89188595Y-76406763D01*
X89204728Y-76408638D01*
X89220331Y-76411049D01*
X89235403Y-76413996D01*
X89249944Y-76417479D01*
X89263955Y-76421497D01*
X89277435Y-76426052D01*
X89290384Y-76431142D01*
X89302802Y-76436768D01*
X89314690Y-76442929D01*
X89326047Y-76449627D01*
X89336873Y-76456860D01*
X89347169Y-76464629D01*
X89356934Y-76472934D01*
X89370515Y-76486072D01*
X89382760Y-76499768D01*
X89393670Y-76514022D01*
X89403244Y-76528834D01*
X89411482Y-76544203D01*
X89418384Y-76560130D01*
X89423950Y-76576615D01*
X89428180Y-76593658D01*
X89431074Y-76611258D01*
X89432633Y-76629416D01*
X89432930Y-76641832D01*
X89432259Y-76660368D01*
X89430247Y-76678358D01*
X89426894Y-76695803D01*
X89422199Y-76712702D01*
X89416163Y-76729055D01*
X89408786Y-76744862D01*
X89400067Y-76760123D01*
X89390007Y-76774839D01*
X89378606Y-76789008D01*
X89365864Y-76802632D01*
X89356623Y-76811412D01*
X89341763Y-76823729D01*
X89331178Y-76831268D01*
X89320050Y-76838268D01*
X89308379Y-76844730D01*
X89296166Y-76850653D01*
X89283409Y-76856037D01*
X89270110Y-76860884D01*
X89256268Y-76865191D01*
X89241883Y-76868961D01*
X89226955Y-76872191D01*
X89211484Y-76874884D01*
X89195471Y-76877038D01*
X89178915Y-76878653D01*
X89161815Y-76879730D01*
X89144173Y-76880268D01*
X89135149Y-76880336D01*
X89117234Y-76880067D01*
X89099860Y-76879259D01*
X89083026Y-76877913D01*
X89066733Y-76876028D01*
X89050980Y-76873605D01*
X89035767Y-76870643D01*
X89021095Y-76867143D01*
X89006964Y-76863105D01*
X88993372Y-76858528D01*
X88980321Y-76853412D01*
X88967811Y-76847758D01*
X88955841Y-76841566D01*
X88944411Y-76834835D01*
X88933522Y-76827566D01*
X88923173Y-76819758D01*
X88913364Y-76811412D01*
X88899783Y-76798152D01*
X88887537Y-76784346D01*
X88876628Y-76769994D01*
X88867054Y-76755097D01*
X88858816Y-76739653D01*
X88851914Y-76723664D01*
X88846348Y-76707129D01*
X88842118Y-76690049D01*
X88839223Y-76672422D01*
X88837665Y-76654250D01*
X88837368Y-76641832D01*
X88838036Y-76623302D01*
X88840040Y-76605329D01*
X88843379Y-76587915D01*
X88848055Y-76571058D01*
X88854066Y-76554759D01*
X88861414Y-76539018D01*
X88870097Y-76523834D01*
X88880116Y-76509209D01*
X88891471Y-76495141D01*
X88904162Y-76481631D01*
X88913364Y-76472934D01*
X88928243Y-76460678D01*
X88938862Y-76453177D01*
X88950041Y-76446211D01*
X88961780Y-76439782D01*
X88974078Y-76433888D01*
X88986937Y-76428530D01*
X89000355Y-76423707D01*
X89014333Y-76419421D01*
X89028870Y-76415670D01*
X89043968Y-76412456D01*
X89059625Y-76409777D01*
X89075842Y-76407633D01*
X89092619Y-76406026D01*
X89109955Y-76404954D01*
X89127852Y-76404419D01*
X89137010Y-76404352D01*
X89154736Y-76404620D01*
G37*
G36*
X87413754Y-74598498D02*
G01*
X87430630Y-74599992D01*
X87446738Y-74602481D01*
X87462077Y-74605965D01*
X87476647Y-74610446D01*
X87490448Y-74615922D01*
X87503481Y-74622393D01*
X87515744Y-74629861D01*
X87527239Y-74638324D01*
X87537965Y-74647782D01*
X87544689Y-74654641D01*
X87554057Y-74665417D01*
X87562504Y-74676505D01*
X87570029Y-74687905D01*
X87576633Y-74699616D01*
X87584005Y-74715717D01*
X87589739Y-74732372D01*
X87593834Y-74749582D01*
X87596292Y-74767346D01*
X87597059Y-74781033D01*
X87597111Y-74785664D01*
X87596447Y-74802863D01*
X87594455Y-74819316D01*
X87591135Y-74835022D01*
X87586487Y-74849982D01*
X87580511Y-74864195D01*
X87573207Y-74877662D01*
X87564575Y-74890383D01*
X87554615Y-74902357D01*
X87543104Y-74913153D01*
X87529819Y-74922510D01*
X87518691Y-74928583D01*
X87506566Y-74933846D01*
X87493443Y-74938299D01*
X87479321Y-74941943D01*
X87464203Y-74944777D01*
X87448086Y-74946801D01*
X87430971Y-74948015D01*
X87412859Y-74948420D01*
X87394436Y-74947976D01*
X87376974Y-74946645D01*
X87360471Y-74944426D01*
X87344927Y-74941319D01*
X87330344Y-74937324D01*
X87316720Y-74932442D01*
X87304055Y-74926672D01*
X87292351Y-74920015D01*
X87281605Y-74912470D01*
X87271820Y-74904037D01*
X87265829Y-74897922D01*
X87255070Y-74884897D01*
X87245745Y-74871073D01*
X87237854Y-74856449D01*
X87231399Y-74841025D01*
X87226377Y-74824802D01*
X87222791Y-74807779D01*
X87220639Y-74789956D01*
X87219966Y-74776064D01*
X87219922Y-74771334D01*
X87220615Y-74753362D01*
X87222694Y-74736125D01*
X87226159Y-74719625D01*
X87231011Y-74703860D01*
X87237248Y-74688831D01*
X87244872Y-74674537D01*
X87253882Y-74660980D01*
X87264278Y-74648158D01*
X87276041Y-74636402D01*
X87289152Y-74626214D01*
X87303609Y-74617593D01*
X87315337Y-74612156D01*
X87327822Y-74607601D01*
X87341066Y-74603927D01*
X87355067Y-74601135D01*
X87369826Y-74599225D01*
X87385343Y-74598196D01*
X87396109Y-74598000D01*
X87413754Y-74598498D01*
G37*
G36*
X87413754Y-73510729D02*
G01*
X87430630Y-73512223D01*
X87446738Y-73514712D01*
X87462077Y-73518197D01*
X87476647Y-73522677D01*
X87490448Y-73528153D01*
X87503481Y-73534625D01*
X87515744Y-73542092D01*
X87527239Y-73550555D01*
X87537965Y-73560013D01*
X87544689Y-73566872D01*
X87554057Y-73577648D01*
X87562504Y-73588736D01*
X87570029Y-73600136D01*
X87576633Y-73611847D01*
X87584005Y-73627948D01*
X87589739Y-73644603D01*
X87593834Y-73661813D01*
X87596292Y-73679577D01*
X87597059Y-73693264D01*
X87597111Y-73697896D01*
X87596447Y-73715095D01*
X87594455Y-73731547D01*
X87591135Y-73747253D01*
X87586487Y-73762213D01*
X87580511Y-73776427D01*
X87573207Y-73789894D01*
X87564575Y-73802614D01*
X87554615Y-73814589D01*
X87543104Y-73825385D01*
X87529819Y-73834741D01*
X87518691Y-73840814D01*
X87506566Y-73846077D01*
X87493443Y-73850530D01*
X87479321Y-73854174D01*
X87464203Y-73857008D01*
X87448086Y-73859032D01*
X87430971Y-73860247D01*
X87412859Y-73860652D01*
X87394436Y-73860208D01*
X87376974Y-73858876D01*
X87360471Y-73856657D01*
X87344927Y-73853550D01*
X87330344Y-73849556D01*
X87316720Y-73844673D01*
X87304055Y-73838904D01*
X87292351Y-73832246D01*
X87281605Y-73824701D01*
X87271820Y-73816268D01*
X87265829Y-73810153D01*
X87255070Y-73797128D01*
X87245745Y-73783304D01*
X87237854Y-73768680D01*
X87231399Y-73753257D01*
X87226377Y-73737033D01*
X87222791Y-73720010D01*
X87220639Y-73702187D01*
X87219966Y-73688296D01*
X87219922Y-73683565D01*
X87220615Y-73665593D01*
X87222694Y-73648357D01*
X87226159Y-73631856D01*
X87231011Y-73616091D01*
X87237248Y-73601062D01*
X87244872Y-73586769D01*
X87253882Y-73573211D01*
X87264278Y-73560389D01*
X87276041Y-73548633D01*
X87289152Y-73538445D01*
X87303609Y-73529824D01*
X87315337Y-73524387D01*
X87327822Y-73519832D01*
X87341066Y-73516158D01*
X87355067Y-73513367D01*
X87369826Y-73511456D01*
X87385343Y-73510428D01*
X87396109Y-73510232D01*
X87413754Y-73510729D01*
G37*
G36*
X87183417Y-72407815D02*
G01*
X87196585Y-72407886D01*
X87209483Y-72408004D01*
X87222112Y-72408170D01*
X87246564Y-72408643D01*
X87269939Y-72409305D01*
X87292239Y-72410157D01*
X87313463Y-72411198D01*
X87333610Y-72412428D01*
X87352682Y-72413847D01*
X87370678Y-72415456D01*
X87387598Y-72417254D01*
X87403442Y-72419241D01*
X87418209Y-72421418D01*
X87431901Y-72423784D01*
X87444517Y-72426339D01*
X87461424Y-72430526D01*
X87466521Y-72432017D01*
X87480936Y-72436655D01*
X87494402Y-72441485D01*
X87506919Y-72446507D01*
X87518488Y-72451721D01*
X87532436Y-72458972D01*
X87544699Y-72466564D01*
X87555274Y-72474497D01*
X87566122Y-72484893D01*
X87571365Y-72491387D01*
X87578782Y-72502611D01*
X87586023Y-72516718D01*
X87591454Y-72531520D01*
X87595074Y-72547019D01*
X87596884Y-72563213D01*
X87597111Y-72571571D01*
X87596482Y-72585420D01*
X87594068Y-72601446D01*
X87589845Y-72616825D01*
X87583810Y-72631555D01*
X87577399Y-72643336D01*
X87571365Y-72652437D01*
X87562387Y-72663143D01*
X87551348Y-72673082D01*
X87538250Y-72682256D01*
X87526288Y-72689042D01*
X87513008Y-72695339D01*
X87498410Y-72701145D01*
X87482494Y-72706460D01*
X87478309Y-72707712D01*
X87460103Y-72712651D01*
X87446735Y-72715674D01*
X87432384Y-72718481D01*
X87417049Y-72721072D01*
X87400731Y-72723447D01*
X87383428Y-72725607D01*
X87365141Y-72727550D01*
X87345871Y-72729277D01*
X87325616Y-72730789D01*
X87304378Y-72732084D01*
X87282156Y-72733164D01*
X87258950Y-72734027D01*
X87234760Y-72734675D01*
X87222296Y-72734918D01*
X87209587Y-72735107D01*
X87196631Y-72735242D01*
X87183429Y-72735323D01*
X87169981Y-72735350D01*
X87156526Y-72735326D01*
X87143340Y-72735255D01*
X87130424Y-72735137D01*
X87117777Y-72734971D01*
X87093293Y-72734498D01*
X87069887Y-72733836D01*
X87047560Y-72732984D01*
X87026311Y-72731943D01*
X87006140Y-72730713D01*
X86987048Y-72729294D01*
X86969034Y-72727685D01*
X86952098Y-72725887D01*
X86936241Y-72723900D01*
X86921462Y-72721723D01*
X86907762Y-72719357D01*
X86895140Y-72716802D01*
X86878229Y-72712615D01*
X86873131Y-72711124D01*
X86858719Y-72706486D01*
X86845261Y-72701656D01*
X86832758Y-72696634D01*
X86821208Y-72691420D01*
X86807293Y-72684169D01*
X86795075Y-72676577D01*
X86784553Y-72668644D01*
X86773785Y-72658248D01*
X86768597Y-72651754D01*
X86761359Y-72640530D01*
X86754293Y-72626423D01*
X86748993Y-72611621D01*
X86745460Y-72596122D01*
X86743693Y-72579928D01*
X86743472Y-72571571D01*
X86744093Y-72557729D01*
X86746478Y-72541735D01*
X86750651Y-72526413D01*
X86756612Y-72511762D01*
X86764362Y-72497783D01*
X86768908Y-72491046D01*
X86777975Y-72480241D01*
X86789088Y-72470220D01*
X86802245Y-72460982D01*
X86814243Y-72454155D01*
X86827550Y-72447829D01*
X86842165Y-72442005D01*
X86858089Y-72436681D01*
X86862274Y-72435429D01*
X86880317Y-72430490D01*
X86893587Y-72427467D01*
X86907851Y-72424660D01*
X86923108Y-72422069D01*
X86939359Y-72419694D01*
X86956604Y-72417534D01*
X86974842Y-72415591D01*
X86994073Y-72413864D01*
X87014299Y-72412352D01*
X87035518Y-72411057D01*
X87057730Y-72409977D01*
X87080936Y-72409114D01*
X87105135Y-72408466D01*
X87117608Y-72408223D01*
X87130329Y-72408034D01*
X87143298Y-72407899D01*
X87156515Y-72407818D01*
X87169981Y-72407791D01*
X87183417Y-72407815D01*
G37*
G36*
X89251503Y-68686127D02*
G01*
X89267888Y-68687951D01*
X89283564Y-68690693D01*
X89298531Y-68694352D01*
X89312789Y-68698930D01*
X89326339Y-68704425D01*
X89339180Y-68710837D01*
X89351311Y-68718168D01*
X89362735Y-68726416D01*
X89373449Y-68735581D01*
X89380198Y-68742201D01*
X89389622Y-68752642D01*
X89398118Y-68763490D01*
X89405688Y-68774745D01*
X89412331Y-68786409D01*
X89419747Y-68802595D01*
X89425514Y-68819506D01*
X89429634Y-68837142D01*
X89431642Y-68850845D01*
X89432724Y-68864956D01*
X89432930Y-68874590D01*
X89432445Y-68889945D01*
X89430989Y-68904791D01*
X89428562Y-68919126D01*
X89425165Y-68932952D01*
X89420798Y-68946268D01*
X89415460Y-68959075D01*
X89409151Y-68971371D01*
X89401872Y-68983158D01*
X89393622Y-68994435D01*
X89384402Y-69005202D01*
X89377716Y-69012096D01*
X89366917Y-69021905D01*
X89355572Y-69030730D01*
X89343682Y-69038571D01*
X89331246Y-69045428D01*
X89318265Y-69051302D01*
X89304740Y-69056192D01*
X89290668Y-69060099D01*
X89276052Y-69063022D01*
X89260890Y-69064961D01*
X89245183Y-69065917D01*
X89234409Y-69066007D01*
X89234409Y-68685220D01*
X89251503Y-68686127D01*
G37*
G36*
X89065483Y-66772177D02*
G01*
X89078113Y-66773521D01*
X89093165Y-66776460D01*
X89107399Y-66780798D01*
X89120815Y-66786536D01*
X89133414Y-66793673D01*
X89142904Y-66800391D01*
X89153962Y-66810006D01*
X89164065Y-66820937D01*
X89173215Y-66833184D01*
X89181411Y-66846747D01*
X89188652Y-66861627D01*
X89193758Y-66874478D01*
X89197187Y-66884669D01*
X89201258Y-66900631D01*
X89203955Y-66915416D01*
X89206347Y-66932611D01*
X89208433Y-66952218D01*
X89209655Y-66966629D01*
X89210740Y-66982111D01*
X89211690Y-66998665D01*
X89212505Y-67016291D01*
X89213183Y-67034988D01*
X89213726Y-67054756D01*
X89214133Y-67075597D01*
X89214404Y-67097509D01*
X89214540Y-67120492D01*
X89214557Y-67132386D01*
X89214557Y-67350758D01*
X88896924Y-67350758D01*
X88896924Y-67098606D01*
X88896953Y-67079980D01*
X88897041Y-67062230D01*
X88897186Y-67045358D01*
X88897389Y-67029362D01*
X88897651Y-67014244D01*
X88897971Y-67000003D01*
X88898560Y-66980285D01*
X88899280Y-66962540D01*
X88900130Y-66946769D01*
X88901112Y-66932971D01*
X88902624Y-66917644D01*
X88904369Y-66905824D01*
X88907277Y-66891173D01*
X88911038Y-66877248D01*
X88915652Y-66864047D01*
X88921119Y-66851572D01*
X88927439Y-66839822D01*
X88936539Y-66826153D01*
X88946971Y-66813618D01*
X88951517Y-66808921D01*
X88961235Y-66800204D01*
X88971777Y-66792650D01*
X88983142Y-66786258D01*
X88995331Y-66781027D01*
X89008345Y-66776960D01*
X89022182Y-66774054D01*
X89036843Y-66772311D01*
X89052329Y-66771730D01*
X89065483Y-66772177D01*
G37*
G36*
X89607614Y-66824116D02*
G01*
X89620633Y-66825683D01*
X89632972Y-66828295D01*
X89647443Y-66833030D01*
X89660853Y-66839398D01*
X89673203Y-66847398D01*
X89684493Y-66857031D01*
X89694593Y-66868199D01*
X89703377Y-66881016D01*
X89710842Y-66895482D01*
X89715866Y-66908243D01*
X89720046Y-66922059D01*
X89723383Y-66936931D01*
X89725876Y-66952858D01*
X89726368Y-66957005D01*
X89727619Y-66973879D01*
X89728268Y-66987714D01*
X89728840Y-67004332D01*
X89729337Y-67023732D01*
X89729625Y-67038212D01*
X89729879Y-67053929D01*
X89730100Y-67070883D01*
X89730287Y-67089074D01*
X89730439Y-67108501D01*
X89730558Y-67129165D01*
X89730643Y-67151067D01*
X89730694Y-67174205D01*
X89730711Y-67198580D01*
X89730711Y-67350758D01*
X89452782Y-67350758D01*
X89452782Y-67175378D01*
X89452799Y-67155225D01*
X89452850Y-67136054D01*
X89452935Y-67117863D01*
X89453053Y-67100653D01*
X89453206Y-67084425D01*
X89453393Y-67069177D01*
X89453613Y-67054910D01*
X89454007Y-67035349D01*
X89454478Y-67017996D01*
X89455025Y-67002849D01*
X89455873Y-66986088D01*
X89457124Y-66970653D01*
X89459422Y-66953812D01*
X89462592Y-66937919D01*
X89466634Y-66922975D01*
X89471548Y-66908980D01*
X89477335Y-66895934D01*
X89483995Y-66883837D01*
X89491526Y-66872690D01*
X89499930Y-66862491D01*
X89509202Y-66853374D01*
X89521787Y-66843688D01*
X89535477Y-66835900D01*
X89547226Y-66831038D01*
X89559682Y-66827392D01*
X89572845Y-66824961D01*
X89586717Y-66823745D01*
X89593918Y-66823593D01*
X89607614Y-66824116D01*
G37*
G36*
X90170216Y-85897327D02*
G01*
X85986333Y-85897327D01*
X85986333Y-85393116D01*
X86167762Y-85393116D01*
X86180491Y-85402470D01*
X86193243Y-85411681D01*
X86206016Y-85420748D01*
X86218813Y-85429673D01*
X86231631Y-85438454D01*
X86244472Y-85447092D01*
X86257336Y-85455586D01*
X86270222Y-85463937D01*
X86283130Y-85472145D01*
X86296060Y-85480210D01*
X86309014Y-85488132D01*
X86321989Y-85495910D01*
X86334987Y-85503544D01*
X86348007Y-85511036D01*
X86361050Y-85518384D01*
X86374115Y-85525589D01*
X86387203Y-85532651D01*
X86400313Y-85539570D01*
X86413445Y-85546345D01*
X86426600Y-85552977D01*
X86439777Y-85559465D01*
X86452977Y-85565810D01*
X86466199Y-85572013D01*
X86479444Y-85578071D01*
X86492711Y-85583987D01*
X86506000Y-85589759D01*
X86519312Y-85595388D01*
X86532646Y-85600874D01*
X86546002Y-85606216D01*
X86559381Y-85611415D01*
X86572783Y-85616471D01*
X86586207Y-85621383D01*
X86599628Y-85626128D01*
X86613023Y-85630721D01*
X86626392Y-85635164D01*
X86639734Y-85639457D01*
X86653049Y-85643598D01*
X86666337Y-85647590D01*
X86679599Y-85651430D01*
X86692834Y-85655120D01*
X86706042Y-85658660D01*
X86719224Y-85662048D01*
X86732379Y-85665286D01*
X86745508Y-85668374D01*
X86758610Y-85671311D01*
X86771685Y-85674097D01*
X86784733Y-85676733D01*
X86797755Y-85679218D01*
X86810750Y-85681552D01*
X86823719Y-85683736D01*
X86836661Y-85685769D01*
X86849576Y-85687652D01*
X86862465Y-85689384D01*
X86875326Y-85690966D01*
X86888162Y-85692396D01*
X86900970Y-85693677D01*
X86913752Y-85694806D01*
X86926508Y-85695785D01*
X86939236Y-85696613D01*
X86951938Y-85697291D01*
X86964613Y-85697818D01*
X86977262Y-85698195D01*
X86989884Y-85698421D01*
X87002479Y-85698496D01*
X87018060Y-85698402D01*
X87033588Y-85698122D01*
X87049064Y-85697653D01*
X87064488Y-85696998D01*
X87079860Y-85696155D01*
X87095180Y-85695125D01*
X87110447Y-85693908D01*
X87125663Y-85692504D01*
X87140827Y-85690912D01*
X87155938Y-85689133D01*
X87170997Y-85687167D01*
X87186004Y-85685013D01*
X87200959Y-85682672D01*
X87215862Y-85680144D01*
X87230713Y-85677429D01*
X87245512Y-85674526D01*
X87260259Y-85671436D01*
X87274953Y-85668159D01*
X87289596Y-85664695D01*
X87304186Y-85661043D01*
X87318724Y-85657204D01*
X87333211Y-85653178D01*
X87347645Y-85648965D01*
X87362027Y-85644564D01*
X87376356Y-85639976D01*
X87390634Y-85635201D01*
X87404860Y-85630238D01*
X87419033Y-85625089D01*
X87433155Y-85619752D01*
X87447224Y-85614227D01*
X87461241Y-85608516D01*
X87475207Y-85602617D01*
X87487240Y-85597367D01*
X87499223Y-85592026D01*
X87511156Y-85586593D01*
X87523039Y-85581068D01*
X87534871Y-85575450D01*
X87546653Y-85569741D01*
X87558385Y-85563940D01*
X87570066Y-85558047D01*
X87581697Y-85552062D01*
X87593278Y-85545984D01*
X87604809Y-85539815D01*
X87616289Y-85533554D01*
X87627719Y-85527201D01*
X87639099Y-85520756D01*
X87650428Y-85514220D01*
X87661707Y-85507591D01*
X87672936Y-85500870D01*
X87684115Y-85494057D01*
X87695243Y-85487152D01*
X87706321Y-85480155D01*
X87717349Y-85473067D01*
X87728326Y-85465886D01*
X87739254Y-85458613D01*
X87750130Y-85451249D01*
X87760957Y-85443792D01*
X87771733Y-85436244D01*
X87782459Y-85428603D01*
X87793135Y-85420871D01*
X87803761Y-85413046D01*
X87814336Y-85405130D01*
X87824861Y-85397121D01*
X87835335Y-85389021D01*
X87835335Y-85181908D01*
X87818365Y-85190458D01*
X87801573Y-85198834D01*
X87784961Y-85207036D01*
X87768529Y-85215064D01*
X87752275Y-85222918D01*
X87736201Y-85230598D01*
X87720306Y-85238105D01*
X87704591Y-85245437D01*
X87689055Y-85252595D01*
X87673698Y-85259580D01*
X87658521Y-85266390D01*
X87643523Y-85273027D01*
X87628704Y-85279489D01*
X87614064Y-85285778D01*
X87599604Y-85291893D01*
X87585324Y-85297833D01*
X87571222Y-85303600D01*
X87557300Y-85309193D01*
X87543557Y-85314612D01*
X87529994Y-85319857D01*
X87516610Y-85324928D01*
X87503405Y-85329826D01*
X87490379Y-85334549D01*
X87477533Y-85339098D01*
X87464866Y-85343474D01*
X87452379Y-85347675D01*
X87440071Y-85351703D01*
X87427942Y-85355556D01*
X87415992Y-85359236D01*
X87392631Y-85366073D01*
X87381220Y-85369231D01*
X87358491Y-85375181D01*
X87335593Y-85380747D01*
X87312525Y-85385929D01*
X87289287Y-85390727D01*
X87265880Y-85395142D01*
X87242304Y-85399172D01*
X87218557Y-85402819D01*
X87194641Y-85406081D01*
X87170556Y-85408960D01*
X87146300Y-85411456D01*
X87121875Y-85413567D01*
X87097281Y-85415294D01*
X87072517Y-85416638D01*
X87060071Y-85417165D01*
X87047583Y-85417597D01*
X87035052Y-85417933D01*
X87022479Y-85418173D01*
X87009864Y-85418317D01*
X86997206Y-85418365D01*
X86979730Y-85418252D01*
X86962199Y-85417912D01*
X86944611Y-85417345D01*
X86926968Y-85416552D01*
X86909269Y-85415533D01*
X86891514Y-85414286D01*
X86873704Y-85412814D01*
X86855838Y-85411114D01*
X86837916Y-85409188D01*
X86819938Y-85407036D01*
X86801905Y-85404657D01*
X86783816Y-85402051D01*
X86765671Y-85399219D01*
X86747471Y-85396160D01*
X86729214Y-85392874D01*
X86710902Y-85389362D01*
X86692621Y-85385653D01*
X86674455Y-85381776D01*
X86656406Y-85377731D01*
X86638473Y-85373518D01*
X86620657Y-85369136D01*
X86602957Y-85364587D01*
X86585373Y-85359871D01*
X86567906Y-85354986D01*
X86550554Y-85349933D01*
X86533319Y-85344712D01*
X86516201Y-85339323D01*
X86499199Y-85333767D01*
X86482313Y-85328042D01*
X86465543Y-85322150D01*
X86448890Y-85316089D01*
X86432353Y-85309861D01*
X86415217Y-85303024D01*
X86402911Y-85297905D01*
X86389900Y-85292340D01*
X86376184Y-85286326D01*
X86361763Y-85279864D01*
X86346636Y-85272955D01*
X86330804Y-85265597D01*
X86314267Y-85257792D01*
X86297025Y-85249539D01*
X86279078Y-85240839D01*
X86260425Y-85231690D01*
X86241068Y-85222093D01*
X86221005Y-85212049D01*
X86200237Y-85201557D01*
X86178764Y-85190617D01*
X86167762Y-85184979D01*
X86167762Y-85393116D01*
X85986333Y-85393116D01*
X85986333Y-84568418D01*
X86505247Y-84568418D01*
X86505376Y-84582594D01*
X86505762Y-84596591D01*
X86506406Y-84610408D01*
X86507307Y-84624045D01*
X86509882Y-84650779D01*
X86513487Y-84676794D01*
X86518121Y-84702088D01*
X86523786Y-84726663D01*
X86530481Y-84750518D01*
X86538205Y-84773654D01*
X86546959Y-84796070D01*
X86556744Y-84817766D01*
X86567558Y-84838742D01*
X86579402Y-84858998D01*
X86592276Y-84878535D01*
X86606180Y-84897352D01*
X86621114Y-84915449D01*
X86637078Y-84932827D01*
X86653946Y-84949272D01*
X86671596Y-84964655D01*
X86690025Y-84978978D01*
X86709235Y-84992240D01*
X86729225Y-85004441D01*
X86749996Y-85015580D01*
X86771547Y-85025659D01*
X86793878Y-85034677D01*
X86816989Y-85042634D01*
X86840881Y-85049531D01*
X86853120Y-85052581D01*
X86865553Y-85055366D01*
X86878182Y-85057885D01*
X86891006Y-85060140D01*
X86904024Y-85062129D01*
X86917238Y-85063853D01*
X86930647Y-85065312D01*
X86944251Y-85066506D01*
X86958050Y-85067434D01*
X86972045Y-85068097D01*
X86986234Y-85068495D01*
X87000618Y-85068628D01*
X87015174Y-85068494D01*
X87029528Y-85068094D01*
X87043680Y-85067428D01*
X87057630Y-85066495D01*
X87071379Y-85065295D01*
X87084925Y-85063829D01*
X87098270Y-85062097D01*
X87111414Y-85060097D01*
X87124355Y-85057832D01*
X87137095Y-85055299D01*
X87149633Y-85052500D01*
X87161970Y-85049435D01*
X87174104Y-85046103D01*
X87197768Y-85038639D01*
X87220625Y-85030108D01*
X87242675Y-85020512D01*
X87263918Y-85009849D01*
X87284354Y-84998120D01*
X87303984Y-84985325D01*
X87322806Y-84971463D01*
X87340821Y-84956536D01*
X87358029Y-84940542D01*
X87366330Y-84932145D01*
X87382257Y-84914710D01*
X87397155Y-84896526D01*
X87411027Y-84877593D01*
X87423870Y-84857911D01*
X87435687Y-84837480D01*
X87446475Y-84816299D01*
X87456237Y-84794370D01*
X87464970Y-84771692D01*
X87472677Y-84748265D01*
X87479355Y-84724088D01*
X87485007Y-84699163D01*
X87489630Y-84673488D01*
X87493227Y-84647065D01*
X87495795Y-84619892D01*
X87496694Y-84606025D01*
X87497337Y-84591970D01*
X87497722Y-84577729D01*
X87497850Y-84563300D01*
X87497574Y-84539928D01*
X87496745Y-84517157D01*
X87495364Y-84494985D01*
X87493430Y-84473413D01*
X87490944Y-84452441D01*
X87487905Y-84432068D01*
X87484314Y-84412295D01*
X87480170Y-84393122D01*
X87478509Y-84386554D01*
X88537726Y-84386554D01*
X88541306Y-84400332D01*
X88545065Y-84413900D01*
X88549005Y-84427258D01*
X88553124Y-84440406D01*
X88557423Y-84453345D01*
X88561903Y-84466073D01*
X88568155Y-84482717D01*
X88574727Y-84498989D01*
X88581619Y-84514887D01*
X88585185Y-84522696D01*
X88592441Y-84536343D01*
X88600666Y-84550900D01*
X88608781Y-84565044D01*
X88618565Y-84581953D01*
X88626014Y-84594762D01*
X88634205Y-84608799D01*
X88643137Y-84624065D01*
X88652811Y-84640561D01*
X88663227Y-84658285D01*
X88674384Y-84677238D01*
X88686283Y-84697420D01*
X88692510Y-84707971D01*
X88686012Y-84724957D01*
X88679933Y-84742220D01*
X88674273Y-84759760D01*
X88669033Y-84777578D01*
X88664211Y-84795672D01*
X88659809Y-84814044D01*
X88655827Y-84832693D01*
X88652263Y-84851620D01*
X88649119Y-84870823D01*
X88646394Y-84890304D01*
X88644088Y-84910062D01*
X88642201Y-84930097D01*
X88640734Y-84950410D01*
X88639686Y-84971000D01*
X88639057Y-84991867D01*
X88638847Y-85013011D01*
X88639001Y-85031095D01*
X88639021Y-85033451D01*
X88639541Y-85053613D01*
X88640407Y-85073497D01*
X88641620Y-85093104D01*
X88643179Y-85112432D01*
X88645085Y-85131483D01*
X88647338Y-85150256D01*
X88649937Y-85168751D01*
X88652882Y-85186967D01*
X88656174Y-85204906D01*
X88659813Y-85222568D01*
X88663798Y-85239951D01*
X88668130Y-85257056D01*
X88672808Y-85273884D01*
X88677833Y-85290433D01*
X88683204Y-85306705D01*
X88688922Y-85322699D01*
X88694987Y-85338414D01*
X88701398Y-85353852D01*
X88708155Y-85369013D01*
X88715259Y-85383895D01*
X88722710Y-85398499D01*
X88730507Y-85412825D01*
X88738651Y-85426874D01*
X88747141Y-85440644D01*
X88755977Y-85454137D01*
X88765161Y-85467352D01*
X88774691Y-85480289D01*
X88784567Y-85492948D01*
X88794790Y-85505329D01*
X88805359Y-85517432D01*
X88816275Y-85529257D01*
X88827523Y-85540740D01*
X88839047Y-85551858D01*
X88850850Y-85562612D01*
X88862929Y-85573001D01*
X88875287Y-85583026D01*
X88887921Y-85592686D01*
X88900834Y-85601981D01*
X88914023Y-85610912D01*
X88927490Y-85619479D01*
X88941235Y-85627681D01*
X88955257Y-85635518D01*
X88969557Y-85642991D01*
X88984134Y-85650100D01*
X88998988Y-85656844D01*
X89014120Y-85663223D01*
X89029530Y-85669238D01*
X89045217Y-85674888D01*
X89061181Y-85680174D01*
X89077423Y-85685095D01*
X89093942Y-85689651D01*
X89110739Y-85693844D01*
X89127813Y-85697671D01*
X89145165Y-85701134D01*
X89162794Y-85704233D01*
X89180701Y-85706967D01*
X89198885Y-85709336D01*
X89217347Y-85711341D01*
X89236086Y-85712981D01*
X89255103Y-85714257D01*
X89274397Y-85715169D01*
X89293968Y-85715715D01*
X89313817Y-85715898D01*
X89333610Y-85715715D01*
X89353127Y-85715166D01*
X89372369Y-85714251D01*
X89391335Y-85712971D01*
X89410027Y-85711324D01*
X89428444Y-85709312D01*
X89446586Y-85706934D01*
X89464453Y-85704190D01*
X89482044Y-85701080D01*
X89499361Y-85697604D01*
X89516403Y-85693763D01*
X89533169Y-85689555D01*
X89549661Y-85684982D01*
X89565877Y-85680043D01*
X89581818Y-85674738D01*
X89597485Y-85669067D01*
X89612876Y-85663030D01*
X89627992Y-85656628D01*
X89642833Y-85649859D01*
X89657400Y-85642725D01*
X89671691Y-85635224D01*
X89685707Y-85627358D01*
X89699448Y-85619126D01*
X89712914Y-85610529D01*
X89726104Y-85601565D01*
X89739020Y-85592235D01*
X89751661Y-85582540D01*
X89764027Y-85572479D01*
X89776118Y-85562052D01*
X89787933Y-85551259D01*
X89799474Y-85540100D01*
X89810739Y-85528575D01*
X89821693Y-85516737D01*
X89832300Y-85504638D01*
X89842558Y-85492279D01*
X89852469Y-85479660D01*
X89862032Y-85466779D01*
X89871248Y-85453639D01*
X89880115Y-85440237D01*
X89888635Y-85426575D01*
X89896807Y-85412653D01*
X89904632Y-85398470D01*
X89912108Y-85384026D01*
X89919237Y-85369322D01*
X89926018Y-85354357D01*
X89932452Y-85339132D01*
X89938538Y-85323646D01*
X89944275Y-85307899D01*
X89949666Y-85291892D01*
X89954708Y-85275624D01*
X89959403Y-85259096D01*
X89963749Y-85242307D01*
X89967749Y-85225258D01*
X89971400Y-85207948D01*
X89974704Y-85190378D01*
X89977659Y-85172546D01*
X89980268Y-85154455D01*
X89982528Y-85136103D01*
X89984441Y-85117490D01*
X89986005Y-85098616D01*
X89987223Y-85079483D01*
X89988092Y-85060088D01*
X89988614Y-85040433D01*
X89988787Y-85020517D01*
X89988614Y-85000792D01*
X89988093Y-84981322D01*
X89987225Y-84962110D01*
X89986010Y-84943154D01*
X89984448Y-84924454D01*
X89982539Y-84906012D01*
X89980282Y-84887825D01*
X89977679Y-84869896D01*
X89974728Y-84852222D01*
X89971430Y-84834806D01*
X89967785Y-84817646D01*
X89963793Y-84800743D01*
X89959454Y-84784096D01*
X89954767Y-84767705D01*
X89949734Y-84751572D01*
X89944353Y-84735695D01*
X89938625Y-84720074D01*
X89932550Y-84704710D01*
X89926128Y-84689603D01*
X89919359Y-84674752D01*
X89912242Y-84660157D01*
X89904778Y-84645820D01*
X89896968Y-84631739D01*
X89888810Y-84617914D01*
X89880305Y-84604346D01*
X89871453Y-84591035D01*
X89862253Y-84577980D01*
X89852707Y-84565182D01*
X89842813Y-84552640D01*
X89832572Y-84540355D01*
X89821985Y-84528326D01*
X89811049Y-84516554D01*
X89799823Y-84505092D01*
X89788321Y-84493995D01*
X89776544Y-84483260D01*
X89764492Y-84472890D01*
X89752165Y-84462884D01*
X89739563Y-84453242D01*
X89726686Y-84443963D01*
X89713534Y-84435048D01*
X89700107Y-84426497D01*
X89686405Y-84418310D01*
X89672427Y-84410487D01*
X89658175Y-84403028D01*
X89643648Y-84395933D01*
X89628845Y-84389201D01*
X89613768Y-84382834D01*
X89598415Y-84376830D01*
X89582788Y-84371190D01*
X89566885Y-84365914D01*
X89550707Y-84361002D01*
X89534255Y-84356453D01*
X89517527Y-84352269D01*
X89500524Y-84348448D01*
X89483246Y-84344992D01*
X89465693Y-84341899D01*
X89447865Y-84339170D01*
X89429762Y-84336805D01*
X89411384Y-84334803D01*
X89392731Y-84333166D01*
X89373803Y-84331892D01*
X89354600Y-84330983D01*
X89335122Y-84330437D01*
X89315368Y-84330255D01*
X89294512Y-84330456D01*
X89273973Y-84331060D01*
X89253751Y-84332066D01*
X89233847Y-84333475D01*
X89214260Y-84335286D01*
X89194991Y-84337500D01*
X89176039Y-84340117D01*
X89157405Y-84343136D01*
X89139088Y-84346557D01*
X89121089Y-84350381D01*
X89103407Y-84354607D01*
X89086042Y-84359236D01*
X89068995Y-84364268D01*
X89052266Y-84369702D01*
X89035853Y-84375538D01*
X89019759Y-84381777D01*
X89007565Y-84386833D01*
X88995487Y-84392189D01*
X88983525Y-84397847D01*
X88971680Y-84403807D01*
X88959951Y-84410067D01*
X88948338Y-84416628D01*
X88936842Y-84423491D01*
X88925462Y-84430655D01*
X88914198Y-84438120D01*
X88903050Y-84445887D01*
X88892019Y-84453955D01*
X88881105Y-84462324D01*
X88870306Y-84470994D01*
X88859624Y-84479965D01*
X88849058Y-84489238D01*
X88838609Y-84498811D01*
X88831038Y-84486969D01*
X88823603Y-84474815D01*
X88816304Y-84462349D01*
X88809141Y-84449571D01*
X88802113Y-84436481D01*
X88795221Y-84423079D01*
X88788465Y-84409366D01*
X88781844Y-84395340D01*
X88775359Y-84381003D01*
X88769010Y-84366354D01*
X88762797Y-84351393D01*
X88756719Y-84336120D01*
X88750777Y-84320535D01*
X88744971Y-84304638D01*
X88739300Y-84288429D01*
X88733765Y-84271909D01*
X88537726Y-84386554D01*
X87478509Y-84386554D01*
X87475473Y-84374549D01*
X87470224Y-84356576D01*
X87464423Y-84339202D01*
X87458069Y-84322429D01*
X87451162Y-84306255D01*
X87443703Y-84290680D01*
X87435692Y-84275706D01*
X87427127Y-84261331D01*
X87417996Y-84247448D01*
X87408206Y-84234035D01*
X87397756Y-84221090D01*
X87386648Y-84208615D01*
X87374880Y-84196608D01*
X87362453Y-84185071D01*
X87349367Y-84174003D01*
X87335622Y-84163405D01*
X87321217Y-84153275D01*
X87306154Y-84143615D01*
X87290431Y-84134423D01*
X87274049Y-84125701D01*
X87257008Y-84117448D01*
X87239308Y-84109665D01*
X87220949Y-84102350D01*
X87201931Y-84095504D01*
X87158814Y-84384166D01*
X87172571Y-84387120D01*
X87185575Y-84390607D01*
X87197827Y-84394629D01*
X87212993Y-84400821D01*
X87226820Y-84407963D01*
X87239310Y-84416053D01*
X87250462Y-84425092D01*
X87260277Y-84435081D01*
X87266760Y-84443195D01*
X87274394Y-84454716D01*
X87281009Y-84467100D01*
X87286607Y-84480349D01*
X87291187Y-84494461D01*
X87294750Y-84509437D01*
X87297294Y-84525276D01*
X87298821Y-84541979D01*
X87299330Y-84559546D01*
X87298763Y-84577124D01*
X87297062Y-84594030D01*
X87294226Y-84610264D01*
X87290257Y-84625826D01*
X87285153Y-84640716D01*
X87278916Y-84654935D01*
X87271544Y-84668482D01*
X87263038Y-84681357D01*
X87253398Y-84693561D01*
X87242623Y-84705093D01*
X87234811Y-84712407D01*
X87221973Y-84722590D01*
X87207537Y-84731772D01*
X87191504Y-84739952D01*
X87173873Y-84747130D01*
X87161232Y-84751359D01*
X87147880Y-84755143D01*
X87133819Y-84758482D01*
X87119047Y-84761376D01*
X87103566Y-84763824D01*
X87087374Y-84765827D01*
X87070473Y-84767385D01*
X87052861Y-84768498D01*
X87034539Y-84769166D01*
X87015507Y-84769389D01*
X86994314Y-84769162D01*
X86973928Y-84768482D01*
X86954348Y-84767350D01*
X86935576Y-84765763D01*
X86917610Y-84763724D01*
X86900452Y-84761232D01*
X86884100Y-84758286D01*
X86868556Y-84754887D01*
X86853818Y-84751036D01*
X86839887Y-84746730D01*
X86826764Y-84741972D01*
X86814447Y-84736761D01*
X86802937Y-84731096D01*
X86787186Y-84721750D01*
X86773250Y-84711384D01*
X86760833Y-84700102D01*
X86749637Y-84688136D01*
X86739663Y-84675487D01*
X86730910Y-84662154D01*
X86723378Y-84648137D01*
X86717067Y-84633436D01*
X86711978Y-84618052D01*
X86708111Y-84601984D01*
X86705464Y-84585232D01*
X86704039Y-84567797D01*
X86703768Y-84555793D01*
X86704359Y-84538040D01*
X86706133Y-84521118D01*
X86709090Y-84505028D01*
X86713229Y-84489769D01*
X86718550Y-84475343D01*
X86725055Y-84461748D01*
X86732742Y-84448984D01*
X86741611Y-84437053D01*
X86752114Y-84425926D01*
X86764701Y-84415578D01*
X86775508Y-84408328D01*
X86787489Y-84401515D01*
X86800641Y-84395141D01*
X86814966Y-84389204D01*
X86830463Y-84383705D01*
X86847132Y-84378644D01*
X86864974Y-84374021D01*
X86877519Y-84371182D01*
X86883987Y-84369835D01*
X86840871Y-84082880D01*
X86819816Y-84088803D01*
X86799456Y-84095312D01*
X86779792Y-84102409D01*
X86760823Y-84110091D01*
X86742550Y-84118360D01*
X86724972Y-84127215D01*
X86708090Y-84136657D01*
X86691903Y-84146686D01*
X86676412Y-84157300D01*
X86661616Y-84168501D01*
X86647516Y-84180289D01*
X86634111Y-84192663D01*
X86621402Y-84205624D01*
X86609388Y-84219171D01*
X86598070Y-84233304D01*
X86587447Y-84248024D01*
X86577493Y-84263310D01*
X86568182Y-84279229D01*
X86559512Y-84295778D01*
X86551485Y-84312960D01*
X86544100Y-84330773D01*
X86537357Y-84349219D01*
X86531256Y-84368296D01*
X86525797Y-84388004D01*
X86520981Y-84408345D01*
X86516807Y-84429317D01*
X86513275Y-84450921D01*
X86510385Y-84473157D01*
X86508137Y-84496024D01*
X86506532Y-84519524D01*
X86505569Y-84543655D01*
X86505247Y-84568418D01*
X85986333Y-84568418D01*
X85986333Y-84002696D01*
X86167762Y-84002696D01*
X86188212Y-83992033D01*
X86207995Y-83981797D01*
X86227111Y-83971987D01*
X86245562Y-83962604D01*
X86263345Y-83953648D01*
X86280463Y-83945117D01*
X86296914Y-83937014D01*
X86312698Y-83929336D01*
X86327816Y-83922086D01*
X86342268Y-83915262D01*
X86356053Y-83908864D01*
X86369172Y-83902893D01*
X86381624Y-83897348D01*
X86393410Y-83892230D01*
X86409839Y-83885353D01*
X86414983Y-83883274D01*
X86430381Y-83877238D01*
X86446215Y-83871286D01*
X86462485Y-83865418D01*
X86479192Y-83859634D01*
X86496334Y-83853934D01*
X86513913Y-83848318D01*
X86525875Y-83844621D01*
X86538030Y-83840961D01*
X86550380Y-83837338D01*
X86562923Y-83833753D01*
X86575660Y-83830205D01*
X86588591Y-83826694D01*
X86601716Y-83823221D01*
X86614895Y-83819822D01*
X86627990Y-83816535D01*
X86641000Y-83813361D01*
X86653925Y-83810298D01*
X86666765Y-83807347D01*
X86679520Y-83804508D01*
X86692190Y-83801781D01*
X86704776Y-83799166D01*
X86717277Y-83796663D01*
X86729693Y-83794272D01*
X86742024Y-83791993D01*
X86760362Y-83788784D01*
X86778509Y-83785827D01*
X86796465Y-83783122D01*
X86802408Y-83782276D01*
X86820301Y-83779837D01*
X86838271Y-83777638D01*
X86856317Y-83775679D01*
X86874440Y-83773959D01*
X86892638Y-83772480D01*
X86910913Y-83771240D01*
X86929265Y-83770241D01*
X86947692Y-83769481D01*
X86966197Y-83768961D01*
X86984777Y-83768681D01*
X86997206Y-83768628D01*
X87009864Y-83768676D01*
X87022479Y-83768818D01*
X87035052Y-83769057D01*
X87047583Y-83769390D01*
X87060071Y-83769819D01*
X87072517Y-83770343D01*
X87084920Y-83770963D01*
X87109599Y-83772487D01*
X87134109Y-83774393D01*
X87158449Y-83776681D01*
X87182620Y-83779349D01*
X87206620Y-83782398D01*
X87230452Y-83785829D01*
X87254113Y-83789641D01*
X87277605Y-83793834D01*
X87300927Y-83798409D01*
X87324080Y-83803364D01*
X87347063Y-83808701D01*
X87369876Y-83814419D01*
X87381220Y-83817421D01*
X87404222Y-83823829D01*
X87427942Y-83830941D01*
X87440071Y-83834761D01*
X87452379Y-83838757D01*
X87464866Y-83842928D01*
X87477533Y-83847276D01*
X87490379Y-83851800D01*
X87503405Y-83856499D01*
X87516610Y-83861375D01*
X87529994Y-83866426D01*
X87543557Y-83871654D01*
X87557300Y-83877057D01*
X87571222Y-83882636D01*
X87585324Y-83888392D01*
X87599604Y-83894323D01*
X87614064Y-83900430D01*
X87628704Y-83906713D01*
X87643523Y-83913172D01*
X87658521Y-83919807D01*
X87673698Y-83926617D01*
X87689055Y-83933604D01*
X87704591Y-83940767D01*
X87720306Y-83948106D01*
X87736201Y-83955620D01*
X87752275Y-83963311D01*
X87768529Y-83971177D01*
X87784961Y-83979219D01*
X87801573Y-83987438D01*
X87818365Y-83995832D01*
X87835335Y-84004402D01*
X87835335Y-83798313D01*
X87823472Y-83789040D01*
X87811572Y-83779901D01*
X87799636Y-83770897D01*
X87787663Y-83762028D01*
X87775654Y-83753293D01*
X87763609Y-83744693D01*
X87751528Y-83736227D01*
X87739410Y-83727896D01*
X87727255Y-83719700D01*
X87715065Y-83711638D01*
X87702838Y-83703711D01*
X87690574Y-83695919D01*
X87678275Y-83688261D01*
X87665939Y-83680738D01*
X87653566Y-83673349D01*
X87641157Y-83666095D01*
X87628712Y-83658976D01*
X87616231Y-83651991D01*
X87603713Y-83645141D01*
X87591159Y-83638425D01*
X87578568Y-83631844D01*
X87565942Y-83625398D01*
X87553278Y-83619086D01*
X87540579Y-83612909D01*
X87527843Y-83606867D01*
X87515071Y-83600959D01*
X87502262Y-83595186D01*
X87489417Y-83589547D01*
X87476536Y-83584043D01*
X87463618Y-83578674D01*
X87450664Y-83573439D01*
X87437674Y-83568339D01*
X87424659Y-83563385D01*
X87411633Y-83558588D01*
X87398594Y-83553949D01*
X87385543Y-83549466D01*
X87372480Y-83545141D01*
X87359405Y-83540973D01*
X87346317Y-83536963D01*
X87333218Y-83533110D01*
X87320106Y-83529414D01*
X87306983Y-83525875D01*
X87293847Y-83522493D01*
X87280699Y-83519269D01*
X87267539Y-83516202D01*
X87254367Y-83513293D01*
X87241183Y-83510541D01*
X87227986Y-83507946D01*
X87214778Y-83505508D01*
X87201557Y-83503227D01*
X87188325Y-83501104D01*
X87175080Y-83499138D01*
X87161823Y-83497329D01*
X87148554Y-83495678D01*
X87135273Y-83494184D01*
X87121980Y-83492847D01*
X87108674Y-83491668D01*
X87095357Y-83490645D01*
X87082027Y-83489780D01*
X87068685Y-83489072D01*
X87055331Y-83488522D01*
X87041965Y-83488129D01*
X87028587Y-83487893D01*
X87015197Y-83487814D01*
X86992567Y-83488064D01*
X86969730Y-83488811D01*
X86946688Y-83490057D01*
X86923440Y-83491802D01*
X86899985Y-83494045D01*
X86876325Y-83496787D01*
X86852459Y-83500027D01*
X86828386Y-83503766D01*
X86804108Y-83508003D01*
X86779624Y-83512738D01*
X86767304Y-83515293D01*
X86754933Y-83517972D01*
X86742511Y-83520776D01*
X86730037Y-83523705D01*
X86717512Y-83526758D01*
X86704935Y-83529936D01*
X86692307Y-83533239D01*
X86679627Y-83536666D01*
X86666895Y-83540217D01*
X86654112Y-83543894D01*
X86641278Y-83547695D01*
X86628392Y-83551620D01*
X86613932Y-83556236D01*
X86599476Y-83561041D01*
X86585024Y-83566035D01*
X86570576Y-83571218D01*
X86556133Y-83576591D01*
X86541693Y-83582153D01*
X86527258Y-83587904D01*
X86512828Y-83593844D01*
X86498401Y-83599974D01*
X86483979Y-83606293D01*
X86469561Y-83612801D01*
X86455147Y-83619499D01*
X86440738Y-83626386D01*
X86426332Y-83633462D01*
X86411931Y-83640727D01*
X86397535Y-83648182D01*
X86383142Y-83655826D01*
X86368754Y-83663659D01*
X86354370Y-83671681D01*
X86339990Y-83679893D01*
X86325614Y-83688294D01*
X86311243Y-83696884D01*
X86296876Y-83705663D01*
X86282513Y-83714632D01*
X86268154Y-83723790D01*
X86253800Y-83733137D01*
X86239450Y-83742673D01*
X86225104Y-83752399D01*
X86210762Y-83762314D01*
X86196425Y-83772418D01*
X86182091Y-83782712D01*
X86167762Y-83793195D01*
X86167762Y-84002696D01*
X85986333Y-84002696D01*
X85986333Y-83117946D01*
X88658700Y-83117946D01*
X88658700Y-84129966D01*
X89968935Y-84129966D01*
X89968935Y-83824245D01*
X88896924Y-83824245D01*
X88896924Y-83117946D01*
X88658700Y-83117946D01*
X85986333Y-83117946D01*
X85986333Y-81453537D01*
X86404126Y-81453537D01*
X86407706Y-81467315D01*
X86411465Y-81480883D01*
X86415405Y-81494241D01*
X86419524Y-81507389D01*
X86423823Y-81520327D01*
X86428303Y-81533055D01*
X86434555Y-81549700D01*
X86441127Y-81565971D01*
X86448019Y-81581869D01*
X86451585Y-81589678D01*
X86458841Y-81603326D01*
X86467066Y-81617883D01*
X86475181Y-81632027D01*
X86484965Y-81648935D01*
X86492414Y-81661744D01*
X86500605Y-81675782D01*
X86509537Y-81691048D01*
X86519211Y-81707543D01*
X86529627Y-81725267D01*
X86540784Y-81744220D01*
X86552683Y-81764402D01*
X86558910Y-81774954D01*
X86552412Y-81791940D01*
X86546333Y-81809203D01*
X86540673Y-81826743D01*
X86535433Y-81844560D01*
X86530611Y-81862655D01*
X86526209Y-81881027D01*
X86522227Y-81899676D01*
X86518663Y-81918602D01*
X86515519Y-81937806D01*
X86512794Y-81957286D01*
X86510488Y-81977045D01*
X86508601Y-81997080D01*
X86507134Y-82017392D01*
X86506086Y-82037982D01*
X86505457Y-82058849D01*
X86505247Y-82079993D01*
X86505401Y-82098077D01*
X86505421Y-82100433D01*
X86505941Y-82120595D01*
X86506807Y-82140480D01*
X86508020Y-82160086D01*
X86509579Y-82179415D01*
X86511485Y-82198465D01*
X86513738Y-82217238D01*
X86516337Y-82235733D01*
X86519282Y-82253950D01*
X86522574Y-82271889D01*
X86526213Y-82289550D01*
X86530198Y-82306933D01*
X86534530Y-82324039D01*
X86539208Y-82340866D01*
X86544233Y-82357416D01*
X86549604Y-82373687D01*
X86555322Y-82389681D01*
X86561387Y-82405397D01*
X86567798Y-82420835D01*
X86574555Y-82435995D01*
X86581659Y-82450877D01*
X86589110Y-82465481D01*
X86596907Y-82479808D01*
X86605051Y-82493856D01*
X86613541Y-82507627D01*
X86622377Y-82521119D01*
X86631561Y-82534334D01*
X86641091Y-82547271D01*
X86650967Y-82559930D01*
X86661190Y-82572311D01*
X86671759Y-82584414D01*
X86682675Y-82596240D01*
X86693923Y-82607722D01*
X86705447Y-82618841D01*
X86717250Y-82629594D01*
X86729329Y-82639984D01*
X86741687Y-82650008D01*
X86754321Y-82659668D01*
X86767234Y-82668964D01*
X86780423Y-82677895D01*
X86793890Y-82686461D01*
X86807635Y-82694663D01*
X86821657Y-82702501D01*
X86835957Y-82709974D01*
X86850534Y-82717082D01*
X86865388Y-82723826D01*
X86880520Y-82730205D01*
X86895930Y-82736220D01*
X86911617Y-82741870D01*
X86927581Y-82747156D01*
X86943823Y-82752077D01*
X86960342Y-82756634D01*
X86977139Y-82760826D01*
X86994213Y-82764654D01*
X87011565Y-82768117D01*
X87029194Y-82771215D01*
X87047101Y-82773949D01*
X87065285Y-82776319D01*
X87083747Y-82778323D01*
X87102486Y-82779964D01*
X87121503Y-82781240D01*
X87140797Y-82782151D01*
X87160368Y-82782698D01*
X87180217Y-82782880D01*
X87200010Y-82782697D01*
X87219527Y-82782148D01*
X87238769Y-82781234D01*
X87257735Y-82779953D01*
X87276427Y-82778307D01*
X87294844Y-82776295D01*
X87312986Y-82773916D01*
X87330853Y-82771172D01*
X87348444Y-82768063D01*
X87365761Y-82764587D01*
X87382803Y-82760745D01*
X87399569Y-82756538D01*
X87416061Y-82751965D01*
X87432277Y-82747025D01*
X87448218Y-82741720D01*
X87463885Y-82736049D01*
X87479276Y-82730013D01*
X87494392Y-82723610D01*
X87509233Y-82716842D01*
X87523800Y-82709707D01*
X87538091Y-82702207D01*
X87552107Y-82694341D01*
X87565848Y-82686109D01*
X87579314Y-82677511D01*
X87592504Y-82668547D01*
X87605420Y-82659218D01*
X87618061Y-82649522D01*
X87630427Y-82639461D01*
X87642518Y-82629034D01*
X87654333Y-82618241D01*
X87665874Y-82607082D01*
X87677139Y-82595557D01*
X87688093Y-82583719D01*
X87698700Y-82571621D01*
X87708958Y-82559262D01*
X87718869Y-82546642D01*
X87728432Y-82533762D01*
X87737648Y-82520621D01*
X87746515Y-82507220D01*
X87755035Y-82493558D01*
X87763207Y-82479635D01*
X87771032Y-82465452D01*
X87778508Y-82451008D01*
X87785637Y-82436304D01*
X87792418Y-82421339D01*
X87798852Y-82406114D01*
X87804938Y-82390628D01*
X87810675Y-82374882D01*
X87816066Y-82358874D01*
X87821108Y-82342607D01*
X87825803Y-82326079D01*
X87830149Y-82309290D01*
X87834149Y-82292240D01*
X87837800Y-82274930D01*
X87841104Y-82257360D01*
X87844059Y-82239529D01*
X87846668Y-82221437D01*
X87848928Y-82203085D01*
X87850841Y-82184472D01*
X87852405Y-82165599D01*
X87853623Y-82146465D01*
X87854492Y-82127070D01*
X87855014Y-82107415D01*
X87855187Y-82087500D01*
X87855014Y-82067774D01*
X87854493Y-82048305D01*
X87853625Y-82029092D01*
X87852410Y-82010136D01*
X87850848Y-81991437D01*
X87848939Y-81972994D01*
X87846682Y-81954808D01*
X87844079Y-81936878D01*
X87841128Y-81919205D01*
X87837830Y-81901788D01*
X87834185Y-81884628D01*
X87830193Y-81867725D01*
X87825854Y-81851078D01*
X87821167Y-81834688D01*
X87816134Y-81818554D01*
X87810753Y-81802677D01*
X87809095Y-81798156D01*
X88638847Y-81798156D01*
X88638856Y-81799180D01*
X88639021Y-81817947D01*
X88639543Y-81837483D01*
X88640412Y-81856764D01*
X88641629Y-81875791D01*
X88643194Y-81894564D01*
X88645107Y-81913081D01*
X88647367Y-81931345D01*
X88649975Y-81949353D01*
X88652931Y-81967108D01*
X88656235Y-81984607D01*
X88659886Y-82001852D01*
X88663885Y-82018842D01*
X88668232Y-82035578D01*
X88672927Y-82052059D01*
X88677969Y-82068286D01*
X88683359Y-82084258D01*
X88689097Y-82099976D01*
X88695183Y-82115439D01*
X88701616Y-82130647D01*
X88708398Y-82145601D01*
X88715526Y-82160300D01*
X88723003Y-82174745D01*
X88730827Y-82188935D01*
X88739000Y-82202870D01*
X88747519Y-82216551D01*
X88756387Y-82229978D01*
X88765602Y-82243150D01*
X88775166Y-82256067D01*
X88785076Y-82268729D01*
X88795335Y-82281137D01*
X88805941Y-82293291D01*
X88816896Y-82305190D01*
X88828154Y-82316778D01*
X88839671Y-82327998D01*
X88851449Y-82338850D01*
X88863487Y-82349334D01*
X88875784Y-82359450D01*
X88888342Y-82369198D01*
X88901159Y-82378579D01*
X88914237Y-82387591D01*
X88927574Y-82396236D01*
X88941171Y-82404513D01*
X88955028Y-82412422D01*
X88969145Y-82419964D01*
X88983522Y-82427137D01*
X88998158Y-82433942D01*
X89013055Y-82440380D01*
X89028211Y-82446450D01*
X89043628Y-82452152D01*
X89059304Y-82457486D01*
X89075240Y-82462452D01*
X89091437Y-82467050D01*
X89107893Y-82471281D01*
X89124609Y-82475143D01*
X89141584Y-82478638D01*
X89158820Y-82481765D01*
X89176316Y-82484524D01*
X89194071Y-82486915D01*
X89212087Y-82488938D01*
X89230362Y-82490593D01*
X89248897Y-82491881D01*
X89267693Y-82492801D01*
X89286748Y-82493352D01*
X89306063Y-82493536D01*
X89330631Y-82493282D01*
X89354704Y-82492518D01*
X89378283Y-82491245D01*
X89401368Y-82489463D01*
X89423959Y-82487172D01*
X89446055Y-82484372D01*
X89467656Y-82481062D01*
X89488764Y-82477244D01*
X89509377Y-82472916D01*
X89529495Y-82468079D01*
X89549120Y-82462733D01*
X89568249Y-82456878D01*
X89586885Y-82450514D01*
X89605026Y-82443640D01*
X89622673Y-82436258D01*
X89639825Y-82428366D01*
X89652231Y-82422127D01*
X89664476Y-82415608D01*
X89676561Y-82408809D01*
X89688486Y-82401730D01*
X89700252Y-82394372D01*
X89711857Y-82386733D01*
X89723302Y-82378815D01*
X89734588Y-82370616D01*
X89745714Y-82362138D01*
X89756679Y-82353380D01*
X89767485Y-82344342D01*
X89778131Y-82335024D01*
X89788617Y-82325426D01*
X89798942Y-82315549D01*
X89809108Y-82305391D01*
X89819114Y-82294954D01*
X89828880Y-82284314D01*
X89838327Y-82273548D01*
X89847453Y-82262658D01*
X89856259Y-82251642D01*
X89864746Y-82240501D01*
X89872913Y-82229234D01*
X89880759Y-82217842D01*
X89888286Y-82206325D01*
X89895493Y-82194683D01*
X89902381Y-82182915D01*
X89908948Y-82171022D01*
X89915195Y-82159004D01*
X89921123Y-82146860D01*
X89926730Y-82134592D01*
X89932018Y-82122198D01*
X89936986Y-82109678D01*
X89943259Y-82092843D01*
X89949127Y-82075691D01*
X89954590Y-82058221D01*
X89959649Y-82040434D01*
X89964303Y-82022330D01*
X89968552Y-82003909D01*
X89972397Y-81985171D01*
X89975837Y-81966115D01*
X89978872Y-81946742D01*
X89981503Y-81927052D01*
X89983729Y-81907045D01*
X89985550Y-81886721D01*
X89986966Y-81866079D01*
X89987978Y-81845120D01*
X89988585Y-81823844D01*
X89988787Y-81802250D01*
X89988612Y-81782626D01*
X89988087Y-81763249D01*
X89987212Y-81744118D01*
X89985986Y-81725234D01*
X89984410Y-81706596D01*
X89982484Y-81688205D01*
X89980208Y-81670060D01*
X89977582Y-81652162D01*
X89974605Y-81634510D01*
X89971279Y-81617106D01*
X89967602Y-81599947D01*
X89963575Y-81583035D01*
X89959198Y-81566370D01*
X89954470Y-81549952D01*
X89949393Y-81533780D01*
X89943965Y-81517854D01*
X89938187Y-81502175D01*
X89932059Y-81486743D01*
X89925581Y-81471557D01*
X89918753Y-81456618D01*
X89911574Y-81441926D01*
X89904045Y-81427480D01*
X89896166Y-81413280D01*
X89887937Y-81399327D01*
X89879358Y-81385621D01*
X89870429Y-81372161D01*
X89861149Y-81358948D01*
X89851519Y-81345982D01*
X89841539Y-81333262D01*
X89831209Y-81320788D01*
X89820529Y-81308562D01*
X89809499Y-81296581D01*
X89798157Y-81284910D01*
X89786545Y-81273608D01*
X89774660Y-81262678D01*
X89762505Y-81252118D01*
X89750078Y-81241928D01*
X89737380Y-81232109D01*
X89724410Y-81222661D01*
X89711169Y-81213583D01*
X89697656Y-81204875D01*
X89683872Y-81196538D01*
X89669817Y-81188572D01*
X89655490Y-81180976D01*
X89640892Y-81173751D01*
X89626022Y-81166896D01*
X89610881Y-81160412D01*
X89595469Y-81154298D01*
X89579785Y-81148555D01*
X89563829Y-81143182D01*
X89547603Y-81138180D01*
X89531104Y-81133548D01*
X89514335Y-81129287D01*
X89497294Y-81125397D01*
X89479981Y-81121877D01*
X89462398Y-81118727D01*
X89444542Y-81115948D01*
X89426416Y-81113540D01*
X89408018Y-81111502D01*
X89389348Y-81109834D01*
X89370407Y-81108537D01*
X89351195Y-81107611D01*
X89331711Y-81107055D01*
X89311956Y-81106870D01*
X89292373Y-81107054D01*
X89273057Y-81107606D01*
X89254007Y-81108525D01*
X89235223Y-81109813D01*
X89216707Y-81111468D01*
X89198456Y-81113492D01*
X89180473Y-81115883D01*
X89162756Y-81118642D01*
X89145305Y-81121769D01*
X89128121Y-81125263D01*
X89111204Y-81129126D01*
X89094553Y-81133356D01*
X89078169Y-81137955D01*
X89062051Y-81142921D01*
X89046200Y-81148255D01*
X89030615Y-81153957D01*
X89015297Y-81160026D01*
X89000246Y-81166464D01*
X88985461Y-81173270D01*
X88970943Y-81180443D01*
X88956691Y-81187984D01*
X88942706Y-81195893D01*
X88928988Y-81204170D01*
X88915536Y-81212815D01*
X88902350Y-81221828D01*
X88889431Y-81231208D01*
X88876779Y-81240957D01*
X88864393Y-81251073D01*
X88852274Y-81261557D01*
X88840421Y-81272409D01*
X88828835Y-81283629D01*
X88817516Y-81295216D01*
X88806524Y-81307111D01*
X88795880Y-81319253D01*
X88785586Y-81331641D01*
X88775641Y-81344276D01*
X88766044Y-81357157D01*
X88756797Y-81370285D01*
X88747898Y-81383659D01*
X88739348Y-81397280D01*
X88731148Y-81411148D01*
X88723296Y-81425262D01*
X88715794Y-81439622D01*
X88708640Y-81454230D01*
X88701835Y-81469084D01*
X88695379Y-81484184D01*
X88689272Y-81499531D01*
X88683515Y-81515125D01*
X88678106Y-81530965D01*
X88673046Y-81547051D01*
X88668335Y-81563385D01*
X88663973Y-81579965D01*
X88659960Y-81596791D01*
X88656296Y-81613864D01*
X88652980Y-81631184D01*
X88650014Y-81648750D01*
X88647397Y-81666563D01*
X88645129Y-81684622D01*
X88643209Y-81702928D01*
X88641639Y-81721480D01*
X88640418Y-81740279D01*
X88639545Y-81759325D01*
X88639022Y-81778617D01*
X88638847Y-81798156D01*
X87809095Y-81798156D01*
X87805025Y-81787056D01*
X87798950Y-81771692D01*
X87792528Y-81756585D01*
X87785759Y-81741734D01*
X87778642Y-81727140D01*
X87771178Y-81712802D01*
X87763368Y-81698721D01*
X87755210Y-81684896D01*
X87746705Y-81671328D01*
X87737853Y-81658017D01*
X87728653Y-81644962D01*
X87719107Y-81632164D01*
X87709213Y-81619622D01*
X87698972Y-81607337D01*
X87688385Y-81595309D01*
X87677449Y-81583537D01*
X87666223Y-81572075D01*
X87654721Y-81560977D01*
X87642944Y-81550243D01*
X87630892Y-81539873D01*
X87618565Y-81529866D01*
X87605963Y-81520224D01*
X87593086Y-81510945D01*
X87579934Y-81502031D01*
X87566507Y-81493480D01*
X87552805Y-81485293D01*
X87538827Y-81477470D01*
X87524575Y-81470011D01*
X87510048Y-81462915D01*
X87495245Y-81456184D01*
X87480168Y-81449816D01*
X87464815Y-81443812D01*
X87449188Y-81438172D01*
X87433285Y-81432896D01*
X87417107Y-81427984D01*
X87400655Y-81423436D01*
X87383927Y-81419251D01*
X87366924Y-81415431D01*
X87349646Y-81411974D01*
X87332093Y-81408881D01*
X87314265Y-81406152D01*
X87296162Y-81403787D01*
X87277784Y-81401786D01*
X87259131Y-81400148D01*
X87240203Y-81398875D01*
X87221000Y-81397965D01*
X87201522Y-81397419D01*
X87181768Y-81397237D01*
X87160912Y-81397439D01*
X87140373Y-81398042D01*
X87120151Y-81399049D01*
X87100247Y-81400458D01*
X87080660Y-81402269D01*
X87061391Y-81404483D01*
X87042439Y-81407099D01*
X87023805Y-81410118D01*
X87005488Y-81413539D01*
X86987489Y-81417363D01*
X86969807Y-81421590D01*
X86952442Y-81426219D01*
X86935395Y-81431250D01*
X86918666Y-81436684D01*
X86902253Y-81442521D01*
X86886159Y-81448760D01*
X86873965Y-81453815D01*
X86861887Y-81459172D01*
X86849925Y-81464830D01*
X86838080Y-81470789D01*
X86826351Y-81477049D01*
X86814738Y-81483611D01*
X86803242Y-81490474D01*
X86791862Y-81497638D01*
X86780598Y-81505103D01*
X86769450Y-81512869D01*
X86758419Y-81520937D01*
X86747505Y-81529306D01*
X86736706Y-81537976D01*
X86726024Y-81546947D01*
X86715458Y-81556220D01*
X86705009Y-81565794D01*
X86697438Y-81553952D01*
X86690003Y-81541797D01*
X86682704Y-81529331D01*
X86675541Y-81516553D01*
X86668513Y-81503464D01*
X86661621Y-81490062D01*
X86654865Y-81476348D01*
X86648244Y-81462323D01*
X86641759Y-81447985D01*
X86635410Y-81433336D01*
X86629197Y-81418375D01*
X86623119Y-81403102D01*
X86617177Y-81387517D01*
X86611371Y-81371620D01*
X86605700Y-81355412D01*
X86600165Y-81338891D01*
X86404126Y-81453537D01*
X85986333Y-81453537D01*
X85986333Y-80842776D01*
X86525100Y-80842776D01*
X87835335Y-81353222D01*
X87835335Y-81021909D01*
X86903840Y-80673878D01*
X87673007Y-80395794D01*
X88638847Y-80395794D01*
X88638959Y-80412605D01*
X88639292Y-80429171D01*
X88639848Y-80445494D01*
X88640626Y-80461572D01*
X88641627Y-80477407D01*
X88642850Y-80492998D01*
X88644295Y-80508345D01*
X88645962Y-80523448D01*
X88647852Y-80538307D01*
X88649965Y-80552923D01*
X88652299Y-80567294D01*
X88654856Y-80581422D01*
X88657635Y-80595305D01*
X88660637Y-80608945D01*
X88663861Y-80622340D01*
X88667307Y-80635492D01*
X88674867Y-80661064D01*
X88683316Y-80685660D01*
X88692654Y-80709281D01*
X88702882Y-80731926D01*
X88713999Y-80753595D01*
X88726006Y-80774289D01*
X88738901Y-80794007D01*
X88752687Y-80812749D01*
X88767399Y-80830551D01*
X88782998Y-80847446D01*
X88799484Y-80863435D01*
X88816857Y-80878517D01*
X88835117Y-80892693D01*
X88854264Y-80905963D01*
X88874297Y-80918326D01*
X88895218Y-80929783D01*
X88917026Y-80940334D01*
X88939721Y-80949979D01*
X88963302Y-80958717D01*
X88975426Y-80962746D01*
X88987771Y-80966549D01*
X89000338Y-80970125D01*
X89013126Y-80973474D01*
X89026136Y-80976597D01*
X89039369Y-80979493D01*
X89052822Y-80982163D01*
X89066498Y-80984606D01*
X89080395Y-80986822D01*
X89094514Y-80988812D01*
X89115917Y-80691280D01*
X89100187Y-80687853D01*
X89085024Y-80684056D01*
X89070429Y-80679888D01*
X89056400Y-80675349D01*
X89042938Y-80670441D01*
X89030044Y-80665161D01*
X89017716Y-80659511D01*
X89005955Y-80653491D01*
X88994762Y-80647100D01*
X88979035Y-80636819D01*
X88964584Y-80625704D01*
X88951409Y-80613755D01*
X88939510Y-80600973D01*
X88932286Y-80591988D01*
X88922418Y-80577775D01*
X88913522Y-80562643D01*
X88905596Y-80546594D01*
X88898640Y-80529627D01*
X88892655Y-80511743D01*
X88887640Y-80492941D01*
X88883596Y-80473221D01*
X88881440Y-80459565D01*
X88879714Y-80445501D01*
X88878420Y-80431029D01*
X88877557Y-80416149D01*
X88877126Y-80400861D01*
X88877072Y-80393064D01*
X88877265Y-80376652D01*
X88877843Y-80360767D01*
X88878806Y-80345410D01*
X88880155Y-80330581D01*
X88881889Y-80316280D01*
X88884008Y-80302506D01*
X88887909Y-80282835D01*
X88892677Y-80264352D01*
X88898312Y-80247056D01*
X88904815Y-80230948D01*
X88912184Y-80216028D01*
X88920420Y-80202295D01*
X88926392Y-80193799D01*
X88935776Y-80181970D01*
X88945432Y-80171304D01*
X88955361Y-80161801D01*
X88965563Y-80153462D01*
X88979589Y-80144154D01*
X88994100Y-80136914D01*
X89009096Y-80131742D01*
X89024576Y-80128640D01*
X89040541Y-80127605D01*
X89053041Y-80128272D01*
X89067262Y-80130831D01*
X89080631Y-80135309D01*
X89093150Y-80141707D01*
X89104819Y-80150024D01*
X89110334Y-80154902D01*
X89119279Y-80164375D01*
X89127891Y-80175947D01*
X89136170Y-80189619D01*
X89142553Y-80202068D01*
X89148723Y-80215860D01*
X89154679Y-80230996D01*
X89160423Y-80247475D01*
X89161825Y-80251805D01*
X89166182Y-80266167D01*
X89169978Y-80279556D01*
X89174227Y-80295189D01*
X89178928Y-80313064D01*
X89182313Y-80326227D01*
X89185900Y-80340387D01*
X89189687Y-80355544D01*
X89193676Y-80371698D01*
X89197866Y-80388849D01*
X89202257Y-80406997D01*
X89206849Y-80426142D01*
X89211643Y-80446284D01*
X89216637Y-80467423D01*
X89219210Y-80478366D01*
X89222587Y-80492670D01*
X89226011Y-80506705D01*
X89229482Y-80520473D01*
X89232999Y-80533972D01*
X89236563Y-80547204D01*
X89243830Y-80572864D01*
X89251284Y-80597452D01*
X89258925Y-80620969D01*
X89266753Y-80643414D01*
X89274767Y-80664787D01*
X89282967Y-80685089D01*
X89291355Y-80704319D01*
X89299928Y-80722478D01*
X89308689Y-80739565D01*
X89317636Y-80755581D01*
X89326769Y-80770524D01*
X89336090Y-80784397D01*
X89345596Y-80797197D01*
X89350420Y-80803196D01*
X89364333Y-80819351D01*
X89378623Y-80834464D01*
X89393287Y-80848535D01*
X89408328Y-80861563D01*
X89423744Y-80873550D01*
X89439536Y-80884494D01*
X89455703Y-80894395D01*
X89472246Y-80903255D01*
X89489165Y-80911072D01*
X89506459Y-80917847D01*
X89524129Y-80923579D01*
X89542174Y-80928269D01*
X89560595Y-80931917D01*
X89579392Y-80934523D01*
X89598564Y-80936086D01*
X89618112Y-80936608D01*
X89630742Y-80936364D01*
X89643271Y-80935632D01*
X89655702Y-80934412D01*
X89668033Y-80932705D01*
X89686344Y-80929229D01*
X89704431Y-80924656D01*
X89722294Y-80918985D01*
X89734079Y-80914595D01*
X89745764Y-80909717D01*
X89757350Y-80904351D01*
X89768837Y-80898497D01*
X89780224Y-80892155D01*
X89791512Y-80885326D01*
X89802701Y-80878008D01*
X89808258Y-80874167D01*
X89819180Y-80866106D01*
X89829767Y-80857618D01*
X89840021Y-80848704D01*
X89849939Y-80839364D01*
X89859524Y-80829597D01*
X89868774Y-80819403D01*
X89877689Y-80808783D01*
X89886270Y-80797736D01*
X89894517Y-80786263D01*
X89902429Y-80774364D01*
X89910007Y-80762037D01*
X89917250Y-80749285D01*
X89924159Y-80736106D01*
X89930734Y-80722500D01*
X89936974Y-80708468D01*
X89942880Y-80694009D01*
X89948439Y-80679153D01*
X89953639Y-80663930D01*
X89958481Y-80648338D01*
X89962964Y-80632379D01*
X89967089Y-80616051D01*
X89970855Y-80599356D01*
X89974262Y-80582293D01*
X89977310Y-80564862D01*
X89980000Y-80547064D01*
X89982332Y-80528897D01*
X89984304Y-80510362D01*
X89985918Y-80491460D01*
X89987173Y-80472190D01*
X89988070Y-80452552D01*
X89988608Y-80432546D01*
X89988787Y-80412172D01*
X89988679Y-80395496D01*
X89988354Y-80379078D01*
X89987811Y-80362916D01*
X89987052Y-80347012D01*
X89986076Y-80331365D01*
X89984883Y-80315976D01*
X89983474Y-80300843D01*
X89981847Y-80285968D01*
X89980003Y-80271350D01*
X89977943Y-80256989D01*
X89975666Y-80242886D01*
X89973171Y-80229040D01*
X89970460Y-80215451D01*
X89967532Y-80202119D01*
X89961026Y-80176227D01*
X89953651Y-80151364D01*
X89945410Y-80127531D01*
X89936300Y-80104726D01*
X89926323Y-80082950D01*
X89915479Y-80062203D01*
X89903767Y-80042485D01*
X89891187Y-80023796D01*
X89877740Y-80006135D01*
X89863568Y-79989456D01*
X89848737Y-79973795D01*
X89833247Y-79959153D01*
X89817098Y-79945528D01*
X89800290Y-79932922D01*
X89782822Y-79921335D01*
X89764696Y-79910765D01*
X89745910Y-79901214D01*
X89726465Y-79892681D01*
X89706361Y-79885167D01*
X89685598Y-79878671D01*
X89664175Y-79873193D01*
X89642094Y-79868733D01*
X89619353Y-79865291D01*
X89595953Y-79862868D01*
X89571894Y-79861464D01*
X89571894Y-80166162D01*
X89584105Y-80168657D01*
X89601541Y-80172959D01*
X89617918Y-80177933D01*
X89633238Y-80183579D01*
X89647500Y-80189897D01*
X89660704Y-80196886D01*
X89672851Y-80204547D01*
X89683939Y-80212880D01*
X89693970Y-80221885D01*
X89702943Y-80231561D01*
X89710859Y-80241910D01*
X89717954Y-80253116D01*
X89724352Y-80265365D01*
X89730052Y-80278658D01*
X89735053Y-80292995D01*
X89739357Y-80308375D01*
X89742963Y-80324799D01*
X89745871Y-80342267D01*
X89748081Y-80360778D01*
X89749593Y-80380333D01*
X89750408Y-80400931D01*
X89750563Y-80415243D01*
X89750393Y-80430049D01*
X89749884Y-80444443D01*
X89749036Y-80458423D01*
X89747128Y-80478619D01*
X89744456Y-80497884D01*
X89741021Y-80516221D01*
X89736822Y-80533627D01*
X89731861Y-80550104D01*
X89726135Y-80565651D01*
X89719647Y-80580269D01*
X89712395Y-80593957D01*
X89707136Y-80602566D01*
X89698555Y-80614263D01*
X89689095Y-80623978D01*
X89678756Y-80631710D01*
X89665190Y-80638371D01*
X89652919Y-80641742D01*
X89639769Y-80643130D01*
X89637034Y-80643169D01*
X89622537Y-80641826D01*
X89608826Y-80637795D01*
X89595900Y-80631078D01*
X89583759Y-80621673D01*
X89574241Y-80611784D01*
X89568792Y-80604954D01*
X89561404Y-80593868D01*
X89553896Y-80580059D01*
X89546268Y-80563527D01*
X89541116Y-80550993D01*
X89535911Y-80537249D01*
X89530652Y-80522295D01*
X89525340Y-80506130D01*
X89519975Y-80488755D01*
X89514556Y-80470170D01*
X89509084Y-80450375D01*
X89503559Y-80429369D01*
X89497980Y-80407153D01*
X89492348Y-80383727D01*
X89486663Y-80359091D01*
X89483801Y-80346319D01*
X89478051Y-80320884D01*
X89472280Y-80296274D01*
X89466487Y-80272486D01*
X89460672Y-80249523D01*
X89454836Y-80227383D01*
X89448977Y-80206067D01*
X89443097Y-80185574D01*
X89437195Y-80165906D01*
X89431271Y-80147061D01*
X89425325Y-80129039D01*
X89419358Y-80111842D01*
X89413369Y-80095468D01*
X89407357Y-80079918D01*
X89401324Y-80065191D01*
X89395270Y-80051288D01*
X89389193Y-80038209D01*
X89382963Y-80025712D01*
X89376446Y-80013557D01*
X89369644Y-80001742D01*
X89362556Y-79990269D01*
X89355182Y-79979137D01*
X89347521Y-79968347D01*
X89335495Y-79952800D01*
X89322825Y-79938022D01*
X89309512Y-79924011D01*
X89295555Y-79910768D01*
X89280955Y-79898293D01*
X89265712Y-79886585D01*
X89255192Y-79879206D01*
X89244414Y-79872224D01*
X89233328Y-79865691D01*
X89221935Y-79859610D01*
X89210234Y-79853978D01*
X89198225Y-79848798D01*
X89185908Y-79844067D01*
X89173284Y-79839788D01*
X89160352Y-79835958D01*
X89147112Y-79832580D01*
X89133564Y-79829651D01*
X89119709Y-79827174D01*
X89105545Y-79825146D01*
X89091074Y-79823570D01*
X89076296Y-79822443D01*
X89061209Y-79821768D01*
X89045815Y-79821542D01*
X89031717Y-79821812D01*
X89017728Y-79822619D01*
X89003848Y-79823965D01*
X88990078Y-79825850D01*
X88976416Y-79828273D01*
X88962863Y-79831235D01*
X88949420Y-79834735D01*
X88936085Y-79838773D01*
X88922860Y-79843350D01*
X88909744Y-79848466D01*
X88896736Y-79854120D01*
X88883838Y-79860312D01*
X88871049Y-79867043D01*
X88858369Y-79874312D01*
X88845798Y-79882120D01*
X88833336Y-79890466D01*
X88821167Y-79899303D01*
X88809398Y-79908582D01*
X88798029Y-79918304D01*
X88787059Y-79928468D01*
X88776490Y-79939075D01*
X88766320Y-79950124D01*
X88756551Y-79961616D01*
X88747181Y-79973550D01*
X88738211Y-79985927D01*
X88729641Y-79998746D01*
X88721470Y-80012008D01*
X88713700Y-80025712D01*
X88706329Y-80039859D01*
X88699358Y-80054448D01*
X88692788Y-80069480D01*
X88686616Y-80084954D01*
X88680832Y-80100883D01*
X88675421Y-80117278D01*
X88670382Y-80134140D01*
X88665718Y-80151468D01*
X88661426Y-80169263D01*
X88657507Y-80187524D01*
X88653962Y-80206252D01*
X88650790Y-80225446D01*
X88647991Y-80245107D01*
X88645565Y-80265234D01*
X88643512Y-80285828D01*
X88641833Y-80306888D01*
X88640527Y-80328415D01*
X88639594Y-80350408D01*
X88639034Y-80372868D01*
X88638847Y-80395794D01*
X87673007Y-80395794D01*
X87835335Y-80337106D01*
X87835335Y-80012618D01*
X86525100Y-80523747D01*
X86525100Y-80842776D01*
X85986333Y-80842776D01*
X85986333Y-79629443D01*
X86525100Y-79629443D01*
X86525100Y-79921175D01*
X87477998Y-79921175D01*
X87477998Y-79629443D01*
X87597111Y-79629443D01*
X87597111Y-79921175D01*
X87835335Y-79921175D01*
X87835335Y-79760807D01*
X88658700Y-79760807D01*
X89968935Y-79406975D01*
X89968935Y-79182120D01*
X88658700Y-79539705D01*
X88658700Y-79760807D01*
X87835335Y-79760807D01*
X87835335Y-79629443D01*
X87597111Y-79629443D01*
X87477998Y-79629443D01*
X86525100Y-79629443D01*
X85986333Y-79629443D01*
X85986333Y-78968865D01*
X86505247Y-78968865D01*
X86505406Y-78985703D01*
X86505882Y-79002266D01*
X86506676Y-79018555D01*
X86507787Y-79034569D01*
X86509216Y-79050309D01*
X86510962Y-79065774D01*
X86513025Y-79080964D01*
X86515406Y-79095880D01*
X86518105Y-79110521D01*
X86521120Y-79124888D01*
X86524454Y-79138980D01*
X86528104Y-79152797D01*
X86532073Y-79166340D01*
X86536358Y-79179609D01*
X86540962Y-79192603D01*
X86545882Y-79205322D01*
X86551120Y-79217767D01*
X86562549Y-79241833D01*
X86575247Y-79264800D01*
X86589215Y-79286669D01*
X86604453Y-79307440D01*
X86620961Y-79327113D01*
X86638739Y-79345687D01*
X86657786Y-79363164D01*
X86667786Y-79371490D01*
X86684293Y-79383927D01*
X86701320Y-79395561D01*
X86718869Y-79406393D01*
X86736939Y-79416423D01*
X86755530Y-79425650D01*
X86774641Y-79434075D01*
X86794274Y-79441697D01*
X86814428Y-79448517D01*
X86835103Y-79454535D01*
X86856298Y-79459751D01*
X86878015Y-79464164D01*
X86900253Y-79467774D01*
X86923012Y-79470583D01*
X86946292Y-79472589D01*
X86970093Y-79473792D01*
X86994415Y-79474193D01*
X87009011Y-79474061D01*
X87023410Y-79473664D01*
X87037611Y-79473003D01*
X87051615Y-79472077D01*
X87065422Y-79470886D01*
X87079031Y-79469431D01*
X87092442Y-79467711D01*
X87105656Y-79465727D01*
X87118672Y-79463478D01*
X87131491Y-79460965D01*
X87144113Y-79458187D01*
X87156536Y-79455144D01*
X87168763Y-79451837D01*
X87180792Y-79448266D01*
X87204257Y-79440329D01*
X87226932Y-79431333D01*
X87248818Y-79421280D01*
X87269913Y-79410168D01*
X87290218Y-79397997D01*
X87309733Y-79384769D01*
X87328458Y-79370482D01*
X87346394Y-79355137D01*
X87363539Y-79338734D01*
X87379803Y-79321520D01*
X87395018Y-79303744D01*
X87409184Y-79285406D01*
X87422300Y-79266505D01*
X87434367Y-79247041D01*
X87445385Y-79227015D01*
X87455353Y-79206427D01*
X87464272Y-79185276D01*
X87472142Y-79163563D01*
X87478963Y-79141287D01*
X87484734Y-79118449D01*
X87489456Y-79095048D01*
X87493128Y-79071085D01*
X87495752Y-79046559D01*
X87497326Y-79021471D01*
X87497850Y-78995821D01*
X87497714Y-78981394D01*
X87497304Y-78967158D01*
X87496621Y-78953114D01*
X87495665Y-78939260D01*
X87494435Y-78925598D01*
X87491156Y-78898848D01*
X87486784Y-78872863D01*
X87481320Y-78847643D01*
X87474762Y-78823188D01*
X87467112Y-78799498D01*
X87458368Y-78776573D01*
X87448532Y-78754414D01*
X87437603Y-78733019D01*
X87425580Y-78712389D01*
X87412465Y-78692524D01*
X87398257Y-78673425D01*
X87382956Y-78655090D01*
X87366562Y-78637521D01*
X87357955Y-78629023D01*
X87339859Y-78612768D01*
X87320544Y-78597611D01*
X87300010Y-78583552D01*
X87278256Y-78570591D01*
X87266923Y-78564523D01*
X87255284Y-78558729D01*
X87243341Y-78553210D01*
X87231093Y-78547965D01*
X87218541Y-78542995D01*
X87205683Y-78538299D01*
X87192521Y-78533878D01*
X87179054Y-78529732D01*
X87165283Y-78525860D01*
X87151206Y-78522262D01*
X87136825Y-78518940D01*
X87122140Y-78515891D01*
X87107149Y-78513118D01*
X87091854Y-78510619D01*
X87076254Y-78508394D01*
X87060349Y-78506444D01*
X87044140Y-78504769D01*
X87027625Y-78503368D01*
X87010806Y-78502242D01*
X86993683Y-78501390D01*
X86976254Y-78500813D01*
X86958521Y-78500510D01*
X86940483Y-78500482D01*
X86922141Y-78500729D01*
X86922141Y-78790414D01*
X86922141Y-79175637D01*
X86903931Y-79174688D01*
X86886408Y-79172738D01*
X86869573Y-79169786D01*
X86853424Y-79165833D01*
X86837963Y-79160877D01*
X86823188Y-79154921D01*
X86809101Y-79147962D01*
X86795700Y-79140002D01*
X86782987Y-79131040D01*
X86770960Y-79121077D01*
X86763324Y-79113878D01*
X86752681Y-79102492D01*
X86743084Y-79090595D01*
X86734535Y-79078189D01*
X86727032Y-79065272D01*
X86720576Y-79051846D01*
X86715167Y-79037911D01*
X86710805Y-79023465D01*
X86707490Y-79008509D01*
X86705222Y-78993044D01*
X86704001Y-78977069D01*
X86703768Y-78966136D01*
X86704180Y-78951512D01*
X86705416Y-78937496D01*
X86708119Y-78920830D01*
X86712110Y-78905114D01*
X86717389Y-78890348D01*
X86723955Y-78876531D01*
X86730134Y-78866162D01*
X86739381Y-78853980D01*
X86750642Y-78842597D01*
X86761101Y-78834067D01*
X86772849Y-78826049D01*
X86785887Y-78818542D01*
X86800214Y-78811548D01*
X86811805Y-78806637D01*
X86824121Y-78802015D01*
X86781005Y-78510624D01*
X86763725Y-78518096D01*
X86747015Y-78526010D01*
X86730874Y-78534367D01*
X86715303Y-78543167D01*
X86700301Y-78552409D01*
X86685869Y-78562093D01*
X86672006Y-78572220D01*
X86658713Y-78582789D01*
X86645989Y-78593801D01*
X86633835Y-78605256D01*
X86622250Y-78617153D01*
X86611235Y-78629492D01*
X86600789Y-78642274D01*
X86590913Y-78655498D01*
X86581606Y-78669165D01*
X86572869Y-78683275D01*
X86564680Y-78697826D01*
X86557020Y-78712816D01*
X86549888Y-78728246D01*
X86543284Y-78744116D01*
X86537209Y-78760426D01*
X86531662Y-78777176D01*
X86526643Y-78794366D01*
X86522153Y-78811995D01*
X86518191Y-78830065D01*
X86514757Y-78848574D01*
X86511851Y-78867523D01*
X86509474Y-78886912D01*
X86507625Y-78906740D01*
X86506304Y-78927009D01*
X86505512Y-78947717D01*
X86505247Y-78968865D01*
X85986333Y-78968865D01*
X85986333Y-78466950D01*
X88658700Y-78466950D01*
X88658871Y-78484657D01*
X88659384Y-78502167D01*
X88660240Y-78519479D01*
X88661438Y-78536593D01*
X88662978Y-78553509D01*
X88664861Y-78570227D01*
X88667086Y-78586748D01*
X88669653Y-78603070D01*
X88672563Y-78619194D01*
X88675814Y-78635121D01*
X88679409Y-78650849D01*
X88683345Y-78666380D01*
X88687624Y-78681712D01*
X88692245Y-78696847D01*
X88697208Y-78711784D01*
X88702514Y-78726523D01*
X88708162Y-78741064D01*
X88714152Y-78755407D01*
X88720484Y-78769552D01*
X88727159Y-78783499D01*
X88734176Y-78797248D01*
X88741536Y-78810800D01*
X88749237Y-78824153D01*
X88757281Y-78837309D01*
X88765668Y-78850266D01*
X88774396Y-78863026D01*
X88783467Y-78875588D01*
X88792880Y-78887951D01*
X88802636Y-78900117D01*
X88812733Y-78912085D01*
X88823174Y-78923855D01*
X88833956Y-78935427D01*
X88845053Y-78946700D01*
X88856400Y-78957615D01*
X88867995Y-78968172D01*
X88879840Y-78978371D01*
X88891933Y-78988213D01*
X88904275Y-78997696D01*
X88916867Y-79006822D01*
X88929707Y-79015589D01*
X88942797Y-79023999D01*
X88956135Y-79032051D01*
X88969722Y-79039746D01*
X88983559Y-79047082D01*
X88997644Y-79054060D01*
X89011979Y-79060681D01*
X89026562Y-79066943D01*
X89041394Y-79072848D01*
X89056476Y-79078395D01*
X89071806Y-79083584D01*
X89087386Y-79088416D01*
X89103214Y-79092889D01*
X89119291Y-79097004D01*
X89135618Y-79100762D01*
X89152193Y-79104162D01*
X89169018Y-79107204D01*
X89186091Y-79109888D01*
X89203413Y-79112214D01*
X89220985Y-79114182D01*
X89238805Y-79115792D01*
X89256875Y-79117045D01*
X89275193Y-79117940D01*
X89293760Y-79118476D01*
X89312577Y-79118655D01*
X89332464Y-79118475D01*
X89352072Y-79117936D01*
X89371402Y-79117036D01*
X89390453Y-79115776D01*
X89409226Y-79114157D01*
X89427720Y-79112178D01*
X89445935Y-79109839D01*
X89463871Y-79107140D01*
X89481529Y-79104081D01*
X89498908Y-79100662D01*
X89516008Y-79096883D01*
X89532830Y-79092745D01*
X89549373Y-79088247D01*
X89565637Y-79083388D01*
X89581623Y-79078170D01*
X89597330Y-79072592D01*
X89612758Y-79066655D01*
X89627907Y-79060357D01*
X89642778Y-79053699D01*
X89657370Y-79046682D01*
X89671684Y-79039305D01*
X89685719Y-79031568D01*
X89699475Y-79023471D01*
X89712952Y-79015014D01*
X89726151Y-79006197D01*
X89739071Y-78997020D01*
X89751713Y-78987484D01*
X89764075Y-78977587D01*
X89776159Y-78967331D01*
X89787965Y-78956715D01*
X89799491Y-78945739D01*
X89810739Y-78934403D01*
X89821693Y-78922753D01*
X89832300Y-78910877D01*
X89842558Y-78898776D01*
X89852469Y-78886448D01*
X89862032Y-78873894D01*
X89871248Y-78861115D01*
X89880115Y-78848109D01*
X89888635Y-78834878D01*
X89896807Y-78821420D01*
X89904632Y-78807737D01*
X89912108Y-78793828D01*
X89919237Y-78779693D01*
X89926018Y-78765332D01*
X89932452Y-78750745D01*
X89938538Y-78735932D01*
X89944275Y-78720893D01*
X89949666Y-78705628D01*
X89954708Y-78690138D01*
X89959403Y-78674421D01*
X89963749Y-78658479D01*
X89967749Y-78642310D01*
X89971400Y-78625916D01*
X89974704Y-78609296D01*
X89977659Y-78592450D01*
X89980268Y-78575378D01*
X89982528Y-78558080D01*
X89984441Y-78540556D01*
X89986005Y-78522806D01*
X89987223Y-78504831D01*
X89988092Y-78486629D01*
X89988614Y-78468201D01*
X89988787Y-78449548D01*
X89988641Y-78433223D01*
X89988202Y-78417091D01*
X89987471Y-78401150D01*
X89986446Y-78385401D01*
X89985130Y-78369844D01*
X89983520Y-78354479D01*
X89981618Y-78339306D01*
X89979424Y-78324325D01*
X89976936Y-78309536D01*
X89974156Y-78294938D01*
X89971084Y-78280533D01*
X89967719Y-78266320D01*
X89964061Y-78252298D01*
X89960111Y-78238469D01*
X89955868Y-78224831D01*
X89951332Y-78211385D01*
X89946504Y-78198131D01*
X89941383Y-78185070D01*
X89935970Y-78172200D01*
X89930264Y-78159522D01*
X89924265Y-78147036D01*
X89917974Y-78134742D01*
X89911390Y-78122639D01*
X89904513Y-78110729D01*
X89897344Y-78099011D01*
X89889882Y-78087484D01*
X89882128Y-78076150D01*
X89874081Y-78065007D01*
X89865741Y-78054057D01*
X89857109Y-78043298D01*
X89848184Y-78032731D01*
X89838966Y-78022356D01*
X89827498Y-78010296D01*
X89815348Y-77998595D01*
X89802518Y-77987253D01*
X89789007Y-77976272D01*
X89774814Y-77965651D01*
X89759941Y-77955389D01*
X89744387Y-77945488D01*
X89728152Y-77935946D01*
X89711235Y-77926764D01*
X89693638Y-77917942D01*
X89675360Y-77909479D01*
X89656401Y-77901377D01*
X89636761Y-77893635D01*
X89616440Y-77886252D01*
X89595438Y-77879229D01*
X89573755Y-77872566D01*
X89530949Y-78175900D01*
X89544091Y-78179378D01*
X89556840Y-78183246D01*
X89569197Y-78187503D01*
X89581161Y-78192150D01*
X89592733Y-78197185D01*
X89609354Y-78205468D01*
X89625092Y-78214627D01*
X89639946Y-78224661D01*
X89653917Y-78235571D01*
X89667005Y-78247357D01*
X89679210Y-78260018D01*
X89690531Y-78273555D01*
X89694108Y-78278262D01*
X89704197Y-78292823D01*
X89713294Y-78307971D01*
X89721398Y-78323707D01*
X89728510Y-78340031D01*
X89734630Y-78356943D01*
X89739757Y-78374442D01*
X89743892Y-78392530D01*
X89747034Y-78411205D01*
X89749184Y-78430468D01*
X89750342Y-78450318D01*
X89750563Y-78463879D01*
X89750180Y-78482552D01*
X89749031Y-78500782D01*
X89747117Y-78518570D01*
X89744437Y-78535916D01*
X89740991Y-78552819D01*
X89736779Y-78569280D01*
X89731801Y-78585298D01*
X89726058Y-78600873D01*
X89719549Y-78616006D01*
X89712274Y-78630697D01*
X89704233Y-78644945D01*
X89695427Y-78658751D01*
X89685855Y-78672114D01*
X89675517Y-78685034D01*
X89664413Y-78697512D01*
X89652543Y-78709548D01*
X89639802Y-78720993D01*
X89626085Y-78731700D01*
X89611391Y-78741668D01*
X89595721Y-78750898D01*
X89579073Y-78759389D01*
X89561450Y-78767143D01*
X89542849Y-78774157D01*
X89523272Y-78780434D01*
X89502719Y-78785972D01*
X89481188Y-78790771D01*
X89458681Y-78794832D01*
X89435198Y-78798155D01*
X89410738Y-78800739D01*
X89398142Y-78801755D01*
X89385301Y-78802585D01*
X89372217Y-78803232D01*
X89358888Y-78803693D01*
X89345315Y-78803970D01*
X89331498Y-78804062D01*
X89316841Y-78803972D01*
X89302452Y-78803700D01*
X89288332Y-78803247D01*
X89274482Y-78802612D01*
X89260900Y-78801796D01*
X89247587Y-78800799D01*
X89234544Y-78799621D01*
X89221769Y-78798262D01*
X89209263Y-78796721D01*
X89185059Y-78793096D01*
X89161931Y-78788745D01*
X89139878Y-78783670D01*
X89118902Y-78777869D01*
X89099001Y-78771344D01*
X89080176Y-78764093D01*
X89062428Y-78756117D01*
X89045755Y-78747417D01*
X89030159Y-78737991D01*
X89015638Y-78727840D01*
X89002193Y-78716964D01*
X88995874Y-78711254D01*
X88983892Y-78699394D01*
X88972683Y-78687103D01*
X88962247Y-78674380D01*
X88952584Y-78661224D01*
X88943694Y-78647637D01*
X88935577Y-78633619D01*
X88928233Y-78619168D01*
X88921662Y-78604285D01*
X88915864Y-78588971D01*
X88910839Y-78573225D01*
X88906587Y-78557047D01*
X88903109Y-78540437D01*
X88900403Y-78523395D01*
X88898470Y-78505922D01*
X88897311Y-78488016D01*
X88896924Y-78469679D01*
X88897491Y-78449477D01*
X88899192Y-78429814D01*
X88902028Y-78410691D01*
X88905997Y-78392108D01*
X88911101Y-78374064D01*
X88917338Y-78356561D01*
X88924710Y-78339597D01*
X88933216Y-78323173D01*
X88942856Y-78307289D01*
X88953631Y-78291945D01*
X88961443Y-78282015D01*
X88974360Y-78267602D01*
X88983815Y-78258401D01*
X88993947Y-78249524D01*
X89004756Y-78240972D01*
X89016240Y-78232746D01*
X89028400Y-78224845D01*
X89041237Y-78217269D01*
X89054749Y-78210018D01*
X89068938Y-78203093D01*
X89083803Y-78196493D01*
X89099344Y-78190218D01*
X89115561Y-78184268D01*
X89132454Y-78178643D01*
X89150023Y-78173344D01*
X89168268Y-78168370D01*
X89177645Y-78166005D01*
X89092033Y-77869154D01*
X89078152Y-77873436D01*
X89064503Y-77877880D01*
X89051088Y-77882486D01*
X89037905Y-77887254D01*
X89024954Y-77892184D01*
X89012237Y-77897276D01*
X88999752Y-77902530D01*
X88987499Y-77907945D01*
X88975479Y-77913523D01*
X88963692Y-77919263D01*
X88952138Y-77925164D01*
X88940816Y-77931227D01*
X88929727Y-77937453D01*
X88908246Y-77950389D01*
X88887696Y-77963974D01*
X88868077Y-77978206D01*
X88849388Y-77993086D01*
X88831630Y-78008613D01*
X88814802Y-78024789D01*
X88798905Y-78041612D01*
X88783938Y-78059083D01*
X88769902Y-78077201D01*
X88763233Y-78086503D01*
X88750575Y-78105583D01*
X88738733Y-78125289D01*
X88727708Y-78145622D01*
X88717500Y-78166580D01*
X88708108Y-78188166D01*
X88699533Y-78210378D01*
X88691775Y-78233216D01*
X88684833Y-78256681D01*
X88678708Y-78280772D01*
X88673400Y-78305489D01*
X88668908Y-78330833D01*
X88665233Y-78356804D01*
X88662375Y-78383400D01*
X88660333Y-78410624D01*
X88659618Y-78424470D01*
X88659108Y-78438473D01*
X88658802Y-78452633D01*
X88658700Y-78466950D01*
X85986333Y-78466950D01*
X85986333Y-78114824D01*
X86525100Y-78114824D01*
X87477998Y-78444430D01*
X87477998Y-78159181D01*
X86894534Y-77976635D01*
X87477998Y-77809102D01*
X87477998Y-77532042D01*
X86894534Y-77369968D01*
X86900968Y-77367921D01*
X88658700Y-77367921D01*
X88658700Y-77659653D01*
X89968935Y-77659653D01*
X89968935Y-77367921D01*
X88658700Y-77367921D01*
X86900968Y-77367921D01*
X87477998Y-77184351D01*
X87477998Y-76895008D01*
X86525100Y-77229732D01*
X86525100Y-77505086D01*
X87096467Y-77672278D01*
X86525100Y-77836398D01*
X86525100Y-78114824D01*
X85986333Y-78114824D01*
X85986333Y-76640808D01*
X88638847Y-76640808D01*
X88638860Y-76641832D01*
X88639078Y-76658627D01*
X88639768Y-76676342D01*
X88640919Y-76693953D01*
X88642531Y-76711459D01*
X88644603Y-76728862D01*
X88647135Y-76746161D01*
X88650128Y-76763356D01*
X88653581Y-76780447D01*
X88657495Y-76797434D01*
X88661869Y-76814317D01*
X88666704Y-76831097D01*
X88671999Y-76847772D01*
X88677754Y-76864343D01*
X88683970Y-76880810D01*
X88690646Y-76897174D01*
X88697783Y-76913433D01*
X88705403Y-76929399D01*
X88713453Y-76944883D01*
X88721931Y-76959884D01*
X88730838Y-76974402D01*
X88740174Y-76988438D01*
X88749939Y-77001992D01*
X88760132Y-77015063D01*
X88770755Y-77027652D01*
X88781807Y-77039758D01*
X88793287Y-77051382D01*
X88805197Y-77062523D01*
X88817535Y-77073182D01*
X88830303Y-77083358D01*
X88843499Y-77093052D01*
X88857124Y-77102263D01*
X88871179Y-77110992D01*
X88885637Y-77119173D01*
X88900477Y-77126826D01*
X88915697Y-77133951D01*
X88931297Y-77140549D01*
X88947278Y-77146619D01*
X88963639Y-77152161D01*
X88980381Y-77157175D01*
X88997503Y-77161661D01*
X89015005Y-77165620D01*
X89032889Y-77169050D01*
X89051152Y-77171953D01*
X89069796Y-77174328D01*
X89088821Y-77176176D01*
X89108226Y-77177495D01*
X89128011Y-77178287D01*
X89148177Y-77178551D01*
X89163809Y-77178287D01*
X89179375Y-77177495D01*
X89194876Y-77176176D01*
X89210311Y-77174328D01*
X89225682Y-77171953D01*
X89240986Y-77169050D01*
X89256225Y-77165620D01*
X89271399Y-77161661D01*
X89286508Y-77157175D01*
X89301550Y-77152161D01*
X89316528Y-77146619D01*
X89331440Y-77140549D01*
X89346287Y-77133951D01*
X89361068Y-77126826D01*
X89375784Y-77119173D01*
X89390434Y-77110992D01*
X89404873Y-77102326D01*
X89418879Y-77093217D01*
X89432451Y-77083666D01*
X89445589Y-77073672D01*
X89458294Y-77063236D01*
X89470564Y-77052358D01*
X89482401Y-77041036D01*
X89493804Y-77029273D01*
X89504774Y-77017067D01*
X89515309Y-77004418D01*
X89525411Y-76991327D01*
X89535079Y-76977793D01*
X89544313Y-76963817D01*
X89553113Y-76949398D01*
X89561480Y-76934537D01*
X89569413Y-76919233D01*
X89576925Y-76903599D01*
X89583953Y-76887746D01*
X89590496Y-76871675D01*
X89596554Y-76855385D01*
X89602128Y-76838876D01*
X89607217Y-76822149D01*
X89611821Y-76805204D01*
X89615941Y-76788039D01*
X89619576Y-76770656D01*
X89622726Y-76753055D01*
X89625392Y-76735235D01*
X89627573Y-76717196D01*
X89629269Y-76698939D01*
X89630481Y-76680463D01*
X89631208Y-76661769D01*
X89631450Y-76642856D01*
X89631313Y-76628203D01*
X89630903Y-76613716D01*
X89630218Y-76599395D01*
X89629260Y-76585239D01*
X89628027Y-76571250D01*
X89626521Y-76557427D01*
X89624741Y-76543770D01*
X89622688Y-76530278D01*
X89617758Y-76503794D01*
X89611734Y-76477972D01*
X89604614Y-76452815D01*
X89596399Y-76428321D01*
X89587089Y-76404492D01*
X89576683Y-76381325D01*
X89565182Y-76358823D01*
X89552585Y-76336985D01*
X89538893Y-76315810D01*
X89524106Y-76295299D01*
X89508223Y-76275451D01*
X89491245Y-76256268D01*
X89473470Y-76237964D01*
X89455118Y-76220841D01*
X89436189Y-76204899D01*
X89416684Y-76190137D01*
X89396601Y-76176557D01*
X89375942Y-76164158D01*
X89354707Y-76152939D01*
X89332894Y-76142902D01*
X89310505Y-76134045D01*
X89287539Y-76126369D01*
X89263996Y-76119874D01*
X89239876Y-76114560D01*
X89227600Y-76112346D01*
X89215180Y-76110427D01*
X89202615Y-76108803D01*
X89189907Y-76107475D01*
X89177054Y-76106441D01*
X89164057Y-76105703D01*
X89150916Y-76105260D01*
X89137630Y-76105113D01*
X89124267Y-76105262D01*
X89111045Y-76105709D01*
X89097966Y-76106453D01*
X89085029Y-76107496D01*
X89072235Y-76108836D01*
X89059583Y-76110475D01*
X89047073Y-76112411D01*
X89034706Y-76114645D01*
X89022481Y-76117177D01*
X88998459Y-76123135D01*
X88975005Y-76130285D01*
X88952122Y-76138625D01*
X88929808Y-76148158D01*
X88908063Y-76158882D01*
X88886888Y-76170798D01*
X88866282Y-76183905D01*
X88846246Y-76198203D01*
X88826779Y-76213694D01*
X88807882Y-76230376D01*
X88789554Y-76248249D01*
X88780604Y-76257633D01*
X88763438Y-76277003D01*
X88747379Y-76296983D01*
X88732429Y-76317574D01*
X88718585Y-76338776D01*
X88705849Y-76360588D01*
X88694221Y-76383010D01*
X88683700Y-76406043D01*
X88674286Y-76429686D01*
X88665980Y-76453940D01*
X88658782Y-76478804D01*
X88652691Y-76504279D01*
X88647707Y-76530364D01*
X88643831Y-76557059D01*
X88642308Y-76570636D01*
X88641062Y-76584365D01*
X88640093Y-76598247D01*
X88639401Y-76612281D01*
X88638986Y-76626469D01*
X88638847Y-76640808D01*
X85986333Y-76640808D01*
X85986333Y-75589890D01*
X86525100Y-75589890D01*
X86525100Y-75881281D01*
X87444808Y-75881281D01*
X87430074Y-75897956D01*
X87415728Y-75915311D01*
X87401770Y-75933346D01*
X87388199Y-75952060D01*
X87375016Y-75971454D01*
X87362220Y-75991528D01*
X87349813Y-76012282D01*
X87337793Y-76033715D01*
X87326161Y-76055828D01*
X87314917Y-76078621D01*
X87304060Y-76102094D01*
X87293591Y-76126246D01*
X87283510Y-76151079D01*
X87278615Y-76163750D01*
X87273817Y-76176590D01*
X87269115Y-76189601D01*
X87264511Y-76202782D01*
X87260004Y-76216133D01*
X87255593Y-76229654D01*
X87514911Y-76229654D01*
X87519186Y-76215708D01*
X87523867Y-76201680D01*
X87528956Y-76187569D01*
X87534453Y-76173376D01*
X87540356Y-76159100D01*
X87546666Y-76144741D01*
X87553384Y-76130300D01*
X87560508Y-76115776D01*
X87568040Y-76101169D01*
X87575979Y-76086480D01*
X87584325Y-76071708D01*
X87593078Y-76056853D01*
X87602238Y-76041916D01*
X87611806Y-76026896D01*
X87621780Y-76011794D01*
X87632162Y-75996609D01*
X87642879Y-75981672D01*
X87653861Y-75967313D01*
X87665106Y-75953533D01*
X87676616Y-75940331D01*
X87688390Y-75927708D01*
X87700428Y-75915663D01*
X87712730Y-75904196D01*
X87725296Y-75893308D01*
X87738126Y-75882999D01*
X87751221Y-75873268D01*
X87764580Y-75864115D01*
X87778203Y-75855541D01*
X87792090Y-75847545D01*
X87806241Y-75840128D01*
X87820656Y-75833289D01*
X87835335Y-75827029D01*
X87835335Y-75589890D01*
X86525100Y-75589890D01*
X85986333Y-75589890D01*
X85986333Y-75481386D01*
X88638847Y-75481386D01*
X88638976Y-75495563D01*
X88639362Y-75509560D01*
X88640006Y-75523376D01*
X88640907Y-75537013D01*
X88643482Y-75563748D01*
X88647087Y-75589762D01*
X88651721Y-75615057D01*
X88657386Y-75639632D01*
X88664081Y-75663487D01*
X88671805Y-75686622D01*
X88680559Y-75709038D01*
X88690344Y-75730734D01*
X88701158Y-75751710D01*
X88713002Y-75771967D01*
X88725876Y-75791503D01*
X88739780Y-75810320D01*
X88754714Y-75828418D01*
X88770678Y-75845795D01*
X88787546Y-75862240D01*
X88805196Y-75877624D01*
X88823625Y-75891946D01*
X88842835Y-75905208D01*
X88862825Y-75917409D01*
X88883596Y-75928549D01*
X88905147Y-75938628D01*
X88927478Y-75947646D01*
X88950589Y-75955603D01*
X88974481Y-75962499D01*
X88986720Y-75965549D01*
X88999153Y-75968334D01*
X89011782Y-75970854D01*
X89024606Y-75973108D01*
X89037624Y-75975098D01*
X89050838Y-75976822D01*
X89064247Y-75978280D01*
X89077851Y-75979474D01*
X89091650Y-75980402D01*
X89105645Y-75981065D01*
X89119834Y-75981463D01*
X89134218Y-75981596D01*
X89148774Y-75981463D01*
X89163128Y-75981063D01*
X89177280Y-75980396D01*
X89191230Y-75979463D01*
X89204979Y-75978264D01*
X89218525Y-75976798D01*
X89231870Y-75975065D01*
X89245014Y-75973066D01*
X89257955Y-75970800D01*
X89270695Y-75968267D01*
X89283233Y-75965468D01*
X89295570Y-75962403D01*
X89307704Y-75959071D01*
X89331368Y-75951607D01*
X89354225Y-75943077D01*
X89376275Y-75933480D01*
X89397518Y-75922818D01*
X89417954Y-75911089D01*
X89437584Y-75898293D01*
X89456406Y-75884432D01*
X89474421Y-75869504D01*
X89491629Y-75853510D01*
X89499930Y-75845113D01*
X89515857Y-75827678D01*
X89530755Y-75809494D01*
X89544627Y-75790561D01*
X89557470Y-75770879D01*
X89569287Y-75750448D01*
X89580075Y-75729268D01*
X89589837Y-75707339D01*
X89598570Y-75684660D01*
X89606277Y-75661233D01*
X89612955Y-75637056D01*
X89618607Y-75612131D01*
X89623230Y-75586457D01*
X89626827Y-75560033D01*
X89629395Y-75532860D01*
X89630294Y-75518993D01*
X89630937Y-75504939D01*
X89631322Y-75490697D01*
X89631450Y-75476268D01*
X89631174Y-75452897D01*
X89630345Y-75430125D01*
X89628964Y-75407953D01*
X89627030Y-75386381D01*
X89624544Y-75365409D01*
X89621505Y-75345036D01*
X89617914Y-75325264D01*
X89613770Y-75306091D01*
X89609073Y-75287518D01*
X89603824Y-75269544D01*
X89598023Y-75252171D01*
X89591669Y-75235397D01*
X89584762Y-75219223D01*
X89577303Y-75203649D01*
X89569292Y-75188674D01*
X89560727Y-75174299D01*
X89551596Y-75160417D01*
X89541806Y-75147003D01*
X89531356Y-75134058D01*
X89520248Y-75121583D01*
X89508480Y-75109577D01*
X89496053Y-75098040D01*
X89482967Y-75086972D01*
X89469222Y-75076373D01*
X89454817Y-75066243D01*
X89439754Y-75056583D01*
X89424031Y-75047392D01*
X89407649Y-75038670D01*
X89390608Y-75030417D01*
X89372908Y-75022633D01*
X89354549Y-75015318D01*
X89335531Y-75008473D01*
X89292414Y-75297134D01*
X89306171Y-75300088D01*
X89319175Y-75303576D01*
X89331427Y-75307597D01*
X89346593Y-75313790D01*
X89360420Y-75320931D01*
X89372910Y-75329021D01*
X89384062Y-75338061D01*
X89393877Y-75348049D01*
X89400360Y-75356163D01*
X89407994Y-75367684D01*
X89414609Y-75380069D01*
X89420207Y-75393317D01*
X89424787Y-75407429D01*
X89428350Y-75422405D01*
X89430894Y-75438245D01*
X89432421Y-75454948D01*
X89432930Y-75472515D01*
X89432363Y-75490092D01*
X89430662Y-75506998D01*
X89427826Y-75523232D01*
X89423857Y-75538794D01*
X89418753Y-75553685D01*
X89412516Y-75567903D01*
X89405144Y-75581450D01*
X89396638Y-75594326D01*
X89386998Y-75606529D01*
X89376223Y-75618061D01*
X89368411Y-75625375D01*
X89355573Y-75635559D01*
X89341137Y-75644740D01*
X89325104Y-75652920D01*
X89307473Y-75660099D01*
X89294832Y-75664328D01*
X89281480Y-75668112D01*
X89267419Y-75671450D01*
X89252647Y-75674344D01*
X89237166Y-75676792D01*
X89220974Y-75678796D01*
X89204073Y-75680354D01*
X89186461Y-75681467D01*
X89168139Y-75682134D01*
X89149107Y-75682357D01*
X89127914Y-75682130D01*
X89107528Y-75681451D01*
X89087948Y-75680318D01*
X89069176Y-75678732D01*
X89051210Y-75676692D01*
X89034052Y-75674200D01*
X89017700Y-75671255D01*
X89002156Y-75667856D01*
X88987418Y-75664004D01*
X88973487Y-75659699D01*
X88960364Y-75654941D01*
X88948047Y-75649729D01*
X88936537Y-75644065D01*
X88920786Y-75634718D01*
X88906850Y-75624352D01*
X88894433Y-75613070D01*
X88883237Y-75601104D01*
X88873263Y-75588455D01*
X88864510Y-75575122D01*
X88856978Y-75561105D01*
X88850667Y-75546405D01*
X88845578Y-75531020D01*
X88841711Y-75514952D01*
X88839064Y-75498200D01*
X88837639Y-75480765D01*
X88837368Y-75468761D01*
X88837959Y-75451008D01*
X88839733Y-75434086D01*
X88842690Y-75417996D01*
X88846829Y-75402738D01*
X88852150Y-75388311D01*
X88858655Y-75374716D01*
X88866342Y-75361953D01*
X88875211Y-75350021D01*
X88885714Y-75338895D01*
X88898301Y-75328546D01*
X88909108Y-75321296D01*
X88921089Y-75314484D01*
X88934241Y-75308109D01*
X88948566Y-75302172D01*
X88964063Y-75296673D01*
X88980732Y-75291612D01*
X88998574Y-75286989D01*
X89011119Y-75284150D01*
X89017587Y-75282803D01*
X88974471Y-74995848D01*
X88953416Y-75001771D01*
X88933056Y-75008281D01*
X88913392Y-75015377D01*
X88894423Y-75023059D01*
X88876150Y-75031328D01*
X88858572Y-75040184D01*
X88841690Y-75049626D01*
X88825503Y-75059654D01*
X88810012Y-75070269D01*
X88795216Y-75081470D01*
X88781116Y-75093257D01*
X88767711Y-75105632D01*
X88755002Y-75118592D01*
X88742988Y-75132139D01*
X88731670Y-75146272D01*
X88721047Y-75160992D01*
X88711093Y-75176279D01*
X88701782Y-75192197D01*
X88693112Y-75208747D01*
X88685085Y-75225928D01*
X88677700Y-75243742D01*
X88670957Y-75262187D01*
X88664856Y-75281264D01*
X88659397Y-75300973D01*
X88654581Y-75321313D01*
X88650407Y-75342285D01*
X88646875Y-75363889D01*
X88643985Y-75386125D01*
X88641737Y-75408993D01*
X88640132Y-75432492D01*
X88639169Y-75456623D01*
X88638847Y-75481386D01*
X85986333Y-75481386D01*
X85986333Y-74799995D01*
X86505247Y-74799995D01*
X86505582Y-74820898D01*
X86506585Y-74841297D01*
X86508257Y-74861192D01*
X86510598Y-74880584D01*
X86513608Y-74899472D01*
X86517287Y-74917856D01*
X86521634Y-74935736D01*
X86526650Y-74953112D01*
X86532336Y-74969984D01*
X86538690Y-74986353D01*
X86545712Y-75002218D01*
X86553404Y-75017579D01*
X86561765Y-75032436D01*
X86570794Y-75046789D01*
X86580492Y-75060639D01*
X86590859Y-75073985D01*
X86601927Y-75086790D01*
X86613726Y-75099021D01*
X86626257Y-75110675D01*
X86639520Y-75121754D01*
X86653515Y-75132256D01*
X86668242Y-75142183D01*
X86683700Y-75151535D01*
X86699891Y-75160310D01*
X86716813Y-75168510D01*
X86734467Y-75176133D01*
X86752853Y-75183182D01*
X86771971Y-75189654D01*
X86791820Y-75195550D01*
X86812402Y-75200871D01*
X86833715Y-75205616D01*
X86855760Y-75209785D01*
X86883367Y-74926583D01*
X86869341Y-74924427D01*
X86856112Y-74921797D01*
X86843678Y-74918693D01*
X86828338Y-74913817D01*
X86814414Y-74908099D01*
X86801904Y-74901539D01*
X86790810Y-74894137D01*
X86778933Y-74883699D01*
X86774801Y-74879155D01*
X86765776Y-74866835D01*
X86758280Y-74853331D01*
X86752314Y-74838645D01*
X86747878Y-74822776D01*
X86745430Y-74809229D01*
X86743962Y-74794925D01*
X86743472Y-74779864D01*
X86744072Y-74765408D01*
X86745871Y-74751342D01*
X86748870Y-74737666D01*
X86753069Y-74724380D01*
X86758467Y-74711484D01*
X86765064Y-74698978D01*
X86772861Y-74686861D01*
X86781858Y-74675135D01*
X86792054Y-74663798D01*
X86803450Y-74652851D01*
X86811714Y-74645769D01*
X86825630Y-74635646D01*
X86841673Y-74626261D01*
X86853550Y-74620413D01*
X86866372Y-74614894D01*
X86880139Y-74609703D01*
X86894851Y-74604839D01*
X86910509Y-74600304D01*
X86927111Y-74596096D01*
X86944658Y-74592216D01*
X86963151Y-74588664D01*
X86982589Y-74585440D01*
X87002971Y-74582543D01*
X87024299Y-74579975D01*
X87046572Y-74577735D01*
X87069790Y-74575822D01*
X87059123Y-74586561D01*
X87049143Y-74597878D01*
X87039852Y-74609773D01*
X87031249Y-74622247D01*
X87023335Y-74635300D01*
X87016108Y-74648931D01*
X87009570Y-74663140D01*
X87003720Y-74677928D01*
X86998558Y-74693295D01*
X86994085Y-74709239D01*
X86990300Y-74725763D01*
X86987203Y-74742864D01*
X86984794Y-74760544D01*
X86983777Y-74771334D01*
X86983073Y-74778803D01*
X86982041Y-74797640D01*
X86981697Y-74817055D01*
X86982154Y-74838238D01*
X86983524Y-74859051D01*
X86985808Y-74879492D01*
X86989006Y-74899564D01*
X86993117Y-74919264D01*
X86998142Y-74938595D01*
X87004080Y-74957554D01*
X87010932Y-74976143D01*
X87018698Y-74994362D01*
X87027377Y-75012210D01*
X87036970Y-75029688D01*
X87047476Y-75046795D01*
X87058896Y-75063531D01*
X87071230Y-75079897D01*
X87084477Y-75095892D01*
X87098638Y-75111517D01*
X87113527Y-75126474D01*
X87128959Y-75140467D01*
X87144934Y-75153494D01*
X87161451Y-75165556D01*
X87178511Y-75176653D01*
X87196115Y-75186786D01*
X87214261Y-75195953D01*
X87232949Y-75204155D01*
X87252181Y-75211392D01*
X87271956Y-75217665D01*
X87292273Y-75222972D01*
X87313133Y-75227315D01*
X87334536Y-75230692D01*
X87356482Y-75233104D01*
X87378971Y-75234552D01*
X87402002Y-75235034D01*
X87426020Y-75234525D01*
X87449451Y-75232998D01*
X87472296Y-75230452D01*
X87494555Y-75226888D01*
X87516227Y-75222306D01*
X87537312Y-75216705D01*
X87557811Y-75210086D01*
X87577724Y-75202449D01*
X87597050Y-75193794D01*
X87615790Y-75184120D01*
X87633943Y-75173428D01*
X87651510Y-75161717D01*
X87668490Y-75148989D01*
X87684884Y-75135242D01*
X87700692Y-75120477D01*
X87715913Y-75104693D01*
X87730374Y-75088123D01*
X87743902Y-75070999D01*
X87756498Y-75053320D01*
X87768160Y-75035087D01*
X87778890Y-75016299D01*
X87788686Y-74996957D01*
X87797549Y-74977060D01*
X87805480Y-74956609D01*
X87812477Y-74935604D01*
X87818542Y-74914044D01*
X87823673Y-74891929D01*
X87827871Y-74869260D01*
X87831137Y-74846037D01*
X87833469Y-74822259D01*
X87834869Y-74797927D01*
X87835335Y-74773040D01*
X87834733Y-74745967D01*
X87832927Y-74719513D01*
X87829916Y-74693677D01*
X87825700Y-74668460D01*
X87820280Y-74643861D01*
X87813656Y-74619880D01*
X87805827Y-74596518D01*
X87796794Y-74573775D01*
X87786557Y-74551650D01*
X87775115Y-74530143D01*
X87762469Y-74509255D01*
X87748618Y-74488985D01*
X87733563Y-74469333D01*
X87717304Y-74450300D01*
X87699840Y-74431886D01*
X87681172Y-74414090D01*
X87671365Y-74405462D01*
X87661177Y-74397108D01*
X87650607Y-74389028D01*
X87639655Y-74381222D01*
X87628322Y-74373690D01*
X87616606Y-74366431D01*
X87604510Y-74359447D01*
X87592031Y-74352736D01*
X87579171Y-74346300D01*
X87565929Y-74340137D01*
X87552306Y-74334248D01*
X87538301Y-74328633D01*
X87523914Y-74323292D01*
X87509146Y-74318225D01*
X87493995Y-74313432D01*
X87478464Y-74308913D01*
X87462550Y-74304667D01*
X87446255Y-74300696D01*
X87429578Y-74296998D01*
X87412519Y-74293574D01*
X87395079Y-74290424D01*
X87377257Y-74287548D01*
X87359054Y-74284946D01*
X87340469Y-74282618D01*
X87321502Y-74280564D01*
X87302153Y-74278784D01*
X87282423Y-74277277D01*
X87262311Y-74276045D01*
X87241817Y-74275086D01*
X87220942Y-74274401D01*
X87199685Y-74273990D01*
X87178046Y-74273854D01*
X87156040Y-74273996D01*
X87134417Y-74274424D01*
X87113178Y-74275137D01*
X87092323Y-74276135D01*
X87071851Y-74277419D01*
X87051762Y-74278988D01*
X87032057Y-74280842D01*
X87012735Y-74282981D01*
X86993797Y-74285405D01*
X86975242Y-74288115D01*
X86957071Y-74291110D01*
X86939283Y-74294390D01*
X86921879Y-74297955D01*
X86904859Y-74301806D01*
X86888221Y-74305942D01*
X86871968Y-74310363D01*
X86856097Y-74315069D01*
X86840611Y-74320060D01*
X86825508Y-74325337D01*
X86810788Y-74330899D01*
X86796452Y-74336746D01*
X86782499Y-74342879D01*
X86768930Y-74349296D01*
X86755744Y-74355999D01*
X86742942Y-74362987D01*
X86730523Y-74370261D01*
X86718488Y-74377819D01*
X86706836Y-74385663D01*
X86695568Y-74393792D01*
X86684683Y-74402206D01*
X86674182Y-74410906D01*
X86664064Y-74419890D01*
X86654293Y-74429083D01*
X86644832Y-74438449D01*
X86635682Y-74447988D01*
X86626841Y-74457700D01*
X86610091Y-74477645D01*
X86594582Y-74498283D01*
X86580313Y-74519613D01*
X86567285Y-74541637D01*
X86555498Y-74564354D01*
X86544952Y-74587764D01*
X86535646Y-74611867D01*
X86527581Y-74636663D01*
X86520757Y-74662153D01*
X86515173Y-74688335D01*
X86510831Y-74715210D01*
X86509125Y-74728908D01*
X86507729Y-74742779D01*
X86506643Y-74756823D01*
X86505868Y-74771040D01*
X86505403Y-74785431D01*
X86505247Y-74799995D01*
X85986333Y-74799995D01*
X85986333Y-73712226D01*
X86505247Y-73712226D01*
X86505582Y-73733129D01*
X86506585Y-73753528D01*
X86508257Y-73773424D01*
X86510598Y-73792815D01*
X86513608Y-73811703D01*
X86517287Y-73830087D01*
X86521634Y-73847967D01*
X86526650Y-73865343D01*
X86532336Y-73882216D01*
X86538690Y-73898584D01*
X86545712Y-73914449D01*
X86553404Y-73929810D01*
X86561765Y-73944667D01*
X86570794Y-73959021D01*
X86580492Y-73972870D01*
X86590859Y-73986216D01*
X86601927Y-73999022D01*
X86613726Y-74011252D01*
X86626257Y-74022906D01*
X86639520Y-74033985D01*
X86653515Y-74044488D01*
X86668242Y-74054415D01*
X86683700Y-74063766D01*
X86699891Y-74072541D01*
X86716813Y-74080741D01*
X86734467Y-74088365D01*
X86752853Y-74095413D01*
X86771971Y-74101885D01*
X86791820Y-74107782D01*
X86812402Y-74113102D01*
X86833715Y-74117847D01*
X86855760Y-74122016D01*
X86883367Y-73838814D01*
X86869341Y-73836658D01*
X86856112Y-73834028D01*
X86843678Y-73830924D01*
X86828338Y-73826049D01*
X86814414Y-73820331D01*
X86801904Y-73813771D01*
X86790810Y-73806368D01*
X86778933Y-73795930D01*
X86774801Y-73791386D01*
X86765776Y-73779066D01*
X86758280Y-73765563D01*
X86752314Y-73750876D01*
X86747878Y-73735007D01*
X86745430Y-73721460D01*
X86743962Y-73707156D01*
X86743472Y-73692095D01*
X86744072Y-73677639D01*
X86745871Y-73663574D01*
X86748870Y-73649898D01*
X86753069Y-73636612D01*
X86758467Y-73623715D01*
X86765064Y-73611209D01*
X86772861Y-73599093D01*
X86781858Y-73587366D01*
X86792054Y-73576029D01*
X86803450Y-73565082D01*
X86811714Y-73558001D01*
X86825630Y-73547877D01*
X86841673Y-73538492D01*
X86853550Y-73532645D01*
X86866372Y-73527125D01*
X86880139Y-73521934D01*
X86894851Y-73517070D01*
X86910509Y-73512535D01*
X86927111Y-73508327D01*
X86944658Y-73504447D01*
X86963151Y-73500895D01*
X86982589Y-73497671D01*
X87002971Y-73494775D01*
X87024299Y-73492206D01*
X87046572Y-73489966D01*
X87069790Y-73488053D01*
X87059123Y-73498792D01*
X87049143Y-73510109D01*
X87039852Y-73522005D01*
X87031249Y-73534479D01*
X87023335Y-73547531D01*
X87016108Y-73561162D01*
X87009570Y-73575372D01*
X87003720Y-73590159D01*
X86998558Y-73605526D01*
X86994085Y-73621471D01*
X86990300Y-73637994D01*
X86987203Y-73655095D01*
X86984794Y-73672776D01*
X86983777Y-73683565D01*
X86983073Y-73691034D01*
X86982041Y-73709871D01*
X86981697Y-73729287D01*
X86982154Y-73750470D01*
X86983524Y-73771282D01*
X86985808Y-73791724D01*
X86989006Y-73811795D01*
X86993117Y-73831496D01*
X86998142Y-73850826D01*
X87004080Y-73869785D01*
X87010932Y-73888375D01*
X87018698Y-73906593D01*
X87027377Y-73924441D01*
X87036970Y-73941919D01*
X87047476Y-73959026D01*
X87058896Y-73975762D01*
X87071230Y-73992128D01*
X87084477Y-74008124D01*
X87098638Y-74023749D01*
X87113527Y-74038706D01*
X87128959Y-74052698D01*
X87144934Y-74065725D01*
X87161451Y-74077787D01*
X87178511Y-74088885D01*
X87196115Y-74099017D01*
X87214261Y-74108184D01*
X87232949Y-74116386D01*
X87252181Y-74123624D01*
X87271956Y-74129896D01*
X87292273Y-74135203D01*
X87313133Y-74139546D01*
X87334536Y-74142923D01*
X87356482Y-74145336D01*
X87378971Y-74146783D01*
X87402002Y-74147266D01*
X87426020Y-74146756D01*
X87449451Y-74145229D01*
X87472296Y-74142683D01*
X87494555Y-74139119D01*
X87516227Y-74134537D01*
X87537312Y-74128936D01*
X87557811Y-74122318D01*
X87577724Y-74114680D01*
X87597050Y-74106025D01*
X87615790Y-74096351D01*
X87633943Y-74085659D01*
X87651510Y-74073949D01*
X87668490Y-74061220D01*
X87684884Y-74047473D01*
X87700692Y-74032708D01*
X87715913Y-74016924D01*
X87730374Y-74000355D01*
X87743902Y-73983230D01*
X87756498Y-73965551D01*
X87768160Y-73947318D01*
X87778890Y-73928530D01*
X87788686Y-73909188D01*
X87797549Y-73889292D01*
X87804289Y-73871911D01*
X88658700Y-73871911D01*
X88658700Y-74187869D01*
X89072801Y-74440021D01*
X88963305Y-74552279D01*
X88658700Y-74552279D01*
X88658700Y-74844011D01*
X89968935Y-74844011D01*
X89968935Y-74552279D01*
X89299549Y-74552279D01*
X89611598Y-74252699D01*
X89611598Y-73890678D01*
X89258914Y-74250651D01*
X88658700Y-73871911D01*
X87804289Y-73871911D01*
X87805480Y-73868840D01*
X87812477Y-73847835D01*
X87818542Y-73826275D01*
X87823673Y-73804160D01*
X87827871Y-73781491D01*
X87831137Y-73758268D01*
X87833469Y-73734490D01*
X87834869Y-73710158D01*
X87835335Y-73685271D01*
X87834733Y-73658198D01*
X87832927Y-73631744D01*
X87829916Y-73605908D01*
X87825700Y-73580691D01*
X87820280Y-73556092D01*
X87813656Y-73532112D01*
X87805827Y-73508750D01*
X87796794Y-73486006D01*
X87786557Y-73463881D01*
X87775115Y-73442374D01*
X87762469Y-73421486D01*
X87748618Y-73401216D01*
X87733563Y-73381565D01*
X87717304Y-73362532D01*
X87699840Y-73344117D01*
X87681172Y-73326321D01*
X87671365Y-73317693D01*
X87661177Y-73309339D01*
X87650607Y-73301259D01*
X87639655Y-73293453D01*
X87628322Y-73285921D01*
X87616606Y-73278663D01*
X87604510Y-73271678D01*
X87592031Y-73264968D01*
X87579171Y-73258531D01*
X87565929Y-73252368D01*
X87552306Y-73246479D01*
X87538301Y-73240865D01*
X87523914Y-73235524D01*
X87509146Y-73230456D01*
X87493995Y-73225663D01*
X87478464Y-73221144D01*
X87462550Y-73216898D01*
X87446255Y-73212927D01*
X87429578Y-73209229D01*
X87412519Y-73205805D01*
X87395079Y-73202656D01*
X87377257Y-73199780D01*
X87359054Y-73197178D01*
X87340469Y-73194850D01*
X87321502Y-73192795D01*
X87302153Y-73191015D01*
X87282423Y-73189509D01*
X87262311Y-73188276D01*
X87241817Y-73187317D01*
X87220942Y-73186633D01*
X87199685Y-73186222D01*
X87178046Y-73186085D01*
X87156040Y-73186227D01*
X87134417Y-73186655D01*
X87113178Y-73187368D01*
X87092323Y-73188367D01*
X87071851Y-73189650D01*
X87051762Y-73191219D01*
X87032057Y-73193073D01*
X87012735Y-73195212D01*
X86993797Y-73197637D01*
X86975242Y-73200346D01*
X86957071Y-73203341D01*
X86939283Y-73206621D01*
X86921879Y-73210187D01*
X86904859Y-73214037D01*
X86888221Y-73218173D01*
X86871968Y-73222594D01*
X86856097Y-73227300D01*
X86840611Y-73232292D01*
X86825508Y-73237568D01*
X86810788Y-73243130D01*
X86796452Y-73248978D01*
X86782499Y-73255110D01*
X86768930Y-73261528D01*
X86755744Y-73268230D01*
X86742942Y-73275219D01*
X86730523Y-73282492D01*
X86718488Y-73290050D01*
X86706836Y-73297894D01*
X86695568Y-73306023D01*
X86684683Y-73314437D01*
X86674182Y-73323137D01*
X86664064Y-73332121D01*
X86654293Y-73341314D01*
X86644832Y-73350680D01*
X86635682Y-73360219D01*
X86626841Y-73369932D01*
X86610091Y-73389876D01*
X86594582Y-73410514D01*
X86580313Y-73431845D01*
X86567285Y-73453868D01*
X86555498Y-73476585D01*
X86544952Y-73499995D01*
X86535646Y-73524099D01*
X86527581Y-73548895D01*
X86520757Y-73574384D01*
X86515173Y-73600566D01*
X86510831Y-73627442D01*
X86509125Y-73641139D01*
X86507729Y-73655010D01*
X86506643Y-73669054D01*
X86505868Y-73683272D01*
X86505403Y-73697662D01*
X86505247Y-73712226D01*
X85986333Y-73712226D01*
X85986333Y-72571571D01*
X86505247Y-72571571D01*
X86505822Y-72597566D01*
X86507545Y-72622922D01*
X86510416Y-72647638D01*
X86514437Y-72671715D01*
X86519606Y-72695152D01*
X86525923Y-72717948D01*
X86533390Y-72740106D01*
X86542005Y-72761623D01*
X86551768Y-72782501D01*
X86562681Y-72802738D01*
X86574742Y-72822337D01*
X86587951Y-72841295D01*
X86602310Y-72859613D01*
X86617817Y-72877292D01*
X86634472Y-72894331D01*
X86652277Y-72910731D01*
X86671575Y-72926307D01*
X86692635Y-72940879D01*
X86703826Y-72947788D01*
X86715457Y-72954446D01*
X86727529Y-72960853D01*
X86740041Y-72967008D01*
X86752993Y-72972913D01*
X86766386Y-72978565D01*
X86780219Y-72983967D01*
X86794493Y-72989118D01*
X86809208Y-72994017D01*
X86824362Y-72998665D01*
X86839957Y-73003061D01*
X86855993Y-73007207D01*
X86872469Y-73011101D01*
X86889386Y-73014744D01*
X86906742Y-73018136D01*
X86924540Y-73021276D01*
X86942778Y-73024166D01*
X86961456Y-73026804D01*
X86980575Y-73029190D01*
X87000134Y-73031326D01*
X87020133Y-73033210D01*
X87040573Y-73034843D01*
X87061454Y-73036225D01*
X87082775Y-73037356D01*
X87104536Y-73038235D01*
X87126738Y-73038863D01*
X87149380Y-73039240D01*
X87172463Y-73039366D01*
X87195121Y-73039228D01*
X87217382Y-73038817D01*
X87239245Y-73038130D01*
X87260711Y-73037169D01*
X87281780Y-73035934D01*
X87302451Y-73034423D01*
X87322725Y-73032639D01*
X87342601Y-73030580D01*
X87362080Y-73028246D01*
X87381161Y-73025637D01*
X87399845Y-73022754D01*
X87418132Y-73019597D01*
X87436021Y-73016165D01*
X87453513Y-73012458D01*
X87470607Y-73008477D01*
X87487304Y-73004221D01*
X87503603Y-72999691D01*
X87519505Y-72994886D01*
X87535010Y-72989807D01*
X87550117Y-72984453D01*
X87564827Y-72978824D01*
X87579139Y-72972921D01*
X87593054Y-72966743D01*
X87606571Y-72960291D01*
X87619691Y-72953564D01*
X87632414Y-72946563D01*
X87644739Y-72939287D01*
X87656667Y-72931736D01*
X87668197Y-72923911D01*
X87679330Y-72915811D01*
X87690065Y-72907437D01*
X87693877Y-72904248D01*
X88658700Y-72904248D01*
X88658700Y-73209969D01*
X89968935Y-73209969D01*
X89968935Y-72904248D01*
X88658700Y-72904248D01*
X87693877Y-72904248D01*
X87700403Y-72898788D01*
X87716743Y-72883715D01*
X87732028Y-72867925D01*
X87746259Y-72851418D01*
X87759436Y-72834193D01*
X87771559Y-72816252D01*
X87782628Y-72797594D01*
X87792642Y-72778218D01*
X87801602Y-72758126D01*
X87809509Y-72737316D01*
X87816361Y-72715789D01*
X87822158Y-72693545D01*
X87826902Y-72670585D01*
X87830592Y-72646907D01*
X87833227Y-72622512D01*
X87834808Y-72597400D01*
X87835335Y-72571571D01*
X87834801Y-72545739D01*
X87833198Y-72520619D01*
X87830526Y-72496210D01*
X87826786Y-72472514D01*
X87821977Y-72449529D01*
X87816099Y-72427256D01*
X87809152Y-72405694D01*
X87801137Y-72384845D01*
X87792053Y-72364707D01*
X87781901Y-72345281D01*
X87770679Y-72326566D01*
X87758389Y-72308564D01*
X87745031Y-72291273D01*
X87730603Y-72274694D01*
X87715107Y-72258826D01*
X87711595Y-72255613D01*
X88638847Y-72255613D01*
X88639147Y-72281758D01*
X88640045Y-72307220D01*
X88641541Y-72332000D01*
X88643636Y-72356098D01*
X88646330Y-72379513D01*
X88649622Y-72402246D01*
X88653512Y-72424297D01*
X88658002Y-72445665D01*
X88663089Y-72466351D01*
X88668776Y-72486354D01*
X88675061Y-72505675D01*
X88681944Y-72524313D01*
X88689426Y-72542269D01*
X88697507Y-72559543D01*
X88706186Y-72576134D01*
X88715464Y-72592043D01*
X88725299Y-72607245D01*
X88735650Y-72621803D01*
X88746518Y-72635715D01*
X88757902Y-72648982D01*
X88769801Y-72661604D01*
X88782217Y-72673581D01*
X88795150Y-72684913D01*
X88808598Y-72695599D01*
X88822563Y-72705641D01*
X88837043Y-72715037D01*
X88852040Y-72723789D01*
X88867553Y-72731895D01*
X88883582Y-72739357D01*
X88900128Y-72746173D01*
X88917189Y-72752344D01*
X88934767Y-72757870D01*
X88977573Y-72465455D01*
X88964141Y-72461605D01*
X88951412Y-72457222D01*
X88939386Y-72452305D01*
X88924446Y-72444918D01*
X88910757Y-72436583D01*
X88898318Y-72427298D01*
X88887129Y-72417065D01*
X88877191Y-72405882D01*
X88870558Y-72396872D01*
X88862779Y-72383768D01*
X88856037Y-72369363D01*
X88850333Y-72353656D01*
X88845666Y-72336649D01*
X88842846Y-72323040D01*
X88840609Y-72308700D01*
X88838956Y-72293627D01*
X88837887Y-72277823D01*
X88837400Y-72261287D01*
X88837368Y-72255613D01*
X88837660Y-72237125D01*
X88838535Y-72219538D01*
X88839993Y-72202850D01*
X88842035Y-72187062D01*
X88844661Y-72172173D01*
X88847870Y-72158185D01*
X88851662Y-72145095D01*
X88857626Y-72129043D01*
X88864627Y-72114589D01*
X88870558Y-72104799D01*
X88879002Y-72094247D01*
X88890205Y-72084695D01*
X88902861Y-72078116D01*
X88916973Y-72074507D01*
X88927943Y-72073749D01*
X88940691Y-72075018D01*
X88953244Y-72079403D01*
X88964101Y-72086920D01*
X88967027Y-72089786D01*
X88974704Y-72101749D01*
X88980360Y-72114781D01*
X88985007Y-72128297D01*
X88989593Y-72144230D01*
X88993218Y-72158715D01*
X88996805Y-72174746D01*
X89000905Y-72195028D01*
X89004985Y-72214842D01*
X89009045Y-72234190D01*
X89013085Y-72253070D01*
X89017105Y-72271482D01*
X89021105Y-72289428D01*
X89025085Y-72306907D01*
X89029045Y-72323918D01*
X89032985Y-72340462D01*
X89036905Y-72356539D01*
X89040805Y-72372149D01*
X89044685Y-72387292D01*
X89048545Y-72401968D01*
X89052386Y-72416176D01*
X89056206Y-72429917D01*
X89060006Y-72443191D01*
X89067546Y-72468338D01*
X89075006Y-72491616D01*
X89082387Y-72513025D01*
X89089687Y-72532566D01*
X89096907Y-72550238D01*
X89104048Y-72566042D01*
X89111108Y-72579977D01*
X89118089Y-72592043D01*
X89128099Y-72607248D01*
X89138590Y-72621472D01*
X89149561Y-72634715D01*
X89161011Y-72646977D01*
X89172941Y-72658258D01*
X89185351Y-72668559D01*
X89198241Y-72677878D01*
X89211610Y-72686216D01*
X89225460Y-72693573D01*
X89239789Y-72699950D01*
X89254598Y-72705345D01*
X89269887Y-72709759D01*
X89285656Y-72713193D01*
X89301904Y-72715645D01*
X89318633Y-72717117D01*
X89335841Y-72717607D01*
X89351385Y-72717186D01*
X89366612Y-72715923D01*
X89381522Y-72713817D01*
X89396114Y-72710868D01*
X89410389Y-72707078D01*
X89424346Y-72702445D01*
X89437986Y-72696970D01*
X89451308Y-72690652D01*
X89464313Y-72683492D01*
X89477001Y-72675489D01*
X89489371Y-72666645D01*
X89501423Y-72656958D01*
X89513158Y-72646428D01*
X89524576Y-72635056D01*
X89535676Y-72622842D01*
X89546459Y-72609786D01*
X89556751Y-72595814D01*
X89566379Y-72580938D01*
X89575343Y-72565158D01*
X89583643Y-72548475D01*
X89591279Y-72530888D01*
X89598251Y-72512398D01*
X89604558Y-72493004D01*
X89610202Y-72472706D01*
X89615182Y-72451504D01*
X89619498Y-72429399D01*
X89623150Y-72406390D01*
X89626138Y-72382478D01*
X89628462Y-72357662D01*
X89630122Y-72331942D01*
X89631118Y-72305318D01*
X89631367Y-72291668D01*
X89631450Y-72277791D01*
X89631189Y-72251641D01*
X89630403Y-72226333D01*
X89629095Y-72201867D01*
X89627263Y-72178244D01*
X89624907Y-72155463D01*
X89622028Y-72133524D01*
X89618626Y-72112428D01*
X89614700Y-72092174D01*
X89610251Y-72072763D01*
X89605278Y-72054194D01*
X89599782Y-72036467D01*
X89593762Y-72019582D01*
X89587219Y-72003540D01*
X89580153Y-71988341D01*
X89572563Y-71973983D01*
X89564450Y-71960468D01*
X89555781Y-71947577D01*
X89546527Y-71935176D01*
X89536685Y-71923266D01*
X89526258Y-71911846D01*
X89515244Y-71900917D01*
X89503643Y-71890478D01*
X89491456Y-71880530D01*
X89478683Y-71871072D01*
X89465323Y-71862105D01*
X89451376Y-71853628D01*
X89436843Y-71845641D01*
X89421724Y-71838146D01*
X89406019Y-71831140D01*
X89389726Y-71824625D01*
X89372848Y-71818601D01*
X89355383Y-71813067D01*
X89312266Y-72089445D01*
X89327543Y-72094270D01*
X89341734Y-72099873D01*
X89354840Y-72106254D01*
X89366860Y-72113414D01*
X89377794Y-72121353D01*
X89387642Y-72130070D01*
X89398426Y-72142060D01*
X89404082Y-72149838D01*
X89412393Y-72164091D01*
X89418027Y-72176825D01*
X89422760Y-72190743D01*
X89426591Y-72205844D01*
X89429521Y-72222129D01*
X89431549Y-72239597D01*
X89432479Y-72253475D01*
X89432902Y-72268018D01*
X89432930Y-72273014D01*
X89432706Y-72291868D01*
X89432036Y-72309661D01*
X89430918Y-72326391D01*
X89429353Y-72342061D01*
X89427341Y-72356668D01*
X89424882Y-72370214D01*
X89420908Y-72386624D01*
X89416138Y-72401147D01*
X89410574Y-72413782D01*
X89407494Y-72419392D01*
X89398848Y-72430737D01*
X89387730Y-72439626D01*
X89375140Y-72444412D01*
X89365929Y-72445324D01*
X89353322Y-72443125D01*
X89341865Y-72436527D01*
X89332539Y-72426829D01*
X89329637Y-72422804D01*
X89321844Y-72407521D01*
X89316667Y-72394121D01*
X89311114Y-72377549D01*
X89305184Y-72357803D01*
X89301022Y-72342876D01*
X89296693Y-72326540D01*
X89292196Y-72308793D01*
X89287533Y-72289636D01*
X89282702Y-72269069D01*
X89277704Y-72247092D01*
X89272538Y-72223704D01*
X89267206Y-72198907D01*
X89261706Y-72172699D01*
X89258912Y-72159346D01*
X89253193Y-72133391D01*
X89247299Y-72108435D01*
X89241231Y-72084478D01*
X89234988Y-72061521D01*
X89228571Y-72039564D01*
X89221980Y-72018606D01*
X89215214Y-71998649D01*
X89208273Y-71979690D01*
X89201158Y-71961732D01*
X89193869Y-71944772D01*
X89186405Y-71928813D01*
X89178767Y-71913853D01*
X89170954Y-71899893D01*
X89162967Y-71886932D01*
X89154805Y-71874972D01*
X89150658Y-71869366D01*
X89141917Y-71858706D01*
X89132755Y-71848734D01*
X89123170Y-71839449D01*
X89113164Y-71830852D01*
X89102737Y-71822943D01*
X89091887Y-71815722D01*
X89080616Y-71809188D01*
X89068924Y-71803342D01*
X89056809Y-71798184D01*
X89044273Y-71793714D01*
X89031316Y-71789931D01*
X89017936Y-71786836D01*
X89004135Y-71784429D01*
X88989913Y-71782710D01*
X88975269Y-71781678D01*
X88960203Y-71781334D01*
X88943832Y-71781805D01*
X88927754Y-71783216D01*
X88911970Y-71785569D01*
X88896478Y-71788862D01*
X88881280Y-71793097D01*
X88866375Y-71798272D01*
X88851764Y-71804389D01*
X88837446Y-71811446D01*
X88823420Y-71819444D01*
X88809689Y-71828384D01*
X88796250Y-71838264D01*
X88783104Y-71849085D01*
X88770252Y-71860848D01*
X88757693Y-71873551D01*
X88745427Y-71887195D01*
X88733455Y-71901781D01*
X88721999Y-71917278D01*
X88711281Y-71933657D01*
X88701303Y-71950919D01*
X88692064Y-71969062D01*
X88683564Y-71988089D01*
X88675803Y-72007997D01*
X88668782Y-72028788D01*
X88662499Y-72050462D01*
X88656956Y-72073017D01*
X88652152Y-72096455D01*
X88648086Y-72120776D01*
X88644760Y-72145978D01*
X88642173Y-72172063D01*
X88640326Y-72199031D01*
X88639679Y-72212845D01*
X88639217Y-72226881D01*
X88638940Y-72241136D01*
X88638847Y-72255613D01*
X87711595Y-72255613D01*
X87698542Y-72243670D01*
X87688316Y-72235085D01*
X87677685Y-72226771D01*
X87666647Y-72218731D01*
X87655203Y-72210962D01*
X87643354Y-72203467D01*
X87631098Y-72196244D01*
X87618437Y-72189293D01*
X87605369Y-72182616D01*
X87591896Y-72176210D01*
X87578017Y-72170078D01*
X87563732Y-72164217D01*
X87549041Y-72158630D01*
X87533944Y-72153315D01*
X87518442Y-72148272D01*
X87502533Y-72143502D01*
X87486218Y-72139005D01*
X87469498Y-72134780D01*
X87452371Y-72130828D01*
X87434839Y-72127148D01*
X87416901Y-72123741D01*
X87398557Y-72120607D01*
X87379807Y-72117745D01*
X87360651Y-72115155D01*
X87341089Y-72112839D01*
X87321121Y-72110794D01*
X87300747Y-72109023D01*
X87279968Y-72107524D01*
X87258782Y-72106297D01*
X87237191Y-72105343D01*
X87215194Y-72104662D01*
X87192790Y-72104253D01*
X87169981Y-72104117D01*
X87147208Y-72104254D01*
X87124837Y-72104666D01*
X87102866Y-72105352D01*
X87081296Y-72106313D01*
X87060128Y-72107549D01*
X87039360Y-72109059D01*
X87018994Y-72110843D01*
X86999029Y-72112903D01*
X86979464Y-72115236D01*
X86960301Y-72117845D01*
X86941539Y-72120728D01*
X86923178Y-72123885D01*
X86905218Y-72127317D01*
X86887659Y-72131024D01*
X86870501Y-72135005D01*
X86853744Y-72139261D01*
X86837388Y-72143791D01*
X86821434Y-72148596D01*
X86805880Y-72153676D01*
X86790727Y-72159030D01*
X86775976Y-72164658D01*
X86761625Y-72170561D01*
X86747676Y-72176739D01*
X86734128Y-72183191D01*
X86720980Y-72189918D01*
X86708234Y-72196920D01*
X86695889Y-72204196D01*
X86683945Y-72211746D01*
X86672402Y-72219571D01*
X86661260Y-72227671D01*
X86650519Y-72236045D01*
X86640179Y-72244694D01*
X86623840Y-72259766D01*
X86608555Y-72275552D01*
X86594324Y-72292052D01*
X86581147Y-72309267D01*
X86569024Y-72327197D01*
X86557955Y-72345841D01*
X86547941Y-72365199D01*
X86538980Y-72385271D01*
X86531074Y-72406058D01*
X86524222Y-72427560D01*
X86518424Y-72449776D01*
X86513681Y-72472706D01*
X86509991Y-72496350D01*
X86507356Y-72520709D01*
X86505775Y-72545783D01*
X86505247Y-72571571D01*
X85986333Y-72571571D01*
X85986333Y-71167844D01*
X88638847Y-71167844D01*
X88639147Y-71193989D01*
X88640045Y-71219451D01*
X88641541Y-71244232D01*
X88643636Y-71268329D01*
X88646330Y-71291745D01*
X88649622Y-71314478D01*
X88653512Y-71336528D01*
X88658002Y-71357896D01*
X88663089Y-71378582D01*
X88668776Y-71398585D01*
X88675061Y-71417906D01*
X88681944Y-71436545D01*
X88689426Y-71454501D01*
X88697507Y-71471774D01*
X88706186Y-71488365D01*
X88715464Y-71504274D01*
X88725299Y-71519477D01*
X88735650Y-71534034D01*
X88746518Y-71547946D01*
X88757902Y-71561213D01*
X88769801Y-71573835D01*
X88782217Y-71585812D01*
X88795150Y-71597144D01*
X88808598Y-71607831D01*
X88822563Y-71617872D01*
X88837043Y-71627269D01*
X88852040Y-71636020D01*
X88867553Y-71644127D01*
X88883582Y-71651588D01*
X88900128Y-71658404D01*
X88917189Y-71664575D01*
X88934767Y-71670101D01*
X88977573Y-71377686D01*
X88964141Y-71373837D01*
X88951412Y-71369453D01*
X88939386Y-71364536D01*
X88924446Y-71357150D01*
X88910757Y-71348814D01*
X88898318Y-71339529D01*
X88887129Y-71329296D01*
X88877191Y-71318113D01*
X88870558Y-71309104D01*
X88862779Y-71295999D01*
X88856037Y-71281594D01*
X88850333Y-71265888D01*
X88845666Y-71248881D01*
X88842846Y-71235272D01*
X88840609Y-71220931D01*
X88838956Y-71205858D01*
X88837887Y-71190054D01*
X88837400Y-71173518D01*
X88837368Y-71167844D01*
X88837660Y-71149357D01*
X88838535Y-71131769D01*
X88839993Y-71115081D01*
X88842035Y-71099293D01*
X88844661Y-71084405D01*
X88847870Y-71070416D01*
X88851662Y-71057327D01*
X88857626Y-71041274D01*
X88864627Y-71026821D01*
X88870558Y-71017030D01*
X88879002Y-71006478D01*
X88890205Y-70996927D01*
X88902861Y-70990347D01*
X88916973Y-70986738D01*
X88927943Y-70985980D01*
X88940691Y-70987249D01*
X88953244Y-70991634D01*
X88964101Y-70999151D01*
X88967027Y-71002017D01*
X88974704Y-71013981D01*
X88980360Y-71027012D01*
X88985007Y-71040529D01*
X88989593Y-71056461D01*
X88993218Y-71070946D01*
X88996805Y-71086978D01*
X89000905Y-71107259D01*
X89004985Y-71127074D01*
X89009045Y-71146421D01*
X89013085Y-71165301D01*
X89017105Y-71183714D01*
X89021105Y-71201659D01*
X89025085Y-71219138D01*
X89029045Y-71236149D01*
X89032985Y-71252693D01*
X89036905Y-71268771D01*
X89040805Y-71284380D01*
X89044685Y-71299523D01*
X89048545Y-71314199D01*
X89052386Y-71328407D01*
X89056206Y-71342148D01*
X89060006Y-71355423D01*
X89067546Y-71380569D01*
X89075006Y-71403847D01*
X89082387Y-71425257D01*
X89089687Y-71444798D01*
X89096907Y-71462470D01*
X89104048Y-71478273D01*
X89111108Y-71492208D01*
X89118089Y-71504274D01*
X89128099Y-71519479D01*
X89138590Y-71533703D01*
X89149561Y-71546946D01*
X89161011Y-71559209D01*
X89172941Y-71570490D01*
X89185351Y-71580790D01*
X89198241Y-71590109D01*
X89211610Y-71598447D01*
X89225460Y-71605805D01*
X89239789Y-71612181D01*
X89254598Y-71617576D01*
X89269887Y-71621991D01*
X89285656Y-71625424D01*
X89301904Y-71627877D01*
X89318633Y-71629348D01*
X89335841Y-71629838D01*
X89351385Y-71629417D01*
X89366612Y-71628154D01*
X89381522Y-71626048D01*
X89396114Y-71623100D01*
X89410389Y-71619309D01*
X89424346Y-71614676D01*
X89437986Y-71609201D01*
X89451308Y-71602883D01*
X89464313Y-71595723D01*
X89477001Y-71587721D01*
X89489371Y-71578876D01*
X89501423Y-71569189D01*
X89513158Y-71558659D01*
X89524576Y-71547288D01*
X89535676Y-71535073D01*
X89546459Y-71522017D01*
X89556751Y-71508045D01*
X89566379Y-71493169D01*
X89575343Y-71477389D01*
X89583643Y-71460706D01*
X89591279Y-71443119D01*
X89598251Y-71424629D01*
X89604558Y-71405235D01*
X89610202Y-71384937D01*
X89615182Y-71363735D01*
X89619498Y-71341630D01*
X89623150Y-71318621D01*
X89626138Y-71294709D01*
X89628462Y-71269893D01*
X89630122Y-71244173D01*
X89631118Y-71217549D01*
X89631367Y-71203899D01*
X89631450Y-71190022D01*
X89631189Y-71163872D01*
X89630403Y-71138564D01*
X89629095Y-71114098D01*
X89627263Y-71090475D01*
X89624907Y-71067694D01*
X89622028Y-71045756D01*
X89618626Y-71024659D01*
X89614700Y-71004406D01*
X89610251Y-70984994D01*
X89605278Y-70966425D01*
X89599782Y-70948698D01*
X89593762Y-70931814D01*
X89587219Y-70915772D01*
X89580153Y-70900572D01*
X89572563Y-70886215D01*
X89564450Y-70872700D01*
X89555781Y-70859808D01*
X89546527Y-70847408D01*
X89536685Y-70835497D01*
X89526258Y-70824078D01*
X89515244Y-70813148D01*
X89503643Y-70802709D01*
X89491456Y-70792761D01*
X89478683Y-70783303D01*
X89465323Y-70774336D01*
X89451376Y-70765859D01*
X89436843Y-70757873D01*
X89421724Y-70750377D01*
X89406019Y-70743371D01*
X89389726Y-70736856D01*
X89372848Y-70730832D01*
X89355383Y-70725298D01*
X89312266Y-71001676D01*
X89327543Y-71006501D01*
X89341734Y-71012104D01*
X89354840Y-71018486D01*
X89366860Y-71025646D01*
X89377794Y-71033584D01*
X89387642Y-71042301D01*
X89398426Y-71054291D01*
X89404082Y-71062070D01*
X89412393Y-71076323D01*
X89418027Y-71089057D01*
X89422760Y-71102974D01*
X89426591Y-71118075D01*
X89429521Y-71134360D01*
X89431549Y-71151828D01*
X89432479Y-71165706D01*
X89432902Y-71180250D01*
X89432930Y-71185245D01*
X89432706Y-71204099D01*
X89432036Y-71221892D01*
X89430918Y-71238623D01*
X89429353Y-71254292D01*
X89427341Y-71268900D01*
X89424882Y-71282446D01*
X89420908Y-71298855D01*
X89416138Y-71313378D01*
X89410574Y-71326013D01*
X89407494Y-71331623D01*
X89398848Y-71342968D01*
X89387730Y-71351857D01*
X89375140Y-71356643D01*
X89365929Y-71357555D01*
X89353322Y-71355356D01*
X89341865Y-71348758D01*
X89332539Y-71339060D01*
X89329637Y-71335035D01*
X89321844Y-71319753D01*
X89316667Y-71306353D01*
X89311114Y-71289780D01*
X89305184Y-71270034D01*
X89301022Y-71255108D01*
X89296693Y-71238771D01*
X89292196Y-71221024D01*
X89287533Y-71201867D01*
X89282702Y-71181300D01*
X89277704Y-71159323D01*
X89272538Y-71135936D01*
X89267206Y-71111138D01*
X89261706Y-71084930D01*
X89258912Y-71071578D01*
X89253193Y-71045622D01*
X89247299Y-71020666D01*
X89241231Y-70996709D01*
X89234988Y-70973753D01*
X89228571Y-70951795D01*
X89221980Y-70930838D01*
X89215214Y-70910880D01*
X89208273Y-70891921D01*
X89201158Y-70873963D01*
X89193869Y-70857004D01*
X89186405Y-70841044D01*
X89178767Y-70826084D01*
X89170954Y-70812124D01*
X89162967Y-70799164D01*
X89154805Y-70787203D01*
X89150658Y-70781597D01*
X89141917Y-70770937D01*
X89132755Y-70760965D01*
X89123170Y-70751680D01*
X89113164Y-70743083D01*
X89102737Y-70735174D01*
X89091887Y-70727953D01*
X89080616Y-70721419D01*
X89068924Y-70715574D01*
X89056809Y-70710416D01*
X89044273Y-70705945D01*
X89031316Y-70702163D01*
X89017936Y-70699068D01*
X89004135Y-70696661D01*
X88989913Y-70694941D01*
X88975269Y-70693910D01*
X88960203Y-70693566D01*
X88943832Y-70694036D01*
X88927754Y-70695448D01*
X88911970Y-70697800D01*
X88896478Y-70701094D01*
X88881280Y-70705328D01*
X88866375Y-70710504D01*
X88851764Y-70716620D01*
X88837446Y-70723677D01*
X88823420Y-70731676D01*
X88809689Y-70740615D01*
X88796250Y-70750495D01*
X88783104Y-70761317D01*
X88770252Y-70773079D01*
X88757693Y-70785782D01*
X88745427Y-70799427D01*
X88733455Y-70814012D01*
X88721999Y-70829509D01*
X88711281Y-70845888D01*
X88701303Y-70863150D01*
X88692064Y-70881294D01*
X88683564Y-70900320D01*
X88675803Y-70920229D01*
X88668782Y-70941020D01*
X88662499Y-70962693D01*
X88656956Y-70985249D01*
X88652152Y-71008687D01*
X88648086Y-71033007D01*
X88644760Y-71058210D01*
X88642173Y-71084295D01*
X88640326Y-71111262D01*
X88639679Y-71125077D01*
X88639217Y-71139112D01*
X88638940Y-71153368D01*
X88638847Y-71167844D01*
X85986333Y-71167844D01*
X85986333Y-70140810D01*
X88638847Y-70140810D01*
X88639221Y-70160335D01*
X88640341Y-70179500D01*
X88642209Y-70198305D01*
X88644823Y-70216750D01*
X88648185Y-70234835D01*
X88652293Y-70252561D01*
X88657149Y-70269926D01*
X88662751Y-70286932D01*
X88669101Y-70303578D01*
X88676197Y-70319864D01*
X88681343Y-70330521D01*
X88689669Y-70345916D01*
X88698595Y-70360494D01*
X88708121Y-70374257D01*
X88718246Y-70387204D01*
X88728971Y-70399336D01*
X88740296Y-70410652D01*
X88752221Y-70421152D01*
X88764745Y-70430836D01*
X88777869Y-70439705D01*
X88791593Y-70447758D01*
X88801076Y-70452673D01*
X88816054Y-70459381D01*
X88832025Y-70465429D01*
X88848987Y-70470817D01*
X88866943Y-70475545D01*
X88879464Y-70478331D01*
X88892426Y-70480823D01*
X88905830Y-70483022D01*
X88919675Y-70484928D01*
X88933960Y-70486541D01*
X88948687Y-70487860D01*
X88963855Y-70488887D01*
X88979463Y-70489620D01*
X88995513Y-70490060D01*
X89012004Y-70490206D01*
X89611598Y-70490206D01*
X89611598Y-70198815D01*
X89168339Y-70198815D01*
X89144283Y-70198761D01*
X89121433Y-70198597D01*
X89099790Y-70198323D01*
X89079354Y-70197941D01*
X89060125Y-70197449D01*
X89042102Y-70196848D01*
X89025286Y-70196138D01*
X89009678Y-70195318D01*
X88995276Y-70194389D01*
X88982081Y-70193351D01*
X88964551Y-70191588D01*
X88949736Y-70189580D01*
X88934207Y-70186520D01*
X88928253Y-70184826D01*
X88915420Y-70179814D01*
X88903481Y-70173737D01*
X88892435Y-70166592D01*
X88882282Y-70158382D01*
X88873024Y-70149106D01*
X88864659Y-70138763D01*
X88861563Y-70134327D01*
X88854593Y-70122418D01*
X88848804Y-70109510D01*
X88844196Y-70095601D01*
X88840770Y-70080694D01*
X88838526Y-70064786D01*
X88837463Y-70047879D01*
X88837368Y-70040836D01*
X88837887Y-70024672D01*
X88839442Y-70008933D01*
X88842035Y-69993622D01*
X88845666Y-69978737D01*
X88850333Y-69964278D01*
X88856037Y-69950246D01*
X88862779Y-69936640D01*
X88870558Y-69923461D01*
X88879113Y-69911007D01*
X88888181Y-69899576D01*
X88897763Y-69889170D01*
X88907858Y-69879786D01*
X88918468Y-69871427D01*
X88929591Y-69864091D01*
X88941228Y-69857779D01*
X88953378Y-69852490D01*
X88968151Y-69847932D01*
X88982335Y-69844912D01*
X88999180Y-69842234D01*
X89011888Y-69840638D01*
X89025778Y-69839195D01*
X89040852Y-69837903D01*
X89057107Y-69836764D01*
X89074546Y-69835776D01*
X89093167Y-69834940D01*
X89112970Y-69834257D01*
X89133957Y-69833725D01*
X89156125Y-69833345D01*
X89179477Y-69833117D01*
X89204011Y-69833041D01*
X89611598Y-69833041D01*
X89611598Y-69541650D01*
X88658700Y-69541650D01*
X88658700Y-69813933D01*
X88775020Y-69813933D01*
X88762710Y-69824106D01*
X88750593Y-69836027D01*
X88741632Y-69846115D01*
X88732781Y-69857187D01*
X88724039Y-69869242D01*
X88715406Y-69882282D01*
X88706882Y-69896304D01*
X88698467Y-69911311D01*
X88690161Y-69927301D01*
X88681964Y-69944275D01*
X88674258Y-69961772D01*
X88667311Y-69979462D01*
X88661121Y-69997343D01*
X88655690Y-70015416D01*
X88651016Y-70033682D01*
X88647100Y-70052139D01*
X88643942Y-70070788D01*
X88641542Y-70089629D01*
X88639900Y-70108662D01*
X88639016Y-70127887D01*
X88638847Y-70140810D01*
X85986333Y-70140810D01*
X85986333Y-68863671D01*
X88638847Y-68863671D01*
X88639006Y-68880509D01*
X88639482Y-68897072D01*
X88640276Y-68913361D01*
X88641387Y-68929375D01*
X88642816Y-68945114D01*
X88644562Y-68960579D01*
X88646625Y-68975770D01*
X88649006Y-68990686D01*
X88651705Y-69005327D01*
X88654720Y-69019694D01*
X88658054Y-69033786D01*
X88661704Y-69047603D01*
X88665673Y-69061146D01*
X88669958Y-69074415D01*
X88674562Y-69087409D01*
X88679482Y-69100128D01*
X88684720Y-69112573D01*
X88696149Y-69136638D01*
X88708847Y-69159606D01*
X88722815Y-69181475D01*
X88738053Y-69202246D01*
X88754561Y-69221919D01*
X88772339Y-69240493D01*
X88791386Y-69257970D01*
X88801386Y-69266296D01*
X88817893Y-69278733D01*
X88834920Y-69290367D01*
X88852469Y-69301199D01*
X88870539Y-69311229D01*
X88889130Y-69320456D01*
X88908241Y-69328881D01*
X88927874Y-69336503D01*
X88948028Y-69343323D01*
X88968703Y-69349341D01*
X88989898Y-69354557D01*
X89011615Y-69358970D01*
X89033853Y-69362580D01*
X89056612Y-69365389D01*
X89079892Y-69367394D01*
X89103693Y-69368598D01*
X89128015Y-69368999D01*
X89142611Y-69368867D01*
X89157010Y-69368470D01*
X89171211Y-69367809D01*
X89185215Y-69366883D01*
X89199022Y-69365692D01*
X89212631Y-69364237D01*
X89226042Y-69362517D01*
X89239256Y-69360533D01*
X89252272Y-69358284D01*
X89265091Y-69355771D01*
X89277713Y-69352993D01*
X89290136Y-69349950D01*
X89302363Y-69346643D01*
X89314392Y-69343071D01*
X89337857Y-69335134D01*
X89360532Y-69326139D01*
X89382418Y-69316085D01*
X89403513Y-69304974D01*
X89423818Y-69292803D01*
X89443333Y-69279575D01*
X89462058Y-69265288D01*
X89479994Y-69249943D01*
X89497139Y-69233540D01*
X89513403Y-69216326D01*
X89528618Y-69198550D01*
X89542784Y-69180212D01*
X89555900Y-69161311D01*
X89567967Y-69141847D01*
X89578985Y-69121821D01*
X89588953Y-69101233D01*
X89597872Y-69080082D01*
X89605742Y-69058369D01*
X89612563Y-69036093D01*
X89618334Y-69013255D01*
X89623056Y-68989854D01*
X89626728Y-68965891D01*
X89629352Y-68941365D01*
X89630926Y-68916277D01*
X89631450Y-68890627D01*
X89631314Y-68876200D01*
X89630904Y-68861964D01*
X89630221Y-68847919D01*
X89629265Y-68834066D01*
X89628035Y-68820404D01*
X89624756Y-68793654D01*
X89620384Y-68767669D01*
X89614920Y-68742449D01*
X89608362Y-68717994D01*
X89600712Y-68694304D01*
X89591968Y-68671379D01*
X89582132Y-68649219D01*
X89571203Y-68627825D01*
X89559180Y-68607195D01*
X89546065Y-68587330D01*
X89531857Y-68568231D01*
X89516556Y-68549896D01*
X89500162Y-68532327D01*
X89491555Y-68523829D01*
X89473459Y-68507573D01*
X89454144Y-68492416D01*
X89433610Y-68478358D01*
X89411856Y-68465397D01*
X89400523Y-68459329D01*
X89388884Y-68453535D01*
X89376941Y-68448015D01*
X89364693Y-68442771D01*
X89352141Y-68437801D01*
X89339283Y-68433105D01*
X89326121Y-68428684D01*
X89312654Y-68424537D01*
X89298883Y-68420666D01*
X89284806Y-68417068D01*
X89270425Y-68413745D01*
X89255740Y-68410697D01*
X89240749Y-68407924D01*
X89225454Y-68405425D01*
X89209854Y-68403200D01*
X89193949Y-68401250D01*
X89177740Y-68399575D01*
X89161225Y-68398174D01*
X89144406Y-68397048D01*
X89127283Y-68396196D01*
X89109854Y-68395619D01*
X89092121Y-68395316D01*
X89074083Y-68395288D01*
X89055741Y-68395535D01*
X89055741Y-68685220D01*
X89055741Y-69070443D01*
X89037531Y-69069494D01*
X89020008Y-69067544D01*
X89003173Y-69064592D01*
X88987024Y-69060638D01*
X88971563Y-69055683D01*
X88956788Y-69049726D01*
X88942701Y-69042768D01*
X88929300Y-69034808D01*
X88916587Y-69025846D01*
X88904560Y-69015883D01*
X88896924Y-69008684D01*
X88886281Y-68997298D01*
X88876684Y-68985401D01*
X88868135Y-68972995D01*
X88860632Y-68960078D01*
X88854176Y-68946652D01*
X88848767Y-68932716D01*
X88844405Y-68918271D01*
X88841090Y-68903315D01*
X88838822Y-68887850D01*
X88837601Y-68871875D01*
X88837368Y-68860942D01*
X88837780Y-68846318D01*
X88839016Y-68832301D01*
X88841719Y-68815636D01*
X88845710Y-68799920D01*
X88850989Y-68785154D01*
X88857555Y-68771337D01*
X88863734Y-68760968D01*
X88872981Y-68748786D01*
X88884242Y-68737403D01*
X88894701Y-68728873D01*
X88906449Y-68720855D01*
X88919487Y-68713348D01*
X88933814Y-68706353D01*
X88945405Y-68701443D01*
X88957721Y-68696821D01*
X88914605Y-68405430D01*
X88897325Y-68412902D01*
X88880615Y-68420816D01*
X88864474Y-68429173D01*
X88848903Y-68437973D01*
X88833901Y-68447214D01*
X88819469Y-68456899D01*
X88805606Y-68467026D01*
X88792313Y-68477595D01*
X88779589Y-68488607D01*
X88767435Y-68500062D01*
X88755850Y-68511959D01*
X88744835Y-68524298D01*
X88734389Y-68537080D01*
X88724513Y-68550304D01*
X88715206Y-68563971D01*
X88706469Y-68578081D01*
X88698280Y-68592631D01*
X88690620Y-68607622D01*
X88683488Y-68623052D01*
X88676884Y-68638922D01*
X88670809Y-68655232D01*
X88665262Y-68671982D01*
X88660243Y-68689172D01*
X88655753Y-68706801D01*
X88651791Y-68724871D01*
X88648357Y-68743380D01*
X88645451Y-68762329D01*
X88643074Y-68781718D01*
X88641225Y-68801546D01*
X88639904Y-68821815D01*
X88639112Y-68842523D01*
X88638847Y-68863671D01*
X85986333Y-68863671D01*
X85986333Y-67656480D01*
X88658700Y-67656480D01*
X89968935Y-67656480D01*
X89968935Y-67083252D01*
X89968883Y-67062597D01*
X89968727Y-67042600D01*
X89968466Y-67023262D01*
X89968102Y-67004582D01*
X89967633Y-66986561D01*
X89967060Y-66969198D01*
X89966382Y-66952493D01*
X89965601Y-66936447D01*
X89964715Y-66921060D01*
X89963725Y-66906330D01*
X89962631Y-66892260D01*
X89960794Y-66872388D01*
X89958723Y-66853998D01*
X89956418Y-66837089D01*
X89955597Y-66831782D01*
X89952898Y-66816255D01*
X89949687Y-66801021D01*
X89945963Y-66786082D01*
X89941726Y-66771436D01*
X89936977Y-66757085D01*
X89931715Y-66743027D01*
X89925941Y-66729263D01*
X89919654Y-66715793D01*
X89912855Y-66702617D01*
X89905543Y-66689735D01*
X89900384Y-66681310D01*
X89892287Y-66668968D01*
X89883699Y-66657023D01*
X89874621Y-66645473D01*
X89865051Y-66634319D01*
X89854991Y-66623561D01*
X89844441Y-66613199D01*
X89833399Y-66603232D01*
X89821867Y-66593662D01*
X89809844Y-66584487D01*
X89797331Y-66575709D01*
X89788716Y-66570076D01*
X89775477Y-66562088D01*
X89761933Y-66554886D01*
X89748084Y-66548469D01*
X89733929Y-66542838D01*
X89719469Y-66537993D01*
X89704703Y-66533933D01*
X89689633Y-66530660D01*
X89674256Y-66528172D01*
X89658575Y-66526469D01*
X89642588Y-66525553D01*
X89631761Y-66525378D01*
X89614272Y-66525861D01*
X89597050Y-66527309D01*
X89580095Y-66529723D01*
X89563408Y-66533103D01*
X89546987Y-66537448D01*
X89530834Y-66542759D01*
X89514948Y-66549036D01*
X89499329Y-66556278D01*
X89483978Y-66564486D01*
X89468893Y-66573660D01*
X89458986Y-66580312D01*
X89444657Y-66590723D01*
X89431218Y-66601356D01*
X89418667Y-66612211D01*
X89407005Y-66623288D01*
X89396232Y-66634587D01*
X89386347Y-66646108D01*
X89377351Y-66657851D01*
X89369244Y-66669815D01*
X89362026Y-66682002D01*
X89355697Y-66694410D01*
X89351971Y-66702806D01*
X89346290Y-66683581D01*
X89339601Y-66664932D01*
X89331903Y-66646858D01*
X89323196Y-66629361D01*
X89313480Y-66612439D01*
X89302756Y-66596093D01*
X89291023Y-66580323D01*
X89282641Y-66570129D01*
X89273810Y-66560192D01*
X89264531Y-66550510D01*
X89254804Y-66541084D01*
X89244628Y-66531914D01*
X89239372Y-66527425D01*
X89228671Y-66518790D01*
X89217737Y-66510711D01*
X89206570Y-66503190D01*
X89195170Y-66496226D01*
X89183538Y-66489819D01*
X89171674Y-66483969D01*
X89159576Y-66478676D01*
X89147246Y-66473941D01*
X89134684Y-66469762D01*
X89121888Y-66466141D01*
X89108860Y-66463077D01*
X89095600Y-66460570D01*
X89082107Y-66458620D01*
X89068381Y-66457227D01*
X89054422Y-66456391D01*
X89040231Y-66456113D01*
X89023464Y-66456518D01*
X89006778Y-66457732D01*
X88990174Y-66459756D01*
X88973652Y-66462590D01*
X88957212Y-66466234D01*
X88940853Y-66470687D01*
X88924577Y-66475950D01*
X88908382Y-66482023D01*
X88892269Y-66488906D01*
X88876237Y-66496598D01*
X88865595Y-66502176D01*
X88850015Y-66511046D01*
X88835028Y-66520509D01*
X88820636Y-66530566D01*
X88806839Y-66541217D01*
X88793635Y-66552462D01*
X88781026Y-66564301D01*
X88769012Y-66576733D01*
X88757591Y-66589759D01*
X88746765Y-66603379D01*
X88736534Y-66617593D01*
X88730043Y-66627399D01*
X88720848Y-66642568D01*
X88712340Y-66658391D01*
X88704520Y-66674868D01*
X88697386Y-66691999D01*
X88690939Y-66709783D01*
X88685179Y-66728222D01*
X88680107Y-66747314D01*
X88675721Y-66767059D01*
X88673179Y-66780586D01*
X88670942Y-66794404D01*
X88669011Y-66808512D01*
X88667385Y-66822911D01*
X88666149Y-66838048D01*
X88665000Y-66856718D01*
X88664283Y-66871127D01*
X88663604Y-66887107D01*
X88662965Y-66904656D01*
X88662364Y-66923776D01*
X88661801Y-66944466D01*
X88661278Y-66966725D01*
X88660793Y-66990555D01*
X88660347Y-67015955D01*
X88659940Y-67042925D01*
X88659751Y-67056999D01*
X88659572Y-67071465D01*
X88659402Y-67086324D01*
X88659242Y-67101576D01*
X88659092Y-67117220D01*
X88658952Y-67133256D01*
X88658821Y-67149685D01*
X88658700Y-67166506D01*
X88658700Y-67350758D01*
X88658700Y-67656480D01*
X85986333Y-67656480D01*
X85986333Y-66274684D01*
X90170216Y-66274684D01*
X90170216Y-85897327D01*
G37*
D13*
%TO.P,C3,1*%
%TO.N,+5V*%
X71755000Y-73660000D03*
%TO.P,C3,2*%
%TO.N,GND*%
X69255000Y-73660000D03*
%TD*%
D14*
%TO.P,Y1,1,1*%
%TO.N,Net-(U3-X1)*%
X72390000Y-58390000D03*
%TO.P,Y1,2,2*%
%TO.N,Net-(U3-X2)*%
X72390000Y-60930000D03*
%TD*%
D15*
%TO.P,U4,1,I1/CLK*%
%TO.N,/A15*%
X66675000Y-76200000D03*
D16*
%TO.P,U4,2,I2*%
%TO.N,/A14*%
X66675000Y-78740000D03*
%TO.P,U4,3,I3*%
%TO.N,/QL_ROMOE*%
X66675000Y-81280000D03*
%TO.P,U4,4,I4*%
%TO.N,/A5*%
X66675000Y-83820000D03*
%TO.P,U4,5,I5*%
%TO.N,/A4*%
X66675000Y-86360000D03*
%TO.P,U4,6,I6*%
%TO.N,Net-(JP1-C)*%
X66675000Y-88900000D03*
%TO.P,U4,7,I7*%
%TO.N,GND*%
X66675000Y-91440000D03*
%TO.P,U4,8,I8*%
%TO.N,/A1*%
X66675000Y-93980000D03*
%TO.P,U4,9,I9*%
%TO.N,/A0*%
X66675000Y-96520000D03*
%TO.P,U4,10,GND*%
%TO.N,GND*%
X66675000Y-99060000D03*
%TO.P,U4,11,I10/~{OE}*%
%TO.N,/DECODE*%
X74295000Y-99060000D03*
%TO.P,U4,12,IO8*%
%TO.N,/D0*%
X74295000Y-96520000D03*
%TO.P,U4,13,IO7*%
%TO.N,unconnected-(U4-IO7-Pad13)*%
X74295000Y-93980000D03*
%TO.P,U4,14,IO6*%
%TO.N,unconnected-(U4-IO6-Pad14)*%
X74295000Y-91440000D03*
%TO.P,U4,15,IO5*%
%TO.N,unconnected-(U4-IO5-Pad15)*%
X74295000Y-88900000D03*
%TO.P,U4,16,IO4*%
%TO.N,unconnected-(U4-IO4-Pad16)*%
X74295000Y-86360000D03*
%TO.P,U4,17,I03*%
%TO.N,/SDA*%
X74295000Y-83820000D03*
%TO.P,U4,18,IO2*%
%TO.N,/SCL*%
X74295000Y-81280000D03*
%TO.P,U4,19,IO1*%
%TO.N,/IC_ROMOE*%
X74295000Y-78740000D03*
%TO.P,U4,20,VCC*%
%TO.N,+5V*%
X74295000Y-76200000D03*
%TD*%
D17*
%TO.P,J2,1,Pin_1*%
%TO.N,/SDA*%
X62160000Y-73655000D03*
D18*
%TO.P,J2,2,Pin_2*%
%TO.N,/SCL*%
X62160000Y-71115000D03*
%TO.P,J2,3,Pin_3*%
%TO.N,GND*%
X62160000Y-68575000D03*
%TO.P,J2,4,Pin_4*%
%TO.N,+5V*%
X62160000Y-66035000D03*
%TO.P,J2,5,Pin_5*%
%TO.N,/K*%
X62160000Y-63495000D03*
%TD*%
D15*
%TO.P,U2,1,A15*%
%TO.N,/A15*%
X81910000Y-64780000D03*
D16*
%TO.P,U2,2,A12*%
%TO.N,/A12*%
X81910000Y-67320000D03*
%TO.P,U2,3,A7*%
%TO.N,/A7*%
X81910000Y-69860000D03*
%TO.P,U2,4,A6*%
%TO.N,/A6*%
X81910000Y-72400000D03*
%TO.P,U2,5,A5*%
%TO.N,/A5*%
X81910000Y-74940000D03*
%TO.P,U2,6,A4*%
%TO.N,/A4*%
X81910000Y-77480000D03*
%TO.P,U2,7,A3*%
%TO.N,/A3*%
X81910000Y-80020000D03*
%TO.P,U2,8,A2*%
%TO.N,/A2*%
X81910000Y-82560000D03*
%TO.P,U2,9,A1*%
%TO.N,/A1*%
X81910000Y-85100000D03*
%TO.P,U2,10,A0*%
%TO.N,/A0*%
X81910000Y-87640000D03*
%TO.P,U2,11,D0*%
%TO.N,/D0*%
X81910000Y-90180000D03*
%TO.P,U2,12,D1*%
%TO.N,/D1*%
X81910000Y-92720000D03*
%TO.P,U2,13,D2*%
%TO.N,/D2*%
X81910000Y-95260000D03*
%TO.P,U2,14,GND*%
%TO.N,GND*%
X81910000Y-97800000D03*
%TO.P,U2,15,D3*%
%TO.N,/D3*%
X97150000Y-97800000D03*
%TO.P,U2,16,D4*%
%TO.N,/D4*%
X97150000Y-95260000D03*
%TO.P,U2,17,D5*%
%TO.N,/D5*%
X97150000Y-92720000D03*
%TO.P,U2,18,D6*%
%TO.N,/D6*%
X97150000Y-90180000D03*
%TO.P,U2,19,D7*%
%TO.N,/D7*%
X97150000Y-87640000D03*
%TO.P,U2,20,~{CE}*%
%TO.N,GND*%
X97150000Y-85100000D03*
%TO.P,U2,21,A10*%
%TO.N,/A10*%
X97150000Y-82560000D03*
%TO.P,U2,22,~{OE/Vpp}*%
%TO.N,/IC_ROMOE*%
X97150000Y-80020000D03*
%TO.P,U2,23,A11*%
%TO.N,/A11*%
X97150000Y-77480000D03*
%TO.P,U2,24,A9*%
%TO.N,/A9*%
X97150000Y-74940000D03*
%TO.P,U2,25,A8*%
%TO.N,/A8*%
X97150000Y-72400000D03*
%TO.P,U2,26,A13*%
%TO.N,/A13*%
X97150000Y-69860000D03*
%TO.P,U2,27,A14*%
%TO.N,/A14*%
X97150000Y-67320000D03*
%TO.P,U2,28,VCC*%
%TO.N,VCC*%
X97150000Y-64780000D03*
%TD*%
D15*
%TO.P,U5,1*%
%TO.N,/A12*%
X84455000Y-69850000D03*
D16*
%TO.P,U5,2*%
%TO.N,/A7*%
X84455000Y-72390000D03*
%TO.P,U5,3*%
%TO.N,/A6*%
X84455000Y-74930000D03*
%TO.P,U5,4*%
%TO.N,/A3*%
X84455000Y-77470000D03*
%TO.P,U5,5*%
%TO.N,/A2*%
X84455000Y-80010000D03*
%TO.P,U5,6*%
%TO.N,VCC*%
X84455000Y-82550000D03*
%TO.P,U5,7*%
X84455000Y-85090000D03*
%TO.P,U5,8,GND*%
%TO.N,GND*%
X84455000Y-87630000D03*
%TO.P,U5,9*%
%TO.N,/DECODE*%
X92075000Y-87630000D03*
%TO.P,U5,10*%
%TO.N,/A15*%
X92075000Y-85090000D03*
%TO.P,U5,11*%
%TO.N,/A10*%
X92075000Y-82550000D03*
%TO.P,U5,12*%
%TO.N,/A11*%
X92075000Y-80010000D03*
%TO.P,U5,13*%
%TO.N,/A9*%
X92075000Y-77470000D03*
%TO.P,U5,14*%
%TO.N,/A8*%
X92075000Y-74930000D03*
%TO.P,U5,15*%
%TO.N,/A13*%
X92075000Y-72390000D03*
%TO.P,U5,16,VCC*%
%TO.N,VCC*%
X92075000Y-69850000D03*
%TD*%
D17*
%TO.P,J1,1,Pin_1*%
%TO.N,Net-(J1-Pin_1)*%
X94615000Y-58420000D03*
D18*
%TO.P,J1,2,Pin_2*%
%TO.N,GND*%
X97155000Y-58420000D03*
%TD*%
D15*
%TO.P,U3,1,X1*%
%TO.N,Net-(U3-X1)*%
X66685000Y-63510000D03*
D16*
%TO.P,U3,2,X2*%
%TO.N,Net-(U3-X2)*%
X66685000Y-66050000D03*
%TO.P,U3,3,A0*%
%TO.N,GND*%
X66685000Y-68590000D03*
%TO.P,U3,4,GND*%
X66685000Y-71130000D03*
%TO.P,U3,5,SDA*%
%TO.N,/SDA*%
X74305000Y-71130000D03*
%TO.P,U3,6,SCL*%
%TO.N,/SCL*%
X74305000Y-68590000D03*
%TO.P,U3,7,SQW/OUT*%
%TO.N,unconnected-(U3-SQW{slash}OUT-Pad7)*%
X74305000Y-66050000D03*
%TO.P,U3,8,VCC*%
%TO.N,/K*%
X74305000Y-63510000D03*
%TD*%
D15*
%TO.P,U1,1,A15*%
%TO.N,+5V*%
X79375000Y-64770000D03*
D16*
%TO.P,U1,2,A12*%
%TO.N,/A12*%
X79375000Y-67310000D03*
%TO.P,U1,3,A7*%
%TO.N,/A7*%
X79375000Y-69850000D03*
%TO.P,U1,4,A6*%
%TO.N,/A6*%
X79375000Y-72390000D03*
%TO.P,U1,5,A5*%
%TO.N,/A5*%
X79375000Y-74930000D03*
%TO.P,U1,6,A4*%
%TO.N,/A4*%
X79375000Y-77470000D03*
%TO.P,U1,7,A3*%
%TO.N,/A3*%
X79375000Y-80010000D03*
%TO.P,U1,8,A2*%
%TO.N,/A2*%
X79375000Y-82550000D03*
%TO.P,U1,9,A1*%
%TO.N,/A1*%
X79375000Y-85090000D03*
%TO.P,U1,10,A0*%
%TO.N,/A0*%
X79375000Y-87630000D03*
%TO.P,U1,11,D0*%
%TO.N,/D0*%
X79375000Y-90170000D03*
%TO.P,U1,12,D1*%
%TO.N,/D1*%
X79375000Y-92710000D03*
%TO.P,U1,13,D2*%
%TO.N,/D2*%
X79375000Y-95250000D03*
%TO.P,U1,14,GND*%
%TO.N,GND*%
X79375000Y-97790000D03*
%TO.P,U1,15,D3*%
%TO.N,/D3*%
X94615000Y-97790000D03*
%TO.P,U1,16,D4*%
%TO.N,/D4*%
X94615000Y-95250000D03*
%TO.P,U1,17,D5*%
%TO.N,/D5*%
X94615000Y-92710000D03*
%TO.P,U1,18,D6*%
%TO.N,/D6*%
X94615000Y-90170000D03*
%TO.P,U1,19,D7*%
%TO.N,/D7*%
X94615000Y-87630000D03*
%TO.P,U1,20,~{CE}*%
%TO.N,/A15*%
X94615000Y-85090000D03*
%TO.P,U1,21,A10*%
%TO.N,/A10*%
X94615000Y-82550000D03*
%TO.P,U1,22,~{OE/Vpp}*%
%TO.N,/QL_ROMOE*%
X94615000Y-80010000D03*
%TO.P,U1,23,A11*%
%TO.N,/A11*%
X94615000Y-77470000D03*
%TO.P,U1,24,A9*%
%TO.N,/A9*%
X94615000Y-74930000D03*
%TO.P,U1,25,A8*%
%TO.N,/A8*%
X94615000Y-72390000D03*
%TO.P,U1,26,A13*%
%TO.N,/A13*%
X94615000Y-69850000D03*
%TO.P,U1,27,A14*%
%TO.N,/A14*%
X94615000Y-67310000D03*
%TO.P,U1,28,VCC*%
%TO.N,VCC*%
X94615000Y-64770000D03*
%TD*%
D19*
%TO.P,R2,1*%
%TO.N,VCC*%
X59690000Y-94996000D03*
D20*
%TO.P,R2,2*%
%TO.N,/SCL*%
X59690000Y-83820000D03*
%TD*%
D13*
%TO.P,C2,1*%
%TO.N,VCC*%
X89515000Y-90170000D03*
%TO.P,C2,2*%
%TO.N,GND*%
X87015000Y-90170000D03*
%TD*%
D19*
%TO.P,R1,1*%
%TO.N,VCC*%
X62865000Y-94996000D03*
D20*
%TO.P,R1,2*%
%TO.N,/SDA*%
X62865000Y-83820000D03*
%TD*%
D21*
%TO.P,C1,1*%
%TO.N,/K*%
X77065000Y-59055000D03*
D22*
%TO.P,C1,2*%
%TO.N,Net-(U3-X1)*%
X75565000Y-59055000D03*
%TD*%
D19*
%TO.P,R3,1*%
%TO.N,/K*%
X85979000Y-61595000D03*
D20*
%TO.P,R3,2*%
%TO.N,Net-(J1-Pin_1)*%
X97155000Y-61595000D03*
%TD*%
D23*
%TO.P,D1,1,K*%
%TO.N,/K*%
X82550000Y-59055000D03*
D24*
%TO.P,D1,2,A*%
%TO.N,VCC*%
X90170000Y-59055000D03*
%TD*%
D25*
%TO.P,JP1,1,A*%
%TO.N,GND*%
X62865000Y-90170000D03*
D26*
%TO.P,JP1,2,C*%
%TO.N,Net-(JP1-C)*%
X62865000Y-88870000D03*
D27*
%TO.P,JP1,3,B*%
%TO.N,VCC*%
X62865000Y-87570000D03*
%TD*%
D28*
%TO.N,GND*%
X62865000Y-91440000D03*
%TD*%
D29*
%TO.N,VCC*%
X90170000Y-69850000D02*
X92075000Y-69850000D01*
X90805000Y-88900000D02*
X90170000Y-88265000D01*
D30*
X85852000Y-88265000D02*
X85852000Y-85090000D01*
X62865000Y-87570000D02*
X61020000Y-87570000D01*
X85852000Y-82550000D02*
X85852000Y-85090000D01*
D29*
X92075000Y-60960000D02*
X90170000Y-59055000D01*
X59690000Y-88900000D02*
X59690000Y-97790000D01*
X62865000Y-94996000D02*
X59690000Y-94996000D01*
X89515000Y-90170000D02*
X90785000Y-88900000D01*
X60325000Y-98425000D02*
X65405000Y-98425000D01*
X74930000Y-97790000D02*
X76200000Y-99060000D01*
X88265000Y-91420000D02*
X89515000Y-90170000D01*
D30*
X61020000Y-87570000D02*
X59690000Y-88900000D01*
D29*
X90170000Y-88265000D02*
X90170000Y-69850000D01*
X92075000Y-69850000D02*
X92075000Y-64770000D01*
X94615000Y-64770000D02*
X92075000Y-64770000D01*
D30*
X85852000Y-85090000D02*
X84455000Y-85090000D01*
D29*
X94615000Y-64770000D02*
X97140000Y-64770000D01*
X90785000Y-88900000D02*
X90805000Y-88900000D01*
X65405000Y-98425000D02*
X66040000Y-97790000D01*
X88265000Y-91440000D02*
X88265000Y-91420000D01*
X59690000Y-97790000D02*
X60325000Y-98425000D01*
X66040000Y-97790000D02*
X74930000Y-97790000D01*
X92075000Y-64770000D02*
X92075000Y-60960000D01*
X76200000Y-99060000D02*
X87630000Y-99060000D01*
D30*
X84455000Y-82550000D02*
X85852000Y-82550000D01*
D29*
X87630000Y-99060000D02*
X87630000Y-92075000D01*
D30*
X90170000Y-88265000D02*
X85852000Y-88265000D01*
D29*
X87630000Y-92075000D02*
X88265000Y-91440000D01*
%TO.N,Net-(U3-X1)*%
X71520000Y-58390000D02*
X72995000Y-58390000D01*
X66685000Y-59680000D02*
X67975000Y-58390000D01*
X72995000Y-58390000D02*
X73660000Y-59055000D01*
X75565000Y-59055000D02*
X73660000Y-59055000D01*
X71520000Y-58390000D02*
X67975000Y-58390000D01*
X66685000Y-63510000D02*
X66685000Y-59680000D01*
%TO.N,GND*%
X62160000Y-68575000D02*
X59695000Y-68575000D01*
D31*
X59690000Y-68580000D02*
X57785000Y-68580000D01*
D30*
X62865000Y-91440000D02*
X62865000Y-90170000D01*
X69255000Y-73660000D02*
X66725000Y-71130000D01*
X66725000Y-71130000D02*
X66685000Y-71130000D01*
D29*
X79375000Y-97790000D02*
X81900000Y-97790000D01*
X59695000Y-68575000D02*
X59690000Y-68580000D01*
D30*
X66675000Y-91440000D02*
X62865000Y-91440000D01*
D29*
X66685000Y-71130000D02*
X66685000Y-68590000D01*
%TO.N,/SCL*%
X69850000Y-77470000D02*
X73025000Y-74295000D01*
X59690000Y-78740000D02*
X60960000Y-77470000D01*
X62160000Y-71115000D02*
X61590000Y-71115000D01*
X61590000Y-71115000D02*
X60960000Y-70485000D01*
D31*
X59690000Y-70485000D02*
X57785000Y-70485000D01*
D29*
X60960000Y-77470000D02*
X69850000Y-77470000D01*
X59690000Y-70485000D02*
X60960000Y-70485000D01*
X59690000Y-83820000D02*
X59690000Y-78740000D01*
X73025000Y-69870000D02*
X74305000Y-68590000D01*
X74305000Y-68590000D02*
X75432000Y-69717000D01*
X75432000Y-80143000D02*
X74295000Y-81280000D01*
X75432000Y-69717000D02*
X75432000Y-80143000D01*
X73025000Y-74295000D02*
X73025000Y-69870000D01*
D31*
%TO.N,/SDA*%
X59690000Y-72390000D02*
X57785000Y-72390000D01*
D29*
X72390000Y-76200000D02*
X74305000Y-74285000D01*
X60960000Y-72390000D02*
X59690000Y-72390000D01*
X74305000Y-71130000D02*
X74305000Y-74285000D01*
X62160000Y-73590000D02*
X60960000Y-72390000D01*
X72390000Y-80010000D02*
X72390000Y-76200000D01*
X63500000Y-80010000D02*
X72390000Y-80010000D01*
X72390000Y-81915000D02*
X72390000Y-80010000D01*
X63500000Y-80010000D02*
X62865000Y-80645000D01*
X74295000Y-83820000D02*
X72390000Y-81915000D01*
X62865000Y-80645000D02*
X62865000Y-83820000D01*
%TO.N,/D0*%
X77470000Y-95250000D02*
X77470000Y-90805000D01*
X77470000Y-90805000D02*
X78105000Y-90170000D01*
X78105000Y-90170000D02*
X79375000Y-90170000D01*
X73660000Y-96520000D02*
X76200000Y-96520000D01*
X76200000Y-96520000D02*
X77470000Y-95250000D01*
X79375000Y-90170000D02*
X81900000Y-90170000D01*
%TO.N,/D1*%
X79375000Y-92710000D02*
X81900000Y-92710000D01*
%TO.N,/D2*%
X79375000Y-95250000D02*
X81900000Y-95250000D01*
%TO.N,/D3*%
X94615000Y-97790000D02*
X97140000Y-97790000D01*
%TO.N,/D4*%
X94615000Y-95250000D02*
X97140000Y-95250000D01*
%TO.N,/D5*%
X94615000Y-92710000D02*
X97140000Y-92710000D01*
%TO.N,/D6*%
X94615000Y-90170000D02*
X97140000Y-90170000D01*
%TO.N,/D7*%
X94615000Y-87630000D02*
X97140000Y-87630000D01*
%TO.N,Net-(J1-Pin_1)*%
X97155000Y-61595000D02*
X94615000Y-59055000D01*
D30*
%TO.N,Net-(U3-X2)*%
X72390000Y-60930000D02*
X71520000Y-60930000D01*
D29*
X66685000Y-66050000D02*
X69215000Y-63520000D01*
X71520000Y-60930000D02*
X69880000Y-60930000D01*
X69215000Y-63520000D02*
X69215000Y-61595000D01*
X69215000Y-61595000D02*
X69850000Y-60960000D01*
X69880000Y-60930000D02*
X69850000Y-60960000D01*
D30*
%TO.N,Net-(JP1-C)*%
X62865000Y-88870000D02*
X66645000Y-88870000D01*
D29*
%TO.N,/DECODE*%
X74295000Y-99060000D02*
X75565000Y-100330000D01*
X92075000Y-99060000D02*
X92075000Y-87630000D01*
X75565000Y-100330000D02*
X90805000Y-100330000D01*
X90805000Y-100330000D02*
X92075000Y-99060000D01*
%TO.N,/A15*%
X75565000Y-67310000D02*
X73025000Y-67310000D01*
X69215000Y-76200000D02*
X66675000Y-76200000D01*
X76835000Y-66040000D02*
X75565000Y-67310000D01*
X80650000Y-66040000D02*
X76835000Y-66040000D01*
X70485000Y-74930000D02*
X69215000Y-76200000D01*
X73025000Y-67310000D02*
X71755000Y-68580000D01*
X71755000Y-71755000D02*
X70485000Y-73025000D01*
X81910000Y-64780000D02*
X80650000Y-66040000D01*
X70485000Y-73025000D02*
X70485000Y-74930000D01*
X71755000Y-68580000D02*
X71755000Y-71755000D01*
%TO.N,/A12*%
X79375000Y-67310000D02*
X81900000Y-67310000D01*
X81910000Y-67320000D02*
X84440000Y-69850000D01*
%TO.N,/A7*%
X79375000Y-69850000D02*
X81900000Y-69850000D01*
X81910000Y-69860000D02*
X84440000Y-72390000D01*
%TO.N,/A6*%
X79375000Y-72390000D02*
X81900000Y-72390000D01*
X81910000Y-72400000D02*
X84440000Y-74930000D01*
%TO.N,/A5*%
X67945000Y-85090000D02*
X75565000Y-85090000D01*
X75565000Y-85090000D02*
X76835000Y-83820000D01*
X79375000Y-74930000D02*
X81900000Y-74930000D01*
X78105000Y-74930000D02*
X79375000Y-74930000D01*
X76835000Y-83820000D02*
X76835000Y-76200000D01*
X76835000Y-76200000D02*
X78105000Y-74930000D01*
X66675000Y-83820000D02*
X67945000Y-85090000D01*
%TO.N,/A4*%
X79375000Y-77470000D02*
X81900000Y-77470000D01*
X77470000Y-85090000D02*
X77470000Y-78740000D01*
X77470000Y-78740000D02*
X78740000Y-77470000D01*
X66675000Y-86360000D02*
X67945000Y-87630000D01*
X67945000Y-87630000D02*
X74930000Y-87630000D01*
X74930000Y-87630000D02*
X77470000Y-85090000D01*
%TO.N,/A3*%
X81910000Y-80020000D02*
X84455000Y-77475000D01*
X79375000Y-80010000D02*
X81900000Y-80010000D01*
%TO.N,/A2*%
X79375000Y-82550000D02*
X81900000Y-82550000D01*
X81910000Y-82560000D02*
X84455000Y-80015000D01*
%TO.N,/A1*%
X79375000Y-85090000D02*
X81900000Y-85090000D01*
X73025000Y-92710000D02*
X75565000Y-92710000D01*
X71755000Y-93980000D02*
X73025000Y-92710000D01*
X66675000Y-93980000D02*
X71755000Y-93980000D01*
X75565000Y-92710000D02*
X76200000Y-92075000D01*
X76200000Y-92075000D02*
X76200000Y-87630000D01*
X76200000Y-87630000D02*
X78740000Y-85090000D01*
%TO.N,/A0*%
X78105000Y-87630000D02*
X79375000Y-87630000D01*
X76835000Y-93980000D02*
X76835000Y-88900000D01*
X66675000Y-96520000D02*
X70485000Y-96520000D01*
X70485000Y-96520000D02*
X71755000Y-95250000D01*
X79375000Y-87630000D02*
X81900000Y-87630000D01*
X76835000Y-88900000D02*
X78105000Y-87630000D01*
X75565000Y-95250000D02*
X76835000Y-93980000D01*
X71755000Y-95250000D02*
X75565000Y-95250000D01*
%TO.N,/A10*%
X94615000Y-82550000D02*
X97140000Y-82550000D01*
X92075000Y-82550000D02*
X94615000Y-82550000D01*
%TO.N,/A11*%
X94615000Y-77470000D02*
X97140000Y-77470000D01*
X92075000Y-80010000D02*
X94615000Y-77470000D01*
%TO.N,/A9*%
X92075000Y-77470000D02*
X94615000Y-74930000D01*
X94615000Y-74930000D02*
X97140000Y-74930000D01*
%TO.N,/A8*%
X92075000Y-74930000D02*
X94615000Y-72390000D01*
X94615000Y-72390000D02*
X97140000Y-72390000D01*
%TO.N,/A13*%
X92075000Y-72390000D02*
X94615000Y-69850000D01*
X94615000Y-69850000D02*
X97140000Y-69850000D01*
%TO.N,/A14*%
X94615000Y-67310000D02*
X97140000Y-67310000D01*
%TO.N,/K*%
X60885000Y-64770000D02*
X62160000Y-63495000D01*
X64770000Y-66675000D02*
X64770000Y-64135000D01*
X65405000Y-67310000D02*
X64770000Y-66675000D01*
X64130000Y-63495000D02*
X62160000Y-63495000D01*
X59690000Y-64770000D02*
X60885000Y-64770000D01*
X77065000Y-59055000D02*
X82550000Y-59055000D01*
X85979000Y-59944000D02*
X85090000Y-59055000D01*
X64770000Y-64135000D02*
X64130000Y-63495000D01*
X76835000Y-60960000D02*
X77065000Y-60730000D01*
X74295000Y-60960000D02*
X76835000Y-60960000D01*
X72380000Y-63510000D02*
X68580000Y-67310000D01*
X74305000Y-63510000D02*
X74305000Y-60970000D01*
X74305000Y-60970000D02*
X74295000Y-60960000D01*
X74305000Y-63510000D02*
X72380000Y-63510000D01*
X77065000Y-60730000D02*
X77065000Y-59055000D01*
X85979000Y-61595000D02*
X85979000Y-59944000D01*
D31*
X59690000Y-64770000D02*
X57785000Y-64770000D01*
D29*
X68580000Y-67310000D02*
X65405000Y-67310000D01*
X85090000Y-59055000D02*
X82550000Y-59055000D01*
%TO.N,+5V*%
X59690000Y-66675000D02*
X60960000Y-66675000D01*
X60960000Y-66675000D02*
X61600000Y-66035000D01*
D31*
X59690000Y-66675000D02*
X57785000Y-66675000D01*
%TD*%
%TA.AperFunction,Conductor*%
%TO.N,/K*%
G36*
X84471177Y-56535185D02*
G01*
X84491819Y-56551819D01*
X85053681Y-57113681D01*
X85087166Y-57175004D01*
X85090000Y-57201362D01*
X85090000Y-59638637D01*
X85070315Y-59705676D01*
X85053681Y-59726318D01*
X81336817Y-63443181D01*
X81275494Y-63476666D01*
X81249137Y-63479500D01*
X81062130Y-63479500D01*
X81062123Y-63479501D01*
X81002518Y-63485908D01*
X80991118Y-63490160D01*
X80985697Y-63492182D01*
X80942365Y-63500000D01*
X80369446Y-63500000D01*
X80326112Y-63492181D01*
X80282491Y-63475911D01*
X80282480Y-63475908D01*
X80222883Y-63469501D01*
X80222881Y-63469500D01*
X80222873Y-63469500D01*
X80222864Y-63469500D01*
X78527129Y-63469500D01*
X78527123Y-63469501D01*
X78467518Y-63475908D01*
X78444298Y-63484569D01*
X78423885Y-63492182D01*
X78380554Y-63500000D01*
X77470000Y-63500000D01*
X77470000Y-65288500D01*
X77450315Y-65355539D01*
X77397511Y-65401294D01*
X77346000Y-65412500D01*
X76917967Y-65412500D01*
X76902319Y-65410772D01*
X76902293Y-65411054D01*
X76894525Y-65410319D01*
X76827095Y-65412439D01*
X76823200Y-65412500D01*
X76795519Y-65412500D01*
X76791501Y-65413007D01*
X76779874Y-65413922D01*
X76736058Y-65415299D01*
X76736054Y-65415300D01*
X76716722Y-65420916D01*
X76697682Y-65424859D01*
X76677712Y-65427382D01*
X76677708Y-65427383D01*
X76636953Y-65443519D01*
X76625905Y-65447301D01*
X76583812Y-65459530D01*
X76583805Y-65459533D01*
X76566480Y-65469779D01*
X76549010Y-65478337D01*
X76530298Y-65485745D01*
X76494826Y-65511516D01*
X76485066Y-65517927D01*
X76447346Y-65540234D01*
X76433106Y-65554474D01*
X76418320Y-65567102D01*
X76402033Y-65578936D01*
X76374090Y-65612712D01*
X76366229Y-65621350D01*
X75820007Y-66167572D01*
X75758684Y-66201057D01*
X75688992Y-66196073D01*
X75633059Y-66154201D01*
X75608642Y-66088737D01*
X75608797Y-66069088D01*
X75610468Y-66050000D01*
X75590635Y-65823308D01*
X75536521Y-65621350D01*
X75531741Y-65603511D01*
X75531738Y-65603502D01*
X75502237Y-65540237D01*
X75435568Y-65397266D01*
X75305047Y-65210861D01*
X75305045Y-65210858D01*
X75144141Y-65049954D01*
X74957734Y-64919432D01*
X74957732Y-64919431D01*
X74946275Y-64914088D01*
X74899132Y-64892105D01*
X74846694Y-64845934D01*
X74827542Y-64778740D01*
X74847758Y-64711859D01*
X74899134Y-64667341D01*
X74957484Y-64640132D01*
X75143820Y-64509657D01*
X75304657Y-64348820D01*
X75435134Y-64162482D01*
X75531265Y-63956326D01*
X75531269Y-63956317D01*
X75583872Y-63760000D01*
X74620686Y-63760000D01*
X74632641Y-63748045D01*
X74690165Y-63635148D01*
X74709986Y-63510000D01*
X74690165Y-63384852D01*
X74632641Y-63271955D01*
X74620686Y-63260000D01*
X75583872Y-63260000D01*
X75583872Y-63259999D01*
X75531269Y-63063682D01*
X75531265Y-63063673D01*
X75435134Y-62857517D01*
X75304657Y-62671179D01*
X75143820Y-62510342D01*
X74957482Y-62379865D01*
X74751328Y-62283734D01*
X74555000Y-62231127D01*
X74555000Y-63194314D01*
X74543045Y-63182359D01*
X74430148Y-63124835D01*
X74336481Y-63110000D01*
X74273519Y-63110000D01*
X74179852Y-63124835D01*
X74066955Y-63182359D01*
X74055000Y-63194314D01*
X74055000Y-62231127D01*
X73858671Y-62283734D01*
X73652517Y-62379865D01*
X73466179Y-62510342D01*
X73305342Y-62671179D01*
X73174865Y-62857517D01*
X73078734Y-63063673D01*
X73078730Y-63063682D01*
X73026127Y-63259999D01*
X73026128Y-63260000D01*
X73989314Y-63260000D01*
X73977359Y-63271955D01*
X73919835Y-63384852D01*
X73900014Y-63510000D01*
X73919835Y-63635148D01*
X73977359Y-63748045D01*
X73989314Y-63760000D01*
X73026128Y-63760000D01*
X73078730Y-63956317D01*
X73078734Y-63956326D01*
X73174865Y-64162482D01*
X73305342Y-64348820D01*
X73466179Y-64509657D01*
X73652518Y-64640134D01*
X73652520Y-64640135D01*
X73710865Y-64667342D01*
X73763305Y-64713514D01*
X73782457Y-64780707D01*
X73762242Y-64847589D01*
X73710867Y-64892105D01*
X73652268Y-64919431D01*
X73652264Y-64919433D01*
X73465858Y-65049954D01*
X73304954Y-65210858D01*
X73174432Y-65397265D01*
X73174431Y-65397267D01*
X73078261Y-65603502D01*
X73078258Y-65603511D01*
X73019366Y-65823302D01*
X73019364Y-65823313D01*
X72999532Y-66049998D01*
X72999532Y-66050001D01*
X73019364Y-66276686D01*
X73019366Y-66276697D01*
X73078258Y-66496488D01*
X73078260Y-66496493D01*
X73078261Y-66496496D01*
X73083148Y-66506976D01*
X73093639Y-66576053D01*
X73065119Y-66639836D01*
X73006642Y-66678076D01*
X72986284Y-66682404D01*
X72981496Y-66683008D01*
X72969874Y-66683922D01*
X72926058Y-66685299D01*
X72926054Y-66685300D01*
X72906722Y-66690916D01*
X72887682Y-66694859D01*
X72867712Y-66697382D01*
X72867708Y-66697383D01*
X72826953Y-66713519D01*
X72815905Y-66717301D01*
X72773812Y-66729530D01*
X72773805Y-66729533D01*
X72756480Y-66739779D01*
X72739010Y-66748337D01*
X72720298Y-66755745D01*
X72684826Y-66781516D01*
X72675066Y-66787927D01*
X72637346Y-66810234D01*
X72623106Y-66824474D01*
X72608320Y-66837102D01*
X72592033Y-66848936D01*
X72564090Y-66882712D01*
X72556229Y-66891350D01*
X71369953Y-68077626D01*
X71357669Y-68087469D01*
X71357849Y-68087687D01*
X71351837Y-68092660D01*
X71305646Y-68141847D01*
X71302941Y-68144638D01*
X71283379Y-68164200D01*
X71283375Y-68164205D01*
X71280895Y-68167403D01*
X71273317Y-68176274D01*
X71243308Y-68208230D01*
X71243305Y-68208234D01*
X71233606Y-68225877D01*
X71222928Y-68242133D01*
X71210594Y-68258034D01*
X71210589Y-68258042D01*
X71193185Y-68298262D01*
X71188046Y-68308752D01*
X71166927Y-68347167D01*
X71161920Y-68366668D01*
X71155621Y-68385064D01*
X71151277Y-68395105D01*
X71147625Y-68403544D01*
X71147624Y-68403546D01*
X71140769Y-68446831D01*
X71138401Y-68458267D01*
X71127500Y-68500723D01*
X71127500Y-68520858D01*
X71125973Y-68540255D01*
X71122825Y-68560133D01*
X71125649Y-68590001D01*
X71126950Y-68603767D01*
X71127500Y-68615437D01*
X71127500Y-71443718D01*
X71107815Y-71510757D01*
X71091181Y-71531399D01*
X70268899Y-72353681D01*
X70207576Y-72387166D01*
X70181218Y-72390000D01*
X69556368Y-72390000D01*
X69524275Y-72385775D01*
X69481697Y-72374366D01*
X69481693Y-72374365D01*
X69481692Y-72374365D01*
X69481691Y-72374364D01*
X69481686Y-72374364D01*
X69255002Y-72354532D01*
X69254999Y-72354532D01*
X69028308Y-72374365D01*
X69028302Y-72374366D01*
X68985723Y-72385775D01*
X68953631Y-72390000D01*
X68920953Y-72390000D01*
X68853914Y-72370315D01*
X68833272Y-72353681D01*
X67992866Y-71513275D01*
X67959381Y-71451952D01*
X67960772Y-71393501D01*
X67963955Y-71381623D01*
X67970635Y-71356692D01*
X67990468Y-71130000D01*
X67970635Y-70903308D01*
X67911739Y-70683504D01*
X67815568Y-70477266D01*
X67685047Y-70290861D01*
X67685045Y-70290858D01*
X67524141Y-70129954D01*
X67365377Y-70018787D01*
X67321752Y-69964210D01*
X67312500Y-69917212D01*
X67312500Y-69802787D01*
X67332185Y-69735748D01*
X67365377Y-69701212D01*
X67399199Y-69677530D01*
X67524139Y-69590047D01*
X67685047Y-69429139D01*
X67815568Y-69242734D01*
X67911739Y-69036496D01*
X67970635Y-68816692D01*
X67990468Y-68590000D01*
X67987485Y-68555909D01*
X67970635Y-68363313D01*
X67970635Y-68363308D01*
X67920520Y-68176274D01*
X67911741Y-68143511D01*
X67911738Y-68143502D01*
X67817377Y-67941146D01*
X67815568Y-67937266D01*
X67716327Y-67795534D01*
X67685045Y-67750858D01*
X67524140Y-67589953D01*
X67362877Y-67477036D01*
X67319252Y-67422459D01*
X67310000Y-67375461D01*
X67310000Y-67264538D01*
X67329685Y-67197499D01*
X67362877Y-67162963D01*
X67462355Y-67093308D01*
X67524139Y-67050047D01*
X67685047Y-66889139D01*
X67815568Y-66702734D01*
X67911739Y-66496496D01*
X67970635Y-66276692D01*
X67990468Y-66050000D01*
X67988175Y-66023796D01*
X67984801Y-65985230D01*
X67970635Y-65823308D01*
X67952916Y-65757181D01*
X67954579Y-65687332D01*
X67985008Y-65637409D01*
X69600043Y-64022374D01*
X69612325Y-64012537D01*
X69612144Y-64012318D01*
X69618157Y-64007342D01*
X69618162Y-64007340D01*
X69664384Y-63958116D01*
X69667033Y-63955384D01*
X69686623Y-63935796D01*
X69689096Y-63932606D01*
X69696682Y-63923722D01*
X69726693Y-63891767D01*
X69736389Y-63874128D01*
X69747073Y-63857861D01*
X69759408Y-63841962D01*
X69776817Y-63801728D01*
X69781955Y-63791243D01*
X69803069Y-63752840D01*
X69803069Y-63752838D01*
X69803072Y-63752834D01*
X69808078Y-63733334D01*
X69814382Y-63714924D01*
X69822370Y-63696465D01*
X69822373Y-63696459D01*
X69826567Y-63669977D01*
X69829230Y-63653166D01*
X69831596Y-63641737D01*
X69842500Y-63599272D01*
X69842500Y-63579135D01*
X69844027Y-63559735D01*
X69847174Y-63539867D01*
X69843050Y-63496238D01*
X69842500Y-63484569D01*
X69842500Y-61906281D01*
X69862185Y-61839242D01*
X69878819Y-61818600D01*
X70103600Y-61593819D01*
X70164923Y-61560334D01*
X70191281Y-61557500D01*
X71552039Y-61557500D01*
X71619078Y-61577185D01*
X71647893Y-61602836D01*
X71679117Y-61640884D01*
X71831460Y-61765909D01*
X71831467Y-61765913D01*
X72005266Y-61858811D01*
X72005269Y-61858811D01*
X72005273Y-61858814D01*
X72193868Y-61916024D01*
X72390000Y-61935341D01*
X72586132Y-61916024D01*
X72774727Y-61858814D01*
X72948538Y-61765910D01*
X73100883Y-61640883D01*
X73225910Y-61488538D01*
X73293457Y-61362166D01*
X73318811Y-61314733D01*
X73318811Y-61314732D01*
X73318814Y-61314727D01*
X73376024Y-61126132D01*
X73395341Y-60930000D01*
X73376024Y-60733868D01*
X73318814Y-60545273D01*
X73318811Y-60545269D01*
X73318811Y-60545266D01*
X73225913Y-60371467D01*
X73225909Y-60371460D01*
X73100883Y-60219116D01*
X72948539Y-60094090D01*
X72948532Y-60094086D01*
X72774733Y-60001188D01*
X72774727Y-60001186D01*
X72586132Y-59943976D01*
X72586129Y-59943975D01*
X72390000Y-59924659D01*
X72193870Y-59943975D01*
X72005266Y-60001188D01*
X71831467Y-60094086D01*
X71831460Y-60094090D01*
X71679117Y-60219115D01*
X71647893Y-60257164D01*
X71590148Y-60296499D01*
X71552039Y-60302500D01*
X69962965Y-60302500D01*
X69947314Y-60300772D01*
X69947288Y-60301054D01*
X69939525Y-60300319D01*
X69872095Y-60302439D01*
X69868200Y-60302500D01*
X69840519Y-60302500D01*
X69836501Y-60303007D01*
X69824874Y-60303922D01*
X69781058Y-60305299D01*
X69781054Y-60305300D01*
X69761722Y-60310916D01*
X69742682Y-60314859D01*
X69722712Y-60317382D01*
X69722708Y-60317383D01*
X69681953Y-60333519D01*
X69670905Y-60337301D01*
X69628812Y-60349530D01*
X69628805Y-60349533D01*
X69611480Y-60359779D01*
X69594010Y-60368337D01*
X69575298Y-60375745D01*
X69539826Y-60401516D01*
X69530066Y-60407927D01*
X69492346Y-60430234D01*
X69478106Y-60444474D01*
X69463320Y-60457102D01*
X69447033Y-60468936D01*
X69419090Y-60502712D01*
X69411229Y-60511350D01*
X68829953Y-61092626D01*
X68817669Y-61102469D01*
X68817849Y-61102687D01*
X68811837Y-61107660D01*
X68765646Y-61156847D01*
X68762941Y-61159638D01*
X68743379Y-61179200D01*
X68743375Y-61179205D01*
X68740895Y-61182403D01*
X68733317Y-61191274D01*
X68703308Y-61223230D01*
X68703305Y-61223234D01*
X68693606Y-61240877D01*
X68682928Y-61257133D01*
X68670594Y-61273034D01*
X68670589Y-61273042D01*
X68653185Y-61313262D01*
X68648046Y-61323752D01*
X68626927Y-61362167D01*
X68621920Y-61381668D01*
X68615621Y-61400064D01*
X68608893Y-61415612D01*
X68607625Y-61418544D01*
X68607624Y-61418546D01*
X68600769Y-61461831D01*
X68598401Y-61473267D01*
X68587500Y-61515723D01*
X68587500Y-61535858D01*
X68585973Y-61555255D01*
X68582825Y-61575133D01*
X68585444Y-61602836D01*
X68586950Y-61618767D01*
X68587500Y-61630437D01*
X68587500Y-63208718D01*
X68567815Y-63275757D01*
X68551181Y-63296399D01*
X68197180Y-63650400D01*
X68135857Y-63683885D01*
X68066165Y-63678901D01*
X68010232Y-63637029D01*
X67985815Y-63571565D01*
X67985499Y-63562719D01*
X67985499Y-62662129D01*
X67985498Y-62662123D01*
X67979091Y-62602516D01*
X67928797Y-62467671D01*
X67928793Y-62467664D01*
X67842547Y-62352455D01*
X67842544Y-62352452D01*
X67727335Y-62266206D01*
X67727328Y-62266202D01*
X67592482Y-62215908D01*
X67592483Y-62215908D01*
X67532883Y-62209501D01*
X67532881Y-62209500D01*
X67532873Y-62209500D01*
X67532865Y-62209500D01*
X67436500Y-62209500D01*
X67369461Y-62189815D01*
X67323706Y-62137011D01*
X67312500Y-62085500D01*
X67312500Y-59991281D01*
X67332185Y-59924242D01*
X67348819Y-59903600D01*
X68198600Y-59053819D01*
X68259923Y-59020334D01*
X68286281Y-59017500D01*
X71440728Y-59017500D01*
X71552038Y-59017500D01*
X71619077Y-59037185D01*
X71647891Y-59062835D01*
X71679116Y-59100883D01*
X71831460Y-59225909D01*
X71831467Y-59225913D01*
X72005266Y-59318811D01*
X72005269Y-59318811D01*
X72005273Y-59318814D01*
X72193868Y-59376024D01*
X72390000Y-59395341D01*
X72586132Y-59376024D01*
X72774727Y-59318814D01*
X72864144Y-59271019D01*
X72932544Y-59256777D01*
X72997788Y-59281776D01*
X73010277Y-59292696D01*
X73157624Y-59440043D01*
X73167471Y-59452333D01*
X73167689Y-59452154D01*
X73172657Y-59458159D01*
X73221846Y-59504351D01*
X73224643Y-59507062D01*
X73244207Y-59526626D01*
X73247385Y-59529090D01*
X73256281Y-59536687D01*
X73288235Y-59566695D01*
X73288237Y-59566696D01*
X73305868Y-59576388D01*
X73322137Y-59587074D01*
X73338037Y-59599407D01*
X73338038Y-59599408D01*
X73378262Y-59616815D01*
X73388754Y-59621955D01*
X73427161Y-59643070D01*
X73427164Y-59643071D01*
X73427166Y-59643072D01*
X73446659Y-59648076D01*
X73465067Y-59654379D01*
X73483541Y-59662374D01*
X73526844Y-59669231D01*
X73538271Y-59671598D01*
X73580728Y-59682500D01*
X73600858Y-59682500D01*
X73620255Y-59684026D01*
X73640133Y-59687175D01*
X73679928Y-59683413D01*
X73683770Y-59683050D01*
X73695439Y-59682500D01*
X74598077Y-59682500D01*
X74665116Y-59702185D01*
X74697031Y-59731773D01*
X74748237Y-59799580D01*
X74898958Y-59936980D01*
X74898960Y-59936982D01*
X74910256Y-59943976D01*
X75072363Y-60044348D01*
X75262544Y-60118024D01*
X75463024Y-60155500D01*
X75463026Y-60155500D01*
X75666974Y-60155500D01*
X75666976Y-60155500D01*
X75867456Y-60118024D01*
X76054924Y-60045398D01*
X76124546Y-60039537D01*
X76174028Y-60061759D01*
X76222911Y-60098353D01*
X76222913Y-60098354D01*
X76357620Y-60148596D01*
X76357627Y-60148598D01*
X76417155Y-60154999D01*
X76417172Y-60155000D01*
X76815000Y-60155000D01*
X76815000Y-59225972D01*
X76821448Y-59238922D01*
X76904334Y-59314484D01*
X77008920Y-59355000D01*
X77092802Y-59355000D01*
X77175250Y-59339588D01*
X77231111Y-59305000D01*
X77315000Y-59305000D01*
X77315000Y-60155000D01*
X77712828Y-60155000D01*
X77712844Y-60154999D01*
X77772372Y-60148598D01*
X77772379Y-60148596D01*
X77907086Y-60098354D01*
X77907093Y-60098350D01*
X78022187Y-60012190D01*
X78022190Y-60012187D01*
X78108350Y-59897093D01*
X78108354Y-59897086D01*
X78124855Y-59852844D01*
X81300000Y-59852844D01*
X81306401Y-59912372D01*
X81306403Y-59912379D01*
X81356645Y-60047086D01*
X81356649Y-60047093D01*
X81442809Y-60162187D01*
X81442812Y-60162190D01*
X81557906Y-60248350D01*
X81557913Y-60248354D01*
X81692620Y-60298596D01*
X81692627Y-60298598D01*
X81752155Y-60304999D01*
X81752172Y-60305000D01*
X82300000Y-60305000D01*
X82300000Y-59335617D01*
X82369052Y-59389363D01*
X82487424Y-59430000D01*
X82581073Y-59430000D01*
X82673446Y-59414586D01*
X82783514Y-59355019D01*
X82800000Y-59337110D01*
X82800000Y-60305000D01*
X83347828Y-60305000D01*
X83347844Y-60304999D01*
X83407372Y-60298598D01*
X83407379Y-60298596D01*
X83542086Y-60248354D01*
X83542093Y-60248350D01*
X83657187Y-60162190D01*
X83657190Y-60162187D01*
X83743350Y-60047093D01*
X83743354Y-60047086D01*
X83793596Y-59912379D01*
X83793598Y-59912372D01*
X83799999Y-59852844D01*
X83800000Y-59852827D01*
X83800000Y-59305000D01*
X82829560Y-59305000D01*
X82868278Y-59262941D01*
X82918551Y-59148330D01*
X82928886Y-59023605D01*
X82898163Y-58902281D01*
X82834606Y-58805000D01*
X83800000Y-58805000D01*
X83800000Y-58257172D01*
X83799999Y-58257155D01*
X83793598Y-58197627D01*
X83793596Y-58197620D01*
X83743354Y-58062913D01*
X83743350Y-58062906D01*
X83657190Y-57947812D01*
X83657187Y-57947809D01*
X83542093Y-57861649D01*
X83542086Y-57861645D01*
X83407379Y-57811403D01*
X83407372Y-57811401D01*
X83347844Y-57805000D01*
X82800000Y-57805000D01*
X82800000Y-58774382D01*
X82730948Y-58720637D01*
X82612576Y-58680000D01*
X82518927Y-58680000D01*
X82426554Y-58695414D01*
X82316486Y-58754981D01*
X82300000Y-58772889D01*
X82300000Y-57805000D01*
X81752155Y-57805000D01*
X81692627Y-57811401D01*
X81692620Y-57811403D01*
X81557913Y-57861645D01*
X81557906Y-57861649D01*
X81442812Y-57947809D01*
X81442809Y-57947812D01*
X81356649Y-58062906D01*
X81356645Y-58062913D01*
X81306403Y-58197620D01*
X81306401Y-58197627D01*
X81300000Y-58257155D01*
X81300000Y-58805000D01*
X82270440Y-58805000D01*
X82231722Y-58847059D01*
X82181449Y-58961670D01*
X82171114Y-59086395D01*
X82201837Y-59207719D01*
X82265394Y-59305000D01*
X81300000Y-59305000D01*
X81300000Y-59852844D01*
X78124855Y-59852844D01*
X78158596Y-59762379D01*
X78158598Y-59762372D01*
X78164999Y-59702844D01*
X78165000Y-59702827D01*
X78165000Y-59305000D01*
X77315000Y-59305000D01*
X77231111Y-59305000D01*
X77270610Y-59280543D01*
X77338201Y-59191038D01*
X77368895Y-59083160D01*
X77358546Y-58971479D01*
X77308552Y-58871078D01*
X77225666Y-58795516D01*
X77121080Y-58755000D01*
X77037198Y-58755000D01*
X76954750Y-58770412D01*
X76859390Y-58829457D01*
X76815000Y-58888238D01*
X76815000Y-57955000D01*
X77315000Y-57955000D01*
X77315000Y-58805000D01*
X78165000Y-58805000D01*
X78165000Y-58407172D01*
X78164999Y-58407155D01*
X78158598Y-58347627D01*
X78158596Y-58347620D01*
X78108354Y-58212913D01*
X78108350Y-58212906D01*
X78022190Y-58097812D01*
X78022187Y-58097809D01*
X77907093Y-58011649D01*
X77907086Y-58011645D01*
X77772379Y-57961403D01*
X77772372Y-57961401D01*
X77712844Y-57955000D01*
X77315000Y-57955000D01*
X76815000Y-57955000D01*
X76417155Y-57955000D01*
X76357627Y-57961401D01*
X76357620Y-57961403D01*
X76222913Y-58011645D01*
X76222912Y-58011646D01*
X76174024Y-58048242D01*
X76108559Y-58072657D01*
X76054922Y-58064600D01*
X75867459Y-57991977D01*
X75867458Y-57991976D01*
X75867456Y-57991976D01*
X75666976Y-57954500D01*
X75463024Y-57954500D01*
X75262544Y-57991976D01*
X75262541Y-57991976D01*
X75262541Y-57991977D01*
X75072364Y-58065651D01*
X75072357Y-58065655D01*
X74898960Y-58173017D01*
X74898958Y-58173019D01*
X74748237Y-58310419D01*
X74697031Y-58378227D01*
X74640922Y-58419863D01*
X74598077Y-58427500D01*
X73971281Y-58427500D01*
X73904242Y-58407815D01*
X73883600Y-58391181D01*
X73497376Y-58004957D01*
X73487531Y-57992668D01*
X73487313Y-57992849D01*
X73482340Y-57986838D01*
X73433153Y-57940648D01*
X73430354Y-57937935D01*
X73410797Y-57918377D01*
X73407607Y-57915903D01*
X73398716Y-57908310D01*
X73366768Y-57878308D01*
X73366763Y-57878304D01*
X73349122Y-57868606D01*
X73332857Y-57857922D01*
X73316963Y-57845593D01*
X73316962Y-57845592D01*
X73276735Y-57828184D01*
X73266247Y-57823045D01*
X73227838Y-57801929D01*
X73220580Y-57799056D01*
X73221707Y-57796209D01*
X73173911Y-57767741D01*
X73168955Y-57762063D01*
X73100882Y-57679116D01*
X72948539Y-57554090D01*
X72948532Y-57554086D01*
X72774733Y-57461188D01*
X72774727Y-57461186D01*
X72586132Y-57403976D01*
X72586129Y-57403975D01*
X72390000Y-57384659D01*
X72193870Y-57403975D01*
X72005266Y-57461188D01*
X71831467Y-57554086D01*
X71831460Y-57554090D01*
X71679116Y-57679116D01*
X71647891Y-57717165D01*
X71590145Y-57756499D01*
X71552038Y-57762500D01*
X68057966Y-57762500D01*
X68042318Y-57760772D01*
X68042292Y-57761054D01*
X68034524Y-57760319D01*
X67967095Y-57762439D01*
X67963200Y-57762500D01*
X67935519Y-57762500D01*
X67931501Y-57763007D01*
X67919874Y-57763922D01*
X67876058Y-57765299D01*
X67876054Y-57765300D01*
X67856722Y-57770916D01*
X67837682Y-57774859D01*
X67817708Y-57777383D01*
X67817701Y-57777385D01*
X67776955Y-57793517D01*
X67765907Y-57797300D01*
X67723809Y-57809531D01*
X67723808Y-57809531D01*
X67706474Y-57819782D01*
X67689012Y-57828336D01*
X67670300Y-57835745D01*
X67670295Y-57835748D01*
X67634836Y-57861510D01*
X67625077Y-57867920D01*
X67587341Y-57890238D01*
X67573107Y-57904472D01*
X67558318Y-57917104D01*
X67542032Y-57928937D01*
X67514090Y-57962712D01*
X67506229Y-57971350D01*
X66596398Y-58881182D01*
X66535075Y-58914667D01*
X66465384Y-58909683D01*
X66409450Y-58867811D01*
X66385033Y-58802347D01*
X66384717Y-58793501D01*
X66384717Y-56639500D01*
X66404402Y-56572461D01*
X66457206Y-56526706D01*
X66508717Y-56515500D01*
X84404138Y-56515500D01*
X84471177Y-56535185D01*
G37*
%TD.AperFunction*%
%TD*%
%TA.AperFunction,Conductor*%
%TO.N,VCC*%
G36*
X85294539Y-60344685D02*
G01*
X85340294Y-60397489D01*
X85351500Y-60449000D01*
X85351500Y-60502471D01*
X85331815Y-60569510D01*
X85292779Y-60607897D01*
X85252438Y-60632875D01*
X85252437Y-60632876D01*
X85088020Y-60782761D01*
X84953943Y-60960308D01*
X84953938Y-60960316D01*
X84854775Y-61159461D01*
X84854769Y-61159476D01*
X84793885Y-61373462D01*
X84793884Y-61373464D01*
X84773357Y-61594999D01*
X84773357Y-61595000D01*
X84793884Y-61816535D01*
X84793885Y-61816537D01*
X84854769Y-62030523D01*
X84854775Y-62030538D01*
X84953938Y-62229683D01*
X84953943Y-62229691D01*
X85088020Y-62407238D01*
X85252437Y-62557123D01*
X85252439Y-62557125D01*
X85441595Y-62674245D01*
X85441596Y-62674245D01*
X85441599Y-62674247D01*
X85649060Y-62754618D01*
X85867757Y-62795500D01*
X85867759Y-62795500D01*
X86090241Y-62795500D01*
X86090243Y-62795500D01*
X86308940Y-62754618D01*
X86516401Y-62674247D01*
X86705562Y-62557124D01*
X86869981Y-62407236D01*
X87004058Y-62229689D01*
X87103229Y-62030528D01*
X87164115Y-61816536D01*
X87184643Y-61595000D01*
X87164115Y-61373464D01*
X87103229Y-61159472D01*
X87081915Y-61116668D01*
X87004061Y-60960316D01*
X87004056Y-60960308D01*
X86869979Y-60782761D01*
X86705562Y-60632876D01*
X86705561Y-60632875D01*
X86665221Y-60607897D01*
X86618586Y-60555869D01*
X86606500Y-60502471D01*
X86606500Y-60449000D01*
X86626185Y-60381961D01*
X86678989Y-60336206D01*
X86730500Y-60325000D01*
X92658638Y-60325000D01*
X92725677Y-60344685D01*
X92746319Y-60361319D01*
X95673319Y-63288319D01*
X95706804Y-63349642D01*
X95701820Y-63419334D01*
X95659948Y-63475267D01*
X95594484Y-63499684D01*
X95585638Y-63500000D01*
X94914437Y-63500000D01*
X94882341Y-63495774D01*
X94865000Y-63491127D01*
X94865000Y-63500000D01*
X94365000Y-63500000D01*
X94365000Y-63491127D01*
X94347659Y-63495774D01*
X94315563Y-63500000D01*
X92710000Y-63500000D01*
X92710000Y-68456000D01*
X92690315Y-68523039D01*
X92637511Y-68568794D01*
X92586000Y-68580000D01*
X92374437Y-68580000D01*
X92342341Y-68575774D01*
X92325000Y-68571127D01*
X92325000Y-68580000D01*
X91825000Y-68580000D01*
X91825000Y-68571127D01*
X91807659Y-68575774D01*
X91775563Y-68580000D01*
X90805000Y-68580000D01*
X90805000Y-69550564D01*
X90800775Y-69582656D01*
X90796128Y-69599999D01*
X90796128Y-69600000D01*
X90805000Y-69600000D01*
X90805000Y-70100000D01*
X90796128Y-70100000D01*
X90800775Y-70117342D01*
X90805000Y-70149436D01*
X90805000Y-72088632D01*
X90800775Y-72120725D01*
X90789366Y-72163302D01*
X90789364Y-72163313D01*
X90769532Y-72389998D01*
X90769532Y-72390001D01*
X90777008Y-72475459D01*
X90789365Y-72616692D01*
X90800775Y-72659276D01*
X90805000Y-72691367D01*
X90805000Y-74628632D01*
X90800775Y-74660725D01*
X90789366Y-74703302D01*
X90789364Y-74703313D01*
X90772272Y-74898678D01*
X90769532Y-74930000D01*
X90789365Y-75156692D01*
X90800775Y-75199276D01*
X90805000Y-75231367D01*
X90805000Y-77168632D01*
X90800775Y-77200725D01*
X90789366Y-77243302D01*
X90789364Y-77243313D01*
X90772272Y-77438678D01*
X90769532Y-77470000D01*
X90789365Y-77696692D01*
X90800775Y-77739276D01*
X90805000Y-77771367D01*
X90805000Y-79708632D01*
X90800775Y-79740725D01*
X90789366Y-79783302D01*
X90789364Y-79783313D01*
X90772272Y-79978678D01*
X90769532Y-80010000D01*
X90789365Y-80236692D01*
X90800775Y-80279276D01*
X90805000Y-80311367D01*
X90805000Y-82248632D01*
X90800775Y-82280725D01*
X90789366Y-82323302D01*
X90789364Y-82323313D01*
X90769532Y-82549998D01*
X90769532Y-82550001D01*
X90789356Y-82776599D01*
X90789365Y-82776692D01*
X90800775Y-82819276D01*
X90805000Y-82851367D01*
X90805000Y-84788632D01*
X90800775Y-84820725D01*
X90789366Y-84863302D01*
X90789364Y-84863313D01*
X90769532Y-85089998D01*
X90769532Y-85090001D01*
X90789356Y-85316599D01*
X90789365Y-85316692D01*
X90800775Y-85359276D01*
X90805000Y-85391367D01*
X90805000Y-87328632D01*
X90800775Y-87360725D01*
X90789366Y-87403302D01*
X90789364Y-87403313D01*
X90769532Y-87629998D01*
X90769532Y-87630000D01*
X90789365Y-87856692D01*
X90800775Y-87899276D01*
X90805000Y-87931367D01*
X90805000Y-88265000D01*
X91411181Y-88871181D01*
X91444666Y-88932504D01*
X91447500Y-88958862D01*
X91447500Y-98748719D01*
X91427815Y-98815758D01*
X91411181Y-98836400D01*
X90581400Y-99666181D01*
X90520077Y-99699666D01*
X90493719Y-99702500D01*
X85148862Y-99702500D01*
X85081823Y-99682815D01*
X85061181Y-99666181D01*
X84491319Y-99096319D01*
X84457834Y-99034996D01*
X84455000Y-99008638D01*
X84455000Y-90170001D01*
X85709532Y-90170001D01*
X85729364Y-90396686D01*
X85729366Y-90396697D01*
X85788258Y-90616488D01*
X85788261Y-90616497D01*
X85884431Y-90822732D01*
X85884432Y-90822734D01*
X86014954Y-91009141D01*
X86175858Y-91170045D01*
X86175861Y-91170047D01*
X86362266Y-91300568D01*
X86568504Y-91396739D01*
X86788308Y-91455635D01*
X86950230Y-91469801D01*
X87014998Y-91475468D01*
X87015000Y-91475468D01*
X87015002Y-91475468D01*
X87071673Y-91470509D01*
X87241692Y-91455635D01*
X87461496Y-91396739D01*
X87667734Y-91300568D01*
X87854139Y-91170047D01*
X88015047Y-91009139D01*
X88145568Y-90822734D01*
X88152893Y-90807024D01*
X88199064Y-90754586D01*
X88266257Y-90735433D01*
X88333138Y-90755648D01*
X88377657Y-90807024D01*
X88384864Y-90822480D01*
X88435974Y-90895472D01*
X89117046Y-90214400D01*
X89129835Y-90295148D01*
X89187359Y-90408045D01*
X89276955Y-90497641D01*
X89389852Y-90555165D01*
X89470599Y-90567953D01*
X88789526Y-91249025D01*
X88862513Y-91300132D01*
X88862521Y-91300136D01*
X89068668Y-91396264D01*
X89068682Y-91396269D01*
X89288389Y-91455139D01*
X89288400Y-91455141D01*
X89514998Y-91474966D01*
X89515002Y-91474966D01*
X89741599Y-91455141D01*
X89741610Y-91455139D01*
X89961317Y-91396269D01*
X89961331Y-91396264D01*
X90167478Y-91300136D01*
X90240471Y-91249024D01*
X89559400Y-90567953D01*
X89640148Y-90555165D01*
X89753045Y-90497641D01*
X89842641Y-90408045D01*
X89900165Y-90295148D01*
X89912953Y-90214400D01*
X90594024Y-90895471D01*
X90645136Y-90822478D01*
X90741264Y-90616331D01*
X90741269Y-90616317D01*
X90800139Y-90396610D01*
X90800141Y-90396599D01*
X90819966Y-90170002D01*
X90819966Y-90169997D01*
X90800141Y-89943400D01*
X90800139Y-89943389D01*
X90741269Y-89723682D01*
X90741264Y-89723668D01*
X90645136Y-89517521D01*
X90645132Y-89517513D01*
X90594025Y-89444526D01*
X89912953Y-90125598D01*
X89900165Y-90044852D01*
X89842641Y-89931955D01*
X89753045Y-89842359D01*
X89640148Y-89784835D01*
X89559401Y-89772046D01*
X90240472Y-89090974D01*
X90167478Y-89039863D01*
X89961331Y-88943735D01*
X89961317Y-88943730D01*
X89741610Y-88884860D01*
X89741599Y-88884858D01*
X89515002Y-88865034D01*
X89514998Y-88865034D01*
X89288400Y-88884858D01*
X89288389Y-88884860D01*
X89068682Y-88943730D01*
X89068673Y-88943734D01*
X88862516Y-89039866D01*
X88862512Y-89039868D01*
X88789526Y-89090973D01*
X88789526Y-89090974D01*
X89470599Y-89772046D01*
X89389852Y-89784835D01*
X89276955Y-89842359D01*
X89187359Y-89931955D01*
X89129835Y-90044852D01*
X89117046Y-90125598D01*
X88435974Y-89444526D01*
X88435973Y-89444526D01*
X88384868Y-89517512D01*
X88384867Y-89517514D01*
X88377656Y-89532979D01*
X88331482Y-89585417D01*
X88264288Y-89604567D01*
X88197407Y-89584350D01*
X88152893Y-89532976D01*
X88145568Y-89517266D01*
X88015047Y-89330861D01*
X88015045Y-89330858D01*
X87854141Y-89169954D01*
X87667734Y-89039432D01*
X87667732Y-89039431D01*
X87461497Y-88943261D01*
X87461488Y-88943258D01*
X87241697Y-88884366D01*
X87241693Y-88884365D01*
X87241692Y-88884365D01*
X87241691Y-88884364D01*
X87241686Y-88884364D01*
X87015002Y-88864532D01*
X87014998Y-88864532D01*
X86788313Y-88884364D01*
X86788302Y-88884366D01*
X86568511Y-88943258D01*
X86568502Y-88943261D01*
X86362267Y-89039431D01*
X86362265Y-89039432D01*
X86175858Y-89169954D01*
X86014954Y-89330858D01*
X85884432Y-89517265D01*
X85884431Y-89517267D01*
X85788261Y-89723502D01*
X85788258Y-89723511D01*
X85729366Y-89943302D01*
X85729364Y-89943313D01*
X85709532Y-90169998D01*
X85709532Y-90170001D01*
X84455000Y-90170001D01*
X84455000Y-89586362D01*
X84474685Y-89519323D01*
X84491319Y-89498681D01*
X85105636Y-88884364D01*
X85725000Y-88265000D01*
X85725000Y-87931367D01*
X85729224Y-87899276D01*
X85740635Y-87856692D01*
X85760468Y-87630000D01*
X85756993Y-87590286D01*
X85743368Y-87434551D01*
X85740635Y-87403308D01*
X85729225Y-87360725D01*
X85725000Y-87328632D01*
X85725000Y-85389436D01*
X85729225Y-85357342D01*
X85740140Y-85316606D01*
X85740141Y-85316599D01*
X85748805Y-85217573D01*
X85774257Y-85152504D01*
X85830848Y-85111525D01*
X85900610Y-85107647D01*
X85961394Y-85142101D01*
X85993902Y-85203948D01*
X85996333Y-85228380D01*
X85996333Y-85887327D01*
X90160216Y-85887327D01*
X90160216Y-85786146D01*
X90170000Y-85752825D01*
X90170000Y-66294000D01*
X90160684Y-66284684D01*
X90160216Y-66284684D01*
X85996333Y-66284684D01*
X85996333Y-68928816D01*
X85976648Y-68995855D01*
X85923844Y-69041610D01*
X85854686Y-69051554D01*
X85791130Y-69022529D01*
X85753356Y-68963751D01*
X85749346Y-68943594D01*
X85749092Y-68942520D01*
X85732818Y-68898886D01*
X85725000Y-68855553D01*
X85725000Y-67945000D01*
X84579000Y-67945000D01*
X84511961Y-67925315D01*
X84466206Y-67872511D01*
X84455000Y-67821000D01*
X84455000Y-63500000D01*
X82877635Y-63500000D01*
X82834302Y-63492182D01*
X82825220Y-63488794D01*
X82817481Y-63485908D01*
X82757883Y-63479501D01*
X82757881Y-63479500D01*
X82757873Y-63479500D01*
X82757865Y-63479500D01*
X82314744Y-63479500D01*
X82247705Y-63459815D01*
X82201950Y-63407011D01*
X82192006Y-63337853D01*
X82221031Y-63274297D01*
X82227063Y-63267819D01*
X83678346Y-61816537D01*
X85133564Y-60361319D01*
X85194887Y-60327834D01*
X85221245Y-60325000D01*
X85227500Y-60325000D01*
X85294539Y-60344685D01*
G37*
%TD.AperFunction*%
%TA.AperFunction,Conductor*%
G36*
X85961394Y-82602101D02*
G01*
X85993902Y-82663948D01*
X85996333Y-82688380D01*
X85996333Y-84951619D01*
X85976648Y-85018658D01*
X85923844Y-85064413D01*
X85854686Y-85074357D01*
X85791130Y-85045332D01*
X85753356Y-84986554D01*
X85748805Y-84962426D01*
X85740141Y-84863400D01*
X85740139Y-84863389D01*
X85729225Y-84822655D01*
X85725000Y-84790562D01*
X85725000Y-82849436D01*
X85729225Y-82817342D01*
X85740140Y-82776606D01*
X85740141Y-82776599D01*
X85748805Y-82677573D01*
X85774257Y-82612504D01*
X85830848Y-82571525D01*
X85900610Y-82567647D01*
X85961394Y-82602101D01*
G37*
%TD.AperFunction*%
%TA.AperFunction,Conductor*%
G36*
X85961394Y-80067836D02*
G01*
X85993902Y-80129683D01*
X85996333Y-80154115D01*
X85996333Y-82411619D01*
X85976648Y-82478658D01*
X85923844Y-82524413D01*
X85854686Y-82534357D01*
X85791130Y-82505332D01*
X85753356Y-82446554D01*
X85748805Y-82422426D01*
X85740141Y-82323400D01*
X85740139Y-82323389D01*
X85729225Y-82282655D01*
X85725000Y-82250562D01*
X85725000Y-80311367D01*
X85729224Y-80279276D01*
X85740635Y-80236692D01*
X85748805Y-80143307D01*
X85774257Y-80078239D01*
X85830848Y-80037260D01*
X85900610Y-80033382D01*
X85961394Y-80067836D01*
G37*
%TD.AperFunction*%
%TD*%
M02*
