M48
; DRILL file {KiCad 7.0.10+1} date vie 26 ene 2024 16:12:43
; FORMAT={-:-/ absolute / inch / decimal}
; #@! TF.CreationDate,2024-01-26T16:12:43+01:00
; #@! TF.GenerationSoftware,Kicad,Pcbnew,7.0.10+1
; #@! TF.FileFunction,Plated,1,2,PTH
FMAT,2
INCH
; #@! TA.AperFunction,Plated,PTH,ViaDrill
T1C0.0157
; #@! TA.AperFunction,Plated,PTH,ComponentDrill
T2C0.0197
; #@! TA.AperFunction,Plated,PTH,ComponentDrill
T3C0.0236
; #@! TA.AperFunction,Plated,PTH,ComponentDrill
T4C0.0276
; #@! TA.AperFunction,Plated,PTH,ComponentDrill
T5C0.0295
; #@! TA.AperFunction,Plated,PTH,ComponentDrill
T6C0.0315
; #@! TA.AperFunction,Plated,PTH,ComponentDrill
T7C0.0394
%
G90
G05
T1
X2.375Y-3.55
T2
X2.7907Y-2.2988
X2.7907Y-2.3988
T3
X2.975Y-2.325
X3.0341Y-2.325
T4
X2.325Y-3.3
X2.325Y-3.74
X2.45Y-3.3
X2.45Y-3.74
X3.385Y-2.425
X3.825Y-2.425
T5
X3.25Y-2.325
X3.55Y-2.325
T6
X2.6Y-3.0
X2.6Y-3.1
X2.6Y-3.2
X2.6Y-3.3
X2.6Y-3.4
X2.6Y-3.5
X2.6Y-3.6
X2.6Y-3.7
X2.6Y-3.8
X2.6Y-3.9
X2.6004Y-2.5004
X2.6004Y-2.6004
X2.6004Y-2.7004
X2.6004Y-2.8004
X2.7016Y-2.9
X2.8Y-2.9
X2.9Y-3.0
X2.9Y-3.1
X2.9Y-3.2
X2.9Y-3.3
X2.9Y-3.4
X2.9Y-3.5
X2.9Y-3.6
X2.9Y-3.7
X2.9Y-3.8
X2.9Y-3.9
X2.9004Y-2.5004
X2.9004Y-2.6004
X2.9004Y-2.7004
X2.9004Y-2.8004
X3.125Y-2.55
X3.125Y-2.65
X3.125Y-2.75
X3.125Y-2.85
X3.125Y-2.95
X3.125Y-3.05
X3.125Y-3.15
X3.125Y-3.25
X3.125Y-3.35
X3.125Y-3.45
X3.125Y-3.55
X3.125Y-3.65
X3.125Y-3.75
X3.125Y-3.85
X3.2248Y-2.5504
X3.2248Y-2.6504
X3.2248Y-2.7504
X3.2248Y-2.8504
X3.2248Y-2.9504
X3.2248Y-3.0504
X3.2248Y-3.1504
X3.2248Y-3.2504
X3.2248Y-3.3504
X3.2248Y-3.4504
X3.2248Y-3.5504
X3.2248Y-3.6504
X3.2248Y-3.7504
X3.2248Y-3.8504
X3.325Y-2.75
X3.325Y-2.85
X3.325Y-2.95
X3.325Y-3.05
X3.325Y-3.15
X3.325Y-3.25
X3.325Y-3.35
X3.325Y-3.45
X3.4258Y-3.55
X3.5242Y-3.55
X3.625Y-2.75
X3.625Y-2.85
X3.625Y-2.95
X3.625Y-3.05
X3.625Y-3.15
X3.625Y-3.25
X3.625Y-3.35
X3.625Y-3.45
X3.725Y-2.55
X3.725Y-2.65
X3.725Y-2.75
X3.725Y-2.85
X3.725Y-2.95
X3.725Y-3.05
X3.725Y-3.15
X3.725Y-3.25
X3.725Y-3.35
X3.725Y-3.45
X3.725Y-3.55
X3.725Y-3.65
X3.725Y-3.75
X3.725Y-3.85
X3.8248Y-2.5504
X3.8248Y-2.6504
X3.8248Y-2.7504
X3.8248Y-2.8504
X3.8248Y-2.9504
X3.8248Y-3.0504
X3.8248Y-3.1504
X3.8248Y-3.2504
X3.8248Y-3.3504
X3.8248Y-3.4504
X3.8248Y-3.5504
X3.8248Y-3.6504
X3.8248Y-3.7504
X3.8248Y-3.8504
T7
X2.4222Y-2.4998
X2.4222Y-2.5998
X2.4222Y-2.6998
X2.4222Y-2.7998
X2.4222Y-2.8998
X3.725Y-2.3
X3.825Y-2.3
M30
