%TF.GenerationSoftware,KiCad,Pcbnew,7.0.10+1*%
%TF.CreationDate,2024-01-26T16:12:45+01:00*%
%TF.ProjectId,QL_Minerva_MK2,514c5f4d-696e-4657-9276-615f4d4b322e,0.0*%
%TF.SameCoordinates,Original*%
%TF.FileFunction,Legend,Bot*%
%TF.FilePolarity,Positive*%
%FSLAX46Y46*%
G04 Gerber Fmt 4.6, Leading zero omitted, Abs format (unit mm)*
G04 Created by KiCad (PCBNEW 7.0.10+1) date 2024-01-26 16:12:45*
%MOMM*%
%LPD*%
G01*
G04 APERTURE LIST*
%ADD10C,0.150000*%
%ADD11C,0.120000*%
G04 APERTURE END LIST*
D10*
X63484819Y-88036666D02*
X64199104Y-88036666D01*
X64199104Y-88036666D02*
X64341961Y-87989047D01*
X64341961Y-87989047D02*
X64437200Y-87893809D01*
X64437200Y-87893809D02*
X64484819Y-87750952D01*
X64484819Y-87750952D02*
X64484819Y-87655714D01*
X64484819Y-88512857D02*
X63484819Y-88512857D01*
X63484819Y-88512857D02*
X63484819Y-88893809D01*
X63484819Y-88893809D02*
X63532438Y-88989047D01*
X63532438Y-88989047D02*
X63580057Y-89036666D01*
X63580057Y-89036666D02*
X63675295Y-89084285D01*
X63675295Y-89084285D02*
X63818152Y-89084285D01*
X63818152Y-89084285D02*
X63913390Y-89036666D01*
X63913390Y-89036666D02*
X63961009Y-88989047D01*
X63961009Y-88989047D02*
X64008628Y-88893809D01*
X64008628Y-88893809D02*
X64008628Y-88512857D01*
X64484819Y-90036666D02*
X64484819Y-89465238D01*
X64484819Y-89750952D02*
X63484819Y-89750952D01*
X63484819Y-89750952D02*
X63627676Y-89655714D01*
X63627676Y-89655714D02*
X63722914Y-89560476D01*
X63722914Y-89560476D02*
X63770533Y-89465238D01*
D11*
%TO.C,JP1*%
X61930000Y-90920000D02*
X62530000Y-90920000D01*
X60730000Y-90370000D02*
X60730000Y-89770000D01*
X63230000Y-90270000D02*
X63230000Y-87470000D01*
X61030000Y-90070000D02*
X60730000Y-90370000D01*
X61030000Y-90070000D02*
X60730000Y-89770000D01*
X61230000Y-87470000D02*
X61230000Y-90270000D01*
X62530000Y-86820000D02*
X61930000Y-86820000D01*
X61230000Y-90220000D02*
G75*
G03*
X61930000Y-90920000I699999J-1D01*
G01*
X62530000Y-90920000D02*
G75*
G03*
X63230000Y-90220000I1J699999D01*
G01*
X61930000Y-86820000D02*
G75*
G03*
X61230000Y-87520000I0J-700000D01*
G01*
X63230000Y-87520000D02*
G75*
G03*
X62530000Y-86820000I-700000J0D01*
G01*
%TD*%
M02*
