%TF.GenerationSoftware,KiCad,Pcbnew,7.0.10+1*%
%TF.CreationDate,2024-01-26T16:12:45+01:00*%
%TF.ProjectId,QL_Minerva_MK2,514c5f4d-696e-4657-9276-615f4d4b322e,0.0*%
%TF.SameCoordinates,Original*%
%TF.FileFunction,Soldermask,Top*%
%TF.FilePolarity,Negative*%
%FSLAX46Y46*%
G04 Gerber Fmt 4.6, Leading zero omitted, Abs format (unit mm)*
G04 Created by KiCad (PCBNEW 7.0.10+1) date 2024-01-26 16:12:45*
%MOMM*%
%LPD*%
G01*
G04 APERTURE LIST*
%ADD10C,1.600000*%
%ADD11C,1.000000*%
%ADD12R,1.600000X1.600000*%
%ADD13O,1.600000X1.600000*%
%ADD14R,1.700000X1.700000*%
%ADD15O,1.700000X1.700000*%
%ADD16C,1.400000*%
%ADD17O,1.400000X1.400000*%
%ADD18R,1.200000X1.200000*%
%ADD19C,1.200000*%
%ADD20R,1.500000X1.500000*%
%ADD21O,1.500000X1.500000*%
G04 APERTURE END LIST*
D10*
%TO.C,C3*%
X71120000Y-73660000D03*
X68620000Y-73660000D03*
%TD*%
D11*
%TO.C,Y1*%
X70885000Y-58390000D03*
X70885000Y-60930000D03*
%TD*%
D12*
%TO.C,U4*%
X66040000Y-76200000D03*
D13*
X66040000Y-78740000D03*
X66040000Y-81280000D03*
X66040000Y-83820000D03*
X66040000Y-86360000D03*
X66040000Y-88900000D03*
X66040000Y-91440000D03*
X66040000Y-93980000D03*
X66040000Y-96520000D03*
X66040000Y-99060000D03*
X73660000Y-99060000D03*
X73660000Y-96520000D03*
X73660000Y-93980000D03*
X73660000Y-91440000D03*
X73660000Y-88900000D03*
X73660000Y-86360000D03*
X73660000Y-83820000D03*
X73660000Y-81280000D03*
X73660000Y-78740000D03*
X73660000Y-76200000D03*
%TD*%
D14*
%TO.C,J2*%
X61525000Y-73655000D03*
D15*
X61525000Y-71115000D03*
X61525000Y-68575000D03*
X61525000Y-66035000D03*
X61525000Y-63495000D03*
%TD*%
D12*
%TO.C,U2*%
X81910000Y-64780000D03*
D13*
X81910000Y-67320000D03*
X81910000Y-69860000D03*
X81910000Y-72400000D03*
X81910000Y-74940000D03*
X81910000Y-77480000D03*
X81910000Y-80020000D03*
X81910000Y-82560000D03*
X81910000Y-85100000D03*
X81910000Y-87640000D03*
X81910000Y-90180000D03*
X81910000Y-92720000D03*
X81910000Y-95260000D03*
X81910000Y-97800000D03*
X97150000Y-97800000D03*
X97150000Y-95260000D03*
X97150000Y-92720000D03*
X97150000Y-90180000D03*
X97150000Y-87640000D03*
X97150000Y-85100000D03*
X97150000Y-82560000D03*
X97150000Y-80020000D03*
X97150000Y-77480000D03*
X97150000Y-74940000D03*
X97150000Y-72400000D03*
X97150000Y-69860000D03*
X97150000Y-67320000D03*
X97150000Y-64780000D03*
%TD*%
D12*
%TO.C,U5*%
X84455000Y-69850000D03*
D13*
X84455000Y-72390000D03*
X84455000Y-74930000D03*
X84455000Y-77470000D03*
X84455000Y-80010000D03*
X84455000Y-82550000D03*
X84455000Y-85090000D03*
X84455000Y-87630000D03*
X92075000Y-87630000D03*
X92075000Y-85090000D03*
X92075000Y-82550000D03*
X92075000Y-80010000D03*
X92075000Y-77470000D03*
X92075000Y-74930000D03*
X92075000Y-72390000D03*
X92075000Y-69850000D03*
%TD*%
D14*
%TO.C,J1*%
X94615000Y-58420000D03*
D15*
X97155000Y-58420000D03*
%TD*%
D12*
%TO.C,U3*%
X66050000Y-63510000D03*
D13*
X66050000Y-66050000D03*
X66050000Y-68590000D03*
X66050000Y-71130000D03*
X73670000Y-71130000D03*
X73670000Y-68590000D03*
X73670000Y-66050000D03*
X73670000Y-63510000D03*
%TD*%
D12*
%TO.C,U1*%
X79375000Y-64770000D03*
D13*
X79375000Y-67310000D03*
X79375000Y-69850000D03*
X79375000Y-72390000D03*
X79375000Y-74930000D03*
X79375000Y-77470000D03*
X79375000Y-80010000D03*
X79375000Y-82550000D03*
X79375000Y-85090000D03*
X79375000Y-87630000D03*
X79375000Y-90170000D03*
X79375000Y-92710000D03*
X79375000Y-95250000D03*
X79375000Y-97790000D03*
X94615000Y-97790000D03*
X94615000Y-95250000D03*
X94615000Y-92710000D03*
X94615000Y-90170000D03*
X94615000Y-87630000D03*
X94615000Y-85090000D03*
X94615000Y-82550000D03*
X94615000Y-80010000D03*
X94615000Y-77470000D03*
X94615000Y-74930000D03*
X94615000Y-72390000D03*
X94615000Y-69850000D03*
X94615000Y-67310000D03*
X94615000Y-64770000D03*
%TD*%
D16*
%TO.C,R2*%
X59055000Y-94996000D03*
D17*
X59055000Y-83820000D03*
%TD*%
D10*
%TO.C,C2*%
X89515000Y-90170000D03*
X87015000Y-90170000D03*
%TD*%
D16*
%TO.C,R1*%
X62230000Y-94996000D03*
D17*
X62230000Y-83820000D03*
%TD*%
D18*
%TO.C,C1*%
X77065000Y-59055000D03*
D19*
X75565000Y-59055000D03*
%TD*%
D16*
%TO.C,R3*%
X85979000Y-61595000D03*
D17*
X97155000Y-61595000D03*
%TD*%
D20*
%TO.C,D1*%
X82550000Y-59055000D03*
D21*
X90170000Y-59055000D03*
%TD*%
M02*
