%TF.GenerationSoftware,KiCad,Pcbnew,7.0.10+1*%
%TF.CreationDate,2024-01-26T16:12:45+01:00*%
%TF.ProjectId,QL_Minerva_MK2,514c5f4d-696e-4657-9276-615f4d4b322e,0.0*%
%TF.SameCoordinates,Original*%
%TF.FileFunction,Soldermask,Bot*%
%TF.FilePolarity,Negative*%
%FSLAX46Y46*%
G04 Gerber Fmt 4.6, Leading zero omitted, Abs format (unit mm)*
G04 Created by KiCad (PCBNEW 7.0.10+1) date 2024-01-26 16:12:45*
%MOMM*%
%LPD*%
G01*
G04 APERTURE LIST*
G04 Aperture macros list*
%AMFreePoly0*
4,1,19,0.550000,-0.750000,0.000000,-0.750000,0.000000,-0.744911,-0.071157,-0.744911,-0.207708,-0.704816,-0.327430,-0.627875,-0.420627,-0.520320,-0.479746,-0.390866,-0.500000,-0.250000,-0.500000,0.250000,-0.479746,0.390866,-0.420627,0.520320,-0.327430,0.627875,-0.207708,0.704816,-0.071157,0.744911,0.000000,0.744911,0.000000,0.750000,0.550000,0.750000,0.550000,-0.750000,0.550000,-0.750000,
$1*%
%AMFreePoly1*
4,1,19,0.000000,0.744911,0.071157,0.744911,0.207708,0.704816,0.327430,0.627875,0.420627,0.520320,0.479746,0.390866,0.500000,0.250000,0.500000,-0.250000,0.479746,-0.390866,0.420627,-0.520320,0.327430,-0.627875,0.207708,-0.704816,0.071157,-0.744911,0.000000,-0.744911,0.000000,-0.750000,-0.550000,-0.750000,-0.550000,0.750000,0.000000,0.750000,0.000000,0.744911,0.000000,0.744911,
$1*%
G04 Aperture macros list end*
%ADD10C,0.254000*%
%ADD11C,0.150000*%
%ADD12C,1.600000*%
%ADD13C,1.000000*%
%ADD14R,1.600000X1.600000*%
%ADD15O,1.600000X1.600000*%
%ADD16R,1.700000X1.700000*%
%ADD17O,1.700000X1.700000*%
%ADD18C,1.400000*%
%ADD19O,1.400000X1.400000*%
%ADD20R,1.200000X1.200000*%
%ADD21C,1.200000*%
%ADD22R,1.500000X1.500000*%
%ADD23O,1.500000X1.500000*%
%ADD24FreePoly0,90.000000*%
%ADD25R,1.500000X1.000000*%
%ADD26FreePoly1,90.000000*%
G04 APERTURE END LIST*
D10*
X64209799Y-58746668D02*
X64633133Y-58141906D01*
X64935514Y-58746668D02*
X64935514Y-57476668D01*
X64935514Y-57476668D02*
X64451704Y-57476668D01*
X64451704Y-57476668D02*
X64330752Y-57537144D01*
X64330752Y-57537144D02*
X64270275Y-57597620D01*
X64270275Y-57597620D02*
X64209799Y-57718572D01*
X64209799Y-57718572D02*
X64209799Y-57900001D01*
X64209799Y-57900001D02*
X64270275Y-58020953D01*
X64270275Y-58020953D02*
X64330752Y-58081430D01*
X64330752Y-58081430D02*
X64451704Y-58141906D01*
X64451704Y-58141906D02*
X64935514Y-58141906D01*
X63181704Y-58686192D02*
X63302656Y-58746668D01*
X63302656Y-58746668D02*
X63544561Y-58746668D01*
X63544561Y-58746668D02*
X63665514Y-58686192D01*
X63665514Y-58686192D02*
X63725990Y-58565239D01*
X63725990Y-58565239D02*
X63725990Y-58081430D01*
X63725990Y-58081430D02*
X63665514Y-57960477D01*
X63665514Y-57960477D02*
X63544561Y-57900001D01*
X63544561Y-57900001D02*
X63302656Y-57900001D01*
X63302656Y-57900001D02*
X63181704Y-57960477D01*
X63181704Y-57960477D02*
X63121228Y-58081430D01*
X63121228Y-58081430D02*
X63121228Y-58202382D01*
X63121228Y-58202382D02*
X63725990Y-58323334D01*
X62576943Y-57900001D02*
X62576943Y-59170001D01*
X62576943Y-57960477D02*
X62455990Y-57900001D01*
X62455990Y-57900001D02*
X62214085Y-57900001D01*
X62214085Y-57900001D02*
X62093133Y-57960477D01*
X62093133Y-57960477D02*
X62032657Y-58020953D01*
X62032657Y-58020953D02*
X61972181Y-58141906D01*
X61972181Y-58141906D02*
X61972181Y-58504763D01*
X61972181Y-58504763D02*
X62032657Y-58625715D01*
X62032657Y-58625715D02*
X62093133Y-58686192D01*
X62093133Y-58686192D02*
X62214085Y-58746668D01*
X62214085Y-58746668D02*
X62455990Y-58746668D01*
X62455990Y-58746668D02*
X62576943Y-58686192D01*
X61427895Y-58746668D02*
X61427895Y-57900001D01*
X61427895Y-58141906D02*
X61367418Y-58020953D01*
X61367418Y-58020953D02*
X61306942Y-57960477D01*
X61306942Y-57960477D02*
X61185990Y-57900001D01*
X61185990Y-57900001D02*
X61065037Y-57900001D01*
X60460276Y-58746668D02*
X60581228Y-58686192D01*
X60581228Y-58686192D02*
X60641705Y-58625715D01*
X60641705Y-58625715D02*
X60702181Y-58504763D01*
X60702181Y-58504763D02*
X60702181Y-58141906D01*
X60702181Y-58141906D02*
X60641705Y-58020953D01*
X60641705Y-58020953D02*
X60581228Y-57960477D01*
X60581228Y-57960477D02*
X60460276Y-57900001D01*
X60460276Y-57900001D02*
X60278847Y-57900001D01*
X60278847Y-57900001D02*
X60157895Y-57960477D01*
X60157895Y-57960477D02*
X60097419Y-58020953D01*
X60097419Y-58020953D02*
X60036943Y-58141906D01*
X60036943Y-58141906D02*
X60036943Y-58504763D01*
X60036943Y-58504763D02*
X60097419Y-58625715D01*
X60097419Y-58625715D02*
X60157895Y-58686192D01*
X60157895Y-58686192D02*
X60278847Y-58746668D01*
X60278847Y-58746668D02*
X60460276Y-58746668D01*
X58525038Y-58746668D02*
X58525038Y-57476668D01*
X58525038Y-57960477D02*
X58404085Y-57900001D01*
X58404085Y-57900001D02*
X58162180Y-57900001D01*
X58162180Y-57900001D02*
X58041228Y-57960477D01*
X58041228Y-57960477D02*
X57980752Y-58020953D01*
X57980752Y-58020953D02*
X57920276Y-58141906D01*
X57920276Y-58141906D02*
X57920276Y-58504763D01*
X57920276Y-58504763D02*
X57980752Y-58625715D01*
X57980752Y-58625715D02*
X58041228Y-58686192D01*
X58041228Y-58686192D02*
X58162180Y-58746668D01*
X58162180Y-58746668D02*
X58404085Y-58746668D01*
X58404085Y-58746668D02*
X58525038Y-58686192D01*
X57496942Y-57900001D02*
X57194561Y-58746668D01*
X56892180Y-57900001D02*
X57194561Y-58746668D01*
X57194561Y-58746668D02*
X57315513Y-59049049D01*
X57315513Y-59049049D02*
X57375990Y-59109525D01*
X57375990Y-59109525D02*
X57496942Y-59170001D01*
X64995990Y-60428511D02*
X64391228Y-60428511D01*
X65116942Y-60791368D02*
X64693609Y-59521368D01*
X64693609Y-59521368D02*
X64270275Y-60791368D01*
X63846943Y-60670415D02*
X63786466Y-60730892D01*
X63786466Y-60730892D02*
X63846943Y-60791368D01*
X63846943Y-60791368D02*
X63907419Y-60730892D01*
X63907419Y-60730892D02*
X63846943Y-60670415D01*
X63846943Y-60670415D02*
X63846943Y-60791368D01*
X63302657Y-60428511D02*
X62697895Y-60428511D01*
X63423609Y-60791368D02*
X63000276Y-59521368D01*
X63000276Y-59521368D02*
X62576942Y-60791368D01*
X61972181Y-60791368D02*
X62093133Y-60730892D01*
X62093133Y-60730892D02*
X62153610Y-60609939D01*
X62153610Y-60609939D02*
X62153610Y-59521368D01*
X61004562Y-60730892D02*
X61125514Y-60791368D01*
X61125514Y-60791368D02*
X61367419Y-60791368D01*
X61367419Y-60791368D02*
X61488372Y-60730892D01*
X61488372Y-60730892D02*
X61548848Y-60609939D01*
X61548848Y-60609939D02*
X61548848Y-60126130D01*
X61548848Y-60126130D02*
X61488372Y-60005177D01*
X61488372Y-60005177D02*
X61367419Y-59944701D01*
X61367419Y-59944701D02*
X61125514Y-59944701D01*
X61125514Y-59944701D02*
X61004562Y-60005177D01*
X61004562Y-60005177D02*
X60944086Y-60126130D01*
X60944086Y-60126130D02*
X60944086Y-60247082D01*
X60944086Y-60247082D02*
X61548848Y-60368034D01*
X59855515Y-60791368D02*
X59855515Y-60126130D01*
X59855515Y-60126130D02*
X59915991Y-60005177D01*
X59915991Y-60005177D02*
X60036943Y-59944701D01*
X60036943Y-59944701D02*
X60278848Y-59944701D01*
X60278848Y-59944701D02*
X60399801Y-60005177D01*
X59855515Y-60730892D02*
X59976467Y-60791368D01*
X59976467Y-60791368D02*
X60278848Y-60791368D01*
X60278848Y-60791368D02*
X60399801Y-60730892D01*
X60399801Y-60730892D02*
X60460277Y-60609939D01*
X60460277Y-60609939D02*
X60460277Y-60488987D01*
X60460277Y-60488987D02*
X60399801Y-60368034D01*
X60399801Y-60368034D02*
X60278848Y-60307558D01*
X60278848Y-60307558D02*
X59976467Y-60307558D01*
X59976467Y-60307558D02*
X59855515Y-60247082D01*
D11*
X56515000Y-64135000D02*
X59690000Y-64135000D01*
X59690000Y-73025000D01*
X56515000Y-73025000D01*
X56515000Y-64135000D01*
G36*
X56515000Y-64135000D02*
G01*
X59690000Y-64135000D01*
X59690000Y-73025000D01*
X56515000Y-73025000D01*
X56515000Y-64135000D01*
G37*
D12*
%TO.C,C3*%
X71120000Y-73660000D03*
X68620000Y-73660000D03*
%TD*%
D13*
%TO.C,Y1*%
X70885000Y-58390000D03*
X70885000Y-60930000D03*
%TD*%
D14*
%TO.C,U4*%
X66040000Y-76200000D03*
D15*
X66040000Y-78740000D03*
X66040000Y-81280000D03*
X66040000Y-83820000D03*
X66040000Y-86360000D03*
X66040000Y-88900000D03*
X66040000Y-91440000D03*
X66040000Y-93980000D03*
X66040000Y-96520000D03*
X66040000Y-99060000D03*
X73660000Y-99060000D03*
X73660000Y-96520000D03*
X73660000Y-93980000D03*
X73660000Y-91440000D03*
X73660000Y-88900000D03*
X73660000Y-86360000D03*
X73660000Y-83820000D03*
X73660000Y-81280000D03*
X73660000Y-78740000D03*
X73660000Y-76200000D03*
%TD*%
D16*
%TO.C,J2*%
X61525000Y-73655000D03*
D17*
X61525000Y-71115000D03*
X61525000Y-68575000D03*
X61525000Y-66035000D03*
X61525000Y-63495000D03*
%TD*%
D14*
%TO.C,U2*%
X81910000Y-64780000D03*
D15*
X81910000Y-67320000D03*
X81910000Y-69860000D03*
X81910000Y-72400000D03*
X81910000Y-74940000D03*
X81910000Y-77480000D03*
X81910000Y-80020000D03*
X81910000Y-82560000D03*
X81910000Y-85100000D03*
X81910000Y-87640000D03*
X81910000Y-90180000D03*
X81910000Y-92720000D03*
X81910000Y-95260000D03*
X81910000Y-97800000D03*
X97150000Y-97800000D03*
X97150000Y-95260000D03*
X97150000Y-92720000D03*
X97150000Y-90180000D03*
X97150000Y-87640000D03*
X97150000Y-85100000D03*
X97150000Y-82560000D03*
X97150000Y-80020000D03*
X97150000Y-77480000D03*
X97150000Y-74940000D03*
X97150000Y-72400000D03*
X97150000Y-69860000D03*
X97150000Y-67320000D03*
X97150000Y-64780000D03*
%TD*%
D14*
%TO.C,U5*%
X84455000Y-69850000D03*
D15*
X84455000Y-72390000D03*
X84455000Y-74930000D03*
X84455000Y-77470000D03*
X84455000Y-80010000D03*
X84455000Y-82550000D03*
X84455000Y-85090000D03*
X84455000Y-87630000D03*
X92075000Y-87630000D03*
X92075000Y-85090000D03*
X92075000Y-82550000D03*
X92075000Y-80010000D03*
X92075000Y-77470000D03*
X92075000Y-74930000D03*
X92075000Y-72390000D03*
X92075000Y-69850000D03*
%TD*%
D16*
%TO.C,J1*%
X94615000Y-58420000D03*
D17*
X97155000Y-58420000D03*
%TD*%
D14*
%TO.C,U3*%
X66050000Y-63510000D03*
D15*
X66050000Y-66050000D03*
X66050000Y-68590000D03*
X66050000Y-71130000D03*
X73670000Y-71130000D03*
X73670000Y-68590000D03*
X73670000Y-66050000D03*
X73670000Y-63510000D03*
%TD*%
D14*
%TO.C,U1*%
X79375000Y-64770000D03*
D15*
X79375000Y-67310000D03*
X79375000Y-69850000D03*
X79375000Y-72390000D03*
X79375000Y-74930000D03*
X79375000Y-77470000D03*
X79375000Y-80010000D03*
X79375000Y-82550000D03*
X79375000Y-85090000D03*
X79375000Y-87630000D03*
X79375000Y-90170000D03*
X79375000Y-92710000D03*
X79375000Y-95250000D03*
X79375000Y-97790000D03*
X94615000Y-97790000D03*
X94615000Y-95250000D03*
X94615000Y-92710000D03*
X94615000Y-90170000D03*
X94615000Y-87630000D03*
X94615000Y-85090000D03*
X94615000Y-82550000D03*
X94615000Y-80010000D03*
X94615000Y-77470000D03*
X94615000Y-74930000D03*
X94615000Y-72390000D03*
X94615000Y-69850000D03*
X94615000Y-67310000D03*
X94615000Y-64770000D03*
%TD*%
D18*
%TO.C,R2*%
X59055000Y-94996000D03*
D19*
X59055000Y-83820000D03*
%TD*%
D12*
%TO.C,C2*%
X89515000Y-90170000D03*
X87015000Y-90170000D03*
%TD*%
D18*
%TO.C,R1*%
X62230000Y-94996000D03*
D19*
X62230000Y-83820000D03*
%TD*%
D20*
%TO.C,C1*%
X77065000Y-59055000D03*
D21*
X75565000Y-59055000D03*
%TD*%
D18*
%TO.C,R3*%
X85979000Y-61595000D03*
D19*
X97155000Y-61595000D03*
%TD*%
D22*
%TO.C,D1*%
X82550000Y-59055000D03*
D23*
X90170000Y-59055000D03*
%TD*%
D24*
%TO.C,JP1*%
X62230000Y-90170000D03*
D25*
X62230000Y-88870000D03*
D26*
X62230000Y-87570000D03*
%TD*%
M02*
