M48
; DRILL file {KiCad 8.0.8+1} date 2025-02-23T13:51:28+0100
; FORMAT={-:-/ absolute / metric / decimal}
; #@! TF.CreationDate,2025-02-23T13:51:28+01:00
; #@! TF.GenerationSoftware,Kicad,Pcbnew,8.0.8+1
; #@! TF.FileFunction,Plated,1,2,PTH
FMAT,2
METRIC
; #@! TA.AperFunction,Plated,PTH,ViaDrill
T1C0.400
; #@! TA.AperFunction,Plated,PTH,ComponentDrill
T2C0.500
; #@! TA.AperFunction,Plated,PTH,ComponentDrill
T3C0.600
; #@! TA.AperFunction,Plated,PTH,ComponentDrill
T4C0.700
; #@! TA.AperFunction,Plated,PTH,ComponentDrill
T5C0.800
; #@! TA.AperFunction,Plated,PTH,ComponentDrill
T6C1.000
%
G90
G05
T1
X62.865Y-91.44
T2
X72.39Y-58.39
X72.39Y-60.93
T3
X75.565Y-59.055
X77.065Y-59.055
T4
X59.69Y-83.82
X59.69Y-94.996
X62.865Y-83.82
X62.865Y-94.996
X85.979Y-61.595
X97.155Y-61.595
T5
X66.675Y-76.2
X66.675Y-78.74
X66.675Y-81.28
X66.675Y-83.82
X66.675Y-86.36
X66.675Y-88.9
X66.675Y-91.44
X66.675Y-93.98
X66.675Y-96.52
X66.675Y-99.06
X66.685Y-63.51
X66.685Y-66.05
X66.685Y-68.59
X66.685Y-71.13
X69.255Y-73.66
X71.755Y-73.66
X74.295Y-76.2
X74.295Y-78.74
X74.295Y-81.28
X74.295Y-83.82
X74.295Y-86.36
X74.295Y-88.9
X74.295Y-91.44
X74.295Y-93.98
X74.295Y-96.52
X74.295Y-99.06
X74.305Y-63.51
X74.305Y-66.05
X74.305Y-68.59
X74.305Y-71.13
X79.375Y-64.77
X79.375Y-67.31
X79.375Y-69.85
X79.375Y-72.39
X79.375Y-74.93
X79.375Y-77.47
X79.375Y-80.01
X79.375Y-82.55
X79.375Y-85.09
X79.375Y-87.63
X79.375Y-90.17
X79.375Y-92.71
X79.375Y-95.25
X79.375Y-97.79
X81.91Y-64.78
X81.91Y-67.32
X81.91Y-69.86
X81.91Y-72.4
X81.91Y-74.94
X81.91Y-77.48
X81.91Y-80.02
X81.91Y-82.56
X81.91Y-85.1
X81.91Y-87.64
X81.91Y-90.18
X81.91Y-92.72
X81.91Y-95.26
X81.91Y-97.8
X82.55Y-59.055
X84.455Y-69.85
X84.455Y-72.39
X84.455Y-74.93
X84.455Y-77.47
X84.455Y-80.01
X84.455Y-82.55
X84.455Y-85.09
X84.455Y-87.63
X87.015Y-90.17
X89.515Y-90.17
X90.17Y-59.055
X92.075Y-69.85
X92.075Y-72.39
X92.075Y-74.93
X92.075Y-77.47
X92.075Y-80.01
X92.075Y-82.55
X92.075Y-85.09
X92.075Y-87.63
X94.615Y-64.77
X94.615Y-67.31
X94.615Y-69.85
X94.615Y-72.39
X94.615Y-74.93
X94.615Y-77.47
X94.615Y-80.01
X94.615Y-82.55
X94.615Y-85.09
X94.615Y-87.63
X94.615Y-90.17
X94.615Y-92.71
X94.615Y-95.25
X94.615Y-97.79
X97.15Y-64.78
X97.15Y-67.32
X97.15Y-69.86
X97.15Y-72.4
X97.15Y-74.94
X97.15Y-77.48
X97.15Y-80.02
X97.15Y-82.56
X97.15Y-85.1
X97.15Y-87.64
X97.15Y-90.18
X97.15Y-92.72
X97.15Y-95.26
X97.15Y-97.8
T6
X62.16Y-63.495
X62.16Y-66.035
X62.16Y-68.575
X62.16Y-71.115
X62.16Y-73.655
X94.615Y-58.42
X97.155Y-58.42
M30
