%TF.GenerationSoftware,KiCad,Pcbnew,8.0.8+1*%
%TF.CreationDate,2025-02-23T13:51:28+01:00*%
%TF.ProjectId,QL_Minerva_MK2,514c5f4d-696e-4657-9276-615f4d4b322e,0.0*%
%TF.SameCoordinates,Original*%
%TF.FileFunction,Copper,L1,Top*%
%TF.FilePolarity,Positive*%
%FSLAX46Y46*%
G04 Gerber Fmt 4.6, Leading zero omitted, Abs format (unit mm)*
G04 Created by KiCad (PCBNEW 8.0.8+1) date 2025-02-23 13:51:28*
%MOMM*%
%LPD*%
G01*
G04 APERTURE LIST*
%TA.AperFunction,ComponentPad*%
%ADD10R,1.600000X1.600000*%
%TD*%
%TA.AperFunction,ComponentPad*%
%ADD11O,1.600000X1.600000*%
%TD*%
%TA.AperFunction,ComponentPad*%
%ADD12C,1.600000*%
%TD*%
%TA.AperFunction,ComponentPad*%
%ADD13C,1.000000*%
%TD*%
%TA.AperFunction,ComponentPad*%
%ADD14R,1.700000X1.700000*%
%TD*%
%TA.AperFunction,ComponentPad*%
%ADD15O,1.700000X1.700000*%
%TD*%
%TA.AperFunction,ComponentPad*%
%ADD16C,1.400000*%
%TD*%
%TA.AperFunction,ComponentPad*%
%ADD17O,1.400000X1.400000*%
%TD*%
%TA.AperFunction,ComponentPad*%
%ADD18R,1.200000X1.200000*%
%TD*%
%TA.AperFunction,ComponentPad*%
%ADD19C,1.200000*%
%TD*%
%TA.AperFunction,ViaPad*%
%ADD20C,0.800000*%
%TD*%
%TA.AperFunction,Conductor*%
%ADD21C,0.254000*%
%TD*%
%TA.AperFunction,Conductor*%
%ADD22C,0.250000*%
%TD*%
%ADD23C,0.350000*%
G04 APERTURE END LIST*
D10*
%TO.P,D1,1,K*%
%TO.N,/K*%
X82550000Y-59055000D03*
D11*
%TO.P,D1,2,A*%
%TO.N,VCC*%
X90170000Y-59055000D03*
%TD*%
D12*
%TO.P,C3,1*%
%TO.N,+5V*%
X71755000Y-73660000D03*
%TO.P,C3,2*%
%TO.N,GND*%
X69255000Y-73660000D03*
%TD*%
D13*
%TO.P,Y1,1,1*%
%TO.N,Net-(U3-X1)*%
X72390000Y-58390000D03*
%TO.P,Y1,2,2*%
%TO.N,Net-(U3-X2)*%
X72390000Y-60930000D03*
%TD*%
D10*
%TO.P,U4,1,I1/CLK*%
%TO.N,/A15*%
X66675000Y-76200000D03*
D11*
%TO.P,U4,2,I2*%
%TO.N,/A14*%
X66675000Y-78740000D03*
%TO.P,U4,3,I3*%
%TO.N,/QL_ROMOE*%
X66675000Y-81280000D03*
%TO.P,U4,4,I4*%
%TO.N,/A5*%
X66675000Y-83820000D03*
%TO.P,U4,5,I5*%
%TO.N,/A4*%
X66675000Y-86360000D03*
%TO.P,U4,6,I6*%
%TO.N,Net-(JP1-C)*%
X66675000Y-88900000D03*
%TO.P,U4,7,I7*%
%TO.N,GND*%
X66675000Y-91440000D03*
%TO.P,U4,8,I8*%
%TO.N,/A1*%
X66675000Y-93980000D03*
%TO.P,U4,9,I9*%
%TO.N,/A0*%
X66675000Y-96520000D03*
%TO.P,U4,10,GND*%
%TO.N,GND*%
X66675000Y-99060000D03*
%TO.P,U4,11,I10/~{OE}*%
%TO.N,/DECODE*%
X74295000Y-99060000D03*
%TO.P,U4,12,IO8*%
%TO.N,/D0*%
X74295000Y-96520000D03*
%TO.P,U4,13,IO7*%
%TO.N,unconnected-(U4-IO7-Pad13)*%
X74295000Y-93980000D03*
%TO.P,U4,14,IO6*%
%TO.N,unconnected-(U4-IO6-Pad14)*%
X74295000Y-91440000D03*
%TO.P,U4,15,IO5*%
%TO.N,unconnected-(U4-IO5-Pad15)*%
X74295000Y-88900000D03*
%TO.P,U4,16,IO4*%
%TO.N,unconnected-(U4-IO4-Pad16)*%
X74295000Y-86360000D03*
%TO.P,U4,17,I03*%
%TO.N,/SDA*%
X74295000Y-83820000D03*
%TO.P,U4,18,IO2*%
%TO.N,/SCL*%
X74295000Y-81280000D03*
%TO.P,U4,19,IO1*%
%TO.N,/IC_ROMOE*%
X74295000Y-78740000D03*
%TO.P,U4,20,VCC*%
%TO.N,+5V*%
X74295000Y-76200000D03*
%TD*%
D14*
%TO.P,J2,1,Pin_1*%
%TO.N,/SDA*%
X62160000Y-73655000D03*
D15*
%TO.P,J2,2,Pin_2*%
%TO.N,/SCL*%
X62160000Y-71115000D03*
%TO.P,J2,3,Pin_3*%
%TO.N,GND*%
X62160000Y-68575000D03*
%TO.P,J2,4,Pin_4*%
%TO.N,+5V*%
X62160000Y-66035000D03*
%TO.P,J2,5,Pin_5*%
%TO.N,/K*%
X62160000Y-63495000D03*
%TD*%
D10*
%TO.P,U2,1,A15*%
%TO.N,/A15*%
X81910000Y-64780000D03*
D11*
%TO.P,U2,2,A12*%
%TO.N,/A12*%
X81910000Y-67320000D03*
%TO.P,U2,3,A7*%
%TO.N,/A7*%
X81910000Y-69860000D03*
%TO.P,U2,4,A6*%
%TO.N,/A6*%
X81910000Y-72400000D03*
%TO.P,U2,5,A5*%
%TO.N,/A5*%
X81910000Y-74940000D03*
%TO.P,U2,6,A4*%
%TO.N,/A4*%
X81910000Y-77480000D03*
%TO.P,U2,7,A3*%
%TO.N,/A3*%
X81910000Y-80020000D03*
%TO.P,U2,8,A2*%
%TO.N,/A2*%
X81910000Y-82560000D03*
%TO.P,U2,9,A1*%
%TO.N,/A1*%
X81910000Y-85100000D03*
%TO.P,U2,10,A0*%
%TO.N,/A0*%
X81910000Y-87640000D03*
%TO.P,U2,11,D0*%
%TO.N,/D0*%
X81910000Y-90180000D03*
%TO.P,U2,12,D1*%
%TO.N,/D1*%
X81910000Y-92720000D03*
%TO.P,U2,13,D2*%
%TO.N,/D2*%
X81910000Y-95260000D03*
%TO.P,U2,14,GND*%
%TO.N,GND*%
X81910000Y-97800000D03*
%TO.P,U2,15,D3*%
%TO.N,/D3*%
X97150000Y-97800000D03*
%TO.P,U2,16,D4*%
%TO.N,/D4*%
X97150000Y-95260000D03*
%TO.P,U2,17,D5*%
%TO.N,/D5*%
X97150000Y-92720000D03*
%TO.P,U2,18,D6*%
%TO.N,/D6*%
X97150000Y-90180000D03*
%TO.P,U2,19,D7*%
%TO.N,/D7*%
X97150000Y-87640000D03*
%TO.P,U2,20,~{CE}*%
%TO.N,GND*%
X97150000Y-85100000D03*
%TO.P,U2,21,A10*%
%TO.N,/A10*%
X97150000Y-82560000D03*
%TO.P,U2,22,~{OE/Vpp}*%
%TO.N,/IC_ROMOE*%
X97150000Y-80020000D03*
%TO.P,U2,23,A11*%
%TO.N,/A11*%
X97150000Y-77480000D03*
%TO.P,U2,24,A9*%
%TO.N,/A9*%
X97150000Y-74940000D03*
%TO.P,U2,25,A8*%
%TO.N,/A8*%
X97150000Y-72400000D03*
%TO.P,U2,26,A13*%
%TO.N,/A13*%
X97150000Y-69860000D03*
%TO.P,U2,27,A14*%
%TO.N,/A14*%
X97150000Y-67320000D03*
%TO.P,U2,28,VCC*%
%TO.N,VCC*%
X97150000Y-64780000D03*
%TD*%
D10*
%TO.P,U5,1*%
%TO.N,/A12*%
X84455000Y-69850000D03*
D11*
%TO.P,U5,2*%
%TO.N,/A7*%
X84455000Y-72390000D03*
%TO.P,U5,3*%
%TO.N,/A6*%
X84455000Y-74930000D03*
%TO.P,U5,4*%
%TO.N,/A3*%
X84455000Y-77470000D03*
%TO.P,U5,5*%
%TO.N,/A2*%
X84455000Y-80010000D03*
%TO.P,U5,6*%
%TO.N,VCC*%
X84455000Y-82550000D03*
%TO.P,U5,7*%
X84455000Y-85090000D03*
%TO.P,U5,8,GND*%
%TO.N,GND*%
X84455000Y-87630000D03*
%TO.P,U5,9*%
%TO.N,/DECODE*%
X92075000Y-87630000D03*
%TO.P,U5,10*%
%TO.N,/A15*%
X92075000Y-85090000D03*
%TO.P,U5,11*%
%TO.N,/A10*%
X92075000Y-82550000D03*
%TO.P,U5,12*%
%TO.N,/A11*%
X92075000Y-80010000D03*
%TO.P,U5,13*%
%TO.N,/A9*%
X92075000Y-77470000D03*
%TO.P,U5,14*%
%TO.N,/A8*%
X92075000Y-74930000D03*
%TO.P,U5,15*%
%TO.N,/A13*%
X92075000Y-72390000D03*
%TO.P,U5,16,VCC*%
%TO.N,VCC*%
X92075000Y-69850000D03*
%TD*%
D14*
%TO.P,J1,1,Pin_1*%
%TO.N,Net-(J1-Pin_1)*%
X94615000Y-58420000D03*
D15*
%TO.P,J1,2,Pin_2*%
%TO.N,GND*%
X97155000Y-58420000D03*
%TD*%
D10*
%TO.P,U3,1,OSCI*%
%TO.N,Net-(U3-X1)*%
X66685000Y-63510000D03*
D11*
%TO.P,U3,2,OSCO*%
%TO.N,Net-(U3-X2)*%
X66685000Y-66050000D03*
%TO.P,U3,3,A0*%
%TO.N,GND*%
X66685000Y-68590000D03*
%TO.P,U3,4,Vss*%
X66685000Y-71130000D03*
%TO.P,U3,5,SDA*%
%TO.N,/SDA*%
X74305000Y-71130000D03*
%TO.P,U3,6,SCL*%
%TO.N,/SCL*%
X74305000Y-68590000D03*
%TO.P,U3,7,~{INT}*%
%TO.N,unconnected-(U3-~{INT}-Pad7)*%
X74305000Y-66050000D03*
%TO.P,U3,8,Vdd*%
%TO.N,/K*%
X74305000Y-63510000D03*
%TD*%
D10*
%TO.P,U1,1,A15*%
%TO.N,+5V*%
X79375000Y-64770000D03*
D11*
%TO.P,U1,2,A12*%
%TO.N,/A12*%
X79375000Y-67310000D03*
%TO.P,U1,3,A7*%
%TO.N,/A7*%
X79375000Y-69850000D03*
%TO.P,U1,4,A6*%
%TO.N,/A6*%
X79375000Y-72390000D03*
%TO.P,U1,5,A5*%
%TO.N,/A5*%
X79375000Y-74930000D03*
%TO.P,U1,6,A4*%
%TO.N,/A4*%
X79375000Y-77470000D03*
%TO.P,U1,7,A3*%
%TO.N,/A3*%
X79375000Y-80010000D03*
%TO.P,U1,8,A2*%
%TO.N,/A2*%
X79375000Y-82550000D03*
%TO.P,U1,9,A1*%
%TO.N,/A1*%
X79375000Y-85090000D03*
%TO.P,U1,10,A0*%
%TO.N,/A0*%
X79375000Y-87630000D03*
%TO.P,U1,11,D0*%
%TO.N,/D0*%
X79375000Y-90170000D03*
%TO.P,U1,12,D1*%
%TO.N,/D1*%
X79375000Y-92710000D03*
%TO.P,U1,13,D2*%
%TO.N,/D2*%
X79375000Y-95250000D03*
%TO.P,U1,14,GND*%
%TO.N,GND*%
X79375000Y-97790000D03*
%TO.P,U1,15,D3*%
%TO.N,/D3*%
X94615000Y-97790000D03*
%TO.P,U1,16,D4*%
%TO.N,/D4*%
X94615000Y-95250000D03*
%TO.P,U1,17,D5*%
%TO.N,/D5*%
X94615000Y-92710000D03*
%TO.P,U1,18,D6*%
%TO.N,/D6*%
X94615000Y-90170000D03*
%TO.P,U1,19,D7*%
%TO.N,/D7*%
X94615000Y-87630000D03*
%TO.P,U1,20,~{CE}*%
%TO.N,/A15*%
X94615000Y-85090000D03*
%TO.P,U1,21,A10*%
%TO.N,/A10*%
X94615000Y-82550000D03*
%TO.P,U1,22,~{OE/Vpp}*%
%TO.N,/QL_ROMOE*%
X94615000Y-80010000D03*
%TO.P,U1,23,A11*%
%TO.N,/A11*%
X94615000Y-77470000D03*
%TO.P,U1,24,A9*%
%TO.N,/A9*%
X94615000Y-74930000D03*
%TO.P,U1,25,A8*%
%TO.N,/A8*%
X94615000Y-72390000D03*
%TO.P,U1,26,A13*%
%TO.N,/A13*%
X94615000Y-69850000D03*
%TO.P,U1,27,A14*%
%TO.N,/A14*%
X94615000Y-67310000D03*
%TO.P,U1,28,VCC*%
%TO.N,VCC*%
X94615000Y-64770000D03*
%TD*%
D16*
%TO.P,R2,1*%
%TO.N,VCC*%
X59690000Y-94996000D03*
D17*
%TO.P,R2,2*%
%TO.N,/SCL*%
X59690000Y-83820000D03*
%TD*%
D12*
%TO.P,C2,1*%
%TO.N,VCC*%
X89515000Y-90170000D03*
%TO.P,C2,2*%
%TO.N,GND*%
X87015000Y-90170000D03*
%TD*%
D16*
%TO.P,R1,1*%
%TO.N,VCC*%
X62865000Y-94996000D03*
D17*
%TO.P,R1,2*%
%TO.N,/SDA*%
X62865000Y-83820000D03*
%TD*%
D18*
%TO.P,C1,1*%
%TO.N,/K*%
X77065000Y-59055000D03*
D19*
%TO.P,C1,2*%
%TO.N,Net-(U3-X1)*%
X75565000Y-59055000D03*
%TD*%
D16*
%TO.P,R3,1*%
%TO.N,/K*%
X85979000Y-61595000D03*
D17*
%TO.P,R3,2*%
%TO.N,Net-(J1-Pin_1)*%
X97155000Y-61595000D03*
%TD*%
D20*
%TO.N,GND*%
X62865000Y-91440000D03*
%TD*%
D21*
%TO.N,GND*%
X84455000Y-87630000D02*
X84455000Y-93400000D01*
X84455000Y-100330000D02*
X82550000Y-100330000D01*
X98775000Y-99345000D02*
X97790000Y-100330000D01*
X84455000Y-92730000D02*
X84455000Y-93400000D01*
D22*
X62230000Y-91440000D02*
X61595000Y-91440000D01*
X62230000Y-91440000D02*
X59690000Y-91440000D01*
D21*
X73215500Y-100330000D02*
X69215000Y-100330000D01*
X81915000Y-100330000D02*
X81910000Y-100325000D01*
X73406000Y-100520500D02*
X73215500Y-100330000D01*
X67945000Y-99060000D02*
X64135000Y-99060000D01*
D22*
X61595000Y-91440000D02*
X66040000Y-91440000D01*
D21*
X82550000Y-100330000D02*
X75501500Y-100330000D01*
X82550000Y-100330000D02*
X81915000Y-100330000D01*
D22*
X58420000Y-99060000D02*
X59690000Y-100330000D01*
D21*
X87015000Y-100310000D02*
X86995000Y-100330000D01*
X81910000Y-100325000D02*
X81910000Y-97800000D01*
X98775000Y-85100000D02*
X98775000Y-99345000D01*
X69215000Y-100330000D02*
X67945000Y-99060000D01*
X75311000Y-100520500D02*
X73406000Y-100520500D01*
D22*
X58420000Y-92710000D02*
X58420000Y-99060000D01*
D21*
X87015000Y-90170000D02*
X84455000Y-92730000D01*
X97150000Y-85100000D02*
X98775000Y-85100000D01*
D22*
X59690000Y-91440000D02*
X58420000Y-92710000D01*
D21*
X84455000Y-93400000D02*
X84455000Y-100330000D01*
X75501500Y-100330000D02*
X75311000Y-100520500D01*
X64135000Y-99060000D02*
X62865000Y-100330000D01*
X97790000Y-100330000D02*
X86995000Y-100330000D01*
X62865000Y-100330000D02*
X59690000Y-100330000D01*
X86995000Y-100330000D02*
X84455000Y-100330000D01*
%TO.N,/SCL*%
X68570000Y-68590000D02*
X73670000Y-68590000D01*
X65024000Y-69850000D02*
X67310000Y-69850000D01*
X67310000Y-69850000D02*
X68570000Y-68590000D01*
X63759000Y-71115000D02*
X65024000Y-69850000D01*
X62160000Y-71115000D02*
X63759000Y-71115000D01*
X61525000Y-71115000D02*
X63500000Y-71120000D01*
%TO.N,/SDA*%
X68570000Y-71130000D02*
X66802000Y-72898000D01*
X64513469Y-72898000D02*
X63754000Y-73657469D01*
X63754000Y-73657469D02*
X61525000Y-73655000D01*
X73670000Y-71130000D02*
X68570000Y-71130000D01*
X66802000Y-72898000D02*
X64513469Y-72898000D01*
%TO.N,/QL_ROMOE*%
X67310000Y-82550000D02*
X75565000Y-82550000D01*
X66040000Y-81280000D02*
X67310000Y-82550000D01*
X93345000Y-81280000D02*
X94615000Y-80010000D01*
X75565000Y-82550000D02*
X76835000Y-83820000D01*
X76835000Y-83820000D02*
X92398819Y-83820000D01*
X92398819Y-83820000D02*
X93345000Y-82873819D01*
X93345000Y-82873819D02*
X93345000Y-81280000D01*
%TO.N,/IC_ROMOE*%
X97150000Y-80020000D02*
X95870000Y-78740000D01*
D22*
X74295000Y-78740000D02*
X76835000Y-81280000D01*
D21*
X85090000Y-81280000D02*
X77470000Y-81280000D01*
X87630000Y-78740000D02*
X85090000Y-81280000D01*
D22*
X76835000Y-81280000D02*
X77470000Y-81280000D01*
D21*
X95870000Y-78740000D02*
X87630000Y-78740000D01*
%TO.N,/A15*%
X64770000Y-84143819D02*
X65716181Y-85090000D01*
X94615000Y-85090000D02*
X92075000Y-85090000D01*
X65716181Y-85090000D02*
X75565000Y-85090000D01*
X75565000Y-85090000D02*
X76835000Y-86360000D01*
X86360000Y-86360000D02*
X87630000Y-85090000D01*
X64770000Y-77470000D02*
X64770000Y-84143819D01*
X87630000Y-85090000D02*
X92075000Y-85090000D01*
X66040000Y-76200000D02*
X64770000Y-77470000D01*
X76835000Y-86360000D02*
X86360000Y-86360000D01*
%TO.N,/A14*%
X66040000Y-78740000D02*
X67310000Y-77470000D01*
X67310000Y-77470000D02*
X75565000Y-77470000D01*
X86995000Y-77470000D02*
X86995000Y-73025000D01*
X93345000Y-68580000D02*
X94615000Y-67310000D01*
X76835000Y-78740000D02*
X85725000Y-78740000D01*
X75565000Y-77470000D02*
X76835000Y-78740000D01*
X92710000Y-71120000D02*
X93345000Y-70485000D01*
X85725000Y-78740000D02*
X86995000Y-77470000D01*
X93345000Y-70485000D02*
X93345000Y-68580000D01*
X88900000Y-71120000D02*
X92710000Y-71120000D01*
X86995000Y-73025000D02*
X88900000Y-71120000D01*
%TO.N,/K*%
X72410000Y-64770000D02*
X71755000Y-64770000D01*
X63435000Y-64770000D02*
X64262000Y-64770000D01*
X74305000Y-63510000D02*
X73045000Y-64770000D01*
X73045000Y-64770000D02*
X71755000Y-64770000D01*
X62160000Y-63495000D02*
X63435000Y-64770000D01*
X71755000Y-64770000D02*
X64262000Y-64770000D01*
%TO.N,+5V*%
X79375000Y-64770000D02*
X76835000Y-67310000D01*
D22*
X62160000Y-66035000D02*
X63435000Y-67310000D01*
D21*
X76835000Y-69850000D02*
X76835000Y-70485000D01*
D22*
X63435000Y-67310000D02*
X64008000Y-67310000D01*
D21*
X76835000Y-67310000D02*
X76835000Y-69850000D01*
D22*
X74295000Y-73660000D02*
X76835000Y-71120000D01*
X76835000Y-71120000D02*
X76835000Y-69850000D01*
D21*
X71120000Y-73660000D02*
X73660000Y-73660000D01*
X76835000Y-67310000D02*
X76200000Y-67310000D01*
X64008000Y-67310000D02*
X76200000Y-67310000D01*
D22*
X71755000Y-73660000D02*
X74295000Y-73660000D01*
X74295000Y-76200000D02*
X74295000Y-73660000D01*
%TD*%
%TA.AperFunction,Conductor*%
%TO.N,+5V*%
G36*
X76751334Y-65591180D02*
G01*
X76795681Y-65619681D01*
X77941681Y-66765681D01*
X77975166Y-66827004D01*
X77978000Y-66853362D01*
X77978000Y-75314000D01*
X77958315Y-75381039D01*
X77905511Y-75426794D01*
X77854000Y-75438000D01*
X75743362Y-75438000D01*
X75676323Y-75418315D01*
X75655681Y-75401681D01*
X74930000Y-74676000D01*
X73965362Y-74676000D01*
X73898323Y-74656315D01*
X73877681Y-74639681D01*
X73442319Y-74204319D01*
X73408834Y-74142996D01*
X73406000Y-74116638D01*
X73406000Y-73203362D01*
X73425685Y-73136323D01*
X73442319Y-73115681D01*
X73877681Y-72680319D01*
X73939004Y-72646834D01*
X73965362Y-72644000D01*
X74930000Y-72644000D01*
X75692000Y-71882000D01*
X75692000Y-66599362D01*
X75711685Y-66532323D01*
X75728319Y-66511681D01*
X76620319Y-65619681D01*
X76681642Y-65586196D01*
X76751334Y-65591180D01*
G37*
%TD.AperFunction*%
%TD*%
%TA.AperFunction,Conductor*%
%TO.N,GND*%
G36*
X80690694Y-97550000D02*
G01*
X81594314Y-97550000D01*
X81582359Y-97561955D01*
X81524835Y-97674852D01*
X81505014Y-97800000D01*
X81524835Y-97925148D01*
X81582359Y-98038045D01*
X81594314Y-98050000D01*
X80628362Y-98050000D01*
X80594306Y-98040000D01*
X79690686Y-98040000D01*
X79702641Y-98028045D01*
X79760165Y-97915148D01*
X79779986Y-97790000D01*
X79760165Y-97664852D01*
X79702641Y-97551955D01*
X79690686Y-97540000D01*
X80656638Y-97540000D01*
X80690694Y-97550000D01*
G37*
%TD.AperFunction*%
%TA.AperFunction,Conductor*%
G36*
X65427272Y-70497185D02*
G01*
X65473027Y-70549989D01*
X65482971Y-70619147D01*
X65472615Y-70653904D01*
X65458735Y-70683668D01*
X65458730Y-70683682D01*
X65406127Y-70879999D01*
X65406128Y-70880000D01*
X66369314Y-70880000D01*
X66357359Y-70891955D01*
X66299835Y-71004852D01*
X66280014Y-71130000D01*
X66299835Y-71255148D01*
X66357359Y-71368045D01*
X66369314Y-71380000D01*
X65406128Y-71380000D01*
X65458730Y-71576317D01*
X65458734Y-71576326D01*
X65554865Y-71782482D01*
X65685342Y-71968820D01*
X65775341Y-72058819D01*
X65808826Y-72120142D01*
X65803842Y-72189834D01*
X65761970Y-72245767D01*
X65696506Y-72270184D01*
X65687660Y-72270500D01*
X64596434Y-72270500D01*
X64580783Y-72268772D01*
X64580757Y-72269054D01*
X64572994Y-72268319D01*
X64505564Y-72270439D01*
X64501669Y-72270500D01*
X64473988Y-72270500D01*
X64469970Y-72271007D01*
X64458343Y-72271922D01*
X64414527Y-72273299D01*
X64414523Y-72273300D01*
X64395191Y-72278916D01*
X64376151Y-72282859D01*
X64356181Y-72285382D01*
X64356177Y-72285383D01*
X64315422Y-72301519D01*
X64304374Y-72305301D01*
X64262281Y-72317530D01*
X64262274Y-72317533D01*
X64244949Y-72327779D01*
X64227479Y-72336337D01*
X64208767Y-72343745D01*
X64173295Y-72369516D01*
X64163535Y-72375927D01*
X64125815Y-72398234D01*
X64111575Y-72412474D01*
X64096789Y-72425102D01*
X64080502Y-72436936D01*
X64052559Y-72470712D01*
X64044698Y-72479350D01*
X63718657Y-72805391D01*
X63657334Y-72838876D01*
X63587642Y-72833892D01*
X63531709Y-72792020D01*
X63507686Y-72730962D01*
X63504091Y-72697516D01*
X63453797Y-72562671D01*
X63453793Y-72562664D01*
X63367547Y-72447455D01*
X63367544Y-72447452D01*
X63252335Y-72361206D01*
X63252328Y-72361202D01*
X63120917Y-72312189D01*
X63064983Y-72270318D01*
X63040566Y-72204853D01*
X63055418Y-72136580D01*
X63076563Y-72108332D01*
X63198495Y-71986401D01*
X63328874Y-71800200D01*
X63383449Y-71756577D01*
X63430755Y-71747326D01*
X63537887Y-71747598D01*
X63571493Y-71743438D01*
X63586722Y-71742500D01*
X63676033Y-71742500D01*
X63691681Y-71744227D01*
X63691708Y-71743946D01*
X63699475Y-71744680D01*
X63699476Y-71744679D01*
X63699477Y-71744680D01*
X63766919Y-71742561D01*
X63770813Y-71742500D01*
X63798472Y-71742500D01*
X63798476Y-71742500D01*
X63802474Y-71741994D01*
X63814114Y-71741077D01*
X63857943Y-71739701D01*
X63877272Y-71734084D01*
X63896328Y-71730137D01*
X63916293Y-71727616D01*
X63957055Y-71711476D01*
X63968092Y-71707698D01*
X64010191Y-71695468D01*
X64027515Y-71685221D01*
X64044983Y-71676663D01*
X64063703Y-71669253D01*
X64099177Y-71643478D01*
X64108915Y-71637081D01*
X64146656Y-71614763D01*
X64160897Y-71600520D01*
X64175678Y-71587897D01*
X64191967Y-71576063D01*
X64219904Y-71542290D01*
X64227756Y-71533661D01*
X65247600Y-70513819D01*
X65308923Y-70480334D01*
X65335281Y-70477500D01*
X65360233Y-70477500D01*
X65427272Y-70497185D01*
G37*
%TD.AperFunction*%
%TA.AperFunction,Conductor*%
G36*
X66878039Y-70497185D02*
G01*
X66923794Y-70549989D01*
X66935000Y-70601500D01*
X66935000Y-70814314D01*
X66923045Y-70802359D01*
X66810148Y-70744835D01*
X66716481Y-70730000D01*
X66653519Y-70730000D01*
X66559852Y-70744835D01*
X66446955Y-70802359D01*
X66435000Y-70814314D01*
X66435000Y-70601500D01*
X66454685Y-70534461D01*
X66507489Y-70488706D01*
X66559000Y-70477500D01*
X66811000Y-70477500D01*
X66878039Y-70497185D01*
G37*
%TD.AperFunction*%
%TA.AperFunction,Conductor*%
G36*
X63920868Y-67937474D02*
G01*
X63920989Y-67936522D01*
X63928726Y-67937499D01*
X63928728Y-67937500D01*
X65360233Y-67937500D01*
X65427272Y-67957185D01*
X65473027Y-68009989D01*
X65482971Y-68079147D01*
X65472615Y-68113904D01*
X65458735Y-68143668D01*
X65458730Y-68143682D01*
X65406127Y-68339999D01*
X65406128Y-68340000D01*
X66369314Y-68340000D01*
X66357359Y-68351955D01*
X66299835Y-68464852D01*
X66280014Y-68590000D01*
X66299835Y-68715148D01*
X66357359Y-68828045D01*
X66369314Y-68840000D01*
X65406128Y-68840000D01*
X65458730Y-69036317D01*
X65458734Y-69036326D01*
X65463289Y-69046095D01*
X65473781Y-69115173D01*
X65445261Y-69178957D01*
X65386785Y-69217196D01*
X65350907Y-69222500D01*
X65106967Y-69222500D01*
X65091319Y-69220772D01*
X65091293Y-69221054D01*
X65083525Y-69220319D01*
X65016095Y-69222439D01*
X65012200Y-69222500D01*
X64984519Y-69222500D01*
X64980501Y-69223007D01*
X64968874Y-69223922D01*
X64925058Y-69225299D01*
X64925054Y-69225300D01*
X64905722Y-69230916D01*
X64886682Y-69234859D01*
X64866712Y-69237382D01*
X64866708Y-69237383D01*
X64834360Y-69250190D01*
X64828330Y-69252578D01*
X64825953Y-69253519D01*
X64814905Y-69257301D01*
X64772812Y-69269530D01*
X64772805Y-69269533D01*
X64755480Y-69279779D01*
X64738010Y-69288337D01*
X64719298Y-69295745D01*
X64683826Y-69321516D01*
X64674066Y-69327927D01*
X64636346Y-69350234D01*
X64622106Y-69364474D01*
X64607320Y-69377102D01*
X64591033Y-69388936D01*
X64563090Y-69422712D01*
X64555229Y-69431350D01*
X63535400Y-70451181D01*
X63474077Y-70484666D01*
X63447719Y-70487500D01*
X63433826Y-70487500D01*
X63366787Y-70467815D01*
X63332251Y-70434623D01*
X63198494Y-70243597D01*
X63031402Y-70076506D01*
X63031401Y-70076505D01*
X62845405Y-69946269D01*
X62801781Y-69891692D01*
X62794588Y-69822193D01*
X62826110Y-69759839D01*
X62845405Y-69743119D01*
X63031082Y-69613105D01*
X63198105Y-69446082D01*
X63333600Y-69252578D01*
X63433429Y-69038492D01*
X63433432Y-69038486D01*
X63490636Y-68825000D01*
X62593686Y-68825000D01*
X62619493Y-68784844D01*
X62660000Y-68646889D01*
X62660000Y-68503111D01*
X62619493Y-68365156D01*
X62593686Y-68325000D01*
X63490636Y-68325000D01*
X63490635Y-68324999D01*
X63433432Y-68111513D01*
X63431581Y-68106428D01*
X63432722Y-68106012D01*
X63423122Y-68042838D01*
X63451636Y-67979052D01*
X63510109Y-67940807D01*
X63545997Y-67935500D01*
X63905274Y-67935500D01*
X63920868Y-67937474D01*
G37*
%TD.AperFunction*%
%TA.AperFunction,Conductor*%
G36*
X66935000Y-69098500D02*
G01*
X66915315Y-69165539D01*
X66862511Y-69211294D01*
X66811000Y-69222500D01*
X66559000Y-69222500D01*
X66491961Y-69202815D01*
X66446206Y-69150011D01*
X66435000Y-69098500D01*
X66435000Y-68905686D01*
X66446955Y-68917641D01*
X66559852Y-68975165D01*
X66653519Y-68990000D01*
X66716481Y-68990000D01*
X66810148Y-68975165D01*
X66923045Y-68917641D01*
X66935000Y-68905686D01*
X66935000Y-69098500D01*
G37*
%TD.AperFunction*%
%TA.AperFunction,Conductor*%
G36*
X99002539Y-56535185D02*
G01*
X99048294Y-56587989D01*
X99059500Y-56639500D01*
X99059500Y-100840500D01*
X99039815Y-100907539D01*
X98987011Y-100953294D01*
X98935500Y-100964500D01*
X57274500Y-100964500D01*
X57207461Y-100944815D01*
X57161706Y-100892011D01*
X57150500Y-100840500D01*
X57150500Y-94996000D01*
X58484357Y-94996000D01*
X58504884Y-95217535D01*
X58504885Y-95217537D01*
X58565769Y-95431523D01*
X58565775Y-95431538D01*
X58664938Y-95630683D01*
X58664943Y-95630691D01*
X58799020Y-95808238D01*
X58963437Y-95958123D01*
X58963439Y-95958125D01*
X59152595Y-96075245D01*
X59152596Y-96075245D01*
X59152599Y-96075247D01*
X59360060Y-96155618D01*
X59578757Y-96196500D01*
X59578759Y-96196500D01*
X59801241Y-96196500D01*
X59801243Y-96196500D01*
X60019940Y-96155618D01*
X60227401Y-96075247D01*
X60416562Y-95958124D01*
X60580981Y-95808236D01*
X60715058Y-95630689D01*
X60814229Y-95431528D01*
X60875115Y-95217536D01*
X60895643Y-94996000D01*
X61659357Y-94996000D01*
X61679884Y-95217535D01*
X61679885Y-95217537D01*
X61740769Y-95431523D01*
X61740775Y-95431538D01*
X61839938Y-95630683D01*
X61839943Y-95630691D01*
X61974020Y-95808238D01*
X62138437Y-95958123D01*
X62138439Y-95958125D01*
X62327595Y-96075245D01*
X62327596Y-96075245D01*
X62327599Y-96075247D01*
X62535060Y-96155618D01*
X62753757Y-96196500D01*
X62753759Y-96196500D01*
X62976241Y-96196500D01*
X62976243Y-96196500D01*
X63194940Y-96155618D01*
X63402401Y-96075247D01*
X63591562Y-95958124D01*
X63755981Y-95808236D01*
X63890058Y-95630689D01*
X63989229Y-95431528D01*
X64050115Y-95217536D01*
X64070643Y-94996000D01*
X64050115Y-94774464D01*
X63989229Y-94560472D01*
X63922517Y-94426497D01*
X63890061Y-94361316D01*
X63890056Y-94361308D01*
X63755979Y-94183761D01*
X63591562Y-94033876D01*
X63591560Y-94033874D01*
X63402404Y-93916754D01*
X63402398Y-93916752D01*
X63394755Y-93913791D01*
X63194940Y-93836382D01*
X62976243Y-93795500D01*
X62753757Y-93795500D01*
X62535060Y-93836382D01*
X62498437Y-93850570D01*
X62327601Y-93916752D01*
X62327595Y-93916754D01*
X62138439Y-94033874D01*
X62138437Y-94033876D01*
X61974020Y-94183761D01*
X61839943Y-94361308D01*
X61839938Y-94361316D01*
X61740775Y-94560461D01*
X61740769Y-94560476D01*
X61679885Y-94774462D01*
X61679884Y-94774464D01*
X61659357Y-94995999D01*
X61659357Y-94996000D01*
X60895643Y-94996000D01*
X60875115Y-94774464D01*
X60814229Y-94560472D01*
X60747517Y-94426497D01*
X60715061Y-94361316D01*
X60715056Y-94361308D01*
X60580979Y-94183761D01*
X60416562Y-94033876D01*
X60416560Y-94033874D01*
X60227404Y-93916754D01*
X60227398Y-93916752D01*
X60219755Y-93913791D01*
X60019940Y-93836382D01*
X59801243Y-93795500D01*
X59578757Y-93795500D01*
X59360060Y-93836382D01*
X59323437Y-93850570D01*
X59152601Y-93916752D01*
X59152595Y-93916754D01*
X58963439Y-94033874D01*
X58963437Y-94033876D01*
X58799020Y-94183761D01*
X58664943Y-94361308D01*
X58664938Y-94361316D01*
X58565775Y-94560461D01*
X58565769Y-94560476D01*
X58504885Y-94774462D01*
X58504884Y-94774464D01*
X58484357Y-94995999D01*
X58484357Y-94996000D01*
X57150500Y-94996000D01*
X57150500Y-83820000D01*
X58484357Y-83820000D01*
X58504884Y-84041535D01*
X58504885Y-84041537D01*
X58565769Y-84255523D01*
X58565775Y-84255538D01*
X58664938Y-84454683D01*
X58664943Y-84454691D01*
X58799020Y-84632238D01*
X58963437Y-84782123D01*
X58963439Y-84782125D01*
X59152595Y-84899245D01*
X59152596Y-84899245D01*
X59152599Y-84899247D01*
X59360060Y-84979618D01*
X59578757Y-85020500D01*
X59578759Y-85020500D01*
X59801241Y-85020500D01*
X59801243Y-85020500D01*
X60019940Y-84979618D01*
X60227401Y-84899247D01*
X60416562Y-84782124D01*
X60568623Y-84643502D01*
X60580979Y-84632238D01*
X60587274Y-84623903D01*
X60715058Y-84454689D01*
X60814229Y-84255528D01*
X60875115Y-84041536D01*
X60895643Y-83820000D01*
X60889354Y-83752135D01*
X60875115Y-83598464D01*
X60875114Y-83598462D01*
X60865009Y-83562947D01*
X60814229Y-83384472D01*
X60814224Y-83384461D01*
X60715061Y-83185316D01*
X60715056Y-83185308D01*
X60580979Y-83007761D01*
X60416562Y-82857876D01*
X60416560Y-82857874D01*
X60227404Y-82740754D01*
X60227398Y-82740752D01*
X60019940Y-82660382D01*
X59801243Y-82619500D01*
X59578757Y-82619500D01*
X59360060Y-82660382D01*
X59228864Y-82711207D01*
X59152601Y-82740752D01*
X59152595Y-82740754D01*
X58963439Y-82857874D01*
X58963437Y-82857876D01*
X58799020Y-83007761D01*
X58664943Y-83185308D01*
X58664938Y-83185316D01*
X58565775Y-83384461D01*
X58565769Y-83384476D01*
X58504885Y-83598462D01*
X58504884Y-83598464D01*
X58484357Y-83819999D01*
X58484357Y-83820000D01*
X57150500Y-83820000D01*
X57150500Y-71115000D01*
X60804341Y-71115000D01*
X60824936Y-71350403D01*
X60824938Y-71350413D01*
X60886094Y-71578655D01*
X60886096Y-71578659D01*
X60886097Y-71578663D01*
X60964873Y-71747598D01*
X60985965Y-71792830D01*
X60985967Y-71792834D01*
X61045060Y-71877227D01*
X61121501Y-71986396D01*
X61121506Y-71986402D01*
X61243430Y-72108326D01*
X61276915Y-72169649D01*
X61271931Y-72239341D01*
X61230059Y-72295274D01*
X61199083Y-72312189D01*
X61067669Y-72361203D01*
X61067664Y-72361206D01*
X60952455Y-72447452D01*
X60952452Y-72447455D01*
X60866206Y-72562664D01*
X60866202Y-72562671D01*
X60815908Y-72697517D01*
X60809501Y-72757116D01*
X60809500Y-72757135D01*
X60809500Y-74552870D01*
X60809501Y-74552876D01*
X60815908Y-74612483D01*
X60866202Y-74747328D01*
X60866206Y-74747335D01*
X60952452Y-74862544D01*
X60952455Y-74862547D01*
X61067664Y-74948793D01*
X61067671Y-74948797D01*
X61202517Y-74999091D01*
X61202516Y-74999091D01*
X61209444Y-74999835D01*
X61262127Y-75005500D01*
X63057872Y-75005499D01*
X63117483Y-74999091D01*
X63252331Y-74948796D01*
X63367546Y-74862546D01*
X63453796Y-74747331D01*
X63504091Y-74612483D01*
X63510500Y-74552873D01*
X63510499Y-74408835D01*
X63530183Y-74341797D01*
X63582987Y-74296042D01*
X63634632Y-74284836D01*
X63670757Y-74284875D01*
X63686683Y-74286645D01*
X63686705Y-74286414D01*
X63694469Y-74287147D01*
X63694477Y-74287149D01*
X63761525Y-74285041D01*
X63765525Y-74284981D01*
X63792781Y-74285012D01*
X63797188Y-74284459D01*
X63808699Y-74283559D01*
X63852943Y-74282170D01*
X63852946Y-74282169D01*
X63852947Y-74282169D01*
X63859937Y-74280137D01*
X63871871Y-74276670D01*
X63891067Y-74272705D01*
X63910614Y-74270259D01*
X63951778Y-74254013D01*
X63962690Y-74250284D01*
X64005191Y-74237937D01*
X64022163Y-74227899D01*
X64039750Y-74219295D01*
X64058089Y-74212059D01*
X64093922Y-74186083D01*
X64103557Y-74179762D01*
X64141656Y-74157232D01*
X64155599Y-74143288D01*
X64170498Y-74130577D01*
X64186456Y-74119011D01*
X64214703Y-74084941D01*
X64222457Y-74076429D01*
X64737069Y-73561819D01*
X64798392Y-73528334D01*
X64824750Y-73525500D01*
X66719033Y-73525500D01*
X66734681Y-73527227D01*
X66734708Y-73526946D01*
X66742475Y-73527680D01*
X66742476Y-73527679D01*
X66742477Y-73527680D01*
X66809919Y-73525561D01*
X66813813Y-73525500D01*
X66841472Y-73525500D01*
X66841476Y-73525500D01*
X66845474Y-73524994D01*
X66857114Y-73524077D01*
X66900943Y-73522701D01*
X66920272Y-73517084D01*
X66939328Y-73513137D01*
X66959293Y-73510616D01*
X67000055Y-73494476D01*
X67011092Y-73490698D01*
X67053191Y-73478468D01*
X67070515Y-73468221D01*
X67087983Y-73459663D01*
X67106703Y-73452253D01*
X67142177Y-73426478D01*
X67151915Y-73420081D01*
X67189656Y-73397763D01*
X67203897Y-73383520D01*
X67218678Y-73370897D01*
X67234967Y-73359063D01*
X67262904Y-73325290D01*
X67270756Y-73316661D01*
X68793600Y-71793819D01*
X68854923Y-71760334D01*
X68881281Y-71757500D01*
X73092213Y-71757500D01*
X73159252Y-71777185D01*
X73193788Y-71810377D01*
X73304954Y-71969141D01*
X73465856Y-72130043D01*
X73465859Y-72130045D01*
X73465861Y-72130047D01*
X73490207Y-72147094D01*
X73533831Y-72201671D01*
X73541024Y-72271170D01*
X73509502Y-72333524D01*
X73506764Y-72336350D01*
X73084892Y-72758223D01*
X73084855Y-72758262D01*
X73048728Y-72798480D01*
X73048718Y-72798492D01*
X73032076Y-72819143D01*
X73000431Y-72863028D01*
X73000009Y-72863755D01*
X72999688Y-72864058D01*
X72996871Y-72867966D01*
X72996129Y-72867431D01*
X72949294Y-72911815D01*
X72880647Y-72924827D01*
X72815862Y-72898660D01*
X72791239Y-72872549D01*
X72755047Y-72820861D01*
X72755046Y-72820860D01*
X72755044Y-72820857D01*
X72594141Y-72659954D01*
X72407734Y-72529432D01*
X72407732Y-72529431D01*
X72201497Y-72433261D01*
X72201488Y-72433258D01*
X71981697Y-72374366D01*
X71981693Y-72374365D01*
X71981692Y-72374365D01*
X71981691Y-72374364D01*
X71981686Y-72374364D01*
X71755002Y-72354532D01*
X71754998Y-72354532D01*
X71528313Y-72374364D01*
X71528302Y-72374366D01*
X71308511Y-72433258D01*
X71308502Y-72433261D01*
X71102267Y-72529431D01*
X71102265Y-72529432D01*
X70915858Y-72659954D01*
X70754954Y-72820858D01*
X70624432Y-73007265D01*
X70624429Y-73007270D01*
X70617104Y-73022979D01*
X70570929Y-73075417D01*
X70503735Y-73094566D01*
X70436855Y-73074347D01*
X70392341Y-73022973D01*
X70385133Y-73007515D01*
X70385132Y-73007513D01*
X70334025Y-72934526D01*
X69652953Y-73615598D01*
X69640165Y-73534852D01*
X69582641Y-73421955D01*
X69493045Y-73332359D01*
X69380148Y-73274835D01*
X69299401Y-73262046D01*
X69980472Y-72580974D01*
X69907478Y-72529863D01*
X69701331Y-72433735D01*
X69701317Y-72433730D01*
X69481610Y-72374860D01*
X69481599Y-72374858D01*
X69255002Y-72355034D01*
X69254998Y-72355034D01*
X69028400Y-72374858D01*
X69028389Y-72374860D01*
X68808682Y-72433730D01*
X68808673Y-72433734D01*
X68602516Y-72529866D01*
X68602512Y-72529868D01*
X68529526Y-72580973D01*
X68529526Y-72580974D01*
X69210599Y-73262046D01*
X69129852Y-73274835D01*
X69016955Y-73332359D01*
X68927359Y-73421955D01*
X68869835Y-73534852D01*
X68857046Y-73615598D01*
X68175974Y-72934526D01*
X68175973Y-72934526D01*
X68124868Y-73007512D01*
X68124866Y-73007516D01*
X68028734Y-73213673D01*
X68028730Y-73213682D01*
X67969860Y-73433389D01*
X67969858Y-73433400D01*
X67950034Y-73659997D01*
X67950034Y-73660002D01*
X67969858Y-73886599D01*
X67969860Y-73886610D01*
X68028730Y-74106317D01*
X68028735Y-74106331D01*
X68124863Y-74312478D01*
X68175974Y-74385472D01*
X68857046Y-73704400D01*
X68869835Y-73785148D01*
X68927359Y-73898045D01*
X69016955Y-73987641D01*
X69129852Y-74045165D01*
X69210599Y-74057953D01*
X68529526Y-74739025D01*
X68602513Y-74790132D01*
X68602521Y-74790136D01*
X68808668Y-74886264D01*
X68808682Y-74886269D01*
X69028389Y-74945139D01*
X69028400Y-74945141D01*
X69254998Y-74964966D01*
X69255002Y-74964966D01*
X69481599Y-74945141D01*
X69481610Y-74945139D01*
X69701317Y-74886269D01*
X69701331Y-74886264D01*
X69907478Y-74790136D01*
X69980471Y-74739024D01*
X69299400Y-74057953D01*
X69380148Y-74045165D01*
X69493045Y-73987641D01*
X69582641Y-73898045D01*
X69640165Y-73785148D01*
X69652953Y-73704400D01*
X70334024Y-74385471D01*
X70385134Y-74312481D01*
X70392340Y-74297028D01*
X70438511Y-74244587D01*
X70505704Y-74225433D01*
X70572585Y-74245646D01*
X70617105Y-74297022D01*
X70624430Y-74312730D01*
X70624432Y-74312734D01*
X70754954Y-74499141D01*
X70915858Y-74660045D01*
X70915861Y-74660047D01*
X71102266Y-74790568D01*
X71308504Y-74886739D01*
X71528308Y-74945635D01*
X71690230Y-74959801D01*
X71754998Y-74965468D01*
X71755000Y-74965468D01*
X71755002Y-74965468D01*
X71811673Y-74960509D01*
X71981692Y-74945635D01*
X72201496Y-74886739D01*
X72407734Y-74790568D01*
X72594139Y-74660047D01*
X72755047Y-74499139D01*
X72793694Y-74443943D01*
X72848268Y-74400320D01*
X72917766Y-74393126D01*
X72980121Y-74424647D01*
X72995648Y-74443296D01*
X72995999Y-74443034D01*
X72998651Y-74446577D01*
X72998653Y-74446580D01*
X73084877Y-74561761D01*
X73084881Y-74561765D01*
X73084886Y-74561771D01*
X73508528Y-74985412D01*
X73542013Y-75046735D01*
X73537029Y-75116426D01*
X73495158Y-75172360D01*
X73491972Y-75174667D01*
X73455864Y-75199950D01*
X73294951Y-75360862D01*
X73164432Y-75547265D01*
X73164431Y-75547267D01*
X73068261Y-75753502D01*
X73068258Y-75753511D01*
X73009366Y-75973302D01*
X73009364Y-75973313D01*
X72989532Y-76199998D01*
X72989532Y-76200001D01*
X73009364Y-76426686D01*
X73009366Y-76426697D01*
X73068258Y-76646488D01*
X73068260Y-76646492D01*
X73068261Y-76646496D01*
X73075098Y-76661158D01*
X73077401Y-76666097D01*
X73087892Y-76735174D01*
X73059371Y-76798958D01*
X73000894Y-76837197D01*
X72965018Y-76842500D01*
X68099500Y-76842500D01*
X68032461Y-76822815D01*
X67986706Y-76770011D01*
X67975500Y-76718500D01*
X67975499Y-75352129D01*
X67975498Y-75352123D01*
X67975497Y-75352116D01*
X67969091Y-75292517D01*
X67924275Y-75172360D01*
X67918797Y-75157671D01*
X67918793Y-75157664D01*
X67832547Y-75042455D01*
X67832544Y-75042452D01*
X67717335Y-74956206D01*
X67717328Y-74956202D01*
X67582482Y-74905908D01*
X67582483Y-74905908D01*
X67522883Y-74899501D01*
X67522881Y-74899500D01*
X67522873Y-74899500D01*
X67522864Y-74899500D01*
X65827129Y-74899500D01*
X65827123Y-74899501D01*
X65767516Y-74905908D01*
X65632671Y-74956202D01*
X65632664Y-74956206D01*
X65517455Y-75042452D01*
X65517452Y-75042455D01*
X65431206Y-75157664D01*
X65431202Y-75157671D01*
X65380908Y-75292517D01*
X65374501Y-75352116D01*
X65374501Y-75352123D01*
X65374500Y-75352135D01*
X65374500Y-75926718D01*
X65354815Y-75993757D01*
X65338181Y-76014399D01*
X64384953Y-76967626D01*
X64372669Y-76977469D01*
X64372849Y-76977687D01*
X64366837Y-76982660D01*
X64320646Y-77031847D01*
X64317941Y-77034638D01*
X64298379Y-77054200D01*
X64298375Y-77054205D01*
X64295895Y-77057403D01*
X64288317Y-77066274D01*
X64258308Y-77098230D01*
X64258305Y-77098234D01*
X64248606Y-77115877D01*
X64237928Y-77132133D01*
X64225594Y-77148034D01*
X64225589Y-77148042D01*
X64208185Y-77188262D01*
X64203046Y-77198752D01*
X64181927Y-77237167D01*
X64176920Y-77256668D01*
X64170621Y-77275064D01*
X64163893Y-77290612D01*
X64162625Y-77293544D01*
X64162624Y-77293546D01*
X64155769Y-77336831D01*
X64153401Y-77348267D01*
X64142500Y-77390723D01*
X64142500Y-77410858D01*
X64140973Y-77430255D01*
X64137825Y-77450133D01*
X64140649Y-77480001D01*
X64141950Y-77493767D01*
X64142500Y-77505437D01*
X64142500Y-83165066D01*
X64122815Y-83232105D01*
X64070011Y-83277860D01*
X64000853Y-83287804D01*
X63937297Y-83258779D01*
X63907500Y-83220338D01*
X63890061Y-83185316D01*
X63890056Y-83185308D01*
X63755979Y-83007761D01*
X63591562Y-82857876D01*
X63591560Y-82857874D01*
X63402404Y-82740754D01*
X63402398Y-82740752D01*
X63194940Y-82660382D01*
X62976243Y-82619500D01*
X62753757Y-82619500D01*
X62535060Y-82660382D01*
X62403864Y-82711207D01*
X62327601Y-82740752D01*
X62327595Y-82740754D01*
X62138439Y-82857874D01*
X62138437Y-82857876D01*
X61974020Y-83007761D01*
X61839943Y-83185308D01*
X61839938Y-83185316D01*
X61740775Y-83384461D01*
X61740769Y-83384476D01*
X61679885Y-83598462D01*
X61679884Y-83598464D01*
X61659357Y-83819999D01*
X61659357Y-83820000D01*
X61679884Y-84041535D01*
X61679885Y-84041537D01*
X61740769Y-84255523D01*
X61740775Y-84255538D01*
X61839938Y-84454683D01*
X61839943Y-84454691D01*
X61974020Y-84632238D01*
X62138437Y-84782123D01*
X62138439Y-84782125D01*
X62327595Y-84899245D01*
X62327596Y-84899245D01*
X62327599Y-84899247D01*
X62535060Y-84979618D01*
X62753757Y-85020500D01*
X62753759Y-85020500D01*
X62976241Y-85020500D01*
X62976243Y-85020500D01*
X63194940Y-84979618D01*
X63402401Y-84899247D01*
X63591562Y-84782124D01*
X63743623Y-84643502D01*
X63755979Y-84632238D01*
X63762274Y-84623903D01*
X63890058Y-84454689D01*
X63907850Y-84418958D01*
X63948628Y-84337066D01*
X63996131Y-84285828D01*
X64063793Y-84268407D01*
X64130134Y-84290332D01*
X64174089Y-84344644D01*
X64178705Y-84357743D01*
X64189531Y-84395009D01*
X64199777Y-84412334D01*
X64208335Y-84429804D01*
X64215745Y-84448520D01*
X64241511Y-84483983D01*
X64247925Y-84493748D01*
X64270234Y-84531471D01*
X64270240Y-84531479D01*
X64284469Y-84545707D01*
X64297106Y-84560503D01*
X64308937Y-84576786D01*
X64342717Y-84604731D01*
X64351346Y-84612584D01*
X65213805Y-85475043D01*
X65223652Y-85487333D01*
X65223870Y-85487154D01*
X65228838Y-85493159D01*
X65278027Y-85539351D01*
X65280824Y-85542062D01*
X65300388Y-85561626D01*
X65303566Y-85564090D01*
X65312462Y-85571687D01*
X65344416Y-85601695D01*
X65344418Y-85601696D01*
X65362048Y-85611387D01*
X65378316Y-85622072D01*
X65394219Y-85634408D01*
X65430454Y-85650087D01*
X65484162Y-85694776D01*
X65505183Y-85761408D01*
X65493591Y-85816293D01*
X65448260Y-85913506D01*
X65448258Y-85913511D01*
X65389366Y-86133302D01*
X65389364Y-86133313D01*
X65369532Y-86359998D01*
X65369532Y-86360001D01*
X65389364Y-86586686D01*
X65389366Y-86586697D01*
X65448258Y-86806488D01*
X65448261Y-86806497D01*
X65544431Y-87012732D01*
X65544432Y-87012734D01*
X65674954Y-87199141D01*
X65835858Y-87360045D01*
X65835861Y-87360047D01*
X66022266Y-87490568D01*
X66080275Y-87517618D01*
X66132714Y-87563791D01*
X66151866Y-87630984D01*
X66131650Y-87697865D01*
X66080275Y-87742382D01*
X66022267Y-87769431D01*
X66022265Y-87769432D01*
X65835858Y-87899954D01*
X65674954Y-88060858D01*
X65544432Y-88247265D01*
X65544431Y-88247267D01*
X65448261Y-88453502D01*
X65448258Y-88453511D01*
X65389366Y-88673302D01*
X65389364Y-88673313D01*
X65369532Y-88899998D01*
X65369532Y-88900001D01*
X65389364Y-89126686D01*
X65389366Y-89126697D01*
X65448258Y-89346488D01*
X65448261Y-89346497D01*
X65544431Y-89552732D01*
X65544432Y-89552734D01*
X65674954Y-89739141D01*
X65835858Y-89900045D01*
X65835861Y-89900047D01*
X66022266Y-90030568D01*
X66080865Y-90057893D01*
X66133305Y-90104065D01*
X66152457Y-90171258D01*
X66132242Y-90238139D01*
X66080867Y-90282657D01*
X66022515Y-90309867D01*
X65836179Y-90440342D01*
X65675342Y-90601179D01*
X65544865Y-90787517D01*
X65448734Y-90993673D01*
X65448730Y-90993682D01*
X65396127Y-91189999D01*
X65396128Y-91190000D01*
X66359314Y-91190000D01*
X66347359Y-91201955D01*
X66289835Y-91314852D01*
X66270014Y-91440000D01*
X66289835Y-91565148D01*
X66347359Y-91678045D01*
X66359314Y-91690000D01*
X65396128Y-91690000D01*
X65448730Y-91886317D01*
X65448734Y-91886326D01*
X65544865Y-92092482D01*
X65675342Y-92278820D01*
X65836179Y-92439657D01*
X66022518Y-92570134D01*
X66022520Y-92570135D01*
X66080865Y-92597342D01*
X66133305Y-92643514D01*
X66152457Y-92710707D01*
X66132242Y-92777589D01*
X66080867Y-92822105D01*
X66022268Y-92849431D01*
X66022264Y-92849433D01*
X65835858Y-92979954D01*
X65674954Y-93140858D01*
X65544432Y-93327265D01*
X65544431Y-93327267D01*
X65448261Y-93533502D01*
X65448258Y-93533511D01*
X65389366Y-93753302D01*
X65389364Y-93753313D01*
X65369532Y-93979998D01*
X65369532Y-93980001D01*
X65389364Y-94206686D01*
X65389366Y-94206697D01*
X65448258Y-94426488D01*
X65448261Y-94426497D01*
X65544431Y-94632732D01*
X65544432Y-94632734D01*
X65674954Y-94819141D01*
X65835858Y-94980045D01*
X65835861Y-94980047D01*
X66022266Y-95110568D01*
X66080275Y-95137618D01*
X66132714Y-95183791D01*
X66151866Y-95250984D01*
X66131650Y-95317865D01*
X66080275Y-95362382D01*
X66022267Y-95389431D01*
X66022265Y-95389432D01*
X65835858Y-95519954D01*
X65674954Y-95680858D01*
X65544432Y-95867265D01*
X65544431Y-95867267D01*
X65448261Y-96073502D01*
X65448258Y-96073511D01*
X65389366Y-96293302D01*
X65389364Y-96293313D01*
X65369532Y-96519998D01*
X65369532Y-96520001D01*
X65389364Y-96746686D01*
X65389366Y-96746697D01*
X65448258Y-96966488D01*
X65448261Y-96966497D01*
X65544431Y-97172732D01*
X65544432Y-97172734D01*
X65674954Y-97359141D01*
X65835858Y-97520045D01*
X65835861Y-97520047D01*
X66022266Y-97650568D01*
X66080865Y-97677893D01*
X66133305Y-97724065D01*
X66152457Y-97791258D01*
X66132242Y-97858139D01*
X66080867Y-97902657D01*
X66022515Y-97929867D01*
X65836179Y-98060342D01*
X65675342Y-98221179D01*
X65544865Y-98407517D01*
X65448734Y-98613673D01*
X65448730Y-98613682D01*
X65396127Y-98809999D01*
X65396128Y-98810000D01*
X66359314Y-98810000D01*
X66347359Y-98821955D01*
X66289835Y-98934852D01*
X66270014Y-99060000D01*
X66289835Y-99185148D01*
X66347359Y-99298045D01*
X66359314Y-99310000D01*
X65396128Y-99310000D01*
X65448730Y-99506317D01*
X65448734Y-99506326D01*
X65544865Y-99712482D01*
X65675342Y-99898820D01*
X65836179Y-100059657D01*
X66022517Y-100190134D01*
X66228673Y-100286265D01*
X66228682Y-100286269D01*
X66424999Y-100338872D01*
X66425000Y-100338871D01*
X66425000Y-99375686D01*
X66436955Y-99387641D01*
X66549852Y-99445165D01*
X66643519Y-99460000D01*
X66706481Y-99460000D01*
X66800148Y-99445165D01*
X66913045Y-99387641D01*
X66925000Y-99375686D01*
X66925000Y-100338872D01*
X67121317Y-100286269D01*
X67121326Y-100286265D01*
X67327482Y-100190134D01*
X67513820Y-100059657D01*
X67674657Y-99898820D01*
X67805134Y-99712482D01*
X67901265Y-99506326D01*
X67901269Y-99506317D01*
X67953872Y-99310000D01*
X66990686Y-99310000D01*
X67002641Y-99298045D01*
X67060165Y-99185148D01*
X67079986Y-99060000D01*
X67060165Y-98934852D01*
X67002641Y-98821955D01*
X66990686Y-98810000D01*
X67953872Y-98810000D01*
X67953872Y-98809999D01*
X67901269Y-98613682D01*
X67901265Y-98613673D01*
X67805134Y-98407517D01*
X67674657Y-98221179D01*
X67513820Y-98060342D01*
X67327482Y-97929865D01*
X67269133Y-97902657D01*
X67216694Y-97856484D01*
X67197542Y-97789291D01*
X67217758Y-97722410D01*
X67269129Y-97677895D01*
X67327734Y-97650568D01*
X67514139Y-97520047D01*
X67675047Y-97359139D01*
X67805568Y-97172734D01*
X67901739Y-96966496D01*
X67960635Y-96746692D01*
X67980468Y-96520000D01*
X67960635Y-96293308D01*
X67902206Y-96075247D01*
X67901741Y-96073511D01*
X67901738Y-96073502D01*
X67805568Y-95867266D01*
X67675047Y-95680861D01*
X67675045Y-95680858D01*
X67514141Y-95519954D01*
X67327734Y-95389432D01*
X67327728Y-95389429D01*
X67269725Y-95362382D01*
X67217285Y-95316210D01*
X67198133Y-95249017D01*
X67218348Y-95182135D01*
X67269725Y-95137618D01*
X67327734Y-95110568D01*
X67514139Y-94980047D01*
X67675047Y-94819139D01*
X67805568Y-94632734D01*
X67901739Y-94426496D01*
X67960635Y-94206692D01*
X67980468Y-93980000D01*
X67960635Y-93753308D01*
X67901739Y-93533504D01*
X67805568Y-93327266D01*
X67675047Y-93140861D01*
X67675045Y-93140858D01*
X67514141Y-92979954D01*
X67327734Y-92849432D01*
X67327732Y-92849431D01*
X67269725Y-92822382D01*
X67269132Y-92822105D01*
X67216694Y-92775934D01*
X67197542Y-92708740D01*
X67217758Y-92641859D01*
X67269134Y-92597341D01*
X67327484Y-92570132D01*
X67513820Y-92439657D01*
X67674657Y-92278820D01*
X67805134Y-92092482D01*
X67901265Y-91886326D01*
X67901269Y-91886317D01*
X67953872Y-91690000D01*
X66990686Y-91690000D01*
X67002641Y-91678045D01*
X67060165Y-91565148D01*
X67079986Y-91440000D01*
X67060165Y-91314852D01*
X67002641Y-91201955D01*
X66990686Y-91190000D01*
X67953872Y-91190000D01*
X67953872Y-91189999D01*
X67901269Y-90993682D01*
X67901265Y-90993673D01*
X67805134Y-90787517D01*
X67674657Y-90601179D01*
X67513820Y-90440342D01*
X67327482Y-90309865D01*
X67269133Y-90282657D01*
X67216694Y-90236484D01*
X67197542Y-90169291D01*
X67217758Y-90102410D01*
X67269129Y-90057895D01*
X67327734Y-90030568D01*
X67514139Y-89900047D01*
X67675047Y-89739139D01*
X67805568Y-89552734D01*
X67901739Y-89346496D01*
X67960635Y-89126692D01*
X67980468Y-88900000D01*
X67979143Y-88884860D01*
X67960635Y-88673313D01*
X67960635Y-88673308D01*
X67901739Y-88453504D01*
X67805568Y-88247266D01*
X67675047Y-88060861D01*
X67675045Y-88060858D01*
X67514141Y-87899954D01*
X67327734Y-87769432D01*
X67327728Y-87769429D01*
X67269725Y-87742382D01*
X67217285Y-87696210D01*
X67198133Y-87629017D01*
X67218348Y-87562135D01*
X67269725Y-87517618D01*
X67327734Y-87490568D01*
X67514139Y-87360047D01*
X67675047Y-87199139D01*
X67805568Y-87012734D01*
X67901739Y-86806496D01*
X67960635Y-86586692D01*
X67980468Y-86360000D01*
X67960635Y-86133308D01*
X67901739Y-85913504D01*
X67892599Y-85893903D01*
X67882108Y-85824826D01*
X67910629Y-85761042D01*
X67969106Y-85722803D01*
X68004982Y-85717500D01*
X72965018Y-85717500D01*
X73032057Y-85737185D01*
X73077812Y-85789989D01*
X73087756Y-85859147D01*
X73077401Y-85893903D01*
X73068262Y-85913502D01*
X73068258Y-85913511D01*
X73009366Y-86133302D01*
X73009364Y-86133313D01*
X72989532Y-86359998D01*
X72989532Y-86360001D01*
X73009364Y-86586686D01*
X73009366Y-86586697D01*
X73068258Y-86806488D01*
X73068261Y-86806497D01*
X73164431Y-87012732D01*
X73164432Y-87012734D01*
X73294954Y-87199141D01*
X73455858Y-87360045D01*
X73455861Y-87360047D01*
X73642266Y-87490568D01*
X73700275Y-87517618D01*
X73752714Y-87563791D01*
X73771866Y-87630984D01*
X73751650Y-87697865D01*
X73700275Y-87742382D01*
X73642267Y-87769431D01*
X73642265Y-87769432D01*
X73455858Y-87899954D01*
X73294954Y-88060858D01*
X73164432Y-88247265D01*
X73164431Y-88247267D01*
X73068261Y-88453502D01*
X73068258Y-88453511D01*
X73009366Y-88673302D01*
X73009364Y-88673313D01*
X72989532Y-88899998D01*
X72989532Y-88900001D01*
X73009364Y-89126686D01*
X73009366Y-89126697D01*
X73068258Y-89346488D01*
X73068261Y-89346497D01*
X73164431Y-89552732D01*
X73164432Y-89552734D01*
X73294954Y-89739141D01*
X73455858Y-89900045D01*
X73455861Y-89900047D01*
X73642266Y-90030568D01*
X73700275Y-90057618D01*
X73752714Y-90103791D01*
X73771866Y-90170984D01*
X73751650Y-90237865D01*
X73700275Y-90282382D01*
X73642267Y-90309431D01*
X73642265Y-90309432D01*
X73455858Y-90439954D01*
X73294954Y-90600858D01*
X73164432Y-90787265D01*
X73164431Y-90787267D01*
X73068261Y-90993502D01*
X73068258Y-90993511D01*
X73009366Y-91213302D01*
X73009364Y-91213313D01*
X72989532Y-91439998D01*
X72989532Y-91440001D01*
X73009364Y-91666686D01*
X73009366Y-91666697D01*
X73068258Y-91886488D01*
X73068261Y-91886497D01*
X73164431Y-92092732D01*
X73164432Y-92092734D01*
X73294954Y-92279141D01*
X73455858Y-92440045D01*
X73455861Y-92440047D01*
X73642266Y-92570568D01*
X73699681Y-92597341D01*
X73700275Y-92597618D01*
X73752714Y-92643791D01*
X73771866Y-92710984D01*
X73751650Y-92777865D01*
X73700275Y-92822382D01*
X73642267Y-92849431D01*
X73642265Y-92849432D01*
X73455858Y-92979954D01*
X73294954Y-93140858D01*
X73164432Y-93327265D01*
X73164431Y-93327267D01*
X73068261Y-93533502D01*
X73068258Y-93533511D01*
X73009366Y-93753302D01*
X73009364Y-93753313D01*
X72989532Y-93979998D01*
X72989532Y-93980001D01*
X73009364Y-94206686D01*
X73009366Y-94206697D01*
X73068258Y-94426488D01*
X73068261Y-94426497D01*
X73164431Y-94632732D01*
X73164432Y-94632734D01*
X73294954Y-94819141D01*
X73455858Y-94980045D01*
X73455861Y-94980047D01*
X73642266Y-95110568D01*
X73700275Y-95137618D01*
X73752714Y-95183791D01*
X73771866Y-95250984D01*
X73751650Y-95317865D01*
X73700275Y-95362382D01*
X73642267Y-95389431D01*
X73642265Y-95389432D01*
X73455858Y-95519954D01*
X73294954Y-95680858D01*
X73164432Y-95867265D01*
X73164431Y-95867267D01*
X73068261Y-96073502D01*
X73068258Y-96073511D01*
X73009366Y-96293302D01*
X73009364Y-96293313D01*
X72989532Y-96519998D01*
X72989532Y-96520001D01*
X73009364Y-96746686D01*
X73009366Y-96746697D01*
X73068258Y-96966488D01*
X73068261Y-96966497D01*
X73164431Y-97172732D01*
X73164432Y-97172734D01*
X73294954Y-97359141D01*
X73455858Y-97520045D01*
X73455861Y-97520047D01*
X73642266Y-97650568D01*
X73694343Y-97674852D01*
X73700275Y-97677618D01*
X73752714Y-97723791D01*
X73771866Y-97790984D01*
X73751650Y-97857865D01*
X73700275Y-97902382D01*
X73642267Y-97929431D01*
X73642265Y-97929432D01*
X73455858Y-98059954D01*
X73294954Y-98220858D01*
X73164432Y-98407265D01*
X73164431Y-98407267D01*
X73068261Y-98613502D01*
X73068258Y-98613511D01*
X73009366Y-98833302D01*
X73009364Y-98833313D01*
X72989532Y-99059998D01*
X72989532Y-99060001D01*
X73009364Y-99286686D01*
X73009366Y-99286697D01*
X73068258Y-99506488D01*
X73068261Y-99506497D01*
X73164431Y-99712732D01*
X73164432Y-99712734D01*
X73294954Y-99899141D01*
X73455858Y-100060045D01*
X73455861Y-100060047D01*
X73642266Y-100190568D01*
X73848504Y-100286739D01*
X74068308Y-100345635D01*
X74230230Y-100359801D01*
X74294998Y-100365468D01*
X74295000Y-100365468D01*
X74295002Y-100365468D01*
X74351673Y-100360509D01*
X74521692Y-100345635D01*
X74741496Y-100286739D01*
X74947734Y-100190568D01*
X75134139Y-100060047D01*
X75295047Y-99899139D01*
X75425568Y-99712734D01*
X75521739Y-99506496D01*
X75580635Y-99286692D01*
X75600468Y-99060000D01*
X75580635Y-98833308D01*
X75521739Y-98613504D01*
X75425568Y-98407266D01*
X75295047Y-98220861D01*
X75295045Y-98220858D01*
X75134141Y-98059954D01*
X74947734Y-97929432D01*
X74947728Y-97929429D01*
X74889725Y-97902382D01*
X74837285Y-97856210D01*
X74818133Y-97789017D01*
X74838348Y-97722135D01*
X74889725Y-97677618D01*
X74895657Y-97674852D01*
X74947734Y-97650568D01*
X75134139Y-97520047D01*
X75295047Y-97359139D01*
X75425568Y-97172734D01*
X75521739Y-96966496D01*
X75580635Y-96746692D01*
X75600468Y-96520000D01*
X75580635Y-96293308D01*
X75522206Y-96075247D01*
X75521741Y-96073511D01*
X75521738Y-96073502D01*
X75425568Y-95867266D01*
X75295047Y-95680861D01*
X75295045Y-95680858D01*
X75134141Y-95519954D01*
X74947734Y-95389432D01*
X74947728Y-95389429D01*
X74889725Y-95362382D01*
X74837285Y-95316210D01*
X74818133Y-95249017D01*
X74838348Y-95182135D01*
X74889725Y-95137618D01*
X74947734Y-95110568D01*
X75134139Y-94980047D01*
X75295047Y-94819139D01*
X75425568Y-94632734D01*
X75521739Y-94426496D01*
X75580635Y-94206692D01*
X75600468Y-93980000D01*
X75580635Y-93753308D01*
X75521739Y-93533504D01*
X75425568Y-93327266D01*
X75295047Y-93140861D01*
X75295045Y-93140858D01*
X75134141Y-92979954D01*
X74947734Y-92849432D01*
X74947728Y-92849429D01*
X74889725Y-92822382D01*
X74837285Y-92776210D01*
X74818133Y-92709017D01*
X74838348Y-92642135D01*
X74889725Y-92597618D01*
X74890319Y-92597341D01*
X74947734Y-92570568D01*
X75134139Y-92440047D01*
X75295047Y-92279139D01*
X75425568Y-92092734D01*
X75521739Y-91886496D01*
X75580635Y-91666692D01*
X75600468Y-91440000D01*
X75580635Y-91213308D01*
X75521739Y-90993504D01*
X75425568Y-90787266D01*
X75295047Y-90600861D01*
X75295045Y-90600858D01*
X75134141Y-90439954D01*
X74947734Y-90309432D01*
X74947728Y-90309429D01*
X74889725Y-90282382D01*
X74837285Y-90236210D01*
X74818133Y-90169017D01*
X74838348Y-90102135D01*
X74889725Y-90057618D01*
X74947734Y-90030568D01*
X75134139Y-89900047D01*
X75295047Y-89739139D01*
X75425568Y-89552734D01*
X75521739Y-89346496D01*
X75580635Y-89126692D01*
X75600468Y-88900000D01*
X75599143Y-88884860D01*
X75580635Y-88673313D01*
X75580635Y-88673308D01*
X75521739Y-88453504D01*
X75425568Y-88247266D01*
X75295047Y-88060861D01*
X75295045Y-88060858D01*
X75134141Y-87899954D01*
X74947734Y-87769432D01*
X74947728Y-87769429D01*
X74889725Y-87742382D01*
X74837285Y-87696210D01*
X74818133Y-87629017D01*
X74838348Y-87562135D01*
X74889725Y-87517618D01*
X74947734Y-87490568D01*
X75134139Y-87360047D01*
X75295047Y-87199139D01*
X75425568Y-87012734D01*
X75521739Y-86806496D01*
X75580635Y-86586692D01*
X75600468Y-86360000D01*
X75596880Y-86318995D01*
X75610646Y-86250498D01*
X75659260Y-86200314D01*
X75727288Y-86184380D01*
X75793132Y-86207754D01*
X75808089Y-86220508D01*
X76332624Y-86745043D01*
X76342471Y-86757333D01*
X76342689Y-86757154D01*
X76347657Y-86763159D01*
X76347659Y-86763161D01*
X76347660Y-86763162D01*
X76373358Y-86787294D01*
X76396846Y-86809351D01*
X76399643Y-86812062D01*
X76419207Y-86831626D01*
X76422385Y-86834090D01*
X76431281Y-86841687D01*
X76463235Y-86871695D01*
X76463237Y-86871696D01*
X76480867Y-86881387D01*
X76497135Y-86892072D01*
X76513038Y-86904408D01*
X76513040Y-86904409D01*
X76513042Y-86904410D01*
X76532942Y-86913021D01*
X76553260Y-86921813D01*
X76563749Y-86926951D01*
X76602166Y-86948072D01*
X76621667Y-86953079D01*
X76640061Y-86959376D01*
X76658541Y-86967373D01*
X76701841Y-86974230D01*
X76713248Y-86976592D01*
X76755728Y-86987500D01*
X76775859Y-86987500D01*
X76795256Y-86989026D01*
X76815133Y-86992175D01*
X76855208Y-86988386D01*
X76858770Y-86988050D01*
X76870439Y-86987500D01*
X78045018Y-86987500D01*
X78112057Y-87007185D01*
X78157812Y-87059989D01*
X78167756Y-87129147D01*
X78157401Y-87163903D01*
X78148262Y-87183502D01*
X78148258Y-87183511D01*
X78089366Y-87403302D01*
X78089364Y-87403313D01*
X78069532Y-87629998D01*
X78069532Y-87630001D01*
X78089364Y-87856686D01*
X78089366Y-87856697D01*
X78148258Y-88076488D01*
X78148261Y-88076497D01*
X78244431Y-88282732D01*
X78244432Y-88282734D01*
X78374954Y-88469141D01*
X78535858Y-88630045D01*
X78535861Y-88630047D01*
X78722266Y-88760568D01*
X78780275Y-88787618D01*
X78832714Y-88833791D01*
X78851866Y-88900984D01*
X78831650Y-88967865D01*
X78780275Y-89012382D01*
X78722267Y-89039431D01*
X78722265Y-89039432D01*
X78535858Y-89169954D01*
X78374954Y-89330858D01*
X78244432Y-89517265D01*
X78244431Y-89517267D01*
X78148261Y-89723502D01*
X78148258Y-89723511D01*
X78089366Y-89943302D01*
X78089364Y-89943313D01*
X78069532Y-90169998D01*
X78069532Y-90170001D01*
X78089364Y-90396686D01*
X78089366Y-90396697D01*
X78148258Y-90616488D01*
X78148261Y-90616497D01*
X78244431Y-90822732D01*
X78244432Y-90822734D01*
X78374954Y-91009141D01*
X78535858Y-91170045D01*
X78535861Y-91170047D01*
X78722266Y-91300568D01*
X78780275Y-91327618D01*
X78832714Y-91373791D01*
X78851866Y-91440984D01*
X78831650Y-91507865D01*
X78780275Y-91552382D01*
X78722267Y-91579431D01*
X78722265Y-91579432D01*
X78535858Y-91709954D01*
X78374954Y-91870858D01*
X78244432Y-92057265D01*
X78244431Y-92057267D01*
X78148261Y-92263502D01*
X78148258Y-92263511D01*
X78089366Y-92483302D01*
X78089364Y-92483313D01*
X78069532Y-92709998D01*
X78069532Y-92710001D01*
X78089364Y-92936686D01*
X78089366Y-92936697D01*
X78148258Y-93156488D01*
X78148261Y-93156497D01*
X78244431Y-93362732D01*
X78244432Y-93362734D01*
X78374954Y-93549141D01*
X78535858Y-93710045D01*
X78535861Y-93710047D01*
X78722266Y-93840568D01*
X78780275Y-93867618D01*
X78832714Y-93913791D01*
X78851866Y-93980984D01*
X78831650Y-94047865D01*
X78780275Y-94092382D01*
X78722267Y-94119431D01*
X78722265Y-94119432D01*
X78535858Y-94249954D01*
X78374954Y-94410858D01*
X78244432Y-94597265D01*
X78244431Y-94597267D01*
X78148261Y-94803502D01*
X78148258Y-94803511D01*
X78089366Y-95023302D01*
X78089364Y-95023313D01*
X78069532Y-95249998D01*
X78069532Y-95250001D01*
X78089364Y-95476686D01*
X78089366Y-95476697D01*
X78148258Y-95696488D01*
X78148261Y-95696497D01*
X78244431Y-95902732D01*
X78244432Y-95902734D01*
X78374954Y-96089141D01*
X78535858Y-96250045D01*
X78535861Y-96250047D01*
X78722266Y-96380568D01*
X78780865Y-96407893D01*
X78833305Y-96454065D01*
X78852457Y-96521258D01*
X78832242Y-96588139D01*
X78780867Y-96632657D01*
X78722515Y-96659867D01*
X78536179Y-96790342D01*
X78375342Y-96951179D01*
X78244865Y-97137517D01*
X78148734Y-97343673D01*
X78148730Y-97343682D01*
X78096127Y-97539999D01*
X78096128Y-97540000D01*
X79059314Y-97540000D01*
X79047359Y-97551955D01*
X78989835Y-97664852D01*
X78970014Y-97790000D01*
X78989835Y-97915148D01*
X79047359Y-98028045D01*
X79059314Y-98040000D01*
X78096128Y-98040000D01*
X78148730Y-98236317D01*
X78148734Y-98236326D01*
X78244865Y-98442482D01*
X78375342Y-98628820D01*
X78536179Y-98789657D01*
X78722517Y-98920134D01*
X78928673Y-99016265D01*
X78928682Y-99016269D01*
X79124999Y-99068872D01*
X79125000Y-99068871D01*
X79125000Y-98105686D01*
X79136955Y-98117641D01*
X79249852Y-98175165D01*
X79343519Y-98190000D01*
X79406481Y-98190000D01*
X79500148Y-98175165D01*
X79613045Y-98117641D01*
X79625000Y-98105686D01*
X79625000Y-99068872D01*
X79821317Y-99016269D01*
X79821326Y-99016265D01*
X80027482Y-98920134D01*
X80213820Y-98789657D01*
X80374657Y-98628820D01*
X80505132Y-98442484D01*
X80527785Y-98393905D01*
X80573957Y-98341465D01*
X80641151Y-98322313D01*
X80708032Y-98342528D01*
X80752550Y-98393904D01*
X80779865Y-98452482D01*
X80910342Y-98638820D01*
X81071179Y-98799657D01*
X81257517Y-98930134D01*
X81463673Y-99026265D01*
X81463682Y-99026269D01*
X81659999Y-99078872D01*
X81660000Y-99078871D01*
X81660000Y-98115686D01*
X81671955Y-98127641D01*
X81784852Y-98185165D01*
X81878519Y-98200000D01*
X81941481Y-98200000D01*
X82035148Y-98185165D01*
X82148045Y-98127641D01*
X82160000Y-98115686D01*
X82160000Y-99078872D01*
X82356317Y-99026269D01*
X82356326Y-99026265D01*
X82562482Y-98930134D01*
X82748820Y-98799657D01*
X82909657Y-98638820D01*
X83040134Y-98452482D01*
X83136265Y-98246326D01*
X83136269Y-98246317D01*
X83188872Y-98050000D01*
X82225686Y-98050000D01*
X82237641Y-98038045D01*
X82295165Y-97925148D01*
X82314986Y-97800000D01*
X82295165Y-97674852D01*
X82237641Y-97561955D01*
X82225686Y-97550000D01*
X83188872Y-97550000D01*
X83188872Y-97549999D01*
X83136269Y-97353682D01*
X83136265Y-97353673D01*
X83040134Y-97147517D01*
X82909657Y-96961179D01*
X82748820Y-96800342D01*
X82562482Y-96669865D01*
X82504133Y-96642657D01*
X82451694Y-96596484D01*
X82432542Y-96529291D01*
X82452758Y-96462410D01*
X82504129Y-96417895D01*
X82562734Y-96390568D01*
X82749139Y-96260047D01*
X82910047Y-96099139D01*
X83040568Y-95912734D01*
X83136739Y-95706496D01*
X83195635Y-95486692D01*
X83215468Y-95260000D01*
X83195635Y-95033308D01*
X83150916Y-94866415D01*
X83136741Y-94813511D01*
X83136738Y-94813502D01*
X83096170Y-94726504D01*
X83040568Y-94607266D01*
X82910047Y-94420861D01*
X82910045Y-94420858D01*
X82749141Y-94259954D01*
X82562734Y-94129432D01*
X82562728Y-94129429D01*
X82504725Y-94102382D01*
X82452285Y-94056210D01*
X82433133Y-93989017D01*
X82453348Y-93922135D01*
X82504725Y-93877618D01*
X82562734Y-93850568D01*
X82749139Y-93720047D01*
X82910047Y-93559139D01*
X83040568Y-93372734D01*
X83136739Y-93166496D01*
X83195635Y-92946692D01*
X83215468Y-92720000D01*
X83195635Y-92493308D01*
X83150916Y-92326415D01*
X83136741Y-92273511D01*
X83136738Y-92273502D01*
X83096170Y-92186504D01*
X83040568Y-92067266D01*
X82910047Y-91880861D01*
X82910045Y-91880858D01*
X82749141Y-91719954D01*
X82562734Y-91589432D01*
X82562728Y-91589429D01*
X82504725Y-91562382D01*
X82452285Y-91516210D01*
X82433133Y-91449017D01*
X82453348Y-91382135D01*
X82504725Y-91337618D01*
X82562734Y-91310568D01*
X82749139Y-91180047D01*
X82910047Y-91019139D01*
X83040568Y-90832734D01*
X83136739Y-90626496D01*
X83195635Y-90406692D01*
X83215468Y-90180000D01*
X83214593Y-90170002D01*
X85710034Y-90170002D01*
X85729858Y-90396599D01*
X85729860Y-90396610D01*
X85788730Y-90616317D01*
X85788735Y-90616331D01*
X85884863Y-90822478D01*
X85935974Y-90895472D01*
X86617046Y-90214400D01*
X86629835Y-90295148D01*
X86687359Y-90408045D01*
X86776955Y-90497641D01*
X86889852Y-90555165D01*
X86970599Y-90567953D01*
X86289526Y-91249025D01*
X86362513Y-91300132D01*
X86362521Y-91300136D01*
X86568668Y-91396264D01*
X86568682Y-91396269D01*
X86788389Y-91455139D01*
X86788400Y-91455141D01*
X87014998Y-91474966D01*
X87015002Y-91474966D01*
X87241599Y-91455141D01*
X87241610Y-91455139D01*
X87461317Y-91396269D01*
X87461331Y-91396264D01*
X87667478Y-91300136D01*
X87740471Y-91249024D01*
X87059400Y-90567953D01*
X87140148Y-90555165D01*
X87253045Y-90497641D01*
X87342641Y-90408045D01*
X87400165Y-90295148D01*
X87412953Y-90214400D01*
X88094024Y-90895471D01*
X88145134Y-90822481D01*
X88152340Y-90807028D01*
X88198511Y-90754587D01*
X88265704Y-90735433D01*
X88332585Y-90755646D01*
X88377105Y-90807022D01*
X88384430Y-90822730D01*
X88384432Y-90822734D01*
X88514954Y-91009141D01*
X88675858Y-91170045D01*
X88675861Y-91170047D01*
X88862266Y-91300568D01*
X89068504Y-91396739D01*
X89288308Y-91455635D01*
X89450230Y-91469801D01*
X89514998Y-91475468D01*
X89515000Y-91475468D01*
X89515002Y-91475468D01*
X89571673Y-91470509D01*
X89741692Y-91455635D01*
X89961496Y-91396739D01*
X90167734Y-91300568D01*
X90354139Y-91170047D01*
X90515047Y-91009139D01*
X90645568Y-90822734D01*
X90741739Y-90616496D01*
X90800635Y-90396692D01*
X90820468Y-90170000D01*
X90800635Y-89943308D01*
X90744420Y-89733511D01*
X90741741Y-89723511D01*
X90741738Y-89723502D01*
X90696903Y-89627353D01*
X90645568Y-89517266D01*
X90515047Y-89330861D01*
X90515045Y-89330858D01*
X90354141Y-89169954D01*
X90167734Y-89039432D01*
X90167732Y-89039431D01*
X89961497Y-88943261D01*
X89961488Y-88943258D01*
X89741697Y-88884366D01*
X89741693Y-88884365D01*
X89741692Y-88884365D01*
X89741691Y-88884364D01*
X89741686Y-88884364D01*
X89515002Y-88864532D01*
X89514998Y-88864532D01*
X89288313Y-88884364D01*
X89288302Y-88884366D01*
X89068511Y-88943258D01*
X89068502Y-88943261D01*
X88862267Y-89039431D01*
X88862265Y-89039432D01*
X88675858Y-89169954D01*
X88514954Y-89330858D01*
X88384432Y-89517265D01*
X88384429Y-89517270D01*
X88377104Y-89532979D01*
X88330929Y-89585417D01*
X88263735Y-89604566D01*
X88196855Y-89584347D01*
X88152341Y-89532973D01*
X88145133Y-89517515D01*
X88145132Y-89517513D01*
X88094025Y-89444526D01*
X87412953Y-90125598D01*
X87400165Y-90044852D01*
X87342641Y-89931955D01*
X87253045Y-89842359D01*
X87140148Y-89784835D01*
X87059401Y-89772046D01*
X87740472Y-89090974D01*
X87667478Y-89039863D01*
X87461331Y-88943735D01*
X87461317Y-88943730D01*
X87241610Y-88884860D01*
X87241599Y-88884858D01*
X87015002Y-88865034D01*
X87014998Y-88865034D01*
X86788400Y-88884858D01*
X86788389Y-88884860D01*
X86568682Y-88943730D01*
X86568673Y-88943734D01*
X86362516Y-89039866D01*
X86362512Y-89039868D01*
X86289526Y-89090973D01*
X86289526Y-89090974D01*
X86970599Y-89772046D01*
X86889852Y-89784835D01*
X86776955Y-89842359D01*
X86687359Y-89931955D01*
X86629835Y-90044852D01*
X86617046Y-90125598D01*
X85935974Y-89444526D01*
X85935973Y-89444526D01*
X85884868Y-89517512D01*
X85884866Y-89517516D01*
X85788734Y-89723673D01*
X85788730Y-89723682D01*
X85729860Y-89943389D01*
X85729858Y-89943400D01*
X85710034Y-90169997D01*
X85710034Y-90170002D01*
X83214593Y-90170002D01*
X83195635Y-89953308D01*
X83146518Y-89770000D01*
X83136741Y-89733511D01*
X83136738Y-89733502D01*
X83096170Y-89646504D01*
X83040568Y-89527266D01*
X82910047Y-89340861D01*
X82910045Y-89340858D01*
X82749141Y-89179954D01*
X82562734Y-89049432D01*
X82562728Y-89049429D01*
X82504725Y-89022382D01*
X82452285Y-88976210D01*
X82433133Y-88909017D01*
X82453348Y-88842135D01*
X82504725Y-88797618D01*
X82562734Y-88770568D01*
X82749139Y-88640047D01*
X82910047Y-88479139D01*
X83040568Y-88292734D01*
X83072725Y-88223772D01*
X83118897Y-88171333D01*
X83186090Y-88152181D01*
X83252972Y-88172397D01*
X83297489Y-88223772D01*
X83324866Y-88282482D01*
X83455342Y-88468820D01*
X83616179Y-88629657D01*
X83802517Y-88760134D01*
X84008673Y-88856265D01*
X84008682Y-88856269D01*
X84204999Y-88908872D01*
X84205000Y-88908871D01*
X84205000Y-87945686D01*
X84216955Y-87957641D01*
X84329852Y-88015165D01*
X84423519Y-88030000D01*
X84486481Y-88030000D01*
X84580148Y-88015165D01*
X84693045Y-87957641D01*
X84705000Y-87945686D01*
X84705000Y-88908872D01*
X84901317Y-88856269D01*
X84901326Y-88856265D01*
X85107482Y-88760134D01*
X85293820Y-88629657D01*
X85454657Y-88468820D01*
X85585134Y-88282482D01*
X85681265Y-88076326D01*
X85681269Y-88076317D01*
X85733872Y-87880000D01*
X84770686Y-87880000D01*
X84782641Y-87868045D01*
X84840165Y-87755148D01*
X84859986Y-87630000D01*
X84840165Y-87504852D01*
X84782641Y-87391955D01*
X84770686Y-87380000D01*
X85733872Y-87380000D01*
X85733872Y-87379999D01*
X85681269Y-87183682D01*
X85681264Y-87183668D01*
X85672048Y-87163904D01*
X85661556Y-87094827D01*
X85690076Y-87031043D01*
X85748553Y-86992804D01*
X85784430Y-86987500D01*
X86277033Y-86987500D01*
X86292681Y-86989227D01*
X86292708Y-86988946D01*
X86300475Y-86989680D01*
X86300476Y-86989679D01*
X86300477Y-86989680D01*
X86367919Y-86987561D01*
X86371813Y-86987500D01*
X86399472Y-86987500D01*
X86399476Y-86987500D01*
X86403474Y-86986994D01*
X86415114Y-86986077D01*
X86458943Y-86984701D01*
X86478272Y-86979084D01*
X86497328Y-86975137D01*
X86517293Y-86972616D01*
X86558055Y-86956476D01*
X86569092Y-86952698D01*
X86611191Y-86940468D01*
X86628515Y-86930221D01*
X86645983Y-86921663D01*
X86664703Y-86914253D01*
X86700177Y-86888478D01*
X86709915Y-86882081D01*
X86747656Y-86859763D01*
X86761897Y-86845520D01*
X86776678Y-86832897D01*
X86792967Y-86821063D01*
X86820904Y-86787290D01*
X86828756Y-86778661D01*
X87853600Y-85753819D01*
X87914923Y-85720334D01*
X87941281Y-85717500D01*
X90862213Y-85717500D01*
X90929252Y-85737185D01*
X90963788Y-85770377D01*
X91074954Y-85929141D01*
X91235858Y-86090045D01*
X91235861Y-86090047D01*
X91422266Y-86220568D01*
X91480275Y-86247618D01*
X91532714Y-86293791D01*
X91551866Y-86360984D01*
X91531650Y-86427865D01*
X91480275Y-86472382D01*
X91422267Y-86499431D01*
X91422265Y-86499432D01*
X91235858Y-86629954D01*
X91074954Y-86790858D01*
X90944432Y-86977265D01*
X90944431Y-86977267D01*
X90848261Y-87183502D01*
X90848258Y-87183511D01*
X90789366Y-87403302D01*
X90789364Y-87403313D01*
X90769532Y-87629998D01*
X90769532Y-87630001D01*
X90789364Y-87856686D01*
X90789366Y-87856697D01*
X90848258Y-88076488D01*
X90848261Y-88076497D01*
X90944431Y-88282732D01*
X90944432Y-88282734D01*
X91074954Y-88469141D01*
X91235858Y-88630045D01*
X91235861Y-88630047D01*
X91422266Y-88760568D01*
X91628504Y-88856739D01*
X91628509Y-88856740D01*
X91628511Y-88856741D01*
X91665825Y-88866739D01*
X91848308Y-88915635D01*
X92010230Y-88929801D01*
X92074998Y-88935468D01*
X92075000Y-88935468D01*
X92075002Y-88935468D01*
X92131673Y-88930509D01*
X92301692Y-88915635D01*
X92521496Y-88856739D01*
X92727734Y-88760568D01*
X92914139Y-88630047D01*
X93075047Y-88469139D01*
X93205568Y-88282734D01*
X93232618Y-88224724D01*
X93278790Y-88172285D01*
X93345983Y-88153133D01*
X93412865Y-88173348D01*
X93457382Y-88224725D01*
X93484429Y-88282728D01*
X93484432Y-88282734D01*
X93614954Y-88469141D01*
X93775858Y-88630045D01*
X93775861Y-88630047D01*
X93962266Y-88760568D01*
X94020275Y-88787618D01*
X94072714Y-88833791D01*
X94091866Y-88900984D01*
X94071650Y-88967865D01*
X94020275Y-89012382D01*
X93962267Y-89039431D01*
X93962265Y-89039432D01*
X93775858Y-89169954D01*
X93614954Y-89330858D01*
X93484432Y-89517265D01*
X93484431Y-89517267D01*
X93388261Y-89723502D01*
X93388258Y-89723511D01*
X93329366Y-89943302D01*
X93329364Y-89943313D01*
X93309532Y-90169998D01*
X93309532Y-90170001D01*
X93329364Y-90396686D01*
X93329366Y-90396697D01*
X93388258Y-90616488D01*
X93388261Y-90616497D01*
X93484431Y-90822732D01*
X93484432Y-90822734D01*
X93614954Y-91009141D01*
X93775858Y-91170045D01*
X93775861Y-91170047D01*
X93962266Y-91300568D01*
X94020275Y-91327618D01*
X94072714Y-91373791D01*
X94091866Y-91440984D01*
X94071650Y-91507865D01*
X94020275Y-91552382D01*
X93962267Y-91579431D01*
X93962265Y-91579432D01*
X93775858Y-91709954D01*
X93614954Y-91870858D01*
X93484432Y-92057265D01*
X93484431Y-92057267D01*
X93388261Y-92263502D01*
X93388258Y-92263511D01*
X93329366Y-92483302D01*
X93329364Y-92483313D01*
X93309532Y-92709998D01*
X93309532Y-92710001D01*
X93329364Y-92936686D01*
X93329366Y-92936697D01*
X93388258Y-93156488D01*
X93388261Y-93156497D01*
X93484431Y-93362732D01*
X93484432Y-93362734D01*
X93614954Y-93549141D01*
X93775858Y-93710045D01*
X93775861Y-93710047D01*
X93962266Y-93840568D01*
X94020275Y-93867618D01*
X94072714Y-93913791D01*
X94091866Y-93980984D01*
X94071650Y-94047865D01*
X94020275Y-94092382D01*
X93962267Y-94119431D01*
X93962265Y-94119432D01*
X93775858Y-94249954D01*
X93614954Y-94410858D01*
X93484432Y-94597265D01*
X93484431Y-94597267D01*
X93388261Y-94803502D01*
X93388258Y-94803511D01*
X93329366Y-95023302D01*
X93329364Y-95023313D01*
X93309532Y-95249998D01*
X93309532Y-95250001D01*
X93329364Y-95476686D01*
X93329366Y-95476697D01*
X93388258Y-95696488D01*
X93388261Y-95696497D01*
X93484431Y-95902732D01*
X93484432Y-95902734D01*
X93614954Y-96089141D01*
X93775858Y-96250045D01*
X93775861Y-96250047D01*
X93962266Y-96380568D01*
X94020275Y-96407618D01*
X94072714Y-96453791D01*
X94091866Y-96520984D01*
X94071650Y-96587865D01*
X94020275Y-96632382D01*
X93962267Y-96659431D01*
X93962265Y-96659432D01*
X93775858Y-96789954D01*
X93614954Y-96950858D01*
X93484432Y-97137265D01*
X93484431Y-97137267D01*
X93388261Y-97343502D01*
X93388258Y-97343511D01*
X93329366Y-97563302D01*
X93329364Y-97563313D01*
X93309532Y-97789998D01*
X93309532Y-97790001D01*
X93329364Y-98016686D01*
X93329366Y-98016697D01*
X93388258Y-98236488D01*
X93388261Y-98236497D01*
X93484431Y-98442732D01*
X93484432Y-98442734D01*
X93614954Y-98629141D01*
X93775858Y-98790045D01*
X93775861Y-98790047D01*
X93962266Y-98920568D01*
X94168504Y-99016739D01*
X94168509Y-99016740D01*
X94168511Y-99016741D01*
X94205821Y-99026738D01*
X94388308Y-99075635D01*
X94550230Y-99089801D01*
X94614998Y-99095468D01*
X94615000Y-99095468D01*
X94615002Y-99095468D01*
X94671673Y-99090509D01*
X94841692Y-99075635D01*
X95061496Y-99016739D01*
X95267734Y-98920568D01*
X95454139Y-98790047D01*
X95615047Y-98629139D01*
X95745568Y-98442734D01*
X95767786Y-98395086D01*
X95813958Y-98342647D01*
X95881151Y-98323495D01*
X95948032Y-98343710D01*
X95992549Y-98395084D01*
X96019432Y-98452734D01*
X96019433Y-98452735D01*
X96149954Y-98639141D01*
X96310858Y-98800045D01*
X96310861Y-98800047D01*
X96497266Y-98930568D01*
X96703504Y-99026739D01*
X96923308Y-99085635D01*
X97085230Y-99099801D01*
X97149998Y-99105468D01*
X97150000Y-99105468D01*
X97150002Y-99105468D01*
X97206673Y-99100509D01*
X97376692Y-99085635D01*
X97596496Y-99026739D01*
X97802734Y-98930568D01*
X97989139Y-98800047D01*
X98150047Y-98639139D01*
X98280568Y-98452734D01*
X98376739Y-98246496D01*
X98435635Y-98026692D01*
X98455468Y-97800000D01*
X98435635Y-97573308D01*
X98386518Y-97390000D01*
X98376741Y-97353511D01*
X98376738Y-97353502D01*
X98327791Y-97248535D01*
X98280568Y-97147266D01*
X98150047Y-96960861D01*
X98150045Y-96960858D01*
X97989141Y-96799954D01*
X97802734Y-96669432D01*
X97802728Y-96669429D01*
X97744725Y-96642382D01*
X97692285Y-96596210D01*
X97673133Y-96529017D01*
X97693348Y-96462135D01*
X97744725Y-96417618D01*
X97802734Y-96390568D01*
X97989139Y-96260047D01*
X98150047Y-96099139D01*
X98280568Y-95912734D01*
X98376739Y-95706496D01*
X98435635Y-95486692D01*
X98455468Y-95260000D01*
X98435635Y-95033308D01*
X98390916Y-94866415D01*
X98376741Y-94813511D01*
X98376738Y-94813502D01*
X98336170Y-94726504D01*
X98280568Y-94607266D01*
X98150047Y-94420861D01*
X98150045Y-94420858D01*
X97989141Y-94259954D01*
X97802734Y-94129432D01*
X97802728Y-94129429D01*
X97744725Y-94102382D01*
X97692285Y-94056210D01*
X97673133Y-93989017D01*
X97693348Y-93922135D01*
X97744725Y-93877618D01*
X97802734Y-93850568D01*
X97989139Y-93720047D01*
X98150047Y-93559139D01*
X98280568Y-93372734D01*
X98376739Y-93166496D01*
X98435635Y-92946692D01*
X98455468Y-92720000D01*
X98435635Y-92493308D01*
X98390916Y-92326415D01*
X98376741Y-92273511D01*
X98376738Y-92273502D01*
X98336170Y-92186504D01*
X98280568Y-92067266D01*
X98150047Y-91880861D01*
X98150045Y-91880858D01*
X97989141Y-91719954D01*
X97802734Y-91589432D01*
X97802728Y-91589429D01*
X97744725Y-91562382D01*
X97692285Y-91516210D01*
X97673133Y-91449017D01*
X97693348Y-91382135D01*
X97744725Y-91337618D01*
X97802734Y-91310568D01*
X97989139Y-91180047D01*
X98150047Y-91019139D01*
X98280568Y-90832734D01*
X98376739Y-90626496D01*
X98435635Y-90406692D01*
X98455468Y-90180000D01*
X98435635Y-89953308D01*
X98386518Y-89770000D01*
X98376741Y-89733511D01*
X98376738Y-89733502D01*
X98336170Y-89646504D01*
X98280568Y-89527266D01*
X98150047Y-89340861D01*
X98150045Y-89340858D01*
X97989141Y-89179954D01*
X97802734Y-89049432D01*
X97802728Y-89049429D01*
X97744725Y-89022382D01*
X97692285Y-88976210D01*
X97673133Y-88909017D01*
X97693348Y-88842135D01*
X97744725Y-88797618D01*
X97802734Y-88770568D01*
X97989139Y-88640047D01*
X98150047Y-88479139D01*
X98280568Y-88292734D01*
X98376739Y-88086496D01*
X98435635Y-87866692D01*
X98455468Y-87640000D01*
X98435635Y-87413308D01*
X98386518Y-87230000D01*
X98376741Y-87193511D01*
X98376738Y-87193502D01*
X98362936Y-87163903D01*
X98280568Y-86987266D01*
X98178633Y-86841687D01*
X98150045Y-86800858D01*
X97989141Y-86639954D01*
X97802734Y-86509432D01*
X97802732Y-86509431D01*
X97781283Y-86499429D01*
X97744132Y-86482105D01*
X97691694Y-86435934D01*
X97672542Y-86368740D01*
X97692758Y-86301859D01*
X97744134Y-86257341D01*
X97802484Y-86230132D01*
X97988820Y-86099657D01*
X98149657Y-85938820D01*
X98280134Y-85752482D01*
X98376265Y-85546326D01*
X98376269Y-85546317D01*
X98428872Y-85350000D01*
X97465686Y-85350000D01*
X97477641Y-85338045D01*
X97535165Y-85225148D01*
X97554986Y-85100000D01*
X97535165Y-84974852D01*
X97477641Y-84861955D01*
X97465686Y-84850000D01*
X98428872Y-84850000D01*
X98428872Y-84849999D01*
X98376269Y-84653682D01*
X98376265Y-84653673D01*
X98280134Y-84447517D01*
X98149657Y-84261179D01*
X97988820Y-84100342D01*
X97802482Y-83969865D01*
X97744133Y-83942657D01*
X97691694Y-83896484D01*
X97672542Y-83829291D01*
X97692758Y-83762410D01*
X97744129Y-83717895D01*
X97802734Y-83690568D01*
X97989139Y-83560047D01*
X98150047Y-83399139D01*
X98280568Y-83212734D01*
X98376739Y-83006496D01*
X98435635Y-82786692D01*
X98455468Y-82560000D01*
X98435635Y-82333308D01*
X98376739Y-82113504D01*
X98280568Y-81907266D01*
X98177566Y-81760163D01*
X98150045Y-81720858D01*
X97989141Y-81559954D01*
X97802734Y-81429432D01*
X97802728Y-81429429D01*
X97744725Y-81402382D01*
X97692285Y-81356210D01*
X97673133Y-81289017D01*
X97693348Y-81222135D01*
X97744725Y-81177618D01*
X97802734Y-81150568D01*
X97989139Y-81020047D01*
X98150047Y-80859139D01*
X98280568Y-80672734D01*
X98376739Y-80466496D01*
X98435635Y-80246692D01*
X98455468Y-80020000D01*
X98452737Y-79988790D01*
X98444761Y-79897618D01*
X98435635Y-79793308D01*
X98378250Y-79579142D01*
X98376741Y-79573511D01*
X98376738Y-79573502D01*
X98362936Y-79543903D01*
X98280568Y-79367266D01*
X98178633Y-79221687D01*
X98150045Y-79180858D01*
X97989141Y-79019954D01*
X97802734Y-78889432D01*
X97802728Y-78889429D01*
X97744725Y-78862382D01*
X97692285Y-78816210D01*
X97673133Y-78749017D01*
X97693348Y-78682135D01*
X97744725Y-78637618D01*
X97802734Y-78610568D01*
X97989139Y-78480047D01*
X98150047Y-78319139D01*
X98280568Y-78132734D01*
X98376739Y-77926496D01*
X98435635Y-77706692D01*
X98453243Y-77505437D01*
X98455468Y-77480001D01*
X98455468Y-77479998D01*
X98435635Y-77253313D01*
X98435635Y-77253308D01*
X98385520Y-77066274D01*
X98376741Y-77033511D01*
X98376738Y-77033502D01*
X98359205Y-76995903D01*
X98280568Y-76827266D01*
X98150047Y-76640861D01*
X98150045Y-76640858D01*
X97989141Y-76479954D01*
X97802734Y-76349432D01*
X97802728Y-76349429D01*
X97744725Y-76322382D01*
X97692285Y-76276210D01*
X97673133Y-76209017D01*
X97693348Y-76142135D01*
X97744725Y-76097618D01*
X97802734Y-76070568D01*
X97989139Y-75940047D01*
X98150047Y-75779139D01*
X98280568Y-75592734D01*
X98376739Y-75386496D01*
X98435635Y-75166692D01*
X98454698Y-74948797D01*
X98455468Y-74940001D01*
X98455468Y-74939998D01*
X98442394Y-74790567D01*
X98435635Y-74713308D01*
X98378250Y-74499142D01*
X98376741Y-74493511D01*
X98376738Y-74493502D01*
X98354858Y-74446580D01*
X98280568Y-74287266D01*
X98150047Y-74100861D01*
X98150045Y-74100858D01*
X97989141Y-73939954D01*
X97802734Y-73809432D01*
X97802728Y-73809429D01*
X97744725Y-73782382D01*
X97692285Y-73736210D01*
X97673133Y-73669017D01*
X97693348Y-73602135D01*
X97744725Y-73557618D01*
X97802734Y-73530568D01*
X97989139Y-73400047D01*
X98150047Y-73239139D01*
X98280568Y-73052734D01*
X98376739Y-72846496D01*
X98435635Y-72626692D01*
X98455468Y-72400000D01*
X98455313Y-72398234D01*
X98448253Y-72317530D01*
X98435635Y-72173308D01*
X98376739Y-71953504D01*
X98280568Y-71747266D01*
X98177826Y-71600534D01*
X98150045Y-71560858D01*
X97989141Y-71399954D01*
X97802734Y-71269432D01*
X97802728Y-71269429D01*
X97744725Y-71242382D01*
X97692285Y-71196210D01*
X97673133Y-71129017D01*
X97693348Y-71062135D01*
X97744725Y-71017618D01*
X97802734Y-70990568D01*
X97989139Y-70860047D01*
X98150047Y-70699139D01*
X98280568Y-70512734D01*
X98376739Y-70306496D01*
X98435635Y-70086692D01*
X98455468Y-69860000D01*
X98435635Y-69633308D01*
X98380928Y-69429139D01*
X98376741Y-69413511D01*
X98376738Y-69413502D01*
X98347237Y-69350237D01*
X98280568Y-69207266D01*
X98150047Y-69020861D01*
X98150045Y-69020858D01*
X97989141Y-68859954D01*
X97802734Y-68729432D01*
X97802728Y-68729429D01*
X97744725Y-68702382D01*
X97692285Y-68656210D01*
X97673133Y-68589017D01*
X97693348Y-68522135D01*
X97744725Y-68477618D01*
X97802734Y-68450568D01*
X97989139Y-68320047D01*
X98150047Y-68159139D01*
X98280568Y-67972734D01*
X98376739Y-67766496D01*
X98435635Y-67546692D01*
X98455468Y-67320000D01*
X98435635Y-67093308D01*
X98376739Y-66873504D01*
X98280568Y-66667266D01*
X98160989Y-66496488D01*
X98150045Y-66480858D01*
X97989141Y-66319954D01*
X97802734Y-66189432D01*
X97802728Y-66189429D01*
X97744725Y-66162382D01*
X97692285Y-66116210D01*
X97673133Y-66049017D01*
X97693348Y-65982135D01*
X97744725Y-65937618D01*
X97802734Y-65910568D01*
X97989139Y-65780047D01*
X98150047Y-65619139D01*
X98280568Y-65432734D01*
X98376739Y-65226496D01*
X98435635Y-65006692D01*
X98455468Y-64780000D01*
X98435635Y-64553308D01*
X98376739Y-64333504D01*
X98280568Y-64127266D01*
X98150047Y-63940861D01*
X98150045Y-63940858D01*
X97989141Y-63779954D01*
X97802734Y-63649432D01*
X97802732Y-63649431D01*
X97596497Y-63553261D01*
X97596488Y-63553258D01*
X97376697Y-63494366D01*
X97376693Y-63494365D01*
X97376692Y-63494365D01*
X97376691Y-63494364D01*
X97376686Y-63494364D01*
X97150002Y-63474532D01*
X97149998Y-63474532D01*
X96923313Y-63494364D01*
X96923302Y-63494366D01*
X96703511Y-63553258D01*
X96703502Y-63553261D01*
X96497267Y-63649431D01*
X96497265Y-63649432D01*
X96310858Y-63779954D01*
X96149954Y-63940858D01*
X96019432Y-64127265D01*
X96019430Y-64127268D01*
X95997212Y-64174915D01*
X95951039Y-64227353D01*
X95883845Y-64246504D01*
X95816964Y-64226287D01*
X95772449Y-64174913D01*
X95766769Y-64162732D01*
X95745568Y-64117266D01*
X95615047Y-63930861D01*
X95615045Y-63930858D01*
X95454141Y-63769954D01*
X95267734Y-63639432D01*
X95267732Y-63639431D01*
X95061497Y-63543261D01*
X95061488Y-63543258D01*
X94841697Y-63484366D01*
X94841693Y-63484365D01*
X94841692Y-63484365D01*
X94841691Y-63484364D01*
X94841686Y-63484364D01*
X94615002Y-63464532D01*
X94614998Y-63464532D01*
X94388313Y-63484364D01*
X94388302Y-63484366D01*
X94168511Y-63543258D01*
X94168502Y-63543261D01*
X93962267Y-63639431D01*
X93962265Y-63639432D01*
X93775858Y-63769954D01*
X93614954Y-63930858D01*
X93484432Y-64117265D01*
X93484431Y-64117267D01*
X93388261Y-64323502D01*
X93388258Y-64323511D01*
X93329366Y-64543302D01*
X93329364Y-64543313D01*
X93309532Y-64769998D01*
X93309532Y-64770001D01*
X93329364Y-64996686D01*
X93329366Y-64996697D01*
X93388258Y-65216488D01*
X93388261Y-65216497D01*
X93484431Y-65422732D01*
X93484432Y-65422734D01*
X93614954Y-65609141D01*
X93775858Y-65770045D01*
X93775861Y-65770047D01*
X93962266Y-65900568D01*
X94020275Y-65927618D01*
X94072714Y-65973791D01*
X94091866Y-66040984D01*
X94071650Y-66107865D01*
X94020275Y-66152382D01*
X93962267Y-66179431D01*
X93962265Y-66179432D01*
X93775858Y-66309954D01*
X93614954Y-66470858D01*
X93484432Y-66657265D01*
X93484431Y-66657267D01*
X93388261Y-66863502D01*
X93388258Y-66863511D01*
X93329366Y-67083302D01*
X93329364Y-67083313D01*
X93309532Y-67309998D01*
X93309532Y-67310001D01*
X93329364Y-67536686D01*
X93329365Y-67536694D01*
X93347083Y-67602815D01*
X93345420Y-67672665D01*
X93314989Y-67722590D01*
X92959953Y-68077626D01*
X92947669Y-68087469D01*
X92947849Y-68087687D01*
X92941837Y-68092660D01*
X92895646Y-68141847D01*
X92892941Y-68144638D01*
X92873379Y-68164200D01*
X92873375Y-68164205D01*
X92870895Y-68167403D01*
X92863317Y-68176274D01*
X92833308Y-68208230D01*
X92833305Y-68208234D01*
X92823606Y-68225877D01*
X92812928Y-68242133D01*
X92800594Y-68258034D01*
X92800589Y-68258042D01*
X92783185Y-68298262D01*
X92778046Y-68308752D01*
X92756927Y-68347167D01*
X92751920Y-68366668D01*
X92745621Y-68385064D01*
X92743986Y-68388845D01*
X92737625Y-68403544D01*
X92737624Y-68403546D01*
X92730769Y-68446831D01*
X92728401Y-68458267D01*
X92717500Y-68500723D01*
X92717500Y-68520018D01*
X92697815Y-68587057D01*
X92645011Y-68632812D01*
X92575853Y-68642756D01*
X92541097Y-68632401D01*
X92538547Y-68631212D01*
X92521496Y-68623261D01*
X92521492Y-68623260D01*
X92521488Y-68623258D01*
X92301697Y-68564366D01*
X92301693Y-68564365D01*
X92301692Y-68564365D01*
X92301691Y-68564364D01*
X92301686Y-68564364D01*
X92075002Y-68544532D01*
X92074998Y-68544532D01*
X91848313Y-68564364D01*
X91848302Y-68564366D01*
X91628511Y-68623258D01*
X91628502Y-68623261D01*
X91422267Y-68719431D01*
X91422265Y-68719432D01*
X91235858Y-68849954D01*
X91074954Y-69010858D01*
X90944432Y-69197265D01*
X90944431Y-69197267D01*
X90848261Y-69403502D01*
X90848258Y-69403511D01*
X90789366Y-69623302D01*
X90789364Y-69623313D01*
X90769532Y-69849998D01*
X90769532Y-69850001D01*
X90789364Y-70076686D01*
X90789366Y-70076697D01*
X90848258Y-70296488D01*
X90848260Y-70296492D01*
X90848261Y-70296496D01*
X90852924Y-70306496D01*
X90857401Y-70316097D01*
X90867892Y-70385174D01*
X90839371Y-70448958D01*
X90780894Y-70487197D01*
X90745018Y-70492500D01*
X88982967Y-70492500D01*
X88967318Y-70490772D01*
X88967292Y-70491054D01*
X88959524Y-70490319D01*
X88892081Y-70492439D01*
X88888187Y-70492500D01*
X88860523Y-70492500D01*
X88856514Y-70493006D01*
X88844884Y-70493921D01*
X88801056Y-70495298D01*
X88781713Y-70500918D01*
X88762669Y-70504862D01*
X88759709Y-70505235D01*
X88742707Y-70507384D01*
X88742703Y-70507385D01*
X88742700Y-70507386D01*
X88701950Y-70523519D01*
X88690906Y-70527300D01*
X88648809Y-70539531D01*
X88648806Y-70539533D01*
X88631480Y-70549779D01*
X88614010Y-70558337D01*
X88595298Y-70565745D01*
X88559826Y-70591516D01*
X88550066Y-70597927D01*
X88512346Y-70620234D01*
X88498106Y-70634474D01*
X88483320Y-70647102D01*
X88467033Y-70658936D01*
X88439090Y-70692712D01*
X88431229Y-70701350D01*
X86609953Y-72522626D01*
X86597669Y-72532469D01*
X86597849Y-72532687D01*
X86591837Y-72537660D01*
X86545646Y-72586847D01*
X86542941Y-72589638D01*
X86523379Y-72609200D01*
X86523375Y-72609205D01*
X86520895Y-72612403D01*
X86513317Y-72621274D01*
X86483308Y-72653230D01*
X86483305Y-72653234D01*
X86473606Y-72670877D01*
X86462928Y-72687133D01*
X86450594Y-72703034D01*
X86450589Y-72703042D01*
X86433185Y-72743262D01*
X86428046Y-72753752D01*
X86406927Y-72792167D01*
X86401920Y-72811668D01*
X86395621Y-72830064D01*
X86392842Y-72836488D01*
X86387625Y-72848544D01*
X86387624Y-72848546D01*
X86380769Y-72891831D01*
X86378401Y-72903267D01*
X86367500Y-72945723D01*
X86367500Y-72965858D01*
X86365973Y-72985257D01*
X86364604Y-72993903D01*
X86362825Y-73005133D01*
X86364512Y-73022979D01*
X86366950Y-73048767D01*
X86367500Y-73060437D01*
X86367500Y-77158718D01*
X86347815Y-77225757D01*
X86331181Y-77246399D01*
X85968089Y-77609490D01*
X85906766Y-77642975D01*
X85837074Y-77637991D01*
X85781141Y-77596119D01*
X85756724Y-77530655D01*
X85756879Y-77511012D01*
X85760468Y-77470000D01*
X85740635Y-77243308D01*
X85684420Y-77033511D01*
X85681741Y-77023511D01*
X85681738Y-77023502D01*
X85651337Y-76958307D01*
X85585568Y-76817266D01*
X85455047Y-76630861D01*
X85455045Y-76630858D01*
X85294141Y-76469954D01*
X85107734Y-76339432D01*
X85107728Y-76339429D01*
X85049725Y-76312382D01*
X84997285Y-76266210D01*
X84978133Y-76199017D01*
X84998348Y-76132135D01*
X85049725Y-76087618D01*
X85107734Y-76060568D01*
X85294139Y-75930047D01*
X85455047Y-75769139D01*
X85585568Y-75582734D01*
X85681739Y-75376496D01*
X85740635Y-75156692D01*
X85758176Y-74956202D01*
X85760468Y-74930001D01*
X85760468Y-74929998D01*
X85744487Y-74747335D01*
X85740635Y-74703308D01*
X85684420Y-74493511D01*
X85681741Y-74483511D01*
X85681738Y-74483502D01*
X85663293Y-74443946D01*
X85585568Y-74277266D01*
X85455047Y-74090861D01*
X85455045Y-74090858D01*
X85294141Y-73929954D01*
X85107734Y-73799432D01*
X85107728Y-73799429D01*
X85049725Y-73772382D01*
X84997285Y-73726210D01*
X84978133Y-73659017D01*
X84998348Y-73592135D01*
X85049725Y-73547618D01*
X85107734Y-73520568D01*
X85294139Y-73390047D01*
X85455047Y-73229139D01*
X85585568Y-73042734D01*
X85681739Y-72836496D01*
X85740635Y-72616692D01*
X85760468Y-72390000D01*
X85759143Y-72374860D01*
X85752727Y-72301519D01*
X85740635Y-72163308D01*
X85684420Y-71953511D01*
X85681741Y-71943511D01*
X85681738Y-71943502D01*
X85636575Y-71846650D01*
X85585568Y-71737266D01*
X85480973Y-71587887D01*
X85455045Y-71550858D01*
X85294143Y-71389956D01*
X85279924Y-71380000D01*
X85269535Y-71372725D01*
X85225912Y-71318149D01*
X85218719Y-71248650D01*
X85250241Y-71186296D01*
X85310471Y-71150882D01*
X85327404Y-71147861D01*
X85362483Y-71144091D01*
X85497331Y-71093796D01*
X85612546Y-71007546D01*
X85698796Y-70892331D01*
X85749091Y-70757483D01*
X85755500Y-70697873D01*
X85755499Y-69002128D01*
X85749091Y-68942517D01*
X85734096Y-68902314D01*
X85698797Y-68807671D01*
X85698793Y-68807664D01*
X85612547Y-68692455D01*
X85612544Y-68692452D01*
X85497335Y-68606206D01*
X85497328Y-68606202D01*
X85362482Y-68555908D01*
X85362483Y-68555908D01*
X85302883Y-68549501D01*
X85302881Y-68549500D01*
X85302873Y-68549500D01*
X85302864Y-68549500D01*
X83607129Y-68549500D01*
X83607123Y-68549501D01*
X83547516Y-68555908D01*
X83412671Y-68606202D01*
X83412664Y-68606206D01*
X83297455Y-68692452D01*
X83297452Y-68692455D01*
X83211206Y-68807664D01*
X83211202Y-68807671D01*
X83160908Y-68942516D01*
X83155539Y-68992455D01*
X83128800Y-69057006D01*
X83071407Y-69096853D01*
X83001582Y-69099346D01*
X82941493Y-69063692D01*
X82930674Y-69050320D01*
X82920875Y-69036326D01*
X82910047Y-69020861D01*
X82910046Y-69020860D01*
X82910044Y-69020857D01*
X82749141Y-68859954D01*
X82562734Y-68729432D01*
X82562728Y-68729429D01*
X82504725Y-68702382D01*
X82452285Y-68656210D01*
X82433133Y-68589017D01*
X82453348Y-68522135D01*
X82504725Y-68477618D01*
X82562734Y-68450568D01*
X82749139Y-68320047D01*
X82910047Y-68159139D01*
X83040568Y-67972734D01*
X83136739Y-67766496D01*
X83195635Y-67546692D01*
X83215468Y-67320000D01*
X83195635Y-67093308D01*
X83136739Y-66873504D01*
X83040568Y-66667266D01*
X82920989Y-66496488D01*
X82910045Y-66480858D01*
X82749143Y-66319956D01*
X82724536Y-66302726D01*
X82680912Y-66248149D01*
X82673719Y-66178650D01*
X82705241Y-66116296D01*
X82765471Y-66080882D01*
X82782404Y-66077861D01*
X82817483Y-66074091D01*
X82952331Y-66023796D01*
X83067546Y-65937546D01*
X83153796Y-65822331D01*
X83204091Y-65687483D01*
X83210500Y-65627873D01*
X83210499Y-63932128D01*
X83204091Y-63872517D01*
X83203886Y-63871968D01*
X83153797Y-63737671D01*
X83153793Y-63737664D01*
X83067547Y-63622455D01*
X83067544Y-63622452D01*
X82952335Y-63536206D01*
X82952328Y-63536202D01*
X82817482Y-63485908D01*
X82817483Y-63485908D01*
X82757883Y-63479501D01*
X82757881Y-63479500D01*
X82757873Y-63479500D01*
X82757864Y-63479500D01*
X81062129Y-63479500D01*
X81062123Y-63479501D01*
X81002516Y-63485908D01*
X80867671Y-63536202D01*
X80867664Y-63536206D01*
X80752456Y-63622452D01*
X80752455Y-63622453D01*
X80752454Y-63622454D01*
X80745508Y-63631733D01*
X80689573Y-63673602D01*
X80619881Y-63678584D01*
X80558559Y-63645097D01*
X80546978Y-63631732D01*
X80537501Y-63619073D01*
X80532546Y-63612454D01*
X80532545Y-63612453D01*
X80532544Y-63612452D01*
X80417335Y-63526206D01*
X80417328Y-63526202D01*
X80282482Y-63475908D01*
X80282483Y-63475908D01*
X80222883Y-63469501D01*
X80222881Y-63469500D01*
X80222873Y-63469500D01*
X80222864Y-63469500D01*
X78527129Y-63469500D01*
X78527123Y-63469501D01*
X78467516Y-63475908D01*
X78332671Y-63526202D01*
X78332664Y-63526206D01*
X78217455Y-63612452D01*
X78217452Y-63612455D01*
X78131206Y-63727664D01*
X78131202Y-63727671D01*
X78080908Y-63862517D01*
X78074501Y-63922116D01*
X78074500Y-63922135D01*
X78074500Y-65131718D01*
X78054815Y-65198757D01*
X78038181Y-65219399D01*
X77661913Y-65595667D01*
X77600590Y-65629152D01*
X77530898Y-65624168D01*
X77486551Y-65595667D01*
X77153126Y-65262242D01*
X77153108Y-65262225D01*
X77068990Y-65194438D01*
X77068985Y-65194434D01*
X77068983Y-65194433D01*
X77068981Y-65194431D01*
X77024634Y-65165930D01*
X77024635Y-65165930D01*
X77024628Y-65165926D01*
X76927987Y-65117552D01*
X76927986Y-65117551D01*
X76927985Y-65117551D01*
X76927983Y-65117550D01*
X76927976Y-65117548D01*
X76787404Y-65086969D01*
X76787393Y-65086968D01*
X76764162Y-65085306D01*
X76717703Y-65081984D01*
X76717700Y-65081984D01*
X76574189Y-65092248D01*
X76439385Y-65142528D01*
X76378060Y-65176013D01*
X76262878Y-65262238D01*
X76262866Y-65262248D01*
X75765996Y-65759118D01*
X75704673Y-65792603D01*
X75634981Y-65787619D01*
X75579048Y-65745747D01*
X75558540Y-65703529D01*
X75554240Y-65687482D01*
X75546508Y-65658623D01*
X75531742Y-65603513D01*
X75531738Y-65603502D01*
X75531735Y-65603496D01*
X75435568Y-65397266D01*
X75305047Y-65210861D01*
X75305045Y-65210858D01*
X75144141Y-65049954D01*
X74957734Y-64919432D01*
X74957728Y-64919429D01*
X74899725Y-64892382D01*
X74847285Y-64846210D01*
X74828133Y-64779017D01*
X74848348Y-64712135D01*
X74899725Y-64667618D01*
X74908717Y-64663425D01*
X74957734Y-64640568D01*
X75144139Y-64510047D01*
X75305047Y-64349139D01*
X75435568Y-64162734D01*
X75531739Y-63956496D01*
X75590635Y-63736692D01*
X75610468Y-63510000D01*
X75607485Y-63475909D01*
X75590635Y-63283313D01*
X75590635Y-63283308D01*
X75531739Y-63063504D01*
X75435568Y-62857266D01*
X75307418Y-62674247D01*
X75305045Y-62670858D01*
X75144141Y-62509954D01*
X74957734Y-62379432D01*
X74957732Y-62379431D01*
X74751497Y-62283261D01*
X74751488Y-62283258D01*
X74531697Y-62224366D01*
X74531693Y-62224365D01*
X74531692Y-62224365D01*
X74531691Y-62224364D01*
X74531686Y-62224364D01*
X74305002Y-62204532D01*
X74304998Y-62204532D01*
X74078313Y-62224364D01*
X74078302Y-62224366D01*
X73858511Y-62283258D01*
X73858502Y-62283261D01*
X73652267Y-62379431D01*
X73652265Y-62379432D01*
X73465858Y-62509954D01*
X73304954Y-62670858D01*
X73174432Y-62857265D01*
X73174431Y-62857267D01*
X73078261Y-63063502D01*
X73078258Y-63063511D01*
X73019366Y-63283302D01*
X73019364Y-63283313D01*
X72999532Y-63509998D01*
X72999532Y-63510001D01*
X73019364Y-63736686D01*
X73019366Y-63736697D01*
X73037083Y-63802817D01*
X73035420Y-63872667D01*
X73004989Y-63922591D01*
X72821400Y-64106181D01*
X72760077Y-64139666D01*
X72733719Y-64142500D01*
X68109500Y-64142500D01*
X68042461Y-64122815D01*
X67996706Y-64070011D01*
X67985500Y-64018500D01*
X67985499Y-62662129D01*
X67985498Y-62662123D01*
X67985497Y-62662116D01*
X67979091Y-62602517D01*
X67944567Y-62509954D01*
X67928797Y-62467671D01*
X67928793Y-62467664D01*
X67842547Y-62352455D01*
X67842544Y-62352452D01*
X67727335Y-62266206D01*
X67727328Y-62266202D01*
X67592482Y-62215908D01*
X67592483Y-62215908D01*
X67532883Y-62209501D01*
X67532881Y-62209500D01*
X67532873Y-62209500D01*
X67532864Y-62209500D01*
X65837129Y-62209500D01*
X65837123Y-62209501D01*
X65777516Y-62215908D01*
X65642671Y-62266202D01*
X65642664Y-62266206D01*
X65527455Y-62352452D01*
X65527452Y-62352455D01*
X65441206Y-62467664D01*
X65441202Y-62467671D01*
X65390908Y-62602517D01*
X65388642Y-62623599D01*
X65384501Y-62662123D01*
X65384500Y-62662135D01*
X65384501Y-64018500D01*
X65364816Y-64085539D01*
X65312013Y-64131294D01*
X65260501Y-64142500D01*
X63746281Y-64142500D01*
X63679242Y-64122815D01*
X63658600Y-64106181D01*
X63500835Y-63948416D01*
X63467350Y-63887093D01*
X63468741Y-63828641D01*
X63495063Y-63730408D01*
X63515659Y-63495000D01*
X63515603Y-63494365D01*
X63495063Y-63259596D01*
X63495063Y-63259592D01*
X63442522Y-63063504D01*
X63433905Y-63031344D01*
X63433904Y-63031343D01*
X63433903Y-63031337D01*
X63334035Y-62817171D01*
X63290236Y-62754618D01*
X63198494Y-62623597D01*
X63031402Y-62456506D01*
X63031395Y-62456501D01*
X62837834Y-62320967D01*
X62837830Y-62320965D01*
X62837828Y-62320964D01*
X62623663Y-62221097D01*
X62623659Y-62221096D01*
X62623655Y-62221094D01*
X62395413Y-62159938D01*
X62395403Y-62159936D01*
X62160001Y-62139341D01*
X62159999Y-62139341D01*
X61924596Y-62159936D01*
X61924586Y-62159938D01*
X61696344Y-62221094D01*
X61696335Y-62221098D01*
X61482171Y-62320964D01*
X61482169Y-62320965D01*
X61288597Y-62456505D01*
X61121505Y-62623597D01*
X60985965Y-62817169D01*
X60985964Y-62817171D01*
X60886098Y-63031335D01*
X60886094Y-63031344D01*
X60824938Y-63259586D01*
X60824936Y-63259596D01*
X60804341Y-63494999D01*
X60804341Y-63495000D01*
X60824936Y-63730403D01*
X60824938Y-63730413D01*
X60886094Y-63958655D01*
X60886096Y-63958659D01*
X60886097Y-63958663D01*
X60962643Y-64122815D01*
X60985965Y-64172830D01*
X60985967Y-64172834D01*
X61023396Y-64226287D01*
X61109419Y-64349141D01*
X61121501Y-64366395D01*
X61121506Y-64366402D01*
X61288597Y-64533493D01*
X61288603Y-64533498D01*
X61474158Y-64663425D01*
X61517783Y-64718002D01*
X61524977Y-64787500D01*
X61493454Y-64849855D01*
X61474158Y-64866575D01*
X61288597Y-64996505D01*
X61121505Y-65163597D01*
X60985965Y-65357169D01*
X60985964Y-65357171D01*
X60886098Y-65571335D01*
X60886094Y-65571344D01*
X60824938Y-65799586D01*
X60824936Y-65799596D01*
X60804341Y-66034999D01*
X60804341Y-66035000D01*
X60824936Y-66270403D01*
X60824938Y-66270413D01*
X60886094Y-66498655D01*
X60886096Y-66498659D01*
X60886097Y-66498663D01*
X60985965Y-66712830D01*
X60985967Y-66712834D01*
X61121501Y-66906395D01*
X61121506Y-66906402D01*
X61288597Y-67073493D01*
X61288603Y-67073498D01*
X61474594Y-67203730D01*
X61518219Y-67258307D01*
X61525413Y-67327805D01*
X61493890Y-67390160D01*
X61474595Y-67406880D01*
X61288922Y-67536890D01*
X61288920Y-67536891D01*
X61121891Y-67703920D01*
X61121886Y-67703926D01*
X60986400Y-67897420D01*
X60986399Y-67897422D01*
X60886570Y-68111507D01*
X60886567Y-68111513D01*
X60829364Y-68324999D01*
X60829364Y-68325000D01*
X61726314Y-68325000D01*
X61700507Y-68365156D01*
X61660000Y-68503111D01*
X61660000Y-68646889D01*
X61700507Y-68784844D01*
X61726314Y-68825000D01*
X60829364Y-68825000D01*
X60886567Y-69038486D01*
X60886570Y-69038492D01*
X60986399Y-69252578D01*
X61121894Y-69446082D01*
X61288917Y-69613105D01*
X61474595Y-69743119D01*
X61518219Y-69797696D01*
X61525412Y-69867195D01*
X61493890Y-69929549D01*
X61474595Y-69946269D01*
X61288594Y-70076508D01*
X61121505Y-70243597D01*
X60985965Y-70437169D01*
X60985964Y-70437171D01*
X60886098Y-70651335D01*
X60886094Y-70651344D01*
X60824938Y-70879586D01*
X60824936Y-70879596D01*
X60804341Y-71114999D01*
X60804341Y-71115000D01*
X57150500Y-71115000D01*
X57150500Y-60930000D01*
X71384659Y-60930000D01*
X71403975Y-61126129D01*
X71461188Y-61314733D01*
X71554086Y-61488532D01*
X71554090Y-61488539D01*
X71679116Y-61640883D01*
X71831460Y-61765909D01*
X71831467Y-61765913D01*
X72005266Y-61858811D01*
X72005269Y-61858811D01*
X72005273Y-61858814D01*
X72193868Y-61916024D01*
X72390000Y-61935341D01*
X72586132Y-61916024D01*
X72774727Y-61858814D01*
X72948538Y-61765910D01*
X73100883Y-61640883D01*
X73138538Y-61595000D01*
X84773357Y-61595000D01*
X84793884Y-61816535D01*
X84793885Y-61816537D01*
X84854769Y-62030523D01*
X84854775Y-62030538D01*
X84953938Y-62229683D01*
X84953943Y-62229691D01*
X85088020Y-62407238D01*
X85252437Y-62557123D01*
X85252439Y-62557125D01*
X85441595Y-62674245D01*
X85441596Y-62674245D01*
X85441599Y-62674247D01*
X85649060Y-62754618D01*
X85867757Y-62795500D01*
X85867759Y-62795500D01*
X86090241Y-62795500D01*
X86090243Y-62795500D01*
X86308940Y-62754618D01*
X86516401Y-62674247D01*
X86705562Y-62557124D01*
X86869981Y-62407236D01*
X87004058Y-62229689D01*
X87103229Y-62030528D01*
X87164115Y-61816536D01*
X87184643Y-61595000D01*
X95949357Y-61595000D01*
X95969884Y-61816535D01*
X95969885Y-61816537D01*
X96030769Y-62030523D01*
X96030775Y-62030538D01*
X96129938Y-62229683D01*
X96129943Y-62229691D01*
X96264020Y-62407238D01*
X96428437Y-62557123D01*
X96428439Y-62557125D01*
X96617595Y-62674245D01*
X96617596Y-62674245D01*
X96617599Y-62674247D01*
X96825060Y-62754618D01*
X97043757Y-62795500D01*
X97043759Y-62795500D01*
X97266241Y-62795500D01*
X97266243Y-62795500D01*
X97484940Y-62754618D01*
X97692401Y-62674247D01*
X97881562Y-62557124D01*
X98045981Y-62407236D01*
X98180058Y-62229689D01*
X98279229Y-62030528D01*
X98340115Y-61816536D01*
X98360643Y-61595000D01*
X98340115Y-61373464D01*
X98279229Y-61159472D01*
X98262628Y-61126132D01*
X98180061Y-60960316D01*
X98180056Y-60960308D01*
X98045979Y-60782761D01*
X97881562Y-60632876D01*
X97881560Y-60632874D01*
X97692404Y-60515754D01*
X97692398Y-60515752D01*
X97484940Y-60435382D01*
X97266243Y-60394500D01*
X97043757Y-60394500D01*
X96825060Y-60435382D01*
X96693864Y-60486207D01*
X96617601Y-60515752D01*
X96617595Y-60515754D01*
X96428439Y-60632874D01*
X96428437Y-60632876D01*
X96264020Y-60782761D01*
X96129943Y-60960308D01*
X96129938Y-60960316D01*
X96030775Y-61159461D01*
X96030769Y-61159476D01*
X95969885Y-61373462D01*
X95969884Y-61373464D01*
X95949357Y-61594999D01*
X95949357Y-61595000D01*
X87184643Y-61595000D01*
X87164115Y-61373464D01*
X87103229Y-61159472D01*
X87086628Y-61126132D01*
X87004061Y-60960316D01*
X87004056Y-60960308D01*
X86869979Y-60782761D01*
X86705562Y-60632876D01*
X86705560Y-60632874D01*
X86516404Y-60515754D01*
X86516398Y-60515752D01*
X86308940Y-60435382D01*
X86090243Y-60394500D01*
X85867757Y-60394500D01*
X85649060Y-60435382D01*
X85517864Y-60486207D01*
X85441601Y-60515752D01*
X85441595Y-60515754D01*
X85252439Y-60632874D01*
X85252437Y-60632876D01*
X85088020Y-60782761D01*
X84953943Y-60960308D01*
X84953938Y-60960316D01*
X84854775Y-61159461D01*
X84854769Y-61159476D01*
X84793885Y-61373462D01*
X84793884Y-61373464D01*
X84773357Y-61594999D01*
X84773357Y-61595000D01*
X73138538Y-61595000D01*
X73225910Y-61488538D01*
X73287418Y-61373464D01*
X73318811Y-61314733D01*
X73318811Y-61314732D01*
X73318814Y-61314727D01*
X73376024Y-61126132D01*
X73395341Y-60930000D01*
X73376024Y-60733868D01*
X73318814Y-60545273D01*
X73318811Y-60545269D01*
X73318811Y-60545266D01*
X73225913Y-60371467D01*
X73225909Y-60371460D01*
X73100883Y-60219116D01*
X72948539Y-60094090D01*
X72948532Y-60094086D01*
X72774733Y-60001188D01*
X72774727Y-60001186D01*
X72586132Y-59943976D01*
X72586129Y-59943975D01*
X72390000Y-59924659D01*
X72193870Y-59943975D01*
X72005266Y-60001188D01*
X71831467Y-60094086D01*
X71831460Y-60094090D01*
X71679116Y-60219116D01*
X71554090Y-60371460D01*
X71554086Y-60371467D01*
X71461188Y-60545266D01*
X71403975Y-60733870D01*
X71384659Y-60930000D01*
X57150500Y-60930000D01*
X57150500Y-58390000D01*
X71384659Y-58390000D01*
X71403975Y-58586129D01*
X71461188Y-58774733D01*
X71554086Y-58948532D01*
X71554090Y-58948539D01*
X71679116Y-59100883D01*
X71831460Y-59225909D01*
X71831467Y-59225913D01*
X72005266Y-59318811D01*
X72005269Y-59318811D01*
X72005273Y-59318814D01*
X72193868Y-59376024D01*
X72390000Y-59395341D01*
X72586132Y-59376024D01*
X72774727Y-59318814D01*
X72776488Y-59317873D01*
X72861632Y-59272362D01*
X72948538Y-59225910D01*
X73100883Y-59100883D01*
X73138538Y-59055000D01*
X74459785Y-59055000D01*
X74478602Y-59258082D01*
X74534417Y-59454247D01*
X74534422Y-59454260D01*
X74625327Y-59636821D01*
X74748237Y-59799581D01*
X74898958Y-59936980D01*
X74898960Y-59936982D01*
X74910256Y-59943976D01*
X75072363Y-60044348D01*
X75262544Y-60118024D01*
X75463024Y-60155500D01*
X75463026Y-60155500D01*
X75666974Y-60155500D01*
X75666976Y-60155500D01*
X75867456Y-60118024D01*
X76054374Y-60045611D01*
X76123996Y-60039750D01*
X76173478Y-60061972D01*
X76222668Y-60098795D01*
X76222671Y-60098797D01*
X76357517Y-60149091D01*
X76357516Y-60149091D01*
X76364444Y-60149835D01*
X76417127Y-60155500D01*
X77712872Y-60155499D01*
X77772483Y-60149091D01*
X77907331Y-60098796D01*
X78022546Y-60012546D01*
X78108796Y-59897331D01*
X78125379Y-59852870D01*
X81299500Y-59852870D01*
X81299501Y-59852876D01*
X81305908Y-59912483D01*
X81356202Y-60047328D01*
X81356206Y-60047335D01*
X81442452Y-60162544D01*
X81442455Y-60162547D01*
X81557664Y-60248793D01*
X81557671Y-60248797D01*
X81692517Y-60299091D01*
X81692516Y-60299091D01*
X81699444Y-60299835D01*
X81752127Y-60305500D01*
X83347872Y-60305499D01*
X83407483Y-60299091D01*
X83542331Y-60248796D01*
X83657546Y-60162546D01*
X83743796Y-60047331D01*
X83794091Y-59912483D01*
X83800500Y-59852873D01*
X83800500Y-59055002D01*
X88914723Y-59055002D01*
X88933793Y-59272975D01*
X88933793Y-59272979D01*
X88990422Y-59484322D01*
X88990424Y-59484326D01*
X88990425Y-59484330D01*
X89003480Y-59512326D01*
X89082897Y-59682638D01*
X89082898Y-59682639D01*
X89208402Y-59861877D01*
X89363123Y-60016598D01*
X89542361Y-60142102D01*
X89740670Y-60234575D01*
X89952023Y-60291207D01*
X90134926Y-60307208D01*
X90169998Y-60310277D01*
X90170000Y-60310277D01*
X90170002Y-60310277D01*
X90198254Y-60307805D01*
X90387977Y-60291207D01*
X90599330Y-60234575D01*
X90797639Y-60142102D01*
X90976877Y-60016598D01*
X91131598Y-59861877D01*
X91257102Y-59682639D01*
X91349575Y-59484330D01*
X91394178Y-59317870D01*
X93264500Y-59317870D01*
X93264501Y-59317876D01*
X93270908Y-59377483D01*
X93321202Y-59512328D01*
X93321206Y-59512335D01*
X93407452Y-59627544D01*
X93407455Y-59627547D01*
X93522664Y-59713793D01*
X93522671Y-59713797D01*
X93657517Y-59764091D01*
X93657516Y-59764091D01*
X93664444Y-59764835D01*
X93717127Y-59770500D01*
X95512872Y-59770499D01*
X95572483Y-59764091D01*
X95707331Y-59713796D01*
X95822546Y-59627546D01*
X95908796Y-59512331D01*
X95958002Y-59380401D01*
X95999872Y-59324468D01*
X96065337Y-59300050D01*
X96133610Y-59314901D01*
X96161865Y-59336053D01*
X96283917Y-59458105D01*
X96477421Y-59593600D01*
X96691507Y-59693429D01*
X96691516Y-59693433D01*
X96905000Y-59750634D01*
X96905000Y-58855501D01*
X97012685Y-58904680D01*
X97119237Y-58920000D01*
X97190763Y-58920000D01*
X97297315Y-58904680D01*
X97405000Y-58855501D01*
X97405000Y-59750633D01*
X97618483Y-59693433D01*
X97618492Y-59693429D01*
X97832578Y-59593600D01*
X98026082Y-59458105D01*
X98193105Y-59291082D01*
X98328600Y-59097578D01*
X98428429Y-58883492D01*
X98428432Y-58883486D01*
X98485636Y-58670000D01*
X97588686Y-58670000D01*
X97614493Y-58629844D01*
X97655000Y-58491889D01*
X97655000Y-58348111D01*
X97614493Y-58210156D01*
X97588686Y-58170000D01*
X98485636Y-58170000D01*
X98485635Y-58169999D01*
X98428432Y-57956513D01*
X98428429Y-57956507D01*
X98328600Y-57742422D01*
X98328599Y-57742420D01*
X98193113Y-57548926D01*
X98193108Y-57548920D01*
X98026082Y-57381894D01*
X97832578Y-57246399D01*
X97618492Y-57146570D01*
X97618486Y-57146567D01*
X97405000Y-57089364D01*
X97405000Y-57984498D01*
X97297315Y-57935320D01*
X97190763Y-57920000D01*
X97119237Y-57920000D01*
X97012685Y-57935320D01*
X96905000Y-57984498D01*
X96905000Y-57089364D01*
X96904999Y-57089364D01*
X96691513Y-57146567D01*
X96691507Y-57146570D01*
X96477422Y-57246399D01*
X96477420Y-57246400D01*
X96283926Y-57381886D01*
X96161865Y-57503947D01*
X96100542Y-57537431D01*
X96030850Y-57532447D01*
X95974917Y-57490575D01*
X95958002Y-57459598D01*
X95908797Y-57327671D01*
X95908793Y-57327664D01*
X95822547Y-57212455D01*
X95822544Y-57212452D01*
X95707335Y-57126206D01*
X95707328Y-57126202D01*
X95572482Y-57075908D01*
X95572483Y-57075908D01*
X95512883Y-57069501D01*
X95512881Y-57069500D01*
X95512873Y-57069500D01*
X95512864Y-57069500D01*
X93717129Y-57069500D01*
X93717123Y-57069501D01*
X93657516Y-57075908D01*
X93522671Y-57126202D01*
X93522664Y-57126206D01*
X93407455Y-57212452D01*
X93407452Y-57212455D01*
X93321206Y-57327664D01*
X93321202Y-57327671D01*
X93270908Y-57462517D01*
X93264501Y-57522116D01*
X93264500Y-57522135D01*
X93264500Y-59317870D01*
X91394178Y-59317870D01*
X91406207Y-59272977D01*
X91425277Y-59055000D01*
X91406207Y-58837023D01*
X91361453Y-58670000D01*
X91349577Y-58625677D01*
X91349576Y-58625676D01*
X91349575Y-58625670D01*
X91257102Y-58427362D01*
X91257100Y-58427359D01*
X91257099Y-58427357D01*
X91131599Y-58248124D01*
X91056492Y-58173017D01*
X90976877Y-58093402D01*
X90797639Y-57967898D01*
X90797640Y-57967898D01*
X90797638Y-57967897D01*
X90694921Y-57920000D01*
X90599330Y-57875425D01*
X90599326Y-57875424D01*
X90599322Y-57875422D01*
X90387977Y-57818793D01*
X90170002Y-57799723D01*
X90169998Y-57799723D01*
X90042151Y-57810908D01*
X89952023Y-57818793D01*
X89952020Y-57818793D01*
X89740677Y-57875422D01*
X89740668Y-57875426D01*
X89542361Y-57967898D01*
X89542357Y-57967900D01*
X89363121Y-58093402D01*
X89208402Y-58248121D01*
X89082900Y-58427357D01*
X89082898Y-58427361D01*
X88990426Y-58625668D01*
X88990422Y-58625677D01*
X88933793Y-58837020D01*
X88933793Y-58837024D01*
X88914723Y-59054997D01*
X88914723Y-59055002D01*
X83800500Y-59055002D01*
X83800499Y-58257128D01*
X83794091Y-58197517D01*
X83783827Y-58169999D01*
X83743797Y-58062671D01*
X83743793Y-58062664D01*
X83657547Y-57947455D01*
X83657544Y-57947452D01*
X83542335Y-57861206D01*
X83542328Y-57861202D01*
X83407482Y-57810908D01*
X83407483Y-57810908D01*
X83347883Y-57804501D01*
X83347881Y-57804500D01*
X83347873Y-57804500D01*
X83347864Y-57804500D01*
X81752129Y-57804500D01*
X81752123Y-57804501D01*
X81692516Y-57810908D01*
X81557671Y-57861202D01*
X81557664Y-57861206D01*
X81442455Y-57947452D01*
X81442452Y-57947455D01*
X81356206Y-58062664D01*
X81356202Y-58062671D01*
X81305908Y-58197517D01*
X81300468Y-58248121D01*
X81299501Y-58257123D01*
X81299500Y-58257135D01*
X81299500Y-59852870D01*
X78125379Y-59852870D01*
X78159091Y-59762483D01*
X78165500Y-59702873D01*
X78165499Y-58407128D01*
X78159091Y-58347517D01*
X78125378Y-58257129D01*
X78108797Y-58212671D01*
X78108793Y-58212664D01*
X78022547Y-58097455D01*
X78022544Y-58097452D01*
X77907335Y-58011206D01*
X77907328Y-58011202D01*
X77772482Y-57960908D01*
X77772483Y-57960908D01*
X77712883Y-57954501D01*
X77712881Y-57954500D01*
X77712873Y-57954500D01*
X77712864Y-57954500D01*
X76417129Y-57954500D01*
X76417123Y-57954501D01*
X76357516Y-57960908D01*
X76222671Y-58011202D01*
X76222665Y-58011205D01*
X76173476Y-58048028D01*
X76108012Y-58072444D01*
X76054374Y-58064387D01*
X75867460Y-57991977D01*
X75867457Y-57991976D01*
X75867456Y-57991976D01*
X75666976Y-57954500D01*
X75463024Y-57954500D01*
X75262544Y-57991976D01*
X75262541Y-57991976D01*
X75262541Y-57991977D01*
X75072364Y-58065651D01*
X75072357Y-58065655D01*
X74898960Y-58173017D01*
X74898958Y-58173019D01*
X74748237Y-58310418D01*
X74625327Y-58473178D01*
X74534422Y-58655739D01*
X74534417Y-58655752D01*
X74478602Y-58851917D01*
X74459785Y-59054999D01*
X74459785Y-59055000D01*
X73138538Y-59055000D01*
X73225910Y-58948538D01*
X73318814Y-58774727D01*
X73376024Y-58586132D01*
X73395341Y-58390000D01*
X73376024Y-58193868D01*
X73318814Y-58005273D01*
X73318811Y-58005269D01*
X73318811Y-58005266D01*
X73225913Y-57831467D01*
X73225909Y-57831460D01*
X73100883Y-57679116D01*
X72948539Y-57554090D01*
X72948532Y-57554086D01*
X72774733Y-57461188D01*
X72774727Y-57461186D01*
X72586132Y-57403976D01*
X72586129Y-57403975D01*
X72390000Y-57384659D01*
X72193870Y-57403975D01*
X72005266Y-57461188D01*
X71831467Y-57554086D01*
X71831460Y-57554090D01*
X71679116Y-57679116D01*
X71554090Y-57831460D01*
X71554086Y-57831467D01*
X71461188Y-58005266D01*
X71403975Y-58193870D01*
X71384659Y-58390000D01*
X57150500Y-58390000D01*
X57150500Y-56639500D01*
X57170185Y-56572461D01*
X57222989Y-56526706D01*
X57274500Y-56515500D01*
X98935500Y-56515500D01*
X99002539Y-56535185D01*
G37*
%TD.AperFunction*%
%TD*%
D23*
X62865000Y-91440000D03*
X82550000Y-59055000D03*
X90170000Y-59055000D03*
X71755000Y-73660000D03*
X69255000Y-73660000D03*
X72390000Y-58390000D03*
X72390000Y-60930000D03*
X66675000Y-76200000D03*
X66675000Y-78740000D03*
X66675000Y-81280000D03*
X66675000Y-83820000D03*
X66675000Y-86360000D03*
X66675000Y-88900000D03*
X66675000Y-91440000D03*
X66675000Y-93980000D03*
X66675000Y-96520000D03*
X66675000Y-99060000D03*
X74295000Y-99060000D03*
X74295000Y-96520000D03*
X74295000Y-93980000D03*
X74295000Y-91440000D03*
X74295000Y-88900000D03*
X74295000Y-86360000D03*
X74295000Y-83820000D03*
X74295000Y-81280000D03*
X74295000Y-78740000D03*
X74295000Y-76200000D03*
X62160000Y-73655000D03*
X62160000Y-71115000D03*
X62160000Y-68575000D03*
X62160000Y-66035000D03*
X62160000Y-63495000D03*
X81910000Y-64780000D03*
X81910000Y-67320000D03*
X81910000Y-69860000D03*
X81910000Y-72400000D03*
X81910000Y-74940000D03*
X81910000Y-77480000D03*
X81910000Y-80020000D03*
X81910000Y-82560000D03*
X81910000Y-85100000D03*
X81910000Y-87640000D03*
X81910000Y-90180000D03*
X81910000Y-92720000D03*
X81910000Y-95260000D03*
X81910000Y-97800000D03*
X97150000Y-97800000D03*
X97150000Y-95260000D03*
X97150000Y-92720000D03*
X97150000Y-90180000D03*
X97150000Y-87640000D03*
X97150000Y-85100000D03*
X97150000Y-82560000D03*
X97150000Y-80020000D03*
X97150000Y-77480000D03*
X97150000Y-74940000D03*
X97150000Y-72400000D03*
X97150000Y-69860000D03*
X97150000Y-67320000D03*
X97150000Y-64780000D03*
X84455000Y-69850000D03*
X84455000Y-72390000D03*
X84455000Y-74930000D03*
X84455000Y-77470000D03*
X84455000Y-80010000D03*
X84455000Y-82550000D03*
X84455000Y-85090000D03*
X84455000Y-87630000D03*
X92075000Y-87630000D03*
X92075000Y-85090000D03*
X92075000Y-82550000D03*
X92075000Y-80010000D03*
X92075000Y-77470000D03*
X92075000Y-74930000D03*
X92075000Y-72390000D03*
X92075000Y-69850000D03*
X94615000Y-58420000D03*
X97155000Y-58420000D03*
X66685000Y-63510000D03*
X66685000Y-66050000D03*
X66685000Y-68590000D03*
X66685000Y-71130000D03*
X74305000Y-71130000D03*
X74305000Y-68590000D03*
X74305000Y-66050000D03*
X74305000Y-63510000D03*
X79375000Y-64770000D03*
X79375000Y-67310000D03*
X79375000Y-69850000D03*
X79375000Y-72390000D03*
X79375000Y-74930000D03*
X79375000Y-77470000D03*
X79375000Y-80010000D03*
X79375000Y-82550000D03*
X79375000Y-85090000D03*
X79375000Y-87630000D03*
X79375000Y-90170000D03*
X79375000Y-92710000D03*
X79375000Y-95250000D03*
X79375000Y-97790000D03*
X94615000Y-97790000D03*
X94615000Y-95250000D03*
X94615000Y-92710000D03*
X94615000Y-90170000D03*
X94615000Y-87630000D03*
X94615000Y-85090000D03*
X94615000Y-82550000D03*
X94615000Y-80010000D03*
X94615000Y-77470000D03*
X94615000Y-74930000D03*
X94615000Y-72390000D03*
X94615000Y-69850000D03*
X94615000Y-67310000D03*
X94615000Y-64770000D03*
X59690000Y-94996000D03*
X59690000Y-83820000D03*
X89515000Y-90170000D03*
X87015000Y-90170000D03*
X62865000Y-94996000D03*
X62865000Y-83820000D03*
X77065000Y-59055000D03*
X75565000Y-59055000D03*
X85979000Y-61595000D03*
X97155000Y-61595000D03*
M02*
