%TF.GenerationSoftware,KiCad,Pcbnew,8.0.8+1*%
%TF.CreationDate,2025-02-23T13:51:29+01:00*%
%TF.ProjectId,QL_Minerva_MK2,514c5f4d-696e-4657-9276-615f4d4b322e,0.0*%
%TF.SameCoordinates,Original*%
%TF.FileFunction,Legend,Bot*%
%TF.FilePolarity,Positive*%
%FSLAX46Y46*%
G04 Gerber Fmt 4.6, Leading zero omitted, Abs format (unit mm)*
G04 Created by KiCad (PCBNEW 8.0.8+1) date 2025-02-23 13:51:29*
%MOMM*%
%LPD*%
G01*
G04 APERTURE LIST*
%ADD10C,0.150000*%
%ADD11C,0.120000*%
%ADD12C,0.350000*%
G04 APERTURE END LIST*
D10*
X64119819Y-88036666D02*
X64834104Y-88036666D01*
X64834104Y-88036666D02*
X64976961Y-87989047D01*
X64976961Y-87989047D02*
X65072200Y-87893809D01*
X65072200Y-87893809D02*
X65119819Y-87750952D01*
X65119819Y-87750952D02*
X65119819Y-87655714D01*
X65119819Y-88512857D02*
X64119819Y-88512857D01*
X64119819Y-88512857D02*
X64119819Y-88893809D01*
X64119819Y-88893809D02*
X64167438Y-88989047D01*
X64167438Y-88989047D02*
X64215057Y-89036666D01*
X64215057Y-89036666D02*
X64310295Y-89084285D01*
X64310295Y-89084285D02*
X64453152Y-89084285D01*
X64453152Y-89084285D02*
X64548390Y-89036666D01*
X64548390Y-89036666D02*
X64596009Y-88989047D01*
X64596009Y-88989047D02*
X64643628Y-88893809D01*
X64643628Y-88893809D02*
X64643628Y-88512857D01*
X65119819Y-90036666D02*
X65119819Y-89465238D01*
X65119819Y-89750952D02*
X64119819Y-89750952D01*
X64119819Y-89750952D02*
X64262676Y-89655714D01*
X64262676Y-89655714D02*
X64357914Y-89560476D01*
X64357914Y-89560476D02*
X64405533Y-89465238D01*
D11*
%TO.C,JP1*%
X62565000Y-90920000D02*
X63165000Y-90920000D01*
X61365000Y-90370000D02*
X61365000Y-89770000D01*
X63865000Y-90270000D02*
X63865000Y-87470000D01*
X61665000Y-90070000D02*
X61365000Y-90370000D01*
X61665000Y-90070000D02*
X61365000Y-89770000D01*
X61865000Y-87470000D02*
X61865000Y-90270000D01*
X63165000Y-86820000D02*
X62565000Y-86820000D01*
X62565000Y-90920000D02*
G75*
G02*
X61865000Y-90220000I-1J699999D01*
G01*
X63865000Y-90220000D02*
G75*
G02*
X63165000Y-90920000I-699999J-1D01*
G01*
X61865000Y-87520000D02*
G75*
G02*
X62565000Y-86820000I700000J0D01*
G01*
X63165000Y-86820000D02*
G75*
G02*
X63865000Y-87520000I0J-700000D01*
G01*
%TD*%
D12*
X82550000Y-59055000D03*
X90170000Y-59055000D03*
X71755000Y-73660000D03*
X69255000Y-73660000D03*
X72390000Y-58390000D03*
X72390000Y-60930000D03*
X66675000Y-76200000D03*
X66675000Y-78740000D03*
X66675000Y-81280000D03*
X66675000Y-83820000D03*
X66675000Y-86360000D03*
X66675000Y-88900000D03*
X66675000Y-91440000D03*
X66675000Y-93980000D03*
X66675000Y-96520000D03*
X66675000Y-99060000D03*
X74295000Y-99060000D03*
X74295000Y-96520000D03*
X74295000Y-93980000D03*
X74295000Y-91440000D03*
X74295000Y-88900000D03*
X74295000Y-86360000D03*
X74295000Y-83820000D03*
X74295000Y-81280000D03*
X74295000Y-78740000D03*
X74295000Y-76200000D03*
X62160000Y-73655000D03*
X62160000Y-71115000D03*
X62160000Y-68575000D03*
X62160000Y-66035000D03*
X62160000Y-63495000D03*
X81910000Y-64780000D03*
X81910000Y-67320000D03*
X81910000Y-69860000D03*
X81910000Y-72400000D03*
X81910000Y-74940000D03*
X81910000Y-77480000D03*
X81910000Y-80020000D03*
X81910000Y-82560000D03*
X81910000Y-85100000D03*
X81910000Y-87640000D03*
X81910000Y-90180000D03*
X81910000Y-92720000D03*
X81910000Y-95260000D03*
X81910000Y-97800000D03*
X97150000Y-97800000D03*
X97150000Y-95260000D03*
X97150000Y-92720000D03*
X97150000Y-90180000D03*
X97150000Y-87640000D03*
X97150000Y-85100000D03*
X97150000Y-82560000D03*
X97150000Y-80020000D03*
X97150000Y-77480000D03*
X97150000Y-74940000D03*
X97150000Y-72400000D03*
X97150000Y-69860000D03*
X97150000Y-67320000D03*
X97150000Y-64780000D03*
X84455000Y-69850000D03*
X84455000Y-72390000D03*
X84455000Y-74930000D03*
X84455000Y-77470000D03*
X84455000Y-80010000D03*
X84455000Y-82550000D03*
X84455000Y-85090000D03*
X84455000Y-87630000D03*
X92075000Y-87630000D03*
X92075000Y-85090000D03*
X92075000Y-82550000D03*
X92075000Y-80010000D03*
X92075000Y-77470000D03*
X92075000Y-74930000D03*
X92075000Y-72390000D03*
X92075000Y-69850000D03*
X94615000Y-58420000D03*
X97155000Y-58420000D03*
X66685000Y-63510000D03*
X66685000Y-66050000D03*
X66685000Y-68590000D03*
X66685000Y-71130000D03*
X74305000Y-71130000D03*
X74305000Y-68590000D03*
X74305000Y-66050000D03*
X74305000Y-63510000D03*
X79375000Y-64770000D03*
X79375000Y-67310000D03*
X79375000Y-69850000D03*
X79375000Y-72390000D03*
X79375000Y-74930000D03*
X79375000Y-77470000D03*
X79375000Y-80010000D03*
X79375000Y-82550000D03*
X79375000Y-85090000D03*
X79375000Y-87630000D03*
X79375000Y-90170000D03*
X79375000Y-92710000D03*
X79375000Y-95250000D03*
X79375000Y-97790000D03*
X94615000Y-97790000D03*
X94615000Y-95250000D03*
X94615000Y-92710000D03*
X94615000Y-90170000D03*
X94615000Y-87630000D03*
X94615000Y-85090000D03*
X94615000Y-82550000D03*
X94615000Y-80010000D03*
X94615000Y-77470000D03*
X94615000Y-74930000D03*
X94615000Y-72390000D03*
X94615000Y-69850000D03*
X94615000Y-67310000D03*
X94615000Y-64770000D03*
X59690000Y-94996000D03*
X59690000Y-83820000D03*
X89515000Y-90170000D03*
X87015000Y-90170000D03*
X62865000Y-94996000D03*
X62865000Y-83820000D03*
X77065000Y-59055000D03*
X75565000Y-59055000D03*
X85979000Y-61595000D03*
X97155000Y-61595000D03*
M02*
