M48
METRIC,TZ
T1C0.400
T2C0.500
T3C0.600
T4C0.700
T5C0.800
T6C1.000
%
G90
G05
T1
X62865Y-91440
T2
X72390Y-58390
X72390Y-60930
T3
X75565Y-59055
X77065Y-59055
T4
X59690Y-83820
X59690Y-94996
X62865Y-83820
X62865Y-94996
X85979Y-61595
X97155Y-61595
T5
X66675Y-76200
X66675Y-78740
X66675Y-81280
X66675Y-83820
X66675Y-86360
X66675Y-88900
X66675Y-91440
X66675Y-93980
X66675Y-96520
X66675Y-99060
X66685Y-63510
X66685Y-66050
X66685Y-68590
X66685Y-71130
X69255Y-73660
X71755Y-73660
X74295Y-76200
X74295Y-78740
X74295Y-81280
X74295Y-83820
X74295Y-86360
X74295Y-88900
X74295Y-91440
X74295Y-93980
X74295Y-96520
X74295Y-99060
X74305Y-63510
X74305Y-66050
X74305Y-68590
X74305Y-71130
X79375Y-64770
X79375Y-67310
X79375Y-69850
X79375Y-72390
X79375Y-74930
X79375Y-77470
X79375Y-80010
X79375Y-82550
X79375Y-85090
X79375Y-87630
X79375Y-90170
X79375Y-92710
X79375Y-95250
X79375Y-97790
X81910Y-64780
X81910Y-67320
X81910Y-69860
X81910Y-72400
X81910Y-74940
X81910Y-77480
X81910Y-80020
X81910Y-82560
X81910Y-85100
X81910Y-87640
X81910Y-90180
X81910Y-92720
X81910Y-95260
X81910Y-97800
X82550Y-59055
X84455Y-69850
X84455Y-72390
X84455Y-74930
X84455Y-77470
X84455Y-80010
X84455Y-82550
X84455Y-85090
X84455Y-87630
X87015Y-90170
X89515Y-90170
X90170Y-59055
X92075Y-69850
X92075Y-72390
X92075Y-74930
X92075Y-77470
X92075Y-80010
X92075Y-82550
X92075Y-85090
X92075Y-87630
X94615Y-64770
X94615Y-67310
X94615Y-69850
X94615Y-72390
X94615Y-74930
X94615Y-77470
X94615Y-80010
X94615Y-82550
X94615Y-85090
X94615Y-87630
X94615Y-90170
X94615Y-92710
X94615Y-95250
X94615Y-97790
X97150Y-64780
X97150Y-67320
X97150Y-69860
X97150Y-72400
X97150Y-74940
X97150Y-77480
X97150Y-80020
X97150Y-82560
X97150Y-85100
X97150Y-87640
X97150Y-90180
X97150Y-92720
X97150Y-95260
X97150Y-97800
T6
X62160Y-63495
X62160Y-66035
X62160Y-68575
X62160Y-71115
X62160Y-73655
X94615Y-58420
X97155Y-58420
M30
